<?xml version="1.0" encoding="UTF-8"?>
<svg version="1.1" viewBox="0 0 1915 826" width="1280" height="1280" xmlns="http://www.w3.org/2000/svg">
<path transform="translate(0)" d="m0 0h1915v826h-1915z" fill="#F8F8F8"/>
<path transform="translate(1588,230)" d="m0 0h305v290l-104 1-4 4-1 5-8-6-12-6-8-2h-13l-11 3-10 5-9 8-7 12-4 13v18l4 11 7 10 8 7 12 6 4 1h18l15-5 9-5v11l-3 43-2 91v27l119 1v53h-311v-590l3-5z" fill="#B29875"/>
<path transform="translate(405,520)" d="m0 0h33l26 2 12 3 2 2v12l-2 12-1 17 21 1h41l29-1h33l6 2 6 4v2l6 1 2 3 5 2 2 2 16 1 4 4 2 4 4 25 5 20-3 4-17 2h-5v44l3 5-1 6-1 2h-3l1 22 10 2 3 2 12 2v2l-25 4-2 1-11 1-1 1h-6v2l-8 2-17 3-13 3-15 2-24 5 2 2-8 1-4-1-11 2h-8l-20 4-18 3-16 3h-2l1 20 1 1 16-2 47-10 9-1v-2l14-3 15-2 47-10 9-1v-2l5-1h7v5l14 3 3 3-5 2-27 6-105 25-43 10-12 2h-18l-17-4-43-13-39-12-8-4 1-2 9-3v-12l-19-5-3-1-1-25-2-74-1-70 1-1 47-1 1-1 8-1h17v-2h-21l-1 2h-8v-2l-5-1-3-3-4-13-3-18v-15l2-2 18-4 24-2 2-1z" fill="#717378"/>
<path transform="translate(1177,552)" d="m0 0 5 1h10l9-1 2 1v2l4-2 16 2 19 1 3 1 4-1 2 2-1 9-9 25-1 10-1 2 16 2 5 2v2h7l7 12 3 5 4 13 1 80 3 67v14h-2v2h3l-1 16-1 5-7 2h-148l-1-18-1-1-1-14-1-44 1-33 1-18 1-6 2-1 1-10 7-33 4-17 3-3 17-5 6-2v-8l3-7h2v-8-2l-8-19-7-18 5-3 3-2h9z" fill="#2D2B2E"/>
<path transform="translate(375,529)" d="m0 0h24l2 36 1 9h8l-4 2-10 3h-10l-4-1-3 1 4 5 27 1 2 1 1 38v159l-4 1-34-9-5-1h-18l-3-6-17-4v17l9 3 17 4 35 10 15 4v2l10 3h17l16-2 168-40v-2-6l-11 1v-1l5-1h7v5l14 3 3 3-5 2-27 6-105 25-43 10-12 2h-18l-17-4-43-13-39-12-8-4 1-2 9-3v-12l-19-5-3-1-1-25-2-74-1-70 1-1 47-1 1-1 8-1h17v-2h-21l-1 2h-8v-2l7 1-1-4h7l4 1-3-28v-20l2-1z" fill="#D89E79"/>
<path transform="translate(405,520)" d="m0 0h33l26 2 12 3 2 2v12l-2 12-1 17 21 1h41l29-1h33l6 2 6 4v2l6 1 5 5 1 4 20 1 3 9-1 4-2-1h-15l-1 2-8-1-1 3-4-1-1-3-5-1 1 7-5-1-1-6-3 1v7l-2 4h-2l3 20 2 15 3 1 1 31 6 9 2 4h2l-4-7-1-3 8-1 7 9-2 3-9 3h-3l1 4 8 3-2 1v3h-2v2l-7-1-10-5-6 1-7 1v-23l2-4 1-21v-13l-6-1-21 1-11-1v-9l2-7 5-30 3-8h2l2-5 6-3 3-3h2v-4l-31 2 2 4 5 3 4 3v3h-9l-2-2v-3l-5-3v-2l-5-2-6-1v2l-9 6-2 1-1 3-4 1 6 36 1 11-2 3-7-11-12 1-4-1-3 1-2 3h-2v-2h-9l-1 4-5-1-6-1-2 5-5 1-1-1v-5h-6l-1 2 1 5h-2l-2 10-2 1-4-13-7-37-1-11h-3l3 20 6 36v7l-11 1-4 8 1 4-3-1-1-5 3-5-5-1-1-13-1-3-1 24v104l-1 1 1 20 9 3h7l-1-2 1-14 12-3 2 1v23l42-9 30-6h3v-2l14-3 15-2 47-10 15-3h5l1 6 2 2-36 9-101 24-39 9-11 1h-17l-8-3-2-1v-2l-11-2-51-14-12-3-3-2 1-17 9 1 9 3 2 6 5-1h13l31 8 11 2v-197l-29-1-4-4v-2l5-2 2 1h10l10-3-4-1-2-9-1-16v-20l-24 1-13 1 2 31 1 17h-10v3l-10-1-4-2-4-11-4-22v-15l2-2 18-4 24-2 2-1z" fill="#080808"/>
<path transform="translate(1177,552)" d="m0 0 5 1h10l9-1 2 1v2l4-2 16 2 19 1 3 1 4-1 2 2-1 9-9 25-1 10-1 2h-2l2-7h-38l-5 2v2l2 1-1 2h32l-1 4v-3h-4l-1 3v-3h-5v3l3 1-2 2h-4v-3h2v-3h-9v3h-4v-2h-3l1 5-2 5 24-3h6l-4 3-11 6-3-1-12 3h-10l-9-6 1-12-1 3h-3v-2l-2 1-2 2h-3l-2 8 6 2 3 3v2l16 1 10 1-2 1-9 45-3 19 1 2-2 14-3 35v12l2 2 3 8 1 10v38l-2 2-24-1-22-2-13-2-1 1 20 2 32 3 2 4 6 5v1h-61l-1-18-1-1-1-14-1-44 1-33 1-18 1-6 2-1 1-10 7-33 4-17 3-3 17-5 6-2v-8l3-7h2v-8-2l-8-19-7-18 5-3 3-2h9z" fill="#696870"/>
<path transform="translate(621,581)" d="m0 0 4 2 1 1 16 1 4 4 2 4 4 25 5 20-3 4-17 2h-5v44l3 5-1 6-1 2h-3l1 22 10 2 3 2 12 2v2l-25 4-2 1-11 1-1 1h-6v2l-8 2-17 3-13 3-15 2-24 5 2 2-8 1-4-1-11 2h-8l-20 4-18 3-16 3h-2l1 20 1 1h6l-4 2h-5v-23h-5l-3 2-5 1-1 13 1 3h-8l-9-3-1-1-1-21h2l-1-52v-52l1-26 2 2 1 3v13h6l-3 6 1 5v-3l3-5 2-3 3-1h8l-8-49-1-5v-9h3l8 43 4 15 1 2 3-10h2l-2-6 2-2 6 1 1 5h5l1-5 4-1 8 3 1-5h7l2 1v2l4-4 4-1 3 1-1 7 3 2h5l1-4v-4h4l2 7 3 5v4h-2l-1 4 3 3-10 1v2h-18l-1 53-4-2-6-9-14 1-2-2-1-16v-22l-15-1v13l-1 24-7 10-2 3-6 1v7l6 4v5l1 1h7l6-2h7l2 2v7l-10 3v2l16-1 9-2-1-5 4-5h11l3 2v4h-2v10l-3 3-34 6-24 4h-5v10l-1 2 4-3 39-7 28-5 32-6h7l2 5 3 1v-4h-2v-8h3v4l21-4 18-3h4l1 6h3l-1-4-1-1v-6l1-2h3l1 6 13-1 12-2 2-1 22-1-7-2-1-17-4-2h-3l-2 3h-2l1-7-7-4v-4l12-4v-3l-5-7h-8l5 7v3h-2l-8-11-1-2-1-31-3-3-4-24v-9h2l1-9 1-3h3l2 6 4 1-1-7 3-1 3 2 1 3 3 1 1-4 6 1 2 1 1-3h15l2 1-2-12h-20l-2-2h2z" fill="#727379"/>
<path transform="translate(476,526)" d="m0 0 2 1v12l-2 12-1 17 21 1h41l29-1h33l6 2 6 4v2l6 1 5 5 1 4 20 1 3 9-1 4-2-1h-15l-1 2-8-1-1 3-4-1-1-3-5-1 1 7-5-1-1-6-3 1v7l-2 4h-2l3 20 2 15 3 1 1 31 6 9 2 4h2l-4-7-1-3 8-1 7 9-2 3-9 3h-3l1 4 8 3-2 1v3h-2v2l-7-1-10-5-6 1-7 1v-23l2-4 1-21v-13l-6-1-21 1-11-1v-9l2-7 5-30 3-8h2l2-5 6-3 3-3h2v-4l-31 2 2 4 5 3 4 3v3h-9l-2-2v-3l-5-3v-2l-5-2-6-1v2l-9 6-2 1-1 3-4 1 6 36 1 11-2 3-7-11-12 1-4-1-3 1-2 3h-2v-2h-9l-1 4-5-1-6-1-2 5-5 1-1-1v-5h-6l-1 2 1 5h-2l-2 10-2 1-4-13-7-37-1-11h-3l3 20 2 12v6l-2-4-5-30 1-5 5-3 18-1 9-2h7 2l-2-6 3-2-1-10-5 6-6 2h-7l1-7h-13l-19-2 1-13 1-9 1-1 10 1 25 3 15 1z" fill="#2D2B2E"/>
<path transform="translate(375,529)" d="m0 0h24l2 36 1 9h8l-4 2-10 3h-10l-4-1-3 1 4 5 27 1 2 1 1 38v159l-4 1-34-9-5-1h-18l-3-6-17-4v17l9 3 17 4 35 10 15 4v2l10 3h17l16-2 168-40v-2-6l-11 1v-1l5-1h7v5l14 3 3 3-5 2-27 6-105 25-43 10-12 2h-18l-17-4-43-13-39-12-8-4 1-2 9-3 1-11 2-1 17 4 2 1v2l12 1v-3l8-4 8-3 10-8 5-5 5-8 4-15 3-7v-38l-5-10-4-3-4-2-3-8-2-9-4-12-1-10-3-9-2-9v-19l-27-2 1-2 8-1h17v-2h-21l-1 2h-8v-2l7 1-1-4h7l4 1-3-28v-20l2-1z" fill="#BD8969"/>
<path transform="translate(1166,693)" d="m0 0h25l-2 15-3 35v12l2 2 3 8 1 10v38l-2 2-24-1-22-2-13-2-1 1 20 2 32 3 2 4 6 5v1h-61l-1-16 2-3h2l1-30 2-22 3-11v-1h19l8 1v-2h-13l-12-2-1-3v-8l7-20 2-4 5-3h7l3 2 2 8 3 6 1 7 1-7-2-4v-5h1l2-9 1-1 10 1 2 1-2-5-16-2z" fill="#6A6971"/>
<path transform="translate(1232,503)" d="m0 0 24 1 11 3 1 1v15l-3 10-3 9h-2l-1 8-5 16-3 5v3h-2v5l-3 9h-2l-1 7-1 9h-3l1-12 10-28v-6l-4-1-2 1-2-1-19-1-11-1-5-1-4 1v-2l-11 1h-10l-5-1-2 2h-9l-7 4 10 25 5 12 1 2h-2l-1 2-8-20-3-7-8-20-3-7-7-17-2-11v-7l10-4 4-1 26-2z" fill="#D7D5D6"/>
<path transform="translate(0)" d="m0 0h1915v3h-1915z" fill="#BDC9D0"/>
<path transform="translate(642,726)" d="m0 0 16 2 1 3-4 2-7 1-1 5 2 1 2-4 5 1-1 2h-2v2l5-2 1 4-2 5-2 1h-6v2l-13 2-7 2-7 1v3l17 3 10 4v3h-3l-1 2-7 1-2 1-8 1-10 3-11 2-9 2h-4l-1 2-6 1-7 2h-7l-1 2-3-1-1 2-12 2-5 2-10 2-4 1-10 1-1 2-20 4-8 2h-4l-1 2-9 2-11 2-6 2-11 2-2 1h-25l-18-5h-3v-2l-8-1-5-1v-2l-3 1-10-4-4-1-11-3-1-2-3 1-10-4-7-2-9-2v-2l-3 1-9-3-1-2-3 1-10-5v-3l8-3 3 1 1-2 6-1 1-6h1v9l-7 3-3 1 4 3 19 6 49 15 28 8 6 1h18l26-5 108-26 48-11 9-2-2-2-14-4v-5l-12 1v2l-27 6-34 7-14 2-10 1v2l-27 6-34 7-12 1-1-2v-20l9-2 19-4 24-4 4-1h10l11-2h3v-1l18-4 18-3 19-3 13-3 14-2v-2l7-2 11-1 20-4h7v-2l-12-1z" fill="#D5D4D6"/>
<path transform="translate(566,568)" d="m0 0h33l6 2 6 4v2l6 1 5 5 1 4 20 1 3 9-1 4-2-1h-15l-1 2-8-1-1 3-4-1-1-3-5-1 1 7-5-1-1-6-3 1v7l-2 4h-2l3 20 2 15 3 1 1 31 6 9 2 4h2l-4-7-1-3 8-1 7 9-2 3-9 3h-3l1 4 8 3-2 1v3h-2v2l-7-1-10-5-6 1-7 1v-23l2-4 1-21v-13l-6-1-21 1-11-1v-9l2-7 5-30 3-8h2l2-5 6-3 3-3h2v-4l-31 2 2 4 5 3 4 3v3h-9l-2-2v-3l-5-3v-2l-5-2-6-1v2l-9 6-2 1-1 3-4-1-1-1v-14z" fill="#0A0A0B"/>
<path transform="translate(583,640)" d="m0 0 7 2v13l-1 21-2 4-1 23 10-3 4 1 12 5 4 1 1-2v4l4-4 8 2 1 18 8 1-2 2-22 1-2 1-20 3h-5l-1-1v-6h-3v8l2 2-1 4-3-1-1-6-14 3-26 4-2-3 1-80h2v-5l10 2 3 2v-3l7 1-1-5 3-5-2-2z" fill="#717378"/>
<path transform="translate(410,585)" d="m0 0 4 1 1 73 1-2v-20l2-10 3 2v9l-2-3-1 24v104l-1 1 1 20 9 3h7l-1-2 1-14 12-3 2 1v23l42-9 30-6h3v-2l14-3 15-2 47-10 15-3h5l1 6 2 2-36 9-101 24-39 9-11 1h-17l-8-3-2-1v-2l-11-2-51-14-12-3-3-2 1-17 9 1 9 3 2 6 5-1h13l31 8 11 2v-197z" fill="#090909"/>
<path transform="translate(621,581)" d="m0 0 4 2 1 1 16 1 4 4 2 4 4 25 5 20-3 4-17 2h-5v44l3 5-1 6-1 2h-3l1 22 10 2 3 2 12 2v2l-25 4-2 1-11 1-1 1h-6v2l-8 2-17 3-13 3-15 2-24 5 2 2-8 1-4-1-11 2-1-2 20-4 12-3 25-4 11-2 6-2 2-5 1-2-5-1v-6h2l1 4 13-1 12-2 2-1 22-1-7-2-1-17-4-2h-3l-2 3h-2l1-7-7-4v-4l12-4v-3l-5-7h-8l5 7v3h-2l-8-11-1-2-1-31-3-3-4-24v-9h2l1-9 1-3h3l2 6 4 1-1-7 3-1 3 2 1 3 3 1 1-4 6 1 2 1 1-3h15l2 1-2-12h-20l-2-2h2z" fill="#B7C1C7"/>
<path transform="translate(1200,552)" d="m0 0 3 1v2l4-2 16 2 19 1 3 1 4-1 2 2-1 9-9 25-1 10-1 2h-2l2-7h-38l-5 2v2l2 1-1 3-4 1h-9v-9h-2v8l-7-1-1-5 6-1v-4l-2-3-1-6v-9h-3v4l-3-2-2-8v-6l1 2h4l3-3 5-1 2-4 5-2 9-1v-2z" fill="#6A6971"/>
<path transform="translate(569,642)" d="m0 0h19v18l-1 17-2 1v-5l-4-1v-3h-2v18l-3 3-1 7h2v5l2 2 1 20-2 2-32 5-1-1v-73l1-2 5 1 3 4v24l1 2 3 1 1-11-2-4-1-17h7l-1-6 12 3 4 2-2-5-2-1-9-1 1-3z" fill="#7E7E84"/>
<path transform="translate(375,529)" d="m0 0h24l2 36 1 9h8l-4 2-10 3h-10l-4-1-3 1 4 5 27 1 2 1 1 38v159l-4 1-15-4v-1l9 1 7 2-1-158-1-25 1-12h-24l-33-1 1-2 8-1h17v-2h-21l-1 2h-8v-2l7 1-1-4h7l4 1-3-28v-20l2-1z" fill="#717278"/>
<path transform="translate(506,652)" d="m0 0 3 1 1 5h-6l-2-3h-6l-3 1v53h-10v11l-8 4-2 3 1 5-5 2-13 2h-8v-4l10-2-1-7-1-1h-7l-6 2h-7l-2-4v-3l-6-4v-7l1-1h6l2-4 6-9 1-36 1-2 13 1 2 1 2 38 4 1 11-1 8 11 2 1v-51l1-2z" fill="#080808"/>
<path transform="translate(305,597)" d="m0 0 2 1v3l5-1 4 4 6 12 1 4 1 21v8l-1 11 1 12-1 16-1 45v11l3 13-1 2-10-1-6-2-1-25-2-74z" fill="#BE8A69"/>
<path transform="translate(405,520)" d="m0 0h33l26 2 12 3v18h-15l-30-4h-5l-3 22 24 1h8v1l-7 1h-10l-16-2-3-2-1 9-2 1v-7l1-2 1-10 2-7 2 2 2-8 1-1h7l5 1 14 1 3 1 20 1v-10l-43-3-5-1 1-2 5-1h22l14 2v-2h-13l-26-1-9-1-15 1v2l-10 2 6 1v17l2 28 11-1-2 4-18 5h-8l-5-2 1-2 4 1h10l10-3-4-1-2-9-1-16v-20l-24 1-13 1 2 31 1 17h-10v3l-10-1-4-2-4-11-4-22v-15l2-2 18-4 24-2 2-1z" fill="#49474B"/>
<path transform="translate(497,656)" d="m0 0h5l2 4v9l1-9h8l1 1-1 8v10l3 3h6v-24h3v2h2l1 3v17l1 52-7 2-10 1v2l-18 1v-18h-8l-2-10 11-1 1-5-1-7v-33l1-7z" fill="#7E7E84"/>
<path transform="translate(583,726)" d="m0 0h3v2h-2v6l5 1-2 5-1 2 2 1-7 1-1 1-46 8-12 3-34 6-24 5-15 2 1 20 1 1h6l-4 2h-5v-23h-5l-3 2-5 1-1 13 1 3h-8l-9-3-1-1-1-21 7-1 2-2 39-7 28-5 32-6h7l2 5 3 1v-4h-2v-8h3v4l21-4 18-3h4l1 6h3l-1-4-1-1v-6z" fill="#8E898D"/>
<path transform="translate(1842,605)" d="m0 0 14 1 13 2h20l4 2v41l-8 1v3h-8l-1-1-13-1-3-1h-5v-3l2-1 4 2 1-3 5 1 13 4h2l-1-5 3-4-1-2-8 4-5-1-9-5-8-4v-3l-3-1 1 5-13-1-6-4-5 1h-3l-2-7v-10l8-5 4-4z" fill="#D7D5D7"/>
<path transform="translate(495,627)" d="m0 0h4l-1 6 3 2h5l1-4v-4h4l2 7 3 5v4h-2l-1 4 3 3-10 1v2h-18l-1 53-4-2-6-9-14 1-2-2-2-41 5-1h12l1-5h-25v-2l27-6 2-1v-10l6 2v7l6-1v-8z" fill="#7E7E84"/>
<path transform="translate(621,581)" d="m0 0 4 2 1 1 16 1 4 4 1 5v10l-5-1-3-2-1 3-5 1-2-5-1 2-1 5-12 5-5-1-1 4h-4l-3-3h-1l1 17 1 9 3-1 16-1h27l1-3 1 4-3 3-18 2-2 2v46h2v2h-7l-9 2 1 5 5 1v2l-8-2-3-2v-4l12-4v-3l-5-7h-8l5 7v3h-2l-8-11-1-2-1-31-3-3-4-24v-9h2l1-9 1-3h3l2 6 4 1-1-7 3-1 3 2 1 3 3 1 1-4 6 1 2 1 1-3h15l2 1-2-12h-20l-2-2h2z" fill="#727379"/>
<path transform="translate(476,526)" d="m0 0 2 1v12l-2 12-1 17 37 2-2 1 1 13-4 1h-50l-2-2 8-3h7 2l-2-6 3-2-1-10-5 6-6 2h-7l1-7h-13l-19-2 1-13 1-9 1-1 10 1 25 3 15 1z" fill="#7D7C82"/>
<path transform="translate(1134,691)" d="m0 0 1 2h31l16 2 2 2v4l-12-1-2 10-1 4 2 5-2 7h-1l-2-10-3-6v-6l-3-1h-7l-5 2-8 24v11l25 2v2h-26l-3 11-2 22-1 27-1 3-4 1-1-1-1-14-1-44 1-33 1-18 1-6z" fill="#77797D"/>
<path transform="translate(1232,503)" d="m0 0 24 1 11 3v2h-2l-2 6-5 3 1-4-7 3-2 1-34 1h-53l-8-1-1 2-6-1v9l-3-3-4-13 1-2 13-4 26-2z" fill="#D6D4D5"/>
<path transform="translate(613,756)" d="m0 0h7v5l14 3 3 3-5 2-27 6-105 25-43 10-12 2h-18l-17-4-43-13-39-12-8-4 1-2 9-3 1-11 2-1 17 4 2 1v2l11 1 22 5 9 3-4 1-20-5h-18l-3-6-17-4v17l9 3 17 4 35 10 15 4v2l10 3h17l16-2 168-40v-2-6l-11 1v-1z" fill="#88858A"/>
<path transform="translate(643,734)" d="m0 0 1 2-7 4 6 1 1 3-6 1-2 2-5 2-26 4-8 3-10 1-4 1h-10l-9 1-6 2-14 1-13 3-7 5-6 1-11-1-3-3-5-2-9-1 1-2h6l4-3 4-1h10l11-2h3v-1l18-4 18-3 19-3 13-3 24-4 13-3z" fill="#F6F6F6"/>
<path transform="translate(1895,28)" d="m0 0h20v75h-20z" fill="#C2C2C3"/>
<path transform="translate(618,754)" d="m0 0 3 1 1 4 17 3 10 4v3h-3l-1 2-7 1-2 1-8 1-10 3-11 2-9 2h-4l-1 2-6 1-7 2h-7l-1 2-3-1-1 2-12 2-5 2-10 2-4 1-10 1-1 2-20 4-8 2h-4l-1 2-9 2-11 2-6 2-11 2-2 1h-25l-18-5h-3v-2l-8-1-5-1v-2l-3 1-10-4-4-1-11-3-1-2-3 1-10-4-7-2-9-2v-2l-3 1-9-3-1-2-3 1-10-5v-3l8-3 3 1 1-2 6-1 1-6h1v9l-7 3-3 1 4 3 19 6 49 15 28 8 6 1h18l26-5 108-26 48-11 9-2-2-2-14-4v-5l-11 1 2-2z" fill="#BEC1C4"/>
<path transform="translate(530,674)" d="m0 0h2l2 4 1 32v24l-1 1v9h2v4l-4-1-1-5-36 6-25 5-40 7-9 3 1-12 21-4 37-6 7-1v-10l1-2h2l-2-7 4-1 1 1v17l19-2 16-3 2-2-1-35v-20z" fill="#29282A"/>
<path transform="translate(614,757)" d="m0 0h5l1 6 2 2-36 9-101 24-39 9-11 1h-17l-4-2 10-1-1-1 1-7 3-3 3 1 1 9-1 1 17-2 11-4 31-7 46-11 1-4 1-1h-14v-1l14-3 15-2 47-10z" fill="#2D2B2E"/>
<path transform="translate(1789,32)" d="m0 0 6 1 7 6 7 2 1 2h-5l-12 12-1 2v7h2l24-24 2-1h7l4 5-1 6-5 7 3 5v8l4 2 1 4-3-1v-2l-4 1-5 7 4 2 2 4v4h-3l-2-6-5-2-7 8-4-1 7-7 1-2-4-2-2-2v-5l-8 2 3 5-1 6-6 6-3-1 6-7-1-7-6-5-5 5v8h-3l-1-7 3-5 3-3-1-10 3-7 9-9-6-7-6-1v2l4 2 3 4-5-1-6-7z" fill="#0F5870"/>
<path transform="translate(221,384)" d="m0 0h9v15l298 1v-16h9l3 4-1 6-2 2h-8v4h174v2h-520v-2l44-1v-3h-6l-3-4 1-7z" fill="#00546F"/>
<path transform="translate(1177,626)" d="m0 0h17l10 1-2 1-9 45-2 6-6 5h-3v-2h-2l-5-8-3-7-1-16 1-2h-2v-3l-2 2-6 1-3-1-4 1v-4l1-2-2-1h5l-2 1 3 3v-2l3 1 1-1 7-1 2 1 2-12z" fill="#7D7D83"/>
<path transform="translate(1177,552)" d="m0 0 5 1h16v2l-9 2-5 2-3 5h-5l-2 5-1-3h-3l1 9 2 4v-3l2-1 2 1 2 15 3 4-2 3-6 1 1 4 7 2v-8h2v9l16-2h29l-1 4v-3h-4l-1 3v-3h-5v3l3 1-2 2h-4v-3h2v-3h-9v3h-4v-2h-3l1 5-2 5 24-3h6l-4 3-11 6-3-1-12 3h-10l-9-6 1-12-1 3h-3v-2l-5-1v-8-2l-8-19-7-18 5-3 3-2h9z" fill="#928C8F"/>
<path transform="translate(425,715)" d="m0 0 5 1 3 3v5l2 1h7l6-2 7-1 2 2v5l-7 1v2l-2 1v2l16-1 9-2-1-5 4-5h11l3 2v4h-2v10l-3 3-34 6h-15l-1-4-8-7-3-2-1-10 1-8z" fill="#7C7C82"/>
<path transform="translate(541,656)" d="m0 0h4l1 74 32-5 1-1-1-20-2-4 1-3h-2v-8l3-2 1-18h2l2 4 1 31v22l-1 2v6l2 2-1 4-3-1-1-6-14 3-26 4-2-3 1-80z" fill="#2B292C"/>
<path transform="translate(529,574)" d="m0 0h6l5 3v2l5 2 2 3v2h11l1 2-6 29h-1l1-11 1-5v-7l-10 2-8 4-5 6-3 5-8 5 1 18-2-1-3-22-4-24 5-1 1-4 8-5 3-1z" fill="#6B6A72"/>
<path transform="translate(507,625)" d="m0 0 5 1 6 10 3-2 1 1v12l9-1 1-1h8l-2 5-1 3v3l-7-1v-2h-2l1 7-8-4v12h2v12l-3 3-6-1-2-3v-10l1-8-8-1v19h-1l-1-14-1-9-5 1-1 7v33l1 8-2 5h-11l2 10 8-1 1 1v16l-1 2 3 1-5-1v-17l-3 1-1 2-1-1-7-1 2-2v-11l1-1 10 1v-53l3-2h6l2 4h6l-1-5-3-1v-1l8-2-2-3h2v-3h2l-3-8-2-2v-6h-4l1 7-2 2-7-1-2-4 2-4z" fill="#6B6A72"/>
<path transform="translate(335,532)" d="m0 0h19l2 1 1 19 1 5 1 18-1 1h-12v2l-6-1-3-9-2-26z" fill="#0A0A0A"/>
<path transform="translate(131,513)" d="m0 0h9l10 2 16 9 7 7 6 10 3 7 2 11v7l-1 5-3 10-1 2h-2l-1 5-5 3-2-1 5-12 1-5v-14l-3-10-6-11-7-7-13-7-8-2h-14l-11 3-3-1 1-3 10-4h3v-2z" fill="#D7D6D8"/>
<path transform="translate(506,652)" d="m0 0 3 1 1 5h-6l-2-3h-6l-3 1v53h-10v11l-10 5 2-4 3-2 2-6-4-3 1-2h-3l1 3v9l-1 1h-10l-2-1v-8l6-2-1-4-8-12-1-20v-18h2l2 38 4 1 11-1 8 11 2 1v-51l1-2z" fill="#2C2A2D"/>
<path transform="translate(667,317)" d="m0 0h5v8h9l1 3 4-3h12l4 2-1 5-4-1h-9v3l10 3 4 4-1 7-4 3-7 1-9-1-7 1-5-2-3-5v-15h-3v-5h3v-7z" fill="#09566F"/>
<path transform="translate(1134,691)" d="m0 0 1 2h4v9l-4 30-2 24-2 51h-4l-1-14-1-44 1-33 1-18 1-6z" fill="#818085"/>
<path transform="translate(583,726)" d="m0 0h3v2h-2v6l5 1-2 5-1 2 2 1-7 1-1 1-46 8-4 1v-2l-2-1 1-1-29-1 3-1v-2l21-4h7l2 5 3 1v-4h-2v-8h3v4l21-4 18-3h4l1 6h3l-1-4-1-1v-6z" fill="#8E8A8E"/>
<path transform="translate(432,587)" d="m0 0h3l8 43 4 15 1 2 3-10h2l-2-6 2-2 6 1 1 5h5l1-5 4-1 8 3 1-5h7l2 1v2l4-4 4-1 3 2-6 1v8l-6 1-1-7-5-2 1 3v7l-7 3-20 4h-3v2h25l-1 5-17 1 1 3-12-1-2-1-6-27-1-5-2 3-5-29z" fill="#6B6A72"/>
<path transform="translate(1712,530)" d="m0 0 2 1-7 11-5 15v18l4 11 7 10 8 7 12 6 4 1h18l15-5 9-5-1 4-10 6-17 6-5 1h-10l-12-3-11-6-6-5-7-11-4-11-1-5v-10l3-12 7-16 3-4h2z" fill="#938D90"/>
<path transform="translate(1861,709)" d="m0 0h32v24h-32z" fill="#64636B"/>
<path transform="translate(1283,803)" d="m0 0h3l-1 16-1 5-7 2h-47l2-4 17-8 8-3 6-2 16-4z" fill="#6A6971"/>
<path transform="translate(410,585)" d="m0 0 4 1 1 73 1-2v-20l2-10 3 2v9l-2-3-1 24v104l-1 1 1 20 6 2v1l-7-1-8-2 3-1v-197z" fill="#2A282B"/>
<path transform="translate(569,642)" d="m0 0h19v18l-1 17-2 1v-5l-4-1v-3h-2v18l-3 3-1 7h2v5l2 2 1 20-2 2-32 5-1-1v-73l2-2v74l9-2 9-1 8-2h5v-19l-5-1-1-7v-10l2-2h3v-29l-8-4 7 1 2 1-2-5-2-1-9-1 1-3z" fill="#6E6E74"/>
<path transform="translate(621,581)" d="m0 0 4 2 1 1 16 1 4 4 1 5v10l-5-1-3-2-1 3-5 1-2-5-1 2-1 5-12 5-5-1-1 4h-4l-3-3-4 1 1 13 2 12 3 1h9v4l-10 1 1 32 1 2 8 1v1h-5l5 7v3h-2l-8-11-1-2-1-31-3-3-4-24v-9h2l1-9 1-3h3l2 6 4 1-1-7 3-1 3 2 1 3 3 1 1-4 6 1 2 1 1-3h15l2 1-2-12h-20l-2-2h2z" fill="#73737A"/>
<path transform="translate(369,531)" d="m0 0h10l2 37v9h-15l-2-19-1-25z" fill="#D1DADF"/>
<path transform="translate(638,726)" d="m0 0 18 3v2l-25 4-2 1-11 1-1 1h-6v2l-8 2-17 3-13 3-15 2-24 5 2 2-8 1-4-1-11 2-1-2 20-4 12-3 25-4 11-2 6-2 2-5 1-2-5-1v-6h2l1 4 13-1 12-2 2-1 22-1z" fill="#B5BFC5"/>
<path transform="translate(1230,634)" d="m0 0 2 1-4 2-2 10-7 24-7 32-4 19h-2v-37l5-24 5-19 3-7h10z" fill="#6A6971"/>
<path transform="translate(604,314)" d="m0 0h3v37h-8l-7 1-7-3-3-4-1-3v-8l4-7 4-2h9l2 1 1-11z" fill="#0A576F"/>
<path transform="translate(536,651)" d="m0 0 5 5-2 1v80l1 3h-3l-2-4-1 5h-1v-6l1-1v-24l-1-32-1-4h-2v22l1 36-7 3-12 1 2-2 15-2-1-13-1-43v-16h-2v-2h-3v21h-1l-1-11v-10l1-2 5 1 2 2v-6h2v2l7 1z" fill="#696870"/>
<path transform="translate(418,633)" d="m0 0 2 2 1 3v13h6l-3 6 1 5h4l1 4-6-1v49l-1 2-1 34 4-2 17-1-4 2-12 2h-5v10l-1 2h-3l-1-52v-52z" fill="#6A6971"/>
<path transform="translate(383,585)" d="m0 0h27l2 1 1 38v159l-4 1-15-4v-1l9 1 7 2-1-158-1-25 1-12h-24z" fill="#6A6971"/>
<path transform="translate(472,557)" d="m0 0h2l1 11 37 2-2 1 1 13-4 1h-50l-2-2 8-3h7 2l-2-6 3-2-1-10-5 6-3-1 5-5z" fill="#717077"/>
<path transform="translate(613,756)" d="m0 0h7v5l9 3v3l-48 11-8 1v2l-12 3-13 2-63 15-36 8-7 1h-19l-5-1v-1l28-2 111-26 50-12 12-3v-2-6l-11 1v-1z" fill="#6B6B72"/>
<path transform="translate(506,317)" d="m0 0h19l6 4 2 5-1 8-6 5-3 1h-12v11h-5z" fill="#02546F"/>
<path transform="translate(1232,503)" d="m0 0 24 1 11 3v2h-2l-2 6-5 3 1-4-7 3-2 1-34 1h-35v-1l6-1 26-1h11l15-2 4-4v-4h-34l-1 3-2-2h-17v-2l-2 1-27 3-12 1 1 6-1 2-3-1-2-4v-3l12-4 26-2z" fill="#868388"/>
<path transform="translate(1279,682)" d="m0 0h1l1 5 2 58 2 42v14h-2l-1 2-14 1 4-5 1-8 5-35 1-60z" fill="#6B6A72"/>
<path transform="translate(1773,745)" d="m0 0h1v23l4 1v1l9-1 7-2 1-2h2v-5h4l1-2 9 3v5h-3v-2l-6 4h-7v2l24-1 9-2h18l-2 2h21l4-2h15l3 1v2l6-1v4h-119l-1-1z" fill="#D9D7D8"/>
<path transform="translate(1142,813)" d="m0 0 21 1 19 2 2 4 6 5v1h-61v-9l10 1 3 1z" fill="#6F6E75"/>
<path transform="translate(562,572)" d="m0 0h14v4l-6 5-5 2-2 4-2 1-2 7-5 30-2 7-1 9h11l2 4-3 4v5h-6l-1 4v-2l-10-2-2-2v-3l7-4h6v-2l-5-1-2-4 10-51-2-1v-2l-4-2-8-6 1-3z" fill="#2C2A2D"/>
<path transform="translate(1378,325)" d="m0 0h10l5 3 4 6v8l-3 6-7 4h-7l-6-3-4-6v-9l3-5z" fill="#08566F"/>
<path transform="translate(1348,325)" d="m0 0h10l5 3 4 6v8l-3 6-7 4h-7l-6-3-4-6v-9l3-5z" fill="#08566F"/>
<path transform="translate(1135,325)" d="m0 0h10l5 3 4 6v8l-3 6-7 4h-7l-6-3-4-6v-9l3-5z" fill="#08566F"/>
<path transform="translate(560,325)" d="m0 0h10l7 6 1 2v10l-4 6-6 3-10-1-5-5-2-4v-8l4-6z" fill="#08566F"/>
<path transform="translate(1254,325)" d="m0 0h10l6 4 3 6v7l-4 6-4 3-9 1-6-3-4-5v-11l4-6z" fill="#09566F"/>
<path transform="translate(1177,626)" d="m0 0 6 1-3 7v20l3 7 2 7 4 1h3l1-2-1 11-7 6h-3v-2h-2l-5-8-3-7-1-16 1-2h-2v-3l-2 2-6 1-3-1-4 1v-4l1-2-2-1h5l-2 1 3 3v-2l3 1 1-1 7-1 2 1 2-12z" fill="#727479"/>
<path transform="translate(419,316)" d="m0 0h2v35h-6l-12-16-5-6-1 22h-6v-34h6l14 18 3 4 1-22z" fill="#0C5770"/>
<path transform="translate(471,653)" d="m0 0 4 1 1 2 1 24v13l-14 1-1-1-1-39z" fill="#F9F9F9"/>
<path transform="translate(600,590)" d="m0 0h41l3 5 2 1-1 4-2-1h-15l-1 2-8-1-1 3-4-1-1-3-5-1 1 7-5-1-1-6-3 1v7l-2 4h-2l1 16-2-3-3-18v-9l2 3v2h2l-1-9z" fill="#2C2A2D"/>
<path transform="translate(1202,325)" d="m0 0h6 3 9l4 2 3-2h9l5 4 1 3v19h-6v-20h-8l-2 1-1 19h-6l-1-19-1-1h-6l-2 1-1 19h-6z" fill="#0E5870"/>
<path transform="translate(355,526)" d="m0 0h22v1l-15 1 1 23 2 21v7h-10v3l-10-1-4-2 1-2 4-2h12l-1-18-1-8v-16l-21-1 2 26v6h-1l-3-18v-15l2-2 9-1h10v2l4 1v-3l-3-1z" fill="#302E31"/>
<path transform="translate(1200,604)" d="m0 0h29l-1 4v-3h-4l-1 3v-3h-5v3l3 1-2 2h-4v-3h2v-3h-9v3h-4v-2h-3l1 5-2 5 24-3h6l-4 3-11 6-3-1-12 3h-10l-9-6 1-12z" fill="#6B6B72"/>
<path transform="translate(426,538)" d="m0 0 10 1 17 2v1l-5 1 1 5-3 3-3 10h14l1 5-2 4h-2l1-7h-13l-19-2 1-13 1-9z" fill="#717278"/>
<path transform="translate(436,586)" d="m0 0h74l2 7 4 20v9l-3-4-6-27h-53l-12 1 3 20v6l-4-1-4-23-1-2z" fill="#080808"/>
<path transform="translate(1184,558)" d="m0 0h4l-1 4h2l1 2-1 16-1 10 1 6-1 1h-6v8l-7-1-1-5 6-1v-4l-2-3-1-6v-9h-3v4l-3-2-2-8v-6l1 2h4l3-3 5-1z" fill="#717378"/>
<path transform="translate(425,760)" d="m0 0h5v2l11 3 6 1v2h2l1 21 1 1h6l-4 2h-5v-23h-5l-3 2-5 1-1 13 1 3h-8l-9-3-1-1-1-21 7-1z" fill="#74747A"/>
<path transform="translate(364,530)" d="m0 0h34l-1 15-10-1-6-5v29h-1l-1-14v-23l-15 2 1 25 1 7v12h16l-1 2h-2l4 5v2h-31l1-2 8-1h17v-2h-21l-1 2h-8v-2l7 1-1-4h7l4 1-3-28v-20z" fill="#78777D"/>
<path transform="translate(450,325)" d="m0 0h6l5 13v3h2l1-6 4-10h5l5 13v3h2l2-9 3-7h6l-9 26-5 1-5-12-2-3-5 14-5 1-5-12z" fill="#09566F"/>
<path transform="translate(638,762)" d="m0 0 10 3 2 3-4 1-1 2-7 1-2 1-8 1-10 3-11 2-9 2h-4l-1 2-6 1-7 2h-7l-1 2-3-1-1 2-12 2-5 2-10 2-4 1-10 1-1 2-20 4-8 2h-4l-1 2-9 2-11 2-6 2-11 2-2 1h-25l-18-5h-3v-2l-8-1-5-1v-2l7 1 22 6 6 1h20l28-6 79-19 38-9 39-9 9-2v-2l-6-2z" fill="#D7D6D7"/>
<path transform="translate(1158,325)" d="m0 0h5 3 9l5 2 3-2h9l5 5v21h-5l-1-19-1-1h-7l-3 1v19h-5l-1-19-1-1h-7l-2 2-1 18h-5z" fill="#02546F"/>
<path transform="translate(118,50)" d="m0 0h6l2 4 26 1 2 1-1 7-5 9h-21l-5-16v-3l-5-1z" fill="#03546F"/>
<path transform="translate(429,522)" d="m0 0h35l12 3v18h-15l-30-4h-5l-3 22 24 1h8v1l-7 1h-10l-16-2-3-2-1 9-2 1v-7l1-2 1-10 2-7 2 2 2-8 1-1h7l5 1 14 1 3 1 20 1v-10l-43-3-5-1 1-2 5-1h22l14 2v-2h-13l-26-1z" fill="#2C2A2D"/>
<path transform="translate(1743,515)" d="m0 0h13l13 4 11 7 3 3 2-4v10l-1 5-5-5-11-8-10-4-4-1h-15l-12 4-11 7-7 8-3 6-1-3 7-12 7-7 10-6 9-3z" fill="#D8D6D7"/>
<path transform="translate(358,51)" d="m0 0h9l6 5 2 5-1 11 5 4v3l-4-2-4-3h-14l-5-5-1-2v-9l5-6z" fill="#F4F5F5"/>
<path transform="translate(1199,555)" d="m0 0 6 1 2 1 9 1 3 4-6 18-9 10-3 1-1-7h3v-2h-4v-8-3l-1-5v-9z" fill="#2C2A2D"/>
<path transform="translate(490,776)" d="m0 0h33l-3 2-49 10-9 2-12 1v-12l6 1 6 2 8-4 8-1z" fill="#C9C7C9"/>
<path transform="translate(608,758)" d="m0 0h10v5l-7 1-8 3-14 2-37 9h-6l-1-3-3-1v-2l63-13z" fill="#0D0C0D"/>
<path transform="translate(433,325)" d="m0 0h10l5 4 2 5v6h-19l2 5 8 1 7-1 1 4-7 3h-7l-6-3-3-3-1-3v-10l4-6z" fill="#0A566F"/>
<path transform="translate(642,726)" d="m0 0 16 2 1 3-4 2-7 1-1 5 2 1 2-4 5 1-1 2h-2v2l5-2 1 4-2 5-2 1h-6v2l-13 2-7 2-8 1-3-1h-9v-1l14-2 6-4 4-1 5-3 5-1v-2h-8l3-3 6-2-1-1-9 1-13 3-10 1v-2l7-2 11-1 20-4h7v-2l-12-1z" fill="#D6D4D6"/>
<path transform="translate(1793,618)" d="m0 0h8l7 3 1 2v7l-4 5v6l-3 6-1 5v11l-2-2-2-3-1-8-1-2h-6l3-9-1-6 6-5 1-2-5-1-1-1v-5z" fill="#D8D6D7"/>
<path transform="translate(332,762)" d="m0 0 14 3 6 2v2l11 1 22 5 9 3-4 1-20-5h-18l-3-6-17-4v17l9 3 17 4 35 10 15 4v2l3 1-3 1-4-2-11-1-49-15-21-7-3-3 10-4 1-11z" fill="#75737A"/>
<path transform="translate(654,630)" d="m0 0h1l2 8-3 4-17 2h-5v44l3 5-1 6-1 2h-3l1 22 10 2v1h-11l-1-1-1-17-4-2h-3l-2 3h-2l1-7h4v-2h-5l-1-1v-5l9-3 7 1v-2h-2l-1-2v-44l3-3 22-1z" fill="#D6D5D6"/>
<path transform="translate(1180,530)" d="m0 0 9 1 7 5 1 2 1 14-6 2h-10v-2l-4-1-2-10 1-9z" fill="#F8F8F8"/>
<path transform="translate(1192,498)" d="m0 0h30l18 2v2l3-1 11 2v1h-22l-51 1-13 1h-13l4-2 14-3 5 1 1-2z" fill="#CFCECF"/>
<path transform="translate(1109,316)" d="m0 0h7l9 3-1 6-9-3-8 1-4 4-1 2v10l4 5 5 2 10-2 4-1v5l-5 3-9 1-9-3-5-6-2-5v-8l3-7 6-5z" fill="#07566F"/>
<path transform="translate(610,643)" d="m0 0h5l1 1 1 33-3 2h-7l-2-3v-32z" fill="#CFDBE1"/>
<path transform="translate(1821,41)" d="m0 0 6 1 1 7-20 20-7 2-6-2 2-5 8-7z" fill="#F6F6F7"/>
<path transform="translate(201,67)" d="m0 0h9l8 5 2 4v6h-29l-1-3 3-7 5-4z" fill="#185A71"/>
<path transform="translate(583,640)" d="m0 0 7 2v13l-1 21-2 1v-17l1-18h-13l-1 3v-3l-6 2-3 3h9l4 3 1 6-5-3-7-2-5-2 1 6-6 1 1 16 2 4-1 9-1 2-4-1-1-2v-24l-3-4-4-1-1 2-4-2v-3l10 2 3 2v-3l7 1-1-5 3-5-2-2z" fill="#6C6C73"/>
<path transform="translate(574,635)" d="m0 0 6 2v1l11 2 2 6 2-1v42h-4l-4-1v16l4 1h-5v-23l2-4 1-21v-13l-6-1-21 1 5-4 7 1z" fill="#2C2A2D"/>
<path transform="translate(610,597)" d="m0 0 3 2h-3l1 9v2l-10 2-1 1 1 13 2 12 3 1h9v4l-10 1 1 32 1 2 8 1v1h-5l5 7v3h-2l-8-11-1-2-1-31-3-3-4-24v-9h2l1-9 1-3h3l2 6 4 1-1-7z" fill="#737479"/>
<path transform="translate(369,531)" d="m0 0h10l2 37v9l-2-1 1-5h-3v4 1h-7l2-7v-11l1-10-3-12-1-3h-5v-1z" fill="#CFD0D2"/>
<path transform="translate(532,645)" d="m0 0h8l-2 5-1 3v3l-7-1v-2h-2l1 7-8-4v24l-1 1h-5l-1-2v-10l1-10 1-4v-4l7-1v-2z" fill="#2C2A2D"/>
<path transform="translate(1228,530)" d="m0 0 4 1 1 1v14l-2 5v4l-2 1h-6v-2h-6v-9l4-11 5-3z" fill="#F8F8F8"/>
<path transform="translate(1415,325)" d="m0 0h12l4 2-1 5-4-1h-9v3l10 3 4 4-1 7-4 3-7 1-8-2-1-4 4-1 9 1h2l-1-4-10-3-4-5 1-6z" fill="#08566F"/>
<path transform="translate(443,768)" d="m0 0 5 1v23h-8l-13-3v-1l7-1-1-2 1-14 8-2z" fill="#2C2A2D"/>
<path transform="translate(1277,325)" d="m0 0h5 3 9l5 5v21h-5l-1-18-1-2h-7l-3 1v19h-5z" fill="#02546F"/>
<path transform="translate(337,783)" d="m0 0 20 1 22 5 29 8 4 7 2 2-4-1-2-1v-2l-11-2-51-14-9-2z" fill="#2C2A2D"/>
<path transform="translate(588,572)" d="m0 0h8l9 6 5 5-1 2-17 1-17-1v-3l3-3 5-2z" fill="#E5E5E5"/>
<path transform="translate(433,378)" d="m0 0h4v19h-4l-1-2-2 1h-8l-4-3-1-8 3-5 2-1h7l3 1z" fill="#E8EBED"/>
<path transform="translate(612,325)" d="m0 0h5l1 21h7l3-2 1-19h5v26h-7l-8 1-5-3-2-3z" fill="#01546F"/>
<path transform="translate(615,679)" d="m0 0 4 1 6 9-5 3-9 2 1 4 8 3-2 1v3h-2v2l-7-1-6-3 4-3-7-2-3-1v-6l3-3 8 5 4-1-1-5 2 1v2h2l-4-7-1-3z" fill="#2A282B"/>
<path transform="translate(1232,503)" d="m0 0 24 1 11 3v2h-2l-1 3-3-1-1-2-2 1-1-2-19-2h-29l-1 3-2-2h-17v-2l-2 1-27 3-12 1 1 6-1 2-3-1-2-4v-3l12-4 26-2z" fill="#7A787E"/>
<path transform="translate(651,633)" d="m0 0 2 1-1 5-7 2-13 1-2 2-1 44h-2l-1-39-5-1 1-6-1-3-13-1v-1l16-1h27z" fill="#9E8F8B"/>
<path transform="translate(330,765)" d="m0 0h1v9l-7 3-3 1 4 3 19 6 49 15 4 2-5 2-10-4-4-1-11-3-1-2-3 1-10-4-7-2-9-2v-2l-3 1-9-3-1-2-3 1-10-5v-3l8-3 3 1 1-2 6-1z" fill="#C9CBCD"/>
<path transform="translate(1313,317)" d="m0 0h29l-1 5h-11v29h-5v-29h-12z" fill="#00546F"/>
<path transform="translate(303,586)" d="m0 0 2 1 1 70 2 74v25l10 2 3 2h-6l-9-4-1-66-1-4-1-72-1-8v-19z" fill="#D8D6D7"/>
<path transform="translate(510,571)" d="m0 0h2l1 13v3l3 19v5l-2-1-4-23-74-1v6h-1v-5h-3l3 20 2 12v6l-2-4-5-30 1-5 5-3 22-1-1 2h53z" fill="#2C2A2D"/>
<path transform="translate(647,325)" d="m0 0h10l4 2-1 5-4-1h-8l-3 3v9l4 3 11-1 1 4-3 2-8 1-7-3-4-4-1-3v-8l4-6z" fill="#07566F"/>
<path transform="translate(133,519)" d="m0 0h12l9 3 10 6 8 9 5 10 1 5v12l-2 1-4-16-6-11-7-7-13-7-14-3z" fill="#C3C3C4"/>
<path transform="translate(569,642)" d="m0 0h19v18l-1 17-2 1v-5h-2l-3-17-1-7-3-2h-11l1-3z" fill="#7F7E84"/>
<path transform="translate(613,756)" d="m0 0h7v5l9 3v3l-48 11-8 1v2l-12 3h-5l2-4 15-4 46-11v-2-6l-11 1v-1z" fill="#6E6E75"/>
<path transform="translate(562,572)" d="m0 0h14v4l-6 5-5 2-1 1h-10l-4-4-5-3v-4z" fill="#EDEEEF"/>
<path transform="translate(672,330)" d="m0 0h9l3 7 8 3 4 2v4l-2 1-12-1-8 1-2-1z" fill="#EDF0F1"/>
<path transform="translate(512,796)" d="m0 0h5l-4 2-10 2v2l-47 11-6 1h-20l-18-4-17-5v-1l8 1 18 5 6 1h18l26-5z" fill="#BCC1C4"/>
<path transform="translate(385,530)" d="m0 0h13l-1 15-10-1-6-5v29h-1l-1-14v-23z" fill="#818085"/>
<path transform="translate(625,762)" d="m0 0 9 2 3 3-5 2-27 6-67 16-4-1 10-3h4v-2l17-3 8-1v-2l51-12 5-1z" fill="#8B878B"/>
<path transform="translate(1742,512)" d="m0 0h13l12 3 12 6 5 4v5l-8-6-12-6-8-2h-13l-11 3-10 5-7 6-4 1 2-4 8-7 12-6z" fill="#D69E7A"/>
<path transform="translate(445,654)" d="m0 0 13 1v1l-11 1-1 25-1 12-7 9-1 3-6 1-1 5 9-1 1 2-6 1 3 3v5l9-1 2-1h9l3 3v7l-3 2-8 1v2l6-1h9v1l-16 1v-4l10-2-1-7-1-1h-7l-6 2h-7l-2-4v-3l-6-4v-7l1-1h6l2-4 6-9 1-36z" fill="#2C2A2D"/>
<path transform="translate(1211,55)" d="m0 0h8l4 6-1 7-4 4h-7l-5-4v-9z" fill="#C6CED1"/>
<path transform="translate(1160,508)" d="m0 0h5l-5 5 2 1 9 1 7 2h9v1l-6 1h-18l-8-1-1 2-6-1v9l-3-3-4-13 2-2 3 7 2 1v-8z" fill="#C0C1C3"/>
<path transform="translate(1267,378)" d="m0 0h3l1 6h6l2 3v9h-2l-1-9-5-1v11l-5-1h-8l-3-2v-8l2-2h9z" fill="#E5E9EC"/>
<path transform="translate(358,51)" d="m0 0h9l6 5 2 5-1 11 5 4v3l-4-2-4-3h-14l-5-5-1-2v-9l5-6zm4 2-6 3-2 3v7l4 5 5 1 6-3 2-3v-7l-5-5z" fill="#0B576F"/>
<path transform="translate(1230,634)" d="m0 0 2 1-4 2-2 10-7 24-2 9-2 1v-12l3-22 3-10 1-1 7-1z" fill="#717278"/>
<path transform="translate(1130,693)" d="m0 0h5l-2 20-4 36-1 18h-1v-47l2-26z" fill="#D4D2D3"/>
<path transform="translate(1379,330)" d="m0 0h9l3 4 1 6-3 5-3 2-7-1-4-5 1-8z" fill="#F0F1F2"/>
<path transform="translate(1349,330)" d="m0 0h9l3 4 1 6-3 5-3 2-7-1-4-5 1-8z" fill="#F0F1F2"/>
<path transform="translate(1136,330)" d="m0 0h9l3 4 1 6-3 5-3 2-7-1-4-5 1-8z" fill="#F0F1F2"/>
<path transform="translate(1187,505)" d="m0 0h2v2l17-1 26-1 11 1v2l2 1-2 1h-18l1-2-2-1v2l-3 1h-34v-1l-10-1-1-2z" fill="#C1C1C3"/>
<path transform="translate(561,330)" d="m0 0h8l4 5v6l-4 5-7 1-5-4v-9z" fill="#F1F2F3"/>
<path transform="translate(1420,378)" d="m0 0h3v11l6-5 2 1-3 4 2 4 2 3-4-1-2-3-3-1v6l-4-1h-8l-3-2v-8l2-2h9z" fill="#E2E6E9"/>
<path transform="translate(1255,330)" d="m0 0h8l4 4v8l-3 4-7 1-4-2-2-4v-6z" fill="#F1F2F3"/>
<path transform="translate(476,773)" d="m0 0h27l13 2v2h-26l-15 1-10 2-1 2-2 1-9-3-2 1 1-5 13 1z" fill="#CFDBE1"/>
<path transform="translate(127,58)" d="m0 0h23l-1 5-4 6h-15l-3-9z" fill="#ECEEF0"/>
<path transform="translate(1866,714)" d="m0 0 5 4h6l1 3 8 1 2 2h2v6l3-1v4h-14l-1-3v-3h-7l-3 1-2-1v-2h4v-2h2v-2l-10-2z" fill="#2C2A2D"/>
<path transform="translate(1193,605)" d="m0 0h7v6l-1 5 2 2-2 1-16-1v-11l1-1z" fill="#807F85"/>
<path transform="translate(595,722)" d="m0 0h18l13 2-4 2-28 5h-7v-7z" fill="#272528"/>
<path transform="translate(590,330)" d="m0 0h8l3 2v12l-4 3-7-1-3-3v-9z" fill="#F1F2F3"/>
<path transform="translate(471,653)" d="m0 0 4 1 1 2 1 24v13l-14 1-1-1-1-39zm-8 2v13l1 25 5-1 1-3v-13l1 15h4l-1-32-1-4z" fill="#C3C8CB"/>
<path transform="translate(472,574)" d="m0 0h27l1 3-9 7h-10l-9-7z" fill="#E9E9EA"/>
<path transform="translate(1373,379)" d="m0 0h10l2 2v7l1 1v5l-2 2h-11z" fill="#0A576F"/>
<path transform="translate(440,384)" d="m0 0h8l1 3h2l3-3h8v2h-7l1 2 5 2 1 5-1 1h-21l-1-5 2-2h7l-3-3h-5z" fill="#DFE2E5"/>
<path transform="translate(1846,646)" d="m0 0 4 2-3 1-3 7-6 4-4 2-1 2-7 3-4 1 4-5 1-8v-4l1-1h16z" fill="#D8D6D7"/>
<path transform="translate(579,669)" d="m0 0h2l2 4 1 31v22h-2l-1-38-2 1v13l2 2v18h-1l-2-18-2-4 1-3h-2v-8l3-2z" fill="#2C2A2D"/>
<path transform="translate(472,560)" d="m0 0h1v8l1 4-3 2 1 6 3 1-4 1-7-2 4-2 1-3-3 1h-11l-8-1v-1l6-1-1-5 4-5-1 5-1 2 10-2 5-3z" fill="#2C2A2D"/>
<path transform="translate(1389,378)" d="m0 0h3v6h10l2 1 1 9 2 2h-18z" fill="#A6B6BD"/>
<path transform="translate(202,49)" d="m0 0h6l5 3 1 6-4 5-7 1-4-2-2-4 1-6z" fill="#125970"/>
<path transform="translate(511,322)" d="m0 0h12l4 3v6l-2 3-3 1h-11z" fill="#ECEEF0"/>
<path transform="translate(1821,59)" d="m0 0 3 1 2 7-3 7-5 5-6-1-2-3 1-6z" fill="#F3F4F4"/>
<path transform="translate(135,552)" d="m0 0 4 2-2 4-8 8 2 4 8 8-2 4-4-2-11-11 1-5z" fill="#02546F"/>
<path transform="translate(1740,550)" d="m0 0 4 2 11 11-1 5-12 12-4-2 2-4 8-8-2-4-8-8z" fill="#02546F"/>
<path transform="translate(566,384)" d="m0 0h19l1 2h-8v2l7 2 1 4-1 2h-20l-1-2h7l1-3-6-1-1-5z" fill="#E4E8EA"/>
<path transform="translate(381,566)" d="m0 0 3 4 5-1h10l3 3v2h8l-4 2-10 3h-10l-5-2z" fill="#7E7E84"/>
<path transform="translate(432,524)" d="m0 0h22l21 2-1 4-27-1-16-1-5-1 1-2z" fill="#29272A"/>
<path transform="translate(1134,691)" d="m0 0 1 2-5 1-2 26v47l1 20v14l-1 6h-1l-1-14-1-44 1-33 1-18 1-6z" fill="#908A8E"/>
<path transform="translate(531,657)" d="m0 0 7 1v40l-3 1v-21l-3-1z" fill="#727479"/>
<path transform="translate(536,325)" d="m0 0h5l1 2 3-2h6v5l-8 3-1 1-1 17h-5z" fill="#03546F"/>
<path transform="translate(529,574)" d="m0 0h6l5 3v2h2l1 4 2 1-1 1h-25v-2h3v-3l5-4h2z" fill="#E2E2E3"/>
<path transform="translate(467,701)" d="m0 0 5 2h7l1 3-6 1 1 4v9l-1 1h-10l-2-1v-8l6-2z" fill="#2C2A2D"/>
<path transform="translate(1404,314)" d="m0 0h2v37h-5v-36z" fill="#00546F"/>
<path transform="translate(418,764)" d="m0 0 14 1 6 2v1h-12l-1 15 2 3h-7l-2-1z" fill="#838186"/>
<path transform="translate(481,628)" d="m0 0 6 2v7l6-1 1-3 1 5-23 6-4 1 7 1v1h-23v-2l27-6 2-1z" fill="#7B7D82"/>
<path transform="translate(533,636)" d="m0 0 7 1 6 2 4 4 3 1-1 2-8-1-1 3-2-4h-9l-2 2h-7v-8z" fill="#7E7E84"/>
<path transform="translate(541,652)" d="m0 0 10 2 3 2v-3l7 1v-2h2v3l-6 1 1 16 2 4-1 9-1 2-4-1-1-2v-24l-3-4-4-1-1 2-4-2z" fill="#6C6C73"/>
<path transform="translate(1861,718)" d="m0 0 7 1 4 2v2h-2v2h-4v2l5-1h7l1 4v3h-18z" fill="#67666D"/>
<path transform="translate(601,611)" d="m0 0 2 1 1 17 1 9h16l1 4 2 1-2 1v5h-2v-4h-3v30h-1l-1-31-1-4h-10l-2-2-3-19v-6z" fill="#828186"/>
<path transform="translate(471,573)" d="m0 0h30l1 4-10 8h-35l-2-2 8-3h7 2l-2-6zm1 1 1 4 8 6h10l9-7-1-3z" fill="#78777D"/>
<path transform="translate(610,597)" d="m0 0 3 2h-3l1 9v2l-10 2-3 1 1 11 2 10v9h-1l-4-24v-9h2l1-9 1-3h3l2 6 4 1-1-7z" fill="#6B6B72"/>
<path transform="translate(363,533)" d="m0 0 2 1 3 11 2 7v18l-1 7h-3l-2-19z" fill="#C0C1C3"/>
<path transform="translate(422,729)" d="m0 0h2v5l4 2 9 8-1 3 2 1-12 1-4 1z" fill="#727479"/>
<path transform="translate(530,660)" d="m0 0h2v14h-2v22l1 36-7 3-12 1 2-2 15-2-1-13-1-43 1-13h2z" fill="#6D6C73"/>
<path transform="translate(201,70)" d="m0 0h9l6 5 1 4h-23l1-4 4-4z" fill="#EFF1F2"/>
<path transform="translate(534,678)" d="m0 0h1v21l3-1 1 39 1 3h-3l-2-4-1 5h-1v-6l1-1z" fill="#6E6E75"/>
<path transform="translate(397,803)" d="m0 0h7l4 2 10 2v2h24l22-4 8-2h5l-4 2h-2v2l-26 5h-18l-17-4-13-4z" fill="#8A878B"/>
<path transform="translate(493,656)" d="m0 0 2 1v53h-11l2 10 8-1 1 1v16l-1 2 3 1-5-1v-17l-3 1-1 2-1-1-7-1 2-2v-11l1-1 10 1z" fill="#6D6C74"/>
<path transform="translate(542,657)" d="m0 0h1l1 76h-3l-1-58 1-17z" fill="#080808"/>
<path transform="translate(1201,596)" d="m0 0h9l3 1 12 1-1 3-3 2-24 2-1-4v-2z" fill="#080808"/>
<path transform="translate(439,767)" d="m0 0h6l-5 4-5 1-1 13 1 3h-8l-3-2 4-1-2-2 2-14h11z" fill="#6A6971"/>
<path transform="translate(502,756)" d="m0 0h10v2l-24 4-24 5-15 2-2-2 9-3 18-2 1-1 12-2z" fill="#818085"/>
<path transform="translate(565,566)" d="m0 0h34l7 2 2 4-9-3h-33l-29 1h-23v-1l40-2z" fill="#8D8C91"/>
<path transform="translate(1663,60)" d="m0 0h9l3 3v7l-3 2h-6v5l-3 1z" fill="#C5CDCE"/>
<path transform="translate(490,654)" d="m0 0h3l-1 3-1 48-3-1v-44z" fill="#080808"/>
<path transform="translate(621,581)" d="m0 0 4 2 1 1 16 1 4 4 1 5v10l-5-1-3-2-1 3-5 1-2-5-3 1v-3h15l2 1-2-12h-20l-2-2h2z" fill="#77767C"/>
<path transform="translate(547,765)" d="m0 0h8l4 1 16-1-4 2-24 5-15 1v-2l8-4z" fill="#B6BDC2"/>
<path transform="translate(387,378)" d="m0 0h2v18h-9l-3-2v-8l2-2h7z" fill="#2C6072"/>
<path transform="translate(1830,601)" d="m0 0 4 3-5 4-1 2h-2v2l-4 1 6-7-4 1-2 4-18 2-10 3v-4h8l1-2 8-1 3-1-4-1 6-2z" fill="#D8D6D7"/>
<path transform="translate(487,652)" d="m0 0h19v1h-18l-1 53-4-2-4-6v-2h2l3 5 1-46z" fill="#6D6D74"/>
<path transform="translate(351,384)" d="m0 0h2l2 8h2l1-6 1-2 3 1 2 6 2-3 2-4h7v13h-4l-1-9-3 5-1 3h-3l-2-8h-2l-1 6-1 2-3-1-3-8z" fill="#275F72"/>
<path transform="translate(495,709)" d="m0 0h2v11l-1 17 3 1h-5v-18h-8l-2-10z" fill="#76777C"/>
<path transform="translate(1190,627)" d="m0 0h14l-2 1-2 10-3 4-5-1-2-4v-6-3z" fill="#8E898C"/>
<path transform="translate(581,743)" d="m0 0h12v1l-21 4-25 4-13 3 2 2-8 1-4-1-11 2-1-2 20-4 12-3 25-4 11-2z" fill="#C4C8CB"/>
<path transform="translate(1255,54)" d="m0 0h2v7l7-1 3 3v6l-3 3h-9z" fill="#C2CCCF"/>
<path transform="translate(399,528)" d="m0 0h2v17l2 28 11-1-2 4-18 5h-8l-5-2 1-2 4 1h10l10-3-4-1-2-9-1-16z" fill="#2C2A2D"/>
<path transform="translate(476,383)" d="m0 0h3v14h-3l-1-2-2 1h-8l-1-2h7l1-3-6-1-1-5 1-1h9z" fill="#ADBDC3"/>
<path transform="translate(440,695)" d="m0 0v3l-5 7-6 1v7l6 4v5l1 1h7l6-2h7l2 2v7l-2 1h-6v-1l7-1-2-6-7 1-6 2h-7l-3-2v-6l-4-2v-2h-2v-9l4-3 6-2z" fill="#6D6E74"/>
<path transform="translate(303,586)" d="m0 0 2 1 1 86h-2l-1-59-1-8v-19z" fill="#D7D5D6"/>
<path transform="translate(628,707)" d="m0 0h1l1 18 8 1-2 2-22 1-2 1-20 3h-5l-1-5 1 3 22-4h19l-2-4v-10z" fill="#7D7B80"/>
<path transform="translate(504,700)" d="m0 0h1l1 5v30l6 1v1l-13 1v-2h3v-22l1-11z" fill="#717278"/>
<path transform="translate(608,645)" d="m0 0h6l1 11v21h-5v-14h2l-1-11h-3l-1-6z" fill="#F7F7F7"/>
<path transform="translate(583,673)" d="m0 0h2l1 4 2 1-1 2-1 23 4 1h-5l1 19 9-1-4 2h-4l-1 4v-2h-2l-1-22z" fill="#6A6971"/>
<path transform="translate(221,384)" d="m0 0h9v13l-2 1-1-2h-6l-3-4 1-7z" fill="#245E72"/>
<path transform="translate(1778,621)" d="m0 0 3 1 1 2 7-1 1 2v8l-7 2h-5l-1-2z" fill="#D8D6D7"/>
<path transform="translate(591,384)" d="m0 0h7l3 4-1 6-2 2h-7l-3-3v-6z" fill="#8CAAB4"/>
<path transform="translate(1626,60)" d="m0 0h8l4 4-1 6-3 2-7-1v7h-1z" fill="#AFBAC0"/>
<path transform="translate(1241,748)" d="m0 0 5 1 6 3 13 12 3 4h-6l-10-11-7-4-2 1-1 9h-1z" fill="#080808"/>
<path transform="translate(1790,649)" d="m0 0 4 1 2 6v6l-5 11 1 10 12 3v1h-8l-6-3-2-5-2 1 1-7h2l2-5 2-12h-4l-1 2 1-8z" fill="#D8D6D7"/>
<path transform="translate(479,571)" d="m0 0h28v11l-1 1h-10l1-3 4-3v-3l-21-1z" fill="#2C2A2D"/>
<path transform="translate(1284,384)" d="m0 0h7l3 3v6l-3 3h-7l-2-2v-8z" fill="#E5E9EB"/>
<path transform="translate(1608,60)" d="m0 0 7 1 2 4-1 5-3 2-7-1-2-2v-6z" fill="#AFBEC3"/>
<path transform="translate(1558,60)" d="m0 0 7 1 2 4-1 5-3 2-7-1-2-2v-6z" fill="#AFBEC3"/>
<path transform="translate(357,580)" d="m0 0h19l2 1v2l-25 2-1 1h-47v-1l45-1 1-1h5z" fill="#C3C9CD"/>
<path transform="translate(618,754)" d="m0 0 3 1 1 4 15 3v2l6 1 2 3-15 4-8-1v-1l14-3-2-2-14-4v-5l-11 1 2-2z" fill="#BAC0C5"/>
<path transform="translate(1173,575)" d="m0 0 4 1 2 15 3 4-2 3-6 1 1 4 7 2v-8h2v9l-3 1v2h-3v-2l-5-1v-8l3-1-2-12-1-5v-4z" fill="#828186"/>
<path transform="translate(1860,706)" d="m0 0 6 1 27 1v1h-32v24h32v1l-28 1-5-1v-2h-5l2-1v-2h2v-7l-3-2 3-1z" fill="#D8D6D7"/>
<path transform="translate(532,645)" d="m0 0h8l-2 5-1 3v3l-7-1-1-2-8-1v-2h2v-2z" fill="#2C2A2D"/>
<path transform="translate(496,654)" d="m0 0h6l3 5v20h-1l-1-14-1-9-5 1-1 7v33l1 8-2 4-1-3v-49z" fill="#717278"/>
<path transform="translate(610,379)" d="m0 0 3 1 5 8 3-3 4-6h2v17h-2l-1-11-5 7-5-5-1-2-1 11h-2z" fill="#245E72"/>
<path transform="translate(1243,506)" d="m0 0 14 1 4 2v2l3 1-1 3-5 3 1-4-4-2-12 2-2-2 2-2z" fill="#958F92"/>
<path transform="translate(361,792)" d="m0 0 7 1 18 6v-2l11 2 11 3v2l3 1-3 1-4-2-11-1-32-10z" fill="#78767C"/>
<path transform="translate(424,752)" d="m0 0h17l7 2v1l-15 3-3 1h-7z" fill="#080808"/>
<path transform="translate(495,747)" d="m0 0h8v1l27 1-1 2-11 1h-14l-5-1h-18v-1z" fill="#79797F"/>
<path transform="translate(506,652)" d="m0 0 3 1 1 5h-6l-2-3h-6l-3 1v-2l-3 1-1 5-1 44h-1v-49l1-2z" fill="#2C2A2D"/>
<path transform="translate(1176,563)" d="m0 0 5 1-2 2-1 15h-1v-5h-3v4l-3-2-2-8v-6l1 2h4z" fill="#7E7E84"/>
<path transform="translate(437,625)" d="m0 0h1l3 18v7l-11 1-4 8 1 4-3-1-1-5 3-5-5-1v-9h1v8l8-2h9l-2-15z" fill="#2C2A2D"/>
<path transform="translate(1232,503)" d="m0 0 24 1 11 3v2h-2l-1 3-3-1-1-2-2 1-1-2-19-2h-11l-5-1v-1z" fill="#6F6D74"/>
<path transform="translate(1207,561)" d="m0 0h8l1 3-8 2 3 5v2l-4 4-2 3-2-1v-2l-1-2 5-5h-7v-5l7 2-1-2-6-2v-1z" fill="#080808"/>
<path transform="translate(1312,379)" d="m0 0 4 2 4 6v2h2l2-5 3-5h2v17l-2-1v-10l-5 7-3-1-4-6-1 11h-2z" fill="#245E72"/>
<path transform="translate(356,792)" d="m0 0 8 1 33 10-4 3-11-4-4-1-11-3-1-2-3 1-7-3z" fill="#C9CBCD"/>
<path transform="translate(489,724)" d="m0 0 1 4h-2v10l-3 3-23 4h-5l2-2 19-3 7-1v-8l-7-2v-3l5-1 4 2h2z" fill="#6F6E75"/>
<path transform="translate(512,796)" d="m0 0h5l-4 2-10 2v2l-25 6-7-1 4-2z" fill="#BCC1C4"/>
<path transform="translate(1230,379)" d="m0 0h2l7 16h-3v-4h-10l-1 5h-2l3-9z" fill="#265E72"/>
<path transform="translate(1862,647)" d="m0 0 5 1 13 4h5v3h-8l-1-1-13-1-3-1h-5v-3l2-1 4 2z" fill="#D8D6D7"/>
<path transform="translate(56,76)" d="m0 0h32v3h-32z" fill="#255E72"/>
<path transform="translate(56,64)" d="m0 0h32v3h-32z" fill="#255E72"/>
<path transform="translate(56,52)" d="m0 0h32v3h-32z" fill="#255E72"/>
<path transform="translate(610,643)" d="m0 0h5l1 1 1 33h-3v-32l-4 1-4-1v31h-1v-32z" fill="#BCC3C8"/>
<path transform="translate(440,384)" d="m0 0h8l2 3v8l2 1h-12l-1-5 2-2h7l-3-3h-5z" fill="#548090"/>
<path transform="translate(562,643)" d="m0 0 2 2-3 4v5h-6l-1 4v-2l-10-2-2-2v-3l4-2-1 4 13-3z" fill="#2C2A2D"/>
<path transform="translate(609,584)" d="m0 0 12 1-1 2-32 1-13-1v-2h18z" fill="#2C2A2D"/>
<path transform="translate(303,379)" d="m0 0h2l1 11 2 2-2 1-1 3-2-1v-2l-8-1 2-5z" fill="#1C5C71"/>
<path transform="translate(631,384)" d="m0 0h8l2 2v9l2 1h-11l-2-2 1-4 1-1h7v-3h-8z" fill="#4E7F90"/>
<path transform="translate(511,652)" d="m0 0 3 1 2 3-1 13v12l6-2 1-11h1v12l-3 3-6-1-2-3v-10l1-8-2-4z" fill="#737379"/>
<path transform="translate(1152,626)" d="m0 0h9l-6 7-5 2h-7l1-4 4-4z" fill="#312F32"/>
<path transform="translate(693,384)" d="m0 0h7l2 3-1 4-8 1v2h8v2h-8l-3-4 1-6z" fill="#75939E"/>
<path transform="translate(581,774)" d="m0 0m-4 1h4v3l-8 1v2l-12 3h-5l2-4 15-4z" fill="#706F76"/>
<path transform="translate(1791,647)" d="m0 0 5 1 2 8 2 4-1 6-5 6-3 1 3-9 1-2-1-9-1-3-3-2zm-1 26 1 4z" fill="#F9F9F9"/>
<path transform="translate(1193,605)" d="m0 0h7l-1 3v-2h-4l-1 5-8 5v-2h-2l-1-7 1-1z" fill="#9C9A9E"/>
<path transform="translate(1395,384)" d="m0 0h7l2 1 1 9 2 2h-12l-1-1v-5l1-1 7-1-4-2-4-1z" fill="#70929F"/>
<path transform="translate(257,384)" d="m0 0h7l2 1 1 9 2 2h-12l-1-1v-5l1-1 7-1-4-2-4-1z" fill="#70929F"/>
<path transform="translate(553,384)" d="m0 0h7l2 2v5h-9l3 3h6l-1 2h-7l-3-3v-7z" fill="#547F8E"/>
<path transform="translate(394,384)" d="m0 0h7l2 2v5h-9l3 3h6l-1 2h-7l-3-3v-7z" fill="#547F8E"/>
<path transform="translate(629,701)" d="m0 0h1l1 22 10 2v1h-11l-1-1-1-17-4-2h-3l-2 3h-2l1-5 5-2h5z" fill="#D6D5D6"/>
<path transform="translate(234,384)" d="m0 0h17l2 2v10h-2v-10l-6 1-1 9h-2v-10h-6v10h-2z" fill="#1E5C71"/>
<path transform="translate(1248,570)" d="m0 0 1 2h2v2h-2v5l-3 9h-2l-1 7-1 9h-3l1-12z" fill="#CFCED0"/>
<path transform="translate(642,728)" d="m0 0h8l6 1v2l-25 4-2 1h-11l3-2 7-1 1-1 17-2z" fill="#8D898C"/>
<path transform="translate(401,572)" d="m0 0 1 2h8l-4 2-10 3h-10l-4-3 1-1 13-1z" fill="#6B6A72"/>
<path transform="translate(429,522)" d="m0 0h35l12 3v18l-4-1 2-1v-12l1-3h-7v-2h-13l-26-1z" fill="#3D3B3F"/>
<path transform="translate(625,691)" d="m0 0h5l2 4-1 4-13-1v-5z" fill="#EDEEEF"/>
<path transform="translate(597,626)" d="m0 0 2 4 2 15 3 1v31h-1l-1-9v-20l-4-5z" fill="#2C2A2D"/>
<path transform="translate(1250,558)" d="m0 0h1l-1 9-9 25-1 10-1 2h-2l1-8 1-7 3-6 4-13z" fill="#8C888C"/>
<path transform="translate(501,379)" d="m0 0h12v1l-9 1v5l8 1v2h-9v5h10v2h-12z" fill="#306173"/>
<path transform="translate(276,379)" d="m0 0h12v1l-9 1v5l8 1v2h-9v5h10v2h-12z" fill="#306173"/>
<path transform="translate(580,687)" d="m0 0 2 1v39l-2-1v-22l-2-4v-11z" fill="#080808"/>
<path transform="translate(502,640)" d="m0 0h11l2 3-13 2h-11v-2l5-2z" fill="#B5C0C7"/>
<path transform="translate(1801,758)" d="m0 0 10 3v5h-3v-2l-6 4-4-1 1-2h-2v-5h4z" fill="#C6CDD2"/>
<path transform="translate(462,384)" d="m0 0 3 1 1 4 6 2-1 4-7-1-2 1-2-5-5-2v-2l4-1 3 1z" fill="#E1E5E8"/>
<path transform="translate(629,602)" d="m0 0 1 4-12 6-6-1-1 4h-4l-3-4 15-4 2-2 7-1z" fill="#868489"/>
<path transform="translate(185,379)" d="m0 0h11v1h-9v7h9l-1 2h-8v5h9l1 2h-12z" fill="#295F72"/>
<path transform="translate(1537,55)" d="m0 0h2v8h10v-8h2v17h-2v-8h-10v8h-2z" fill="#2D5D70"/>
<path transform="translate(432,587)" d="m0 0h3l2 11v14h-2l-3-16z" fill="#6F6F76"/>
<path transform="translate(1159,562)" d="m0 0 2 3 13 31 1 2h-2l-1 2-8-20-3-7-3-8z" fill="#CECECF"/>
<path transform="translate(1286,61)" d="m0 0h2l1 2v8l2 1h-11l-2-2 1-4 2-1h6z" fill="#426A78"/>
<path transform="translate(1242,809)" d="m0 0 6 1v1l-38 6h-7v-2l19-2z" fill="#080808"/>
<path transform="translate(349,786)" d="m0 0 16 4 20 6 1 3-11-3-17-5-9-3z" fill="#6B6B72"/>
<path transform="translate(543,786)" d="m0 0h5l-4 2-10 3-9 3-8 2-7-1 4-2z" fill="#878489"/>
<path transform="translate(1819,613)" d="m0 0 3 1-3 5v9l-2 7-3 1 1-7-1-9-1-3z" fill="#D8D6D7"/>
<path transform="translate(433,378)" d="m0 0h4v19h-4z" fill="#86A1AC"/>
<path transform="translate(1344,378)" d="m0 0h3v19h-4v-18z" fill="#85A1AC"/>
<path transform="translate(532,643)" d="m0 0h9l2 4 1-2h5l-5 4h-2v6h-3l-2-5 3-5-8 1-5 1z" fill="#6E6E74"/>
<path transform="translate(1142,510)" d="m0 0 2 3 2 4 2 1v-2l14 1v1h-7l-1 2-6-1v9l-3-3-4-13z" fill="#C1C2C3"/>
<path transform="translate(556,584)" d="m0 0h8l-1 3-2 1-2 7-3 18h-2l1-10 3-16-2-1z" fill="#353336"/>
<path transform="translate(1652,60)" d="m0 0h6l2 2v4h-10l3 4 5 1v1h-6l-3-3v-7z" fill="#7D9AA4"/>
<path transform="translate(1154,642)" d="m0 0h5l-2 1 3 3v-2l3 1 1-1 10-1-1 5-3 1v-3l-2 2-6 1-3-1-4 1v-4l1-2z" fill="#BEC2C5"/>
<path transform="translate(203,52)" d="m0 0h5l2 2v5l-3 2-5-1-2-2 1-4z" fill="#EFF1F2"/>
<path transform="translate(573,780)" d="m0 0h2v2l-37 9-4-1 10-3h4v-2l17-3z" fill="#908B8E"/>
<path transform="translate(343,770)" d="m0 0 4 1 1 1v7l-2 2h-5l-1-4 2-6z" fill="#2C2A2D"/>
<path transform="translate(1237,512)" d="m0 0 6 1-4 2-15 2h-11l-1-2z" fill="#C2C2C3"/>
<path transform="translate(1268,378)" d="m0 0h2l1 6h6l2 3v9h-2l-1-9-3-1-2 1-1 9h-2z" fill="#356373"/>
<path transform="translate(1569,60)" d="m0 0 2 2 2 6 3-8 3 1 3 7 3-8 2 1-4 11h-2l-3-7-2 3-3 4-4-8z" fill="#586D71"/>
<path transform="translate(1224,637)" d="m0 0h4l-2 10-3 10-2 1v-11z" fill="#7A7A80"/>
<path transform="translate(361,583)" d="m0 0h16l4 1 2 2h-31l1-2z" fill="#938D90"/>
<path transform="translate(533,385)" d="m0 0 4 2 1 5-3 3-5-1-1-1v-6z" fill="#E7EAEC"/>
<path transform="translate(1471,60)" d="m0 0h6l3 4v2h-10l2 5-4-2v-6z" fill="#3F6774"/>
<path transform="translate(1336,60)" d="m0 0h6l3 4v2h-10l2 5-4-2v-6z" fill="#3F6774"/>
<path transform="translate(486,711)" d="m0 0h7l1 7-5 2h-3l-1-2v-6z" fill="#C2CACE"/>
<path transform="translate(1421,378)" d="m0 0h2v11l6-5 2 1-3 4 2 4 2 3-4-1-2-3-3-1v5h-2z" fill="#2E6173"/>
<path transform="translate(381,385)" d="m0 0 5 1 1 1v6l-2 2-5-1-2-5z" fill="#E5E8EA"/>
<path transform="translate(332,762)" d="m0 0 14 3 6 2v2l11 1v1l-12 1-2-4-17-4v13h-1v-14z" fill="#79777D"/>
<path transform="translate(601,611)" d="m0 0 2 1 1 17 1 9-1-4h-2l-3-15v-6z" fill="#878589"/>
<path transform="translate(1167,614)" d="m0 0h1l1 7-9 4-11 2 3-3 14-7z" fill="#C6C7CA"/>
<path transform="translate(1207,516)" d="m0 0h6l3 3h-35v-1l6-1z" fill="#8B878B"/>
<path transform="translate(330,765)" d="m0 0h1v7l-3 2-9 2h-4v3l9 3-3 2-10-5v-3l8-3 3 1 1-2 6-1z" fill="#D7D6D7"/>
<path transform="translate(651,633)" d="m0 0 2 1-1 5-7 2h-8l-1-4 15-1z" fill="#8B878B"/>
<path transform="translate(397,803)" d="m0 0h7l4 2 10 2v2l24 1v1h-21l-24-7z" fill="#828085"/>
<path transform="translate(479,722)" d="m0 0h8l2 2v3l-3 1-5-2h-3l-1 4-4-1 3-5z" fill="#D0D2D5"/>
<path transform="translate(418,627)" d="m0 0 3 2v9l-2-3-1 24-2 1v-23z" fill="#2C2A2D"/>
<path transform="translate(562,572)" d="m0 0h14v4l-6 5-2-1 4-5h3v-2l-9 1h-19l2 5-4-2v-4z" fill="#838186"/>
<path transform="translate(1252,511)" d="m0 0 9 1-4 2-5 3h-13l4-3z" fill="#6C6B72"/>
<path transform="translate(223,385)" d="m0 0 5 1v7l-6 2-2-3v-5z" fill="#E7E9EB"/>
<path transform="translate(437,604)" d="m0 0h1l5 26v6l-2-3-2-11-2 3-1-13z" fill="#6B6B72"/>
<path transform="translate(1203,604)" d="m0 0h26l-1 4v-3h-4l-1 3v-3h-5v3l3 1-2 2h-4v-3h2v-3h-9v3h-4z" fill="#75757C"/>
<path transform="translate(602,769)" d="m0 0m-4 1h4v3l-17 4h-4l1-3z" fill="#6B6B72"/>
<path transform="translate(556,661)" d="m0 0h1l1 11 2 4v6l-4 3-1-1v-11z" fill="#262527"/>
<path transform="translate(607,649)" d="m0 0 2 2 2-1 2 10-1 4-5 1z" fill="#D8D6D7"/>
<path transform="translate(504,638)" d="m0 0h10l2 5-3-2h-11l-11 2v2h-9l2-2z" fill="#938D90"/>
<path transform="translate(654,630)" d="m0 0h1l2 8-3 4-17 2h-7l2-3 22-1z" fill="#CCCDCF"/>
<path transform="translate(460,599)" d="m0 0h6l2 3v7l-4 1-4-8z" fill="#74747A"/>
<path transform="translate(601,576)" d="m0 0 4 2 5 5-1 2-17 1-17-1v-3l1 2h31l-3-3-2-1z" fill="#88878C"/>
<path transform="translate(507,571)" d="m0 0h3l1 13-4 1-14-1 3-3v2l10-1z" fill="#6A6971"/>
<path transform="translate(336,530)" d="m0 0m-3 1 3 1 1 32h-1l-3-18z" fill="#5A585D"/>
<path transform="translate(581,743)" d="m0 0h12v1l-21 4-14 2-3-1 6-2 19-3z" fill="#C9CBCD"/>
<path transform="translate(430,654)" d="m0 0 5 1 1 4-3 4-5-1-1-4z" fill="#D9DADB"/>
<path transform="translate(567,647)" d="m0 0h7l4 3 1 6-5-3-7-2-2-1v-2z" fill="#2C2A2D"/>
<path transform="translate(370,384)" d="m0 0h5v13h-4l-1-9-2 1z" fill="#90AAB4"/>
<path transform="translate(621,581)" d="m0 0 4 2 1 1 16 1 3 2v5l-2-2v-3h-20l-2-2h2z" fill="#575458"/>
<path transform="translate(1266,633)" d="m0 0h9v6l-5 1-4-1z" fill="#9D9EA2"/>
<path transform="translate(1241,384)" d="m0 0h9l2 3v9h-2l-1-9-3-1-2 1-1 9h-2z" fill="#376373"/>
<path transform="translate(512,650)" d="m0 0h9v1l-5 1 1 6-4-5-2-1 2 7-1 1h-7l-1-2h6l-1-5-3-1v-1z" fill="#6A6971"/>
<path transform="translate(199,384)" d="m0 0h9l2 2v10h-2v-10l-6 1-1 9h-2z" fill="#245E72"/>
<path transform="translate(490,720)" d="m0 0 3 1v13l-1 2-4-1 1-11-1-3z" fill="#1C1B1D"/>
<path transform="translate(440,695)" d="m0 0v3l-5 7-6 1v7l1 2-4-1v-9l4-3 6-2z" fill="#6A6971"/>
<path transform="translate(616,694)" d="m0 0h2v4h11l3 2-3 1-1 2-10 1v-2h4v-2h-5l-1-1z" fill="#B5B7BA"/>
<path transform="translate(531,658)" d="m0 0 4 2 1 3v14h-2l-1-2z" fill="#BDC3C7"/>
<path transform="translate(1173,501)" d="m0 0 4 1v3l-9 1h-13l4-2z" fill="#D4D2D3"/>
<path transform="translate(577,384)" d="m0 0h8l1 2h-8v2l7 2 1 4-1 2h-9v-2h8l-1-2-6-2-1-4z" fill="#1E5C71"/>
<path transform="translate(516,384)" d="m0 0h8l1 2h-8v2l7 2 1 4-1 2h-9v-2h8l-1-2-6-2-1-4z" fill="#1E5C71"/>
<path transform="translate(422,379)" d="m0 0h7v1l-5 1-3 1-1 8 4 4 7-1-1 3h-8l-4-3-1-8 3-5z" fill="#2A6072"/>
<path transform="translate(434,330)" d="m0 0h8l2 2v3h-13l2-4z" fill="#F0F1F2"/>
<path transform="translate(1679,60)" d="m0 0h7l3 3 1 9-5-1 1-5-6 2v3h-2v-5l2-1h6l-1-3h-7z" fill="#5F7C84"/>
<path transform="translate(1127,776)" d="m0 0h1l1 11v14l-1 6h-1l-1-14v-10z" fill="#A6A9AD"/>
<path transform="translate(331,781)" d="m0 0 18 5v2l9 2 2 2-9-2-20-6z" fill="#7D7B81"/>
<path transform="translate(639,733)" d="m0 0h4v2l-9 1-13 3-10 1v-2l7-2 11-1z" fill="#C6C8CB"/>
<path transform="translate(557,644)" d="m0 0h5l-4 5-8 2h-5l1-4h8z" fill="#080808"/>
<path transform="translate(1284,384)" d="m0 0h7l3 3v6l-3 3h-7l-2-2v-8zm2 1-3 3 1 5 2 2 5-1 2-5-3-4z" fill="#275F72"/>
<path transform="translate(1375,380)" d="m0 0h7l2 5-3 2h-6z" fill="#D9DFE2"/>
<path transform="translate(664,62)" d="m0 0 2 1v7l2 1h-10l-1-4 2-2h5z" fill="#B5B4B6"/>
<path transform="translate(637,740)" d="m0 0 6 1 1 3-6 1-2 2-5 2-2-2z" fill="#F9F9F9"/>
<path transform="translate(567,737)" d="m0 0 12 1 3 4-3 1h-8l4-1v-2h-10l-1-2z" fill="#B5C0C7"/>
<path transform="translate(311,384)" d="m0 0h8v2h-7l1 2 6 2 1 3-2 3h-8v-2h8l-1-2-7-3z" fill="#195B71"/>
<path transform="translate(566,384)" d="m0 0h8v2h-6v2l5 2 1 5-1 1h-8l-1-2h7l1-3-6-1-1-5z" fill="#175A71"/>
<path transform="translate(466,384)" d="m0 0h8v2h-6v2l5 2 1 5-1 1h-8l-1-2h7l1-3-6-1-1-5z" fill="#175A71"/>
<path transform="translate(454,384)" d="m0 0h8v2h-7l1 2 5 2 1 5-1 1h-8v-2h6l1-3-6-1-1-5z" fill="#195B71"/>
<path transform="translate(465,713)" d="m0 0h6l1 1v6h-7l-1-6z" fill="#6B6B72"/>
<path transform="translate(558,656)" d="m0 0 4 4v13l-2 1-2-9z" fill="#BBC1C4"/>
<path transform="translate(1255,514)" d="m0 0h4v5l-21 1-2-2 14-1z" fill="#C1C1C3"/>
<path transform="translate(327,384)" d="m0 0h3l3 3 3-3 2 1-3 4 2 4 1 3-4-2v-2l-5 4-2-1 3-4-2-5z" fill="#255E72"/>
<path transform="translate(658,378)" d="m0 0h1v6h7l2 2v10h-2v-10l-6 1-1 9h-1z" fill="#1A5B71"/>
<path transform="translate(1882,726)" d="m0 0h3v2h2l1 4 5-1v2h-13v-5z" fill="#6A6971"/>
<path transform="translate(625,710)" d="m0 0h1l1 13 1 4h-11v-1l5-1-9-2v-1h12z" fill="#6C6C73"/>
<path transform="translate(517,658)" d="m0 0h2v22h-2l-1-2z" fill="#080808"/>
<path transform="translate(618,754)" d="m0 0 3 1 1 4 15 3-4 2-13-3v-5l-11 1 2-2z" fill="#C4C7CA"/>
<path transform="translate(581,654)" d="m0 0h2l2 4v14h-2l-2-12z" fill="#BCC3C8"/>
<path transform="translate(533,646)" d="m0 0h5l-5 6-2 1-10-1 3-1v-2l7-1z" fill="#080808"/>
<path transform="translate(677,384)" d="m0 0h9l1 1v11h-1l-1-10-5 1-1 9h-2z" fill="#265E72"/>
<path transform="translate(330,772)" d="m0 0v3l-9 3 2 3-6-1-2-1v-3z" fill="#BCC1C4"/>
<path transform="translate(1171,606)" d="m0 0 5 1-2 3h-3l-2 8h2l-1 5-10 2 2-2 6-2v-8z" fill="#7F7C82"/>
<path transform="translate(1163,515)" d="m0 0h8l7 2h9v1l-6 1h-18l3-2z" fill="#C0C1C3"/>
<path transform="translate(506,795)" d="m0 0h6v2l-20 5-4-1 6-2h4v-2z" fill="#8D898D"/>
<path transform="translate(531,657)" d="m0 0 6 1v20l-5-1v-12h1l1 12h2l-1-14-2-4z" fill="#878488"/>
<path transform="translate(465,613)" d="m0 0 4 1 1 6-1 2 2 1-1 1h-5l-1-10z" fill="#6D6C74"/>
<path transform="translate(1779,596)" d="m0 0 3 3-1 5-2 2-1-5-10 6-3-1 10-6z" fill="#D8D6D7"/>
<path transform="translate(460,581)" d="m0 0h8l3 4h-14l-2-2z" fill="#9E9DA2"/>
<path transform="translate(430,561)" d="m0 0h27l1 5-2 4h-2l1-7h-13l-12-1z" fill="#6B6B72"/>
<path transform="translate(426,768)" d="m0 0h10v1h-8l-1 14 2 3-4-2-1-1 1-11z" fill="#727479"/>
<path transform="translate(467,701)" d="m0 0 5 2h7l1 3-6 2-5-1z" fill="#6A6971"/>
<path transform="translate(1375,389)" d="m0 0h9v5l-3 1-6-1z" fill="#E7EAEC"/>
<path transform="translate(510,741)" d="m0 0 7 1v1l-7 1-1 1-14 1v-2l7-2z" fill="#080808"/>
<path transform="translate(628,707)" d="m0 0h1v19l-3-3v-10z" fill="#B9977D"/>
<path transform="translate(354,578)" d="m0 0 24 1v2h-21l-1 2h-8v-2l7 1z" fill="#7F7D83"/>
<path transform="translate(371,569)" d="m0 0 1 2-2 5 5-1 2-5 3 1v5l-1 1h-10l-1-3 1-4z" fill="#DAE0E4"/>
<path transform="translate(1267,662)" d="m0 0h8v5l-8 3v-3l2-1-2-1z" fill="#DCDCDD"/>
<path transform="translate(610,599)" d="m0 0h3l3 7 4 1-4 2h-5l-1-3z" fill="#7A7B80"/>
<path transform="translate(448,599)" d="m0 0h4l1 3v7l-4 1-2-10z" fill="#6D6C73"/>
<path transform="translate(353,525)" d="m0 0h8v1l-5 1 2 1v3l-4-1v-2l-15 1 3-2z" fill="#717077"/>
<path transform="translate(1263,514)" d="m0 0h1v7l-4 8h-1l1-10v-3z" fill="#C1C1C3"/>
<path transform="translate(1266,647)" d="m0 0 9 2v3l-6 3h-3v-2h2v-4h-2z" fill="#D1D4D7"/>
<path transform="translate(488,600)" d="m0 0h6l1 4-2 5-4-4z" fill="#78777E"/>
<path transform="translate(610,379)" d="m0 0 3 1 2 5h-2l-1 11h-2z" fill="#225D72"/>
<path transform="translate(717,61)" d="m0 0h6l1 5h-8l-1 2v-5z" fill="#B3B3B6"/>
<path transform="translate(512,796)" d="m0 0h5l-4 2-10 2v2l-8 1-3-2z" fill="#B9C0C5"/>
<path transform="translate(625,751)" d="m0 0h7l-3 1v2l-8 2-3-1h-9v-1l14-2z" fill="#D1DADE"/>
<path transform="translate(1268,716)" d="m0 0h6l3 2-1 3-7 3 1-6h-2z" fill="#CFD0D2"/>
<path transform="translate(1810,657)" d="m0 0 2 1v3l3 1 2 6h2v2l-5-1-3-5z" fill="#D8D6D7"/>
<path transform="translate(1182,597)" d="m0 0h2v9l-3 1v2h-3v-2l-5-1 1-4 8 3z" fill="#B1B2B6"/>
<path transform="translate(736,61)" d="m0 0h5l2 2v3h-8l-1 3v-6z" fill="#AFAEB1"/>
<path transform="translate(648,61)" d="m0 0h5l2 2v3h-8l-1 3v-6z" fill="#AFAFB2"/>
<path transform="translate(1789,32)" d="m0 0 2 1v2h-3v2l4 2 3 4-5-1-6-7z" fill="#185A71"/>
<path transform="translate(418,764)" d="m0 0h5v3h-2l-1 10-2 1z" fill="#B5C0C7"/>
<path transform="translate(493,719)" d="m0 0 2 1v16l-1 2 3 1-5-1v-18z" fill="#6A6971"/>
<path transform="translate(477,655)" d="m0 0h3l-1 24h-1l-1-12z" fill="#727479"/>
<path transform="translate(1148,508)" d="m0 0 5 1v1h-5l1 6-1 2-3-1-2-4v-3z" fill="#848186"/>
<path transform="translate(1410,384)" d="m0 0h8v2l-7 1-1 5 2 2h6v2h-7l-3-2v-8z" fill="#295F72"/>
<path transform="translate(1257,384)" d="m0 0h8v2l-7 1-1 5 2 2h6v2h-7l-3-2v-8z" fill="#295F72"/>
<path transform="translate(484,384)" d="m0 0h8v2l-7 1-1 5 2 2h6v2h-7l-3-2v-8z" fill="#295F72"/>
<path transform="translate(1663,60)" d="m0 0 4 2-1 1-1 7 2 1h-2v7h-2z" fill="#6F7B77"/>
<path transform="translate(1255,54)" d="m0 0h2v7l2 1h-2l1 7 1 2-4 1z" fill="#687371"/>
<path transform="translate(1149,814)" d="m0 0h8v6l-1-4h-2l1 4h-5l-1-1z" fill="#9C9DA2"/>
<path transform="translate(350,769)" d="m0 0 2 3v2l5-1h13v1l-11 2h-8z" fill="#2C2A2D"/>
<path transform="translate(495,760)" d="m0 0h5l-3 3h-6l-1 1-16 1 3-2z" fill="#C7CACD"/>
<path transform="translate(1312,379)" d="m0 0 4 2-1 3-1 12h-2z" fill="#336273"/>
<path transform="translate(619,768)" d="m0 0h5l-4 2-7 3-8 2-4-1 6-2h4v-2z" fill="#8B878B"/>
<path transform="translate(524,742)" d="m0 0h7l2 5 3 1v-4h3l-1 5h-6l-2-2v-4l-4 1h-7v-1z" fill="#6E6E75"/>
<path transform="translate(583,726)" d="m0 0h3v2h-2v6l5 1-2 5-3-1-1-4-1-1v-6z" fill="#7E7B81"/>
<path transform="translate(606,679)" d="m0 0h9v1h-5l5 7v3h-2l-7-9z" fill="#6A6971"/>
<path transform="translate(1267,676)" d="m0 0 9 2v3l-8 3 1-6h-2z" fill="#DEDEE0"/>
<path transform="translate(1819,606)" d="m0 0 2 1-6 2-8 2-5-1 4-3h8zm-20 4 3 1z" fill="#E9E8E9"/>
<path transform="translate(629,602)" d="m0 0 1 4-12 6-2-2 5-1v-4l7-1z" fill="#8D898C"/>
<path transform="translate(1833,604)" d="m0 0 6 1v1l-7 2-5 5-6 2 3-3h2v-2h2l2-4z" fill="#F9F9F9"/>
<path transform="translate(1148,514)" d="m0 0h7l14 3v1l-18-1z" fill="#B1BAC1"/>
<path transform="translate(522,752)" d="m0 0h8v2l-8 2h-9l1-2z" fill="#7E7E83"/>
<path transform="translate(470,675)" d="m0 0h1l1 16 2 2h-6l1-4v-13z" fill="#D8D6D7"/>
<path transform="translate(463,580)" d="m0 0h7l5 1 4 1 4 3-13-1-2-2-5-1z" fill="#6E6E75"/>
<path transform="translate(160,524)" d="m0 0 5 2 8 9v2l-4-2-5-6-4-3z" fill="#D2D9DD"/>
<path transform="translate(554,786)" d="m0 0h5l-4 2-6 1v2l-8 1-3-2z" fill="#B9C0C5"/>
<path transform="translate(606,771)" d="m0 0h5l-4 2-6 1v2l-9 1-2-2z" fill="#858388"/>
<path transform="translate(555,671)" d="m0 0 1 2v11l3-1-1 4-4-1-1-2v-11z" fill="#6D6D74"/>
<path transform="translate(505,615)" d="m0 0h4l1 3v3l-1 3-4-1-1-7z" fill="#6B6B72"/>
<path transform="translate(1243,588)" d="m0 0 1 4-2 12h-3l1-12 1-3z" fill="#CCCDCF"/>
<path transform="translate(1413,61)" d="m0 0 2 1v9l2 1-5-1 1-5-7 1 1 4h-2v-5l2-1h6z" fill="#436C75"/>
<path transform="translate(499,779)" d="m0 0h10l-4 2-9 2h-6l3-3z" fill="#929398"/>
<path transform="translate(1822,745)" d="m0 0 4 2v2l-10 3 2-5z" fill="#D8D6D7"/>
<path transform="translate(470,696)" d="m0 0h7l1 4-7 1-4-4z" fill="#080808"/>
<path transform="translate(1259,505)" d="m0 0 8 2v2h-2l-1 3-3-1-1-2-2 1-1-3z" fill="#7D7C81"/>
<path transform="translate(1408,66)" d="m0 0h5l-1 6h-5l-1-5z" fill="#D2DCDF"/>
<path transform="translate(1495,55)" d="m0 0h2v5l4 1h-4v10l-2-1-1-10z" fill="#4E6A6D"/>
<path transform="translate(522,755)" d="m0 0 14 1v1l-8 1-4-1-11 2-1-2z" fill="#D0D1D3"/>
<path transform="translate(536,682)" d="m0 0h1l1 7v9l-3 1v-9z" fill="#77787D"/>
<path transform="translate(1889,641)" d="m0 0h1v7h3v3l-10 1v-2h5z" fill="#678490"/>
<path transform="translate(529,384)" d="m0 0h8l3 4-1 6-3 2 1-8-4-2-4-1z" fill="#2D6073"/>
<path transform="translate(1681,66)" d="m0 0h5l-1 6h-5l-1-4z" fill="#D5DEE1"/>
<path transform="translate(1702,61)" d="m0 0 2 1-2 3h8l-1-4 3 3v2h-10l2 5-3-1-1-7z" fill="#396571"/>
<path transform="translate(1441,61)" d="m0 0 2 1-2 3h8l-1-4 3 3v2h-10l2 5-3-1-1-7z" fill="#396571"/>
<path transform="translate(1549,55)" d="m0 0h2v17h-2l-1-9z" fill="#476F7D"/>
<path transform="translate(1278,802)" d="m0 0 5 1-1 2-8 2-4-1 3-3z" fill="#2C2A2D"/>
<path transform="translate(470,566)" d="m0 0h1v6h-13l4-2 7-3z" fill="#080808"/>
<path transform="translate(1293,60)" d="m0 0h8l-5 4-1 8h-2z" fill="#839199"/>
<path transform="translate(1132,775)" d="m0 0 2 2v10h-3v-11z" fill="#707177"/>
<path transform="translate(604,758)" d="m0 0 4 1-18 4-4-1 8-3z" fill="#87888D"/>
<path transform="translate(427,750)" d="m0 0m-5 1h5l-3 1-1 7h7v1l-9 3z" fill="#2C2A2D"/>
<path transform="translate(608,656)" d="m0 0h1l1 16-3 1z" fill="#E5E3E4"/>
<path transform="translate(506,652)" d="m0 0 3 1 1 5h-6l-2-5z" fill="#2A282B"/>
<path transform="translate(622,643)" d="m0 0h5v5l-5 1-1-5z" fill="#D0D2D4"/>
<path transform="translate(516,639)" d="m0 0 2 4-1 5 4 2-7-1-2-3h2v-3h2z" fill="#73747A"/>
<path transform="translate(442,640)" d="m0 0 2 1 1 4v8h-3z" fill="#949297"/>
<path transform="translate(479,613)" d="m0 0 4 1v6h-4l-1-6z" fill="#77777D"/>
<path transform="translate(1297,384)" d="m0 0h7l-3 3h-2v9h-2z" fill="#2C6072"/>
<path transform="translate(1900,814)" d="m0 0h10l-4 6-6-5z" fill="#6A6971"/>
<path transform="translate(596,776)" d="m0 0h5l-4 2h-2v2l-8 1-3-2z" fill="#BAC0C5"/>
<path transform="translate(633,763)" d="m0 0 7 1 5 3-2 2-8 1 2-2 3-1-7-3z" fill="#C1C1C3"/>
<path transform="translate(502,756)" d="m0 0h10v2l-7 1h-9l3-2z" fill="#7E7D83"/>
<path transform="translate(598,738)" d="m0 0h8l-2 2-9 2h-5v-2z" fill="#8F8A8D"/>
<path transform="translate(538,730)" d="m0 0 1 2 1 8h-3l-2-4-1 5h-1v-6l2-4z" fill="#706F76"/>
<path transform="translate(642,728)" d="m0 0h8l6 1v2l-12 1 2-2z" fill="#928C8F"/>
<path transform="translate(1872,709)" d="m0 0h21v1h-6l-1 3-1-2-7 1v-2h-6z" fill="#2C2A2D"/>
<path transform="translate(540,645)" d="m0 0 2 4v6h-3l-2-5z" fill="#77767C"/>
<path transform="translate(1201,596)" d="m0 0h9v1l-8 1-3 5 1 2-4-1v-3-2z" fill="#2C2A2D"/>
<path transform="translate(302,383)" d="m0 0 2 1v6l-1 1h-5l2-5z" fill="#D5DBDF"/>
<path transform="translate(234,384)" d="m0 0h7l-1 2h-4v10h-2z" fill="#2A6072"/>
<path transform="translate(1310,60)" d="m0 0h5l-5 4-1 5 1 2-4-2v-6z" fill="#6F868A"/>
<path transform="translate(1704,60)" d="m0 0h5l1 5h-8z" fill="#D5DEE1"/>
<path transform="translate(1443,60)" d="m0 0h5l1 5h-8z" fill="#D5DEE1"/>
<path transform="translate(268,57)" d="m0 0 3 1-1 14h-2z" fill="#5C6D6C"/>
<path transform="translate(1905,13)" d="m0 0 5 5v1h-10z" fill="#B5C0C7"/>
<path transform="translate(1253,767)" d="m0 0h6l-2 4-6 1-1-3z" fill="#6A6971"/>
<path transform="translate(1268,703)" d="m0 0 7 2v-2h2v5l-6-1-2-1-1 3z" fill="#D1D3D5"/>
<path transform="translate(1777,637)" d="m0 0 1 4 2 4-3 5 5-1-2 2h-4v-13z" fill="#D8D6D7"/>
<path transform="translate(468,631)" d="m0 0h4l2 7h-7z" fill="#8D8F93"/>
<path transform="translate(491,613)" d="m0 0 5 1v6h-3l-2-3z" fill="#6F6E75"/>
<path transform="translate(359,526)" d="m0 0h18v1l-15 1v3l-3-1z" fill="#080808"/>
<path transform="translate(1395,384)" d="m0 0h7l2 1v7l-7-2v-1l5-1-4-2-4-1z" fill="#165A70"/>
<path transform="translate(622,383)" d="m0 0 3 1-6 8-5-5v-2l3 1 2 2z" fill="#2F6173"/>
<path transform="translate(257,384)" d="m0 0h7l2 1v7l-7-2v-1l5-1-4-2-4-1z" fill="#165A70"/>
<path transform="translate(1242,763)" d="m0 0 2 3 5 6 6 1-2 2-6-1-5-7z" fill="#080808"/>
<path transform="translate(629,725)" d="m0 0 9 1-2 2h-19v-1l11-1z" fill="#908B8E"/>
<path transform="translate(487,712)" d="m0 0h5v6h-5z" fill="#F9F9F9"/>
<path transform="translate(1252,511)" d="m0 0 9 1-10 5v-3h-3v-2z" fill="#78787D"/>
<path transform="translate(351,384)" d="m0 0h2l2 8h2l1-2-1 6-3-1-3-8z" fill="#225D72"/>
<path transform="translate(1230,383)" d="m0 0h2l2 7h-7z" fill="#DDE1E3"/>
<path transform="translate(1281,66)" d="m0 0h6l-1 4-5 1-1-4z" fill="#F1F3F3"/>
<path transform="translate(1266,633)" d="m0 0h8v2h-3l-1 2v-2h-3l3 3v2l-4-1z" fill="#E8E8E9"/>
<path transform="translate(528,384)" d="m0 0 2 1v8l6 1v2h-7l-1 3z" fill="#0F5870"/>
<path transform="translate(1429,384)" d="m0 0 2 1-3 4 2 4 2 3-4-1-2-3-3-2 5-5z" fill="#336273"/>
<path transform="translate(1382,379)" d="m0 0 3 2v7l1 2-10-1v-1h5v-2l2-1z" fill="#376373"/>
<path transform="translate(1461,55)" d="m0 0h1v5h5v1h-5l1 9 4 2h-5l-1-1v-10l-2-1h2z" fill="#466471"/>
<path transform="translate(1432,55)" d="m0 0h1v5h5v1h-5l1 9 4 2h-5l-1-1v-10l-2-1h2z" fill="#466471"/>
<path transform="translate(1597,55)" d="m0 0h1v5h5v1h-5l1 9 4 2h-5l-1-1v-10l-2-1h2z" fill="#165A70"/>
<path transform="translate(1129,817)" d="m0 0 8 1v4l-5-1z" fill="#848287"/>
<path transform="translate(424,765)" d="m0 0h8l6 2v1h-10l-5-1z" fill="#878489"/>
<path transform="translate(535,735)" d="m0 0 2 1 2 5h7l-3 2h-7l-1-1z" fill="#B9C0C5"/>
<path transform="translate(1887,710)" d="m0 0h6v6l-5-2z" fill="#67666E"/>
<path transform="translate(625,678)" d="m0 0 2 3v7l-4-3v-3l-2-1 3-1z" fill="#7E7E84"/>
<path transform="translate(609,672)" d="m0 0h1v5h4v2h-7l-1-2 1-4z" fill="#D3D4D6"/>
<path transform="translate(541,652)" d="m0 0 10 2 3 2-1 4-3-4-4-1-1 2-4-2z" fill="#6B6B72"/>
<path transform="translate(613,599)" d="m0 0 2 3 3 1 1-3 1 6-4 1-3-4z" fill="#6A6971"/>
<path transform="translate(1159,562)" d="m0 0 2 3 4 9v2h-2l-3-5-2-6z" fill="#CBCBCD"/>
<path transform="translate(693,384)" d="m0 0h7l2 3v3l-4-1h2l-3-3-4 1-2 2 1-4z" fill="#185A71"/>
<path transform="translate(687,56)" d="m0 0h2v5h5l-4 2h-2v8h-1z" fill="#97979C"/>
<path transform="translate(1815,763)" d="m0 0h5v4l-2 1-4-1-1-3z" fill="#D8D6D7"/>
<path transform="translate(633,690)" d="m0 0 2 3-1 6-1 2-2-1-1-8h2z" fill="#D5D7D9"/>
<path transform="translate(450,615)" d="m0 0h5v4l-1 2-4-2z" fill="#6E6E75"/>
<path transform="translate(476,600)" d="m0 0 5 1-1 4h-4l-1-4z" fill="#78787F"/>
<path transform="translate(1174,599)" d="m0 0h3l3 3 2 1v2l-7-1z" fill="#75757B"/>
<path transform="translate(179,566)" d="m0 0h1v6l-4 6h-1l1-7h2z" fill="#CFDBE1"/>
<path transform="translate(1241,384)" d="m0 0 4 2-1 1-1 9h-2z" fill="#2E6173"/>
<path transform="translate(1472,61)" d="m0 0h5l1 4h-8z" fill="#F3F4F4"/>
<path transform="translate(1337,61)" d="m0 0h5l1 4h-8z" fill="#F3F4F4"/>
<path transform="translate(1157,814)" d="m0 0h4v7h-4z" fill="#7E7D83"/>
<path transform="translate(321,781)" d="m0 0 7 1 6 2-1 2-9-1v-3z" fill="#C6C9CB"/>
<path transform="translate(632,641)" d="m0 0h10l-3 1-1 2h-8z" fill="#C0C5C9"/>
<path transform="translate(443,621)" d="m0 0h3v10l-3-3z" fill="#080808"/>
<path transform="translate(640,611)" d="m0 0h4l1 7-4-1 1-2h-2z" fill="#C2C2C3"/>
<path transform="translate(311,384)" d="m0 0h8v2h-7l2 5-4-2z" fill="#235D72"/>
</svg>
