<?xml version="1.0" standalone="no"?>
<!DOCTYPE svg PUBLIC "-//W3C//DTD SVG 20010904//EN"
 "http://www.w3.org/TR/2001/REC-SVG-20010904/DTD/svg10.dtd">
<svg version="1.0" xmlns="http://www.w3.org/2000/svg"
 width="1909.000000pt" height="820.000000pt" viewBox="0 0 1909.000000 820.000000"
 preserveAspectRatio="xMidYMid meet">

<g transform="translate(0.000000,820.000000) scale(0.100000,-0.100000)"
fill="#000000" stroke="none">
<path d="M0 5895 l0 -2305 9465 0 9465 0 0 2305 0 2305 -9465 0 -9465 0 0
-2305z m3870 2126 c0 -25 -4 -30 -27 -33 l-28 -3 1 -97 1 -98 -28 0 -29 0 0
100 0 100 -30 0 c-25 0 -30 4 -30 23 0 13 3 27 7 30 3 4 42 7 85 7 l78 0 0
-29z m170 -1 c0 -28 -2 -30 -40 -30 -33 0 -40 -3 -40 -20 0 -16 7 -20 30 -20
25 0 30 -4 30 -25 0 -21 -5 -25 -30 -25 -26 0 -30 -4 -30 -26 0 -24 3 -26 40
-22 39 3 40 3 40 -29 l0 -33 -65 0 -65 0 0 84 c0 46 -3 104 -6 130 l-7 46 72
0 71 0 0 -30z m112 -10 c13 -22 25 -40 28 -40 3 0 15 18 28 40 18 33 28 40 52
40 17 0 30 -3 30 -6 0 -3 -19 -33 -42 -65 l-41 -60 41 -59 c23 -32 42 -61 42
-65 0 -3 -16 -5 -35 -5 -19 0 -35 3 -35 8 0 4 -9 22 -21 41 l-21 34 -24 -41
c-22 -37 -30 -42 -61 -42 -33 0 -34 1 -22 19 8 10 29 39 47 65 l33 46 -40 58
c-23 32 -41 61 -41 65 0 4 13 7 30 7 24 0 34 -7 52 -40z m323 10 c0 -20 -6
-26 -27 -28 l-28 -3 0 -100 0 -99 -30 0 -30 0 0 100 0 100 -25 0 c-21 0 -25 5
-25 30 l0 31 83 -3 c80 -3 82 -4 82 -28z m210 -190 c3 -6 4 -19 0 -30 -5 -16
-10 -17 -31 -10 -52 20 -63 0 -14 -25 38 -19 49 -59 25 -85 -32 -35 -115 -20
-115 20 0 22 16 35 25 20 7 -11 55 -14 55 -2 0 4 -14 15 -30 24 -22 13 -30 24
-30 46 0 15 5 33 12 40 15 15 94 16 103 2z m975 -10 c0 -11 5 -20 10 -20 6 0
10 9 10 20 0 29 24 24 37 -7 l11 -28 1 28 c1 27 21 40 21 13 0 -22 -21 -76
-30 -76 -5 0 -12 15 -16 33 l-7 32 -9 -32 c-11 -43 -22 -42 -36 6 -15 47 -15
51 -2 51 6 0 10 -9 10 -20z m120 0 c0 -11 7 -20 15 -20 8 0 15 9 15 20 0 11 5
20 10 20 6 0 10 -20 10 -45 0 -25 -4 -45 -10 -45 -5 0 -10 9 -10 20 0 11 -7
20 -15 20 -8 0 -15 -9 -15 -20 0 -11 -4 -20 -10 -20 -5 0 -10 20 -10 45 0 25
5 45 10 45 6 0 10 -9 10 -20z m90 3 c10 -17 10 -17 20 0 6 9 16 17 21 17 6 0
3 -10 -5 -22 -9 -12 -16 -33 -16 -45 0 -13 -4 -23 -10 -23 -5 0 -10 7 -10 15
0 9 -7 29 -15 45 -16 32 -3 42 15 13z m143 10 c-8 -2 -13 -22 -13 -44 0 -21
-4 -39 -10 -39 -5 0 -10 18 -10 39 0 29 -5 41 -17 44 -10 3 0 5 22 5 22 0 34
-2 28 -5z m120 -5 c4 -10 7 -10 18 0 7 6 33 12 59 11 25 0 39 -3 33 -6 -8 -2
-13 -22 -13 -44 0 -21 -4 -39 -10 -39 -5 0 -10 18 -10 40 0 33 -3 40 -20 40
-29 0 -41 -29 -23 -57 9 -13 11 -23 5 -23 -6 0 -15 7 -20 16 -8 14 -10 14 -21
0 -9 -10 -30 -16 -57 -16 l-44 0 0 45 0 45 49 0 c30 0 51 -5 54 -12z m192 1
c4 -6 4 -13 0 -17 -4 -4 -10 -1 -12 6 -6 14 -33 16 -33 2 0 -6 12 -15 26 -20
36 -14 29 -45 -10 -45 -17 0 -31 6 -34 15 -4 12 -2 13 9 3 17 -17 39 -16 39 1
0 8 -11 17 -25 20 -24 6 -33 25 -18 39 10 11 51 8 58 -4z m76 -34 c9 -25 12
-45 7 -45 -5 0 -11 7 -14 15 -4 8 -12 15 -19 15 -7 0 -15 -7 -19 -15 -3 -8 -9
-15 -14 -15 -5 0 -2 20 7 45 9 25 20 45 26 45 6 0 17 -20 26 -45z m94 34 c4
-6 4 -13 0 -17 -3 -3 -10 0 -15 7 -4 8 -15 11 -25 8 -22 -9 -16 -61 8 -65 20
-4 24 24 5 31 -7 3 -3 6 10 6 33 1 27 -43 -6 -47 -43 -6 -71 45 -40 76 15 15
55 16 63 1z m68 4 c-13 -2 -23 -11 -23 -19 0 -8 10 -15 23 -15 l22 -2 -22 -4
c-32 -6 -29 -31 5 -36 22 -3 20 -4 -10 -6 l-38 -1 0 45 c0 44 0 45 33 44 23
-1 26 -3 10 -6z m380 0 c-27 -5 -31 -32 -5 -34 16 -1 16 -2 0 -6 -10 -2 -18
-13 -18 -24 0 -10 -4 -19 -10 -19 -5 0 -10 20 -10 45 0 44 0 45 33 44 23 -1
26 -3 10 -6z m75 0 c-34 -5 -38 -32 -5 -34 l22 -2 -22 -4 c-32 -6 -29 -33 3
-33 21 0 29 8 41 40 9 22 20 40 24 40 9 0 39 -64 39 -81 0 -5 -4 -9 -10 -9 -5
0 -10 7 -10 15 0 8 -7 15 -15 15 -9 0 -18 -7 -21 -15 -4 -10 -20 -15 -50 -15
l-44 0 0 45 0 45 38 -1 c30 -2 32 -3 10 -6z m155 0 c-8 -2 -13 -22 -13 -44 0
-21 -4 -39 -10 -39 -5 0 -10 18 -10 39 0 29 -5 41 -17 44 -10 3 0 5 22 5 22 0
34 -2 28 -5z m39 -30 c2 -26 8 -38 18 -38 10 0 16 12 18 38 2 20 8 37 13 37 6
0 9 -16 7 -36 -4 -43 -29 -65 -55 -48 -19 12 -31 84 -14 84 5 0 11 -17 13 -37z
m131 3 c-1 -17 3 -36 9 -43 8 -10 7 -13 -5 -13 -9 0 -19 9 -22 20 -3 11 -11
20 -16 20 -5 0 -9 -9 -9 -20 0 -11 -4 -20 -10 -20 -5 0 -10 21 -10 46 0 45 0
45 33 42 29 -3 32 -6 30 -32z m70 27 c-13 -2 -23 -11 -23 -19 0 -8 10 -15 23
-15 l22 -2 -22 -4 c-32 -6 -29 -31 5 -36 22 -3 20 -4 -10 -6 l-38 -1 0 45 c0
44 0 45 33 44 23 -1 26 -3 10 -6z m97 -8 c15 -18 -1 -20 -18 -3 -9 9 -15 9
-23 1 -8 -8 -5 -13 12 -18 30 -10 41 -26 27 -42 -14 -17 -43 -16 -58 2 -15 18
1 20 18 3 9 -9 15 -9 24 0 9 9 7 13 -8 18 -35 13 -45 25 -33 40 15 18 43 18
59 -1z m385 -10 c0 -13 -8 -21 -22 -23 -15 -2 -23 -10 -23 -23 0 -10 -4 -19
-10 -19 -5 0 -10 21 -10 46 0 45 0 45 33 42 24 -2 32 -8 32 -23z m81 10 c4 -8
1 -21 -5 -28 -8 -10 -7 -17 1 -25 6 -6 9 -15 5 -18 -4 -4 -15 4 -26 17 l-20
24 -1 -22 c0 -13 -4 -23 -10 -23 -5 0 -10 20 -10 45 0 43 1 45 30 45 18 0 33
-6 36 -15z m34 -30 c0 -25 -4 -45 -10 -45 -5 0 -10 20 -10 45 0 25 5 45 10 45
6 0 10 -20 10 -45z m85 34 c4 -6 4 -13 0 -17 -4 -4 -10 -1 -12 6 -7 18 -31 14
-38 -7 -12 -40 16 -65 44 -38 11 10 13 9 9 -3 -3 -8 -17 -16 -31 -18 -34 -4
-55 33 -38 67 12 22 55 29 66 10z m35 -34 c0 -25 -4 -45 -10 -45 -5 0 -10 20
-10 45 0 25 5 45 10 45 6 0 10 -20 10 -45z m52 18 l17 -28 1 28 c0 15 5 27 10
27 6 0 10 -20 10 -45 0 -53 -13 -57 -39 -14 l-20 32 -4 -34 c-3 -28 -4 -25 -5
14 -2 54 6 59 30 20z m123 16 c4 -6 4 -13 0 -17 -3 -3 -10 0 -15 7 -4 8 -15
11 -25 8 -24 -10 -16 -62 9 -62 25 0 32 22 9 28 -14 4 -13 5 5 6 19 1 23 -3
20 -21 -3 -26 -41 -36 -64 -18 -17 15 -18 52 -2 68 15 15 55 16 63 1z m380
-16 c0 -12 4 -25 7 -28 14 -14 -6 -35 -33 -35 -28 0 -29 2 -29 46 0 44 1 45
28 42 20 -2 27 -9 27 -25z m45 -12 c0 -33 4 -40 23 -44 16 -3 13 -5 -10 -6
-33 -1 -33 0 -33 44 0 25 5 45 10 45 6 0 10 -18 10 -39z m120 22 c10 -17 10
-17 20 0 13 21 53 22 70 2 15 -18 -1 -20 -18 -3 -13 13 -42 -5 -42 -27 0 -22
29 -40 43 -26 9 9 9 14 -3 21 -12 8 -10 10 8 10 15 0 22 -6 22 -19 0 -33 -48
-42 -75 -14 -16 16 -18 16 -27 0 -11 -20 -49 -22 -66 -5 -7 7 -12 21 -12 33 0
43 58 63 80 28z m6020 -22 c0 -33 4 -40 23 -44 16 -3 13 -5 -10 -6 -33 -1 -33
0 -33 44 0 25 5 45 10 45 6 0 10 -18 10 -39z m118 27 c7 -7 12 -21 12 -33 0
-47 -62 -63 -81 -21 -22 47 33 90 69 54z m97 1 c4 -6 4 -13 0 -17 -3 -3 -10 0
-15 7 -4 8 -15 11 -25 8 -22 -9 -16 -61 8 -65 20 -4 24 24 5 31 -7 3 -3 6 10
6 33 1 27 -43 -6 -47 -43 -6 -71 45 -40 76 15 15 55 16 63 1z m35 -34 c0 -25
-4 -45 -10 -45 -5 0 -10 20 -10 45 0 25 5 45 10 45 6 0 10 -20 10 -45z m52 18
l17 -28 1 28 c0 15 5 27 10 27 6 0 10 -20 10 -45 0 -53 -13 -57 -39 -14 l-20
32 -4 -34 c-3 -28 -4 -25 -5 14 -2 54 6 59 30 20z m-10349 -96 c9 -50 15 -92
14 -93 -8 -8 -47 10 -47 22 0 21 -48 29 -68 12 -9 -8 -25 -13 -35 -10 -19 4
-19 5 55 123 44 71 61 60 81 -54z m180 54 c5 -5 6 -18 2 -30 -5 -17 -10 -19
-31 -11 -36 14 -42 13 -59 -14 -12 -19 -14 -30 -6 -44 12 -22 48 -35 57 -20 3
5 -3 12 -15 15 -23 6 -25 11 -12 32 6 9 18 11 40 6 32 -7 32 -8 26 -48 -10
-56 -10 -57 -56 -57 -71 0 -107 61 -79 134 17 46 101 69 133 37z m144 -25 c1
-1 0 -12 -4 -24 -5 -19 -10 -22 -34 -17 -33 8 -42 -14 -9 -22 12 -3 20 -14 20
-25 0 -17 -5 -19 -25 -14 -18 5 -25 2 -25 -9 0 -9 9 -15 26 -15 21 0 25 -4 22
-22 -3 -20 -8 -23 -43 -20 -22 2 -43 6 -47 10 -6 6 7 124 18 160 3 10 16 11
51 6 27 -3 49 -7 50 -8z m2153 -791 c0 -42 -3 -55 -15 -55 -11 0 -15 12 -15
45 0 33 -4 45 -15 45 -11 0 -15 -12 -15 -45 0 -25 -4 -45 -10 -45 -5 0 -10 20
-10 45 0 38 -3 45 -20 45 -11 0 -20 5 -20 10 0 6 27 10 60 10 l60 0 0 -55z
m101 39 c10 -13 10 -19 0 -36 -9 -15 -10 -23 -2 -31 15 -15 14 -27 -4 -27 -8
0 -19 9 -25 20 -6 11 -15 20 -20 20 -6 0 -10 -9 -10 -20 0 -11 -7 -20 -15 -20
-12 0 -15 13 -15 55 l0 55 39 0 c23 0 44 -6 52 -16z m109 6 c0 -5 -13 -10 -30
-10 -16 0 -30 -4 -30 -10 0 -5 11 -10 25 -10 14 0 25 -4 25 -10 0 -5 -11 -10
-25 -10 -16 0 -25 -6 -25 -15 0 -10 10 -15 30 -15 17 0 30 -4 30 -10 0 -5 -20
-10 -45 -10 l-45 0 0 55 0 55 45 0 c25 0 45 -4 45 -10z m98 -23 c20 -41 -5
-77 -53 -77 l-35 0 0 56 0 55 37 -3 c30 -2 41 -9 51 -31z m150 21 c17 -17 15
-73 -2 -87 -24 -20 -69 -9 -85 20 -13 24 -13 29 2 53 19 28 63 36 85 14z m102
2 c0 -5 -11 -10 -25 -10 -14 0 -25 -4 -25 -10 0 -5 11 -10 25 -10 14 0 25 -4
25 -10 0 -5 -11 -10 -25 -10 -20 0 -25 -5 -25 -25 0 -16 -6 -25 -15 -25 -12 0
-15 13 -15 55 l0 55 40 0 c22 0 40 -4 40 -10z m131 -7 c13 -15 11 -16 -13 -9
-35 8 -36 -7 -2 -22 18 -9 24 -19 22 -35 -2 -18 -9 -22 -37 -22 -20 0 -36 6
-39 14 -3 10 2 12 22 7 33 -8 34 7 1 22 -23 11 -33 40 -18 55 12 13 51 7 64
-10z m109 7 c0 -5 -13 -10 -30 -10 -16 0 -30 -4 -30 -10 0 -5 11 -10 25 -10
14 0 25 -4 25 -10 0 -5 -11 -10 -25 -10 -16 0 -25 -6 -25 -15 0 -10 10 -15 30
-15 17 0 30 -4 30 -10 0 -5 -20 -10 -45 -10 l-45 0 0 55 0 55 45 0 c25 0 45
-4 45 -10z m52 -17 l17 -28 1 28 c0 17 5 27 15 27 12 0 15 -13 15 -55 0 -65
-19 -74 -47 -22 l-18 32 -3 -32 c-5 -54 -22 -37 -22 22 0 62 15 72 42 28z
m146 15 c7 -7 12 -26 12 -43 0 -40 -16 -55 -57 -55 l-33 0 0 55 0 55 33 0 c18
0 38 -5 45 -12z m52 -43 c0 -42 -3 -55 -15 -55 -12 0 -15 13 -15 55 0 42 3 55
15 55 12 0 15 -13 15 -55z m60 23 l20 -33 0 33 c0 22 5 32 15 32 10 0 15 -10
15 -27 l0 -28 13 25 c14 28 59 39 83 19 22 -18 1 -33 -25 -17 -18 11 -23 11
-31 -2 -6 -8 -9 -21 -7 -29 3 -19 34 -37 44 -27 4 5 2 11 -4 13 -22 8 -14 23
12 23 20 0 25 -5 25 -25 0 -45 -75 -49 -97 -5 l-13 25 0 -27 c0 -39 -25 -36
-50 5 l-20 32 0 -32 c0 -23 -5 -33 -15 -33 -12 0 -15 13 -15 55 0 65 19 74 50
23z m295 -3 c0 -25 -4 -30 -27 -33 -20 -2 -28 -9 -28 -23 0 -10 -7 -19 -15
-19 -12 0 -15 13 -15 56 l0 55 43 -3 c39 -3 42 -5 42 -33z m106 19 c10 -13 10
-19 0 -36 -9 -15 -10 -23 -2 -31 15 -15 14 -27 -4 -27 -8 0 -19 9 -25 20 -6
11 -15 20 -20 20 -6 0 -10 -9 -10 -20 0 -11 -7 -20 -15 -20 -12 0 -15 13 -15
55 l0 55 39 0 c23 0 44 -6 52 -16z m116 -10 c15 -24 15 -29 2 -53 -16 -29 -61
-40 -85 -20 -17 14 -19 70 -2 87 22 22 66 14 85 -14z m68 -1 l7 -28 10 28 c12
34 48 38 48 5 l0 -22 16 22 c17 24 62 30 82 10 7 -7 12 -26 12 -43 0 -17 -5
-36 -12 -43 -20 -20 -65 -14 -82 10 l-16 22 0 -22 c0 -26 -29 -31 -31 -4 -1
16 -2 16 -6 -1 -7 -26 -36 -17 -44 13 l-7 25 -1 -27 c-2 -53 -21 -28 -21 27 0
47 3 55 19 55 12 0 21 -10 26 -27z m305 -28 c0 -42 -3 -55 -15 -55 -11 0 -15
12 -15 45 0 33 -4 45 -15 45 -11 0 -15 -12 -15 -45 0 -25 -4 -45 -10 -45 -5 0
-10 20 -10 45 0 38 -3 45 -20 45 -11 0 -20 5 -20 10 0 6 27 10 60 10 l60 0 0
-55z m104 39 c9 -8 16 -26 16 -39 0 -13 -7 -31 -16 -39 -8 -9 -26 -16 -39 -16
-13 0 -31 7 -39 16 -9 8 -16 26 -16 39 0 13 7 31 16 39 8 9 26 16 39 16 13 0
31 -7 39 -16z m68 -11 l17 -28 1 28 c0 17 5 27 15 27 12 0 15 -13 15 -55 0
-65 -19 -74 -47 -22 l-18 32 -3 -32 c-5 -54 -22 -37 -22 22 0 62 15 72 42 28z
m146 -25 l21 -53 0 53 c1 39 5 52 16 52 11 0 15 -12 15 -45 0 -43 1 -45 30
-45 17 0 30 -4 30 -10 0 -6 -26 -10 -59 -10 -43 0 -60 4 -65 15 -3 8 -15 15
-26 15 -11 0 -20 -7 -20 -15 0 -8 -7 -15 -16 -15 -16 0 -14 14 12 78 19 46 38
40 62 -20z m332 42 c0 -5 -13 -10 -30 -10 -16 0 -30 -4 -30 -10 0 -5 11 -10
25 -10 14 0 25 -4 25 -10 0 -5 -11 -10 -25 -10 -39 0 -31 -27 9 -32 42 -5 66
25 47 60 -6 11 -11 23 -11 26 0 11 28 6 34 -6 5 -10 7 -10 12 0 3 6 14 12 25
12 19 0 19 -1 3 -26 -16 -24 -16 -27 0 -55 15 -25 15 -29 2 -29 -8 0 -19 7
-24 16 -8 14 -10 14 -21 0 -10 -11 -31 -16 -72 -16 l-59 0 0 45 c0 33 -4 45
-15 45 -11 0 -15 -12 -15 -45 0 -25 -4 -45 -10 -45 -5 0 -10 20 -10 45 0 38
-3 45 -20 45 -11 0 -20 5 -20 10 0 6 37 10 90 10 53 0 90 -4 90 -10z m200 0
c0 -5 -7 -10 -15 -10 -11 0 -15 -12 -15 -45 0 -33 -4 -45 -15 -45 -11 0 -15
12 -15 45 0 33 -4 45 -15 45 -8 0 -15 5 -15 10 0 6 20 10 45 10 25 0 45 -4 45
-10z m78 -9 c3 -10 -1 -12 -17 -8 -26 6 -28 -9 -2 -18 11 -3 22 -13 25 -22 15
-37 -48 -59 -75 -27 -12 15 -10 16 19 10 38 -9 43 6 7 22 -24 11 -33 40 -18
56 12 11 56 2 61 -13z m172 -1 c0 -13 7 -20 20 -20 13 0 20 7 20 20 0 11 7 20
14 20 11 0 16 -15 18 -52 l3 -53 18 53 c23 66 43 66 70 -1 20 -49 16 -76 -7
-44 -16 21 -42 22 -50 2 -3 -9 -18 -15 -36 -15 -25 0 -30 4 -30 25 0 18 -5 25
-20 25 -15 0 -20 -7 -20 -25 0 -14 -4 -25 -10 -25 -5 0 -10 20 -10 45 0 33 -4
45 -15 45 -11 0 -15 -12 -15 -45 0 -33 -4 -45 -15 -45 -11 0 -15 12 -15 45 0
33 -4 45 -15 45 -8 0 -15 5 -15 10 0 6 25 10 55 10 48 0 55 -2 55 -20z m270
10 c0 -5 -7 -10 -15 -10 -11 0 -15 -12 -15 -45 0 -33 -4 -45 -15 -45 -11 0
-15 12 -15 45 0 33 -4 45 -15 45 -8 0 -15 5 -15 10 0 6 20 10 45 10 25 0 45
-4 45 -10z m129 -4 c17 -20 -3 -30 -29 -14 -17 11 -22 11 -30 -2 -6 -8 -9 -21
-7 -29 3 -19 34 -37 44 -27 4 5 2 11 -4 13 -22 8 -14 23 12 23 20 0 25 -5 25
-24 0 -25 -16 -36 -55 -36 -28 0 -47 22 -47 55 0 14 5 32 12 40 16 19 64 20
79 1z m111 4 c0 -5 -13 -10 -30 -10 -16 0 -30 -4 -30 -10 0 -5 14 -10 30 -10
17 0 30 -4 30 -10 0 -5 -13 -10 -30 -10 -20 0 -30 -5 -30 -15 0 -10 11 -15 35
-15 19 0 35 -4 35 -10 0 -5 -20 -10 -45 -10 l-45 0 0 55 0 55 40 0 c22 0 40
-4 40 -10z m110 0 c0 -5 -9 -10 -20 -10 -17 0 -20 -7 -20 -45 0 -25 -4 -45
-10 -45 -5 0 -10 20 -10 45 0 38 -3 45 -20 45 -11 0 -20 5 -20 10 0 6 23 10
50 10 28 0 50 -4 50 -10z m60 -45 c0 -42 -3 -55 -15 -55 -12 0 -15 13 -15 55
0 42 3 55 15 55 12 0 15 -13 15 -55z m107 40 c8 -22 -4 -30 -22 -15 -21 18
-45 5 -45 -25 0 -28 25 -44 43 -26 8 8 7 11 -6 11 -9 0 -17 5 -17 10 0 6 14
10 30 10 22 0 30 -5 30 -18 0 -41 -63 -58 -94 -26 -36 36 -9 94 45 94 17 0 32
-6 36 -15z m65 -12 l17 -28 1 28 c0 17 5 27 15 27 12 0 15 -13 15 -55 0 -65
-19 -74 -47 -22 l-18 32 -3 -32 c-5 -54 -22 -37 -22 22 0 62 15 72 42 28z
m156 15 c17 -17 15 -73 -2 -87 -24 -20 -69 -9 -85 20 -13 24 -13 29 2 53 19
28 63 36 85 14z m111 -6 c6 -11 6 -24 0 -35 -7 -11 -6 -24 1 -37 15 -28 -7
-27 -37 2 l-23 21 0 -21 c0 -13 -6 -22 -15 -22 -12 0 -15 13 -15 55 l0 55 40
0 c27 0 42 -5 49 -18z m101 8 c0 -5 -13 -10 -30 -10 -16 0 -30 -4 -30 -10 0
-5 14 -10 30 -10 17 0 30 -4 30 -10 0 -5 -13 -10 -30 -10 -20 0 -30 -5 -30
-15 0 -10 11 -15 35 -15 19 0 35 -4 35 -10 0 -5 -20 -10 -45 -10 l-45 0 0 55
0 55 40 0 c22 0 40 -4 40 -10z m98 -2 c7 -7 12 -26 12 -43 0 -40 -16 -55 -57
-55 l-33 0 0 55 0 55 33 0 c18 0 38 -5 45 -12z m-7550 -370 c16 -16 15 -58 -2
-77 -13 -14 -11 -20 10 -46 l24 -30 0 83 0 82 70 0 c63 0 70 -2 70 -20 0 -17
-7 -20 -40 -20 -22 0 -40 -4 -40 -10 0 -5 18 -10 40 -10 33 0 40 -3 40 -20 0
-17 -7 -20 -40 -20 -29 0 -40 -4 -40 -15 0 -11 11 -15 40 -15 33 0 40 -3 40
-20 0 -19 -7 -20 -105 -20 l-104 0 -18 33 -18 32 -3 -32 c-3 -29 -7 -33 -33
-33 l-29 0 0 85 0 85 63 0 c36 0 68 -5 75 -12z m252 -33 c7 -25 16 -45 20 -45
4 0 13 20 20 45 11 40 16 45 41 45 16 0 29 -1 29 -3 0 -2 -13 -39 -29 -83 -28
-76 -30 -79 -61 -79 -31 0 -34 3 -61 75 -16 41 -29 78 -29 82 0 5 13 8 29 8
25 0 30 -5 41 -45z m255 20 c56 -56 16 -145 -65 -145 -54 0 -90 34 -90 85 0
51 36 85 90 85 30 0 47 -6 65 -25z m95 -40 l0 -65 40 0 c33 0 40 -3 40 -20 0
-18 -7 -20 -70 -20 l-70 0 0 85 0 85 30 0 30 0 0 -65z m140 6 c0 -45 4 -60 16
-65 27 -10 34 3 34 65 0 59 0 59 30 59 l30 0 0 -65 c0 -82 -19 -105 -83 -105
-61 0 -80 23 -85 106 l-4 64 31 0 31 0 0 -59z m280 39 c0 -15 -7 -20 -25 -20
-24 0 -25 -2 -25 -65 l0 -65 -30 0 -30 0 0 65 c0 63 -1 65 -25 65 -18 0 -25 5
-25 20 0 18 7 20 80 20 73 0 80 -2 80 -20z m70 -65 l0 -85 -30 0 -30 0 0 85 0
85 30 0 30 0 0 -85z m175 60 c56 -56 16 -145 -65 -145 -54 0 -90 34 -90 85 0
51 36 85 90 85 30 0 47 -6 65 -25z m117 -12 l23 -38 3 38 c3 34 6 37 33 37
l29 0 0 -85 0 -85 -29 0 c-23 0 -34 8 -53 38 l-23 37 -3 -37 c-3 -35 -6 -38
-33 -38 l-29 0 0 85 0 85 29 0 c23 0 34 -8 53 -37z m168 -48 l0 -85 -30 0 -30
0 0 85 0 85 30 0 30 0 0 -85z m170 68 c-1 -10 -19 -38 -40 -63 l-40 -45 40 -3
c32 -3 40 -7 40 -23 0 -17 -7 -19 -80 -19 -96 0 -100 9 -39 78 l41 47 -36 3
c-28 3 -36 8 -36 23 0 17 7 19 75 19 65 0 75 -2 75 -17z m160 -3 c0 -17 -7
-20 -45 -20 -25 0 -45 -4 -45 -10 0 -5 18 -10 40 -10 33 0 40 -3 40 -20 0 -17
-7 -20 -40 -20 -29 0 -40 -4 -40 -15 0 -11 12 -15 45 -15 38 0 45 -3 45 -20 0
-18 -7 -20 -75 -20 l-75 0 0 85 0 85 75 0 c68 0 75 -2 75 -20z m149 -7 l13
-27 16 27 c12 19 25 27 44 27 16 0 28 -2 28 -5 0 -3 -13 -27 -30 -53 -17 -27
-30 -63 -30 -81 0 -26 -4 -31 -25 -31 -22 0 -25 4 -25 33 0 20 -13 51 -35 85
l-36 52 34 0 c27 0 36 -5 46 -27z m246 2 c56 -56 16 -145 -65 -145 -54 0 -90
34 -90 85 0 51 36 85 90 85 30 0 47 -6 65 -25z m97 -37 c3 -55 5 -63 23 -63
18 0 20 8 23 63 3 61 3 62 32 62 30 0 30 0 30 -59 0 -79 -24 -111 -83 -111
-23 0 -47 4 -53 8 -22 14 -34 52 -34 106 0 55 0 56 30 56 29 0 29 -1 32 -62z
m273 38 c15 -22 15 -28 2 -53 -14 -26 -14 -31 5 -60 l20 -33 -36 0 c-30 0 -38
5 -53 33 l-18 32 -3 -32 c-3 -29 -7 -33 -33 -33 l-29 0 0 85 0 85 65 0 c57 0
66 -3 80 -24z m181 -11 c3 -19 10 -35 14 -35 4 0 11 16 14 35 7 33 9 35 46 35
l40 0 1 -77 1 -78 26 78 26 78 36 -3 c34 -3 36 -5 62 -78 15 -41 27 -78 27
-82 1 -5 -12 -8 -29 -8 -20 0 -30 5 -30 15 0 10 -10 15 -30 15 -20 0 -30 -5
-30 -15 0 -12 -13 -15 -55 -15 l-55 0 -1 48 -1 47 -12 -45 c-10 -37 -16 -46
-37 -48 -23 -3 -27 2 -36 40 l-11 43 -1 -42 c-1 -39 -3 -43 -26 -43 -25 0 -25
1 -25 85 l0 85 40 0 c37 0 39 -2 46 -35z m449 11 c15 -22 15 -28 1 -53 -13
-27 -13 -32 5 -59 l19 -29 0 83 0 82 30 0 c26 0 30 -4 30 -27 l1 -28 22 28
c18 21 31 27 62 27 l39 0 -32 -33 -31 -32 29 -47 c17 -27 30 -50 30 -53 0 -3
-15 -5 -34 -5 -28 0 -36 5 -46 30 -15 36 -34 34 -38 -3 -3 -26 -5 -27 -67 -27
-62 0 -65 1 -82 33 l-18 32 -3 -32 c-3 -29 -7 -33 -33 -33 l-29 0 0 85 0 85
65 0 c57 0 66 -3 80 -24z m355 4 c0 -17 -7 -20 -40 -20 -22 0 -40 -4 -40 -10
0 -5 16 -10 35 -10 28 0 35 -4 35 -20 0 -16 -7 -20 -35 -20 -24 0 -35 -5 -35
-15 0 -11 11 -15 40 -15 33 0 40 -3 40 -20 0 -18 -7 -20 -70 -20 l-70 0 0 85
0 85 70 0 c63 0 70 -2 70 -20z m170 0 c0 -15 -7 -20 -25 -20 -24 0 -25 -2 -25
-65 l0 -65 -30 0 -30 0 0 65 c0 63 -1 65 -25 65 -18 0 -25 5 -25 20 0 18 7 20
80 20 73 0 80 -2 80 -20z m70 -65 l0 -85 -30 0 -30 0 0 85 0 85 30 0 30 0 0
-85z m103 48 l22 -38 3 38 c3 34 6 37 33 37 l29 0 0 -85 0 -85 -29 0 c-24 0
-35 8 -55 43 l-26 42 0 -42 c0 -41 -1 -43 -30 -43 l-30 0 0 85 0 85 30 0 c25
0 35 -7 53 -37z m251 21 c36 -35 3 -59 -45 -33 -25 13 -49 -4 -49 -35 0 -28
18 -46 45 -45 16 1 17 2 3 6 -10 2 -18 13 -18 24 0 16 7 19 45 19 43 0 45 -1
45 -29 0 -38 -32 -61 -83 -61 -50 0 -71 12 -87 49 -15 36 -7 74 20 101 25 25
101 28 124 4z m161 -21 l8 -38 10 38 c8 32 13 37 38 37 25 0 30 -5 35 -30 7
-34 24 -30 24 6 0 23 3 24 60 24 l60 0 0 -85 0 -85 -30 0 -30 0 -1 78 -1 77
-16 -75 c-17 -73 -18 -75 -49 -78 -29 -3 -31 -1 -38 37 -8 48 -20 46 -29 -4
-6 -30 -11 -35 -36 -35 -31 0 -32 2 -50 85 -6 28 -13 58 -16 68 -4 13 1 17 24
17 26 0 31 -4 37 -37z m415 17 c0 -15 -7 -20 -25 -20 -24 0 -25 -2 -25 -65 l0
-65 -30 0 -30 0 0 65 c0 63 -1 65 -25 65 -18 0 -25 5 -25 20 0 18 7 20 80 20
73 0 80 -2 80 -20z m70 -10 c0 -25 4 -30 25 -30 21 0 25 5 25 30 0 25 4 30 25
30 25 0 25 -1 25 -85 0 -84 0 -85 -25 -85 -22 0 -25 4 -25 35 0 31 -3 35 -25
35 -22 0 -25 -4 -25 -35 0 -32 -2 -35 -30 -35 l-30 0 0 85 0 85 30 0 c27 0 30
-3 30 -30z m260 -35 l0 -65 40 0 c33 0 40 -3 40 -20 0 -18 -7 -20 -70 -20
l-70 0 0 85 0 85 30 0 30 0 0 -65z m140 -20 c0 -84 0 -85 -25 -85 -25 0 -25 1
-25 85 0 84 0 85 25 85 25 0 25 -1 25 -85z m184 63 c8 -12 13 -25 10 -30 -7
-11 -52 -10 -59 2 -3 6 -10 10 -15 10 -13 0 -40 -30 -40 -45 0 -19 28 -45 48
-44 11 0 12 2 5 6 -7 2 -13 13 -13 24 0 16 7 19 40 19 39 0 40 -1 40 -33 0
-39 -27 -57 -89 -57 -52 0 -81 29 -81 82 0 60 29 88 91 88 38 0 51 -5 63 -22z
m96 -8 c0 -23 4 -30 20 -30 16 0 20 7 20 30 0 27 3 30 30 30 l30 0 0 -85 0
-85 -30 0 c-28 0 -30 3 -30 35 0 28 -4 35 -20 35 -16 0 -20 -7 -20 -35 0 -32
-2 -35 -30 -35 l-30 0 0 85 0 85 30 0 c27 0 30 -3 30 -30z m270 10 c0 -15 -7
-20 -25 -20 -24 0 -25 -2 -25 -65 l0 -65 -30 0 -30 0 0 65 c0 63 -1 65 -25 65
-18 0 -25 5 -25 20 0 18 7 20 80 20 73 0 80 -2 80 -20z m92 -17 l23 -38 3 38
c3 34 6 37 33 37 l29 0 0 -85 0 -85 -29 0 c-23 0 -34 8 -53 38 l-23 37 -3 -37
c-3 -35 -6 -38 -33 -38 l-29 0 0 85 0 85 29 0 c23 0 34 -8 53 -37z m168 -48
l0 -85 -30 0 -30 0 0 85 0 85 30 0 30 0 0 -85z m103 48 l22 -38 3 38 c3 34 6
37 33 37 l29 0 0 -85 0 -85 -29 0 c-24 0 -35 8 -55 43 l-26 42 0 -42 c0 -41
-1 -43 -30 -43 l-30 0 0 85 0 85 30 0 c25 0 35 -7 53 -37z m251 21 c36 -35 3
-59 -45 -33 -25 13 -49 -4 -49 -35 0 -28 18 -46 45 -45 16 1 17 2 3 6 -10 2
-18 13 -18 24 0 21 11 23 109 13 50 -6 61 -10 61 -25 0 -15 -8 -19 -36 -19
-21 0 -47 -8 -61 -20 -28 -22 -91 -27 -122 -10 -25 13 -45 64 -37 95 11 43 41
65 90 65 27 0 51 -6 60 -16z m246 -4 c0 -16 -7 -20 -35 -20 -19 0 -35 -4 -35
-10 0 -5 14 -10 30 -10 23 0 30 -4 30 -20 0 -16 -7 -20 -30 -20 -28 0 -30 -3
-30 -35 0 -32 -2 -35 -30 -35 l-30 0 0 85 0 85 65 0 c58 0 65 -2 65 -20z m132
-60 c15 -41 27 -78 27 -82 1 -5 -12 -8 -29 -8 -20 0 -30 5 -30 15 0 10 -10 15
-30 15 -20 0 -30 -5 -30 -15 0 -10 -10 -15 -31 -15 -21 0 -30 4 -26 13 2 6 15
45 28 85 l23 73 36 -3 c34 -3 36 -5 62 -78z m162 64 c9 -8 16 -20 16 -25 0
-13 -54 -11 -67 2 -7 7 -13 7 -17 0 -4 -6 10 -15 34 -21 58 -16 76 -54 40 -90
-29 -29 -103 -28 -124 2 -22 32 -20 38 14 38 17 0 30 -4 30 -10 0 -5 9 -10 20
-10 30 0 24 19 -7 26 -38 9 -63 33 -63 60 0 13 8 28 18 33 26 16 89 13 106 -5z
m186 -4 c0 -15 -7 -20 -25 -20 -24 0 -25 -2 -25 -65 l0 -65 -30 0 -30 0 0 65
c0 63 -1 65 -25 65 -18 0 -25 5 -25 20 0 18 7 20 80 20 73 0 80 -2 80 -20z
m230 0 c0 -15 -7 -20 -25 -20 -24 0 -25 -2 -25 -65 l0 -65 -30 0 -30 0 0 65
c0 63 -1 65 -25 65 -18 0 -25 5 -25 20 0 18 7 20 80 20 73 0 80 -2 80 -20z
m160 0 c0 -17 -7 -20 -45 -20 -25 0 -45 -4 -45 -10 0 -5 18 -10 40 -10 33 0
40 -3 40 -20 0 -17 -7 -20 -40 -20 -29 0 -40 -4 -40 -15 0 -11 12 -15 45 -15
36 0 45 -3 45 -17 0 -11 10 -3 27 22 l26 39 -21 37 c-28 48 -27 49 4 49 15 0
34 -10 44 -22 l17 -22 7 22 c7 21 13 22 122 22 107 0 114 -1 114 -20 0 -15 -7
-20 -25 -20 -24 0 -25 -2 -25 -65 l0 -65 -30 0 -30 0 0 65 c0 63 -1 65 -25 65
-14 0 -25 5 -25 10 0 19 -16 10 -34 -20 -17 -30 -17 -31 9 -75 l26 -45 -30 0
c-20 0 -35 8 -45 22 l-16 22 -16 -22 c-14 -20 -23 -22 -120 -22 l-104 0 0 85
0 85 75 0 c68 0 75 -2 75 -20z m507 -22 l9 -43 13 43 c11 39 14 42 46 42 l35
0 0 -85 c0 -77 -2 -85 -19 -85 -16 0 -20 8 -23 43 l-3 42 -13 -42 c-10 -35
-17 -43 -36 -43 -19 0 -25 8 -33 43 l-11 42 -1 -42 c-1 -39 -3 -43 -26 -43
-25 0 -25 1 -25 85 l0 85 39 0 c37 0 39 -2 48 -42z m273 22 c0 -17 -7 -20 -45
-20 -25 0 -45 -4 -45 -10 0 -5 18 -10 40 -10 33 0 40 -3 40 -20 0 -17 -7 -20
-40 -20 -29 0 -40 -4 -40 -15 0 -11 12 -15 45 -15 38 0 45 -3 45 -20 0 -18 -7
-20 -75 -20 l-75 0 0 85 0 85 75 0 c68 0 75 -2 75 -20z m138 8 c7 -7 12 -18
12 -25 0 -16 -42 -17 -58 -1 -8 8 -15 9 -22 2 -7 -7 2 -14 30 -23 22 -6 46
-21 53 -31 6 -11 22 -20 35 -20 13 0 30 -7 39 -16 12 -12 18 -13 27 -3 7 7 7
13 1 15 -5 2 -26 12 -45 22 -66 32 -44 92 34 92 42 0 66 -13 66 -37 0 -16 -42
-17 -58 -1 -9 9 -15 9 -23 1 -7 -7 -2 -12 18 -17 68 -17 92 -59 56 -98 -30
-33 -133 -19 -133 19 0 11 -6 8 -21 -11 -35 -44 -125 -34 -142 17 -5 13 -1 17
19 17 14 0 32 -7 41 -16 12 -12 18 -13 27 -3 7 7 7 13 1 15 -77 29 -102 65
-70 98 19 19 95 22 113 4z m334 -68 c15 -41 27 -78 27 -82 1 -5 -12 -8 -29 -8
-20 0 -30 5 -30 15 0 10 -10 15 -30 15 -20 0 -30 -5 -30 -15 0 -10 -10 -15
-31 -15 -21 0 -30 4 -26 13 2 6 15 45 28 85 l23 73 36 -3 c34 -3 36 -5 62 -78z
m182 58 c8 -12 13 -25 10 -30 -7 -11 -52 -10 -59 2 -3 6 -10 10 -15 10 -13 0
-40 -30 -40 -45 0 -19 28 -45 48 -44 11 0 12 2 5 6 -7 2 -13 13 -13 24 0 16 7
19 40 19 39 0 40 -1 40 -33 0 -39 -27 -57 -89 -57 -52 0 -81 29 -81 82 0 60
29 88 91 88 38 0 51 -5 63 -22z m176 2 c0 -17 -7 -20 -40 -20 -22 0 -40 -4
-40 -10 0 -5 18 -10 40 -10 33 0 40 -3 40 -20 0 -17 -7 -20 -40 -20 -29 0 -40
-4 -40 -15 0 -11 11 -15 40 -15 33 0 40 -3 40 -20 0 -18 -7 -20 -70 -20 l-70
0 0 85 0 85 70 0 c63 0 70 -2 70 -20z m234 1 c10 -11 15 -25 11 -30 -8 -14
-38 -14 -52 0 -22 22 -44 2 -41 -38 3 -41 18 -51 42 -28 17 17 56 12 56 -7 0
-48 -95 -66 -137 -26 -32 30 -32 99 -1 128 29 27 98 28 122 1z m168 -61 c15
-41 27 -78 27 -82 1 -5 -12 -8 -29 -8 -20 0 -30 5 -30 15 0 10 -10 15 -30 15
-20 0 -30 -5 -30 -15 0 -10 -10 -15 -31 -15 -21 0 -30 4 -26 13 2 6 15 45 28
85 l23 73 36 -3 c34 -3 36 -5 62 -78z m123 35 l11 -40 10 40 c9 37 13 40 47
43 l37 3 0 -85 c0 -85 0 -86 -25 -86 -22 0 -25 4 -26 38 l-1 37 -10 -37 c-8
-30 -15 -38 -34 -38 -18 0 -26 8 -33 33 l-9 32 -1 -32 c-1 -28 -5 -33 -26 -33
-25 0 -25 1 -25 86 l0 85 37 -3 c33 -3 37 -7 48 -43z m264 14 c21 -38 -2 -83
-47 -87 -26 -3 -32 -7 -32 -28 0 -20 -5 -24 -30 -24 l-30 0 0 85 0 86 62 -3
c55 -3 64 -6 77 -29z m142 -53 c16 -44 29 -81 29 -83 0 -11 -59 0 -64 12 -3 8
-17 15 -31 15 -16 0 -25 -6 -25 -15 0 -10 -10 -15 -30 -15 -16 0 -30 3 -30 8
0 4 12 42 27 85 28 78 28 78 62 75 32 -3 34 -6 62 -82z m89 -1 c0 -84 0 -85
-25 -85 -25 0 -25 1 -25 85 0 84 0 85 25 85 25 0 25 -1 25 -85z m174 69 c36
-35 3 -59 -45 -33 -25 13 -49 -4 -49 -35 0 -28 18 -46 45 -45 16 1 17 2 3 6
-10 2 -18 13 -18 24 0 16 7 19 45 19 43 0 45 -1 45 -29 0 -38 -32 -61 -83 -61
-50 0 -71 12 -87 49 -15 36 -7 74 20 101 25 25 101 28 124 4z m119 -21 l22
-38 3 38 c3 34 6 37 33 37 l29 0 0 -85 0 -85 -29 0 c-24 0 -35 8 -55 43 l-26
42 0 -42 c0 -41 -1 -43 -30 -43 l-30 0 0 85 0 85 30 0 c25 0 35 -7 53 -37z
m235 25 c7 -7 12 -18 12 -25 0 -16 -42 -17 -58 -1 -9 9 -15 9 -23 1 -7 -7 -2
-12 18 -17 68 -17 92 -59 56 -98 -11 -12 -30 -18 -58 -18 -43 0 -68 13 -78 43
-5 13 -1 17 19 17 14 0 32 -7 41 -16 12 -12 18 -13 27 -3 7 7 7 13 1 15 -77
29 -102 65 -70 98 19 19 95 22 113 4z m-2123 -578 l0 -205 -3295 0 -3295 0 -3
195 c-1 107 0 200 2 207 4 11 629 13 3298 11 l3293 -3 0 -205z m-3435 -1140
l0 -200 -750 0 -750 0 0 200 0 200 750 0 750 0 0 -200z m1770 20 l0 -180 -750
0 -750 0 0 180 0 180 750 0 750 0 0 -180z"/>
<path d="M6050 7816 c0 -8 10 -17 23 -19 l22 -4 -22 -2 c-36 -2 -29 -31 7 -31
35 0 59 32 39 56 -15 19 -69 19 -69 0z"/>
<path d="M7075 7800 c-3 -5 -1 -10 4 -10 6 0 11 5 11 10 0 6 -2 10 -4 10 -3 0
-8 -4 -11 -10z"/>
<path d="M7300 7815 c0 -8 7 -15 15 -15 8 0 15 7 15 15 0 8 -7 15 -15 15 -8 0
-15 -7 -15 -15z"/>
<path d="M7850 7815 c0 -8 7 -15 15 -15 8 0 15 7 15 15 0 8 -7 15 -15 15 -8 0
-15 -7 -15 -15z"/>
<path d="M7930 7815 c0 -8 7 -15 15 -15 8 0 15 7 15 15 0 8 -7 15 -15 15 -8 0
-15 -7 -15 -15z"/>
<path d="M8650 7815 c0 -8 5 -15 10 -15 6 0 10 7 10 15 0 8 -4 15 -10 15 -5 0
-10 -7 -10 -15z"/>
<path d="M8650 7775 c0 -9 5 -15 11 -13 6 2 11 8 11 13 0 5 -5 11 -11 13 -6 2
-11 -4 -11 -13z"/>
<path d="M8794 7816 c-9 -23 0 -51 17 -54 19 -4 32 23 24 49 -7 22 -33 25 -41
5z"/>
<path d="M14936 7812 c-9 -27 3 -54 23 -50 22 5 22 62 -1 66 -9 2 -19 -5 -22
-16z"/>
<path d="M7340 6975 c0 -8 9 -15 20 -15 11 0 20 7 20 15 0 8 -9 15 -20 15 -11
0 -20 -7 -20 -15z"/>
<path d="M7540 6955 c0 -32 3 -36 23 -33 17 2 22 10 22 33 0 23 -5 31 -22 33
-20 3 -23 -1 -23 -33z"/>
<path d="M7697 6983 c-13 -13 -7 -54 9 -60 24 -9 46 24 33 48 -10 19 -30 25
-42 12z"/>
<path d="M8240 6955 c0 -28 4 -35 19 -35 10 0 22 7 25 16 10 26 -3 54 -25 54
-15 0 -19 -7 -19 -35z"/>
<path d="M8650 6975 c0 -8 7 -15 15 -15 8 0 15 7 15 15 0 8 -7 15 -15 15 -8 0
-15 -7 -15 -15z"/>
<path d="M8750 6975 c0 -8 9 -15 20 -15 11 0 20 7 20 15 0 8 -9 15 -20 15 -11
0 -20 -7 -20 -15z"/>
<path d="M8864 6976 c-10 -26 0 -51 21 -51 16 0 20 7 20 30 0 33 -30 49 -41
21z"/>
<path d="M9095 6969 c-5 -14 -1 -27 9 -37 15 -15 17 -15 33 1 14 13 15 21 7
35 -16 25 -41 26 -49 1z"/>
<path d="M9344 6976 c-10 -26 0 -51 21 -51 16 0 20 7 20 30 0 33 -30 49 -41
21z"/>
<path d="M9575 6960 c-3 -5 -1 -10 4 -10 6 0 11 5 11 10 0 6 -2 10 -4 10 -3 0
-8 -4 -11 -10z"/>
<path d="M10520 6960 c0 -5 5 -10 11 -10 5 0 7 5 4 10 -3 6 -8 10 -11 10 -2 0
-4 -4 -4 -10z"/>
<path d="M11347 6983 c-13 -13 -7 -54 9 -60 24 -9 46 24 33 48 -10 19 -30 25
-42 12z"/>
<path d="M11460 6974 c0 -9 7 -14 17 -12 25 5 28 28 4 28 -12 0 -21 -6 -21
-16z"/>
<path d="M11660 6955 c0 -28 4 -35 19 -35 10 0 22 7 25 16 10 26 -3 54 -25 54
-15 0 -19 -7 -19 -35z"/>
<path d="M4090 6585 c0 -10 7 -15 18 -13 21 4 19 22 -2 26 -10 2 -16 -3 -16
-13z"/>
<path d="M4592 6588 c-30 -30 1 -94 33 -68 25 20 13 80 -15 80 -3 0 -11 -5
-18 -12z"/>
<path d="M5352 6588 c-30 -30 1 -94 33 -68 25 20 13 80 -15 80 -3 0 -11 -5
-18 -12z"/>
<path d="M6362 6588 c-30 -30 1 -94 33 -68 25 20 13 80 -15 80 -3 0 -11 -5
-18 -12z"/>
<path d="M6730 6585 c0 -10 7 -15 18 -13 21 4 19 22 -2 26 -10 2 -16 -3 -16
-13z"/>
<path d="M7190 6555 c0 -8 5 -15 10 -15 6 0 10 7 10 15 0 8 -4 15 -10 15 -5 0
-10 -7 -10 -15z"/>
<path d="M7360 6585 c0 -10 7 -15 18 -13 21 4 19 22 -2 26 -10 2 -16 -3 -16
-13z"/>
<path d="M10910 6555 c0 -8 5 -15 10 -15 6 0 10 7 10 15 0 8 -4 15 -10 15 -5
0 -10 -7 -10 -15z"/>
<path d="M12900 6555 c0 -8 5 -15 10 -15 6 0 10 7 10 15 0 8 -4 15 -10 15 -5
0 -10 -7 -10 -15z"/>
<path d="M13660 6555 c0 -8 5 -15 10 -15 6 0 10 7 10 15 0 8 -4 15 -10 15 -5
0 -10 -7 -10 -15z"/>
<path d="M14040 6580 c0 -13 5 -20 13 -17 6 2 12 10 12 17 0 7 -6 15 -12 18
-8 2 -13 -5 -13 -18z"/>
<path d="M14190 6556 c0 -9 5 -16 10 -16 6 0 10 4 10 9 0 6 -4 13 -10 16 -5 3
-10 -1 -10 -9z"/>
<path d="M6174 6237 c-2 -7 -3 -96 -2 -197 l3 -185 3285 0 3285 0 0 195 0 195
-3283 3 c-2665 2 -3284 0 -3288 -11z m6319 -141 c32 -14 57 -31 57 -38 0 -13
-129 -98 -149 -98 -8 0 -11 18 -10 53 1 28 -1 67 -6 86 -8 34 -8 34 22 28 16
-3 55 -17 86 -31z m-6033 -11 c8 -9 9 -15 2 -15 -6 0 -14 5 -17 10 -8 13 -25
13 -25 0 0 -19 44 -29 61 -14 21 19 36 18 48 -3 10 -17 10 -17 11 0 0 12 8 17
30 17 28 0 30 -3 30 -35 0 -19 -4 -35 -10 -35 -5 0 -10 14 -10 31 0 17 -4 28
-10 24 -5 -3 -10 -17 -10 -31 0 -13 -4 -24 -10 -24 -5 0 -10 7 -10 15 0 9 -10
15 -26 15 -14 0 -23 -4 -19 -10 3 -5 12 -7 20 -3 8 3 15 0 15 -6 0 -14 -37
-14 -46 0 -4 8 -9 8 -17 0 -16 -16 -52 -14 -67 4 -14 17 0 21 17 4 6 -6 16 -8
22 -5 18 11 13 26 -8 26 -23 0 -35 15 -27 35 7 19 40 19 56 0z m210 -31 c0
-44 -1 -45 -27 -42 -22 2 -29 9 -31 31 -3 22 1 30 17 34 12 3 21 9 21 14 0 5
5 9 10 9 6 0 10 -21 10 -46z m61 39 c5 -53 2 -83 -7 -83 -12 0 -23 58 -16 79
4 12 22 15 23 4z m160 -5 c1 -7 0 -24 0 -38 -2 -20 3 -25 24 -26 30 -2 33 11
4 19 -12 3 -19 12 -17 19 5 16 48 24 48 9 0 -6 -7 -8 -15 -5 -8 4 -15 2 -15
-4 0 -5 9 -12 20 -15 36 -9 13 -36 -31 -35 -36 0 -39 2 -39 29 0 16 -4 29 -9
29 -13 0 -22 -28 -11 -35 6 -4 10 -11 10 -17 0 -7 -5 -6 -14 1 -8 7 -17 8 -20
3 -3 -5 -21 -9 -40 -10 -37 -1 -53 19 -40 52 7 18 59 20 82 3 8 -6 12 -6 12 2
0 6 7 11 15 11 8 0 15 5 15 10 0 15 20 12 21 -2z m129 0 c0 -9 4 -8 10 2 7 10
12 11 18 4 4 -6 15 -13 25 -17 9 -3 17 -13 17 -21 0 -9 7 -12 20 -9 11 3 20 9
20 14 0 5 -7 6 -15 3 -8 -4 -15 -1 -15 5 0 6 11 11 25 11 22 0 25 -4 25 -35 0
-34 -1 -35 -40 -33 -34 1 -40 4 -40 24 0 13 -4 26 -10 29 -6 4 -10 -7 -10 -24
0 -26 -4 -31 -24 -31 -20 0 -25 6 -28 34 -2 19 -2 39 0 45 5 15 22 14 22 -1z
m163 -37 c1 -23 -1 -41 -4 -41 -8 0 -16 63 -11 80 7 20 14 3 15 -39z m324 -18
c-2 -16 -4 -5 -4 22 0 28 2 40 4 28 2 -13 2 -35 0 -50z m240 0 c-2 -16 -4 -5
-4 22 0 28 2 40 4 28 2 -13 2 -35 0 -50z m33 22 c0 -25 -4 -45 -10 -45 -5 0
-10 20 -10 45 0 25 5 45 10 45 6 0 10 -20 10 -45z m190 35 c0 -5 7 -10 15 -10
9 0 15 -9 15 -24 0 -14 5 -28 10 -31 6 -4 10 7 10 24 0 17 5 31 10 31 6 0 10
-16 10 -36 0 -33 -2 -35 -27 -32 -22 2 -30 10 -35 33 l-7 30 3 -32 c2 -31 2
-32 -38 -30 -38 2 -41 4 -41 32 0 25 4 30 28 33 15 2 27 8 27 13 0 5 5 9 10 9
6 0 10 -4 10 -10z m157 -57 c-2 -16 -4 -5 -4 22 0 28 2 40 4 28 2 -13 2 -35 0
-50z m43 50 c11 -10 20 -24 21 -33 0 -8 5 -4 11 10 6 14 12 20 15 13 6 -16
-24 -83 -38 -83 -8 0 -8 4 -1 13 7 8 6 21 -3 42 l-13 30 -1 -32 c-1 -51 -21
-39 -21 12 0 25 2 45 5 45 3 0 14 -8 25 -17z m660 5 c0 -9 4 -8 10 2 7 10 12
11 18 4 4 -6 15 -13 25 -17 18 -7 25 -67 7 -67 -5 0 -10 14 -10 31 0 17 -4 28
-10 24 -5 -3 -10 -17 -10 -31 0 -19 -5 -24 -25 -24 -21 0 -25 5 -27 33 l-1 32
-4 -32 c-5 -37 -23 -45 -24 -10 0 21 -1 21 -10 -3 -10 -24 -11 -24 -25 -6 -12
17 -14 18 -14 3 0 -29 -19 -19 -28 16 -10 36 -6 49 9 27 8 -11 12 -12 16 -2 8
20 23 14 24 -10 l2 -23 4 23 c3 15 11 22 29 22 13 0 24 5 24 10 0 6 5 10 10
10 6 0 10 -6 10 -12z m310 -34 c0 -44 -1 -45 -27 -42 -22 2 -29 9 -31 31 -3
22 1 30 17 34 12 3 21 9 21 14 0 5 5 9 10 9 6 0 10 -21 10 -46z m211 39 c5
-55 2 -83 -8 -83 -8 0 -14 14 -15 33 l-1 32 -4 -33 c-4 -29 -8 -33 -30 -30
-33 4 -42 27 -14 35 12 3 21 9 21 14 0 23 -40 -1 -52 -30 -9 -25 -10 -25 -24
-7 -12 17 -14 18 -14 3 0 -29 -19 -19 -28 16 -10 36 -6 49 9 27 8 -11 12 -12
16 -2 8 20 23 14 24 -10 2 -22 2 -22 6 -2 3 17 12 21 46 22 23 1 44 7 45 12 4
12 22 14 23 3z m89 -2 c0 -5 9 -11 20 -14 15 -4 20 -14 20 -36 0 -17 -4 -31
-10 -31 -5 0 -10 14 -10 31 0 17 -4 28 -10 24 -5 -3 -10 -16 -10 -29 0 -19 -6
-23 -34 -24 -27 -1 -36 3 -41 19 -8 25 13 52 37 46 11 -3 18 0 18 9 0 8 5 14
10 14 6 0 10 -4 10 -9z m423 -4 c3 -8 1 -20 -3 -27 -5 -8 -4 -22 1 -32 6 -12
6 -18 0 -18 -6 0 -15 9 -21 20 -6 11 -15 20 -20 20 -6 0 -10 -9 -10 -20 0 -11
-4 -20 -10 -20 -5 0 -10 20 -10 45 0 44 0 45 34 45 19 0 36 -6 39 -13z m81 7
c10 -4 16 -18 16 -40 0 -28 -5 -35 -25 -40 -31 -8 -55 10 -55 40 0 37 27 54
64 40z m46 -39 c0 -25 -4 -45 -10 -45 -5 0 -10 20 -10 45 0 25 5 45 10 45 6 0
10 -20 10 -45z m-2705 15 c4 -6 13 -5 26 3 17 10 22 9 34 -6 12 -17 14 -17 23
-2 15 28 47 14 47 -20 0 -34 -32 -48 -47 -21 -5 9 -20 16 -34 16 -14 0 -23 -4
-19 -10 3 -5 12 -7 20 -3 8 3 15 0 15 -6 0 -13 -36 -15 -44 -2 -7 10 -56 -9
-56 -21 0 -5 -4 -8 -10 -8 -5 0 -10 20 -10 45 0 41 2 45 24 45 14 0 28 -4 31
-10z m203 -23 c3 -22 -1 -30 -17 -34 -12 -3 -21 -9 -21 -14 0 -5 -4 -9 -10 -9
-5 0 -10 21 -10 46 0 44 1 45 28 42 21 -2 28 -9 30 -31z m90 11 c2 -13 -3 -18
-18 -18 -12 0 -19 -4 -15 -10 3 -5 13 -6 22 -3 11 4 14 3 9 -5 -11 -18 -43
-15 -50 4 -4 9 -4 25 0 36 7 24 47 21 52 -4z m63 5 c1 -17 2 -17 6 0 5 20 19
22 27 5 5 -10 7 -10 12 0 3 6 14 12 25 12 15 0 19 -7 19 -35 0 -44 -20 -46
-21 -2 l-1 32 -9 -32 c-10 -35 -29 -45 -29 -16 0 15 -2 14 -14 -3 -17 -23 -21
-19 -31 24 -4 20 -3 32 4 32 6 0 12 -8 12 -17z m239 -19 c0 -32 -2 -35 -27
-32 -33 4 -43 27 -14 35 12 3 21 10 21 15 0 5 -10 6 -21 3 -15 -5 -19 -4 -15
4 4 6 18 11 32 11 21 0 24 -5 24 -36z m228 -1 c3 -31 1 -33 -27 -33 -36 0 -44
28 -11 37 11 3 20 10 20 15 0 5 -10 6 -21 3 -15 -5 -19 -4 -14 5 4 6 17 10 28
8 17 -2 23 -11 25 -35z m210 15 c2 -13 -3 -18 -18 -18 -12 0 -19 -4 -15 -10 3
-5 13 -6 22 -3 11 4 14 3 9 -5 -11 -18 -43 -15 -50 4 -4 9 -4 25 0 36 7 24 47
21 52 -4z m70 10 c9 -9 12 -9 12 0 0 7 12 12 26 12 23 0 25 -3 22 -42 -3 -38
-6 -43 -28 -45 -23 -2 -23 -2 -5 6 17 8 18 10 3 10 -10 1 -18 7 -19 14 0 10
-2 10 -6 0 -9 -24 -23 -13 -23 17 0 17 -4 30 -10 30 -5 0 -10 -13 -10 -30 0
-16 -4 -30 -10 -30 -5 0 -10 16 -10 35 0 30 3 35 23 35 13 0 28 -5 35 -12z
m132 -24 c0 -32 -2 -35 -27 -32 -33 4 -43 27 -14 35 12 3 21 10 21 15 0 5 -10
6 -21 3 -15 -5 -19 -4 -15 4 4 6 18 11 32 11 21 0 24 -5 24 -36z m68 -6 c-3
-40 -5 -43 -33 -45 -28 -2 -28 -1 -5 6 25 7 25 7 3 13 -16 4 -23 14 -23 30 0
31 7 38 37 38 22 0 24 -3 21 -42z m70 20 c2 -13 -3 -18 -17 -18 -12 0 -21 -5
-21 -11 0 -6 9 -8 23 -4 17 6 19 4 11 -5 -27 -28 -65 7 -50 46 8 21 50 14 54
-8z m342 -14 c0 -32 -2 -35 -27 -32 -33 4 -43 27 -14 35 12 3 21 10 21 15 0 5
-10 6 -21 3 -15 -5 -19 -4 -15 4 4 6 18 11 32 11 21 0 24 -5 24 -36z m68 -1
c2 -19 -1 -33 -7 -33 -6 0 -11 14 -11 30 0 17 -4 30 -10 30 -5 0 -10 -13 -10
-30 0 -16 -4 -30 -10 -30 -5 0 -10 16 -10 36 0 33 2 35 28 32 22 -2 28 -8 30
-35z m472 20 c1 -17 1 -17 14 0 22 29 26 19 9 -28 -9 -29 -21 -45 -31 -45 -14
0 -14 2 -3 9 11 7 11 15 2 41 -13 40 -13 40 -1 40 6 0 10 -8 10 -17z m95 -18
c0 -23 -5 -31 -21 -33 -24 -3 -38 20 -28 50 4 13 13 18 27 16 17 -2 22 -10 22
-33z m35 4 c0 -17 4 -28 10 -24 6 3 10 17 10 31 0 13 5 24 10 24 6 0 10 -16
10 -36 0 -33 -2 -35 -27 -32 -23 2 -29 8 -31 36 -2 18 1 32 7 32 6 0 11 -14
11 -31z m83 24 c-7 -2 -13 -18 -13 -34 0 -16 -4 -29 -10 -29 -5 0 -10 16 -10
35 0 30 3 35 23 34 12 0 16 -3 10 -6z m347 -22 c0 -46 -10 -61 -39 -60 -22 0
-23 2 -7 8 18 7 18 8 3 14 -17 6 -24 47 -10 60 3 4 17 7 30 7 19 0 23 -5 23
-29z m35 18 c-4 -6 -11 -23 -15 -37 -8 -25 -8 -24 -9 11 -1 27 3 37 15 37 8 0
12 -5 9 -11z m64 -1 c11 -10 13 -10 7 0 -11 18 5 14 20 -5 13 -17 13 -17 14 0
0 22 20 23 20 0 0 -15 2 -14 16 3 15 18 15 17 10 -15 -8 -42 -14 -50 -27 -31
-8 11 -12 12 -16 3 -7 -19 -23 -16 -23 4 0 15 -1 15 -18 0 -10 -10 -24 -17
-30 -17 -18 0 -31 32 -21 52 11 21 30 23 48 6z"/>
<path d="M12416 6078 c4 -13 7 -36 5 -52 l-1 -28 41 24 c23 13 42 28 43 32 0
5 -21 17 -47 27 l-48 19 7 -22z"/>
<path d="M6495 6060 c-3 -5 1 -10 10 -10 9 0 13 5 10 10 -3 6 -8 10 -10 10 -2
0 -7 -4 -10 -10z"/>
<path d="M6630 6045 c0 -15 4 -24 10 -20 6 3 10 12 10 20 0 8 -4 17 -10 20 -6
4 -10 -5 -10 -20z"/>
<path d="M6765 6060 c-3 -5 -1 -10 4 -10 6 0 11 5 11 10 0 6 -2 10 -4 10 -3 0
-8 -4 -11 -10z"/>
<path d="M6800 6057 c0 -11 -8 -17 -22 -17 -26 0 -15 -13 13 -15 24 -2 37 21
20 38 -8 8 -11 7 -11 -6z"/>
<path d="M7022 6045 c0 -16 2 -22 5 -12 2 9 2 23 0 30 -3 6 -5 -1 -5 -18z"/>
<path d="M7110 6030 c0 -5 5 -10 10 -10 6 0 10 5 10 10 0 6 -4 10 -10 10 -5 0
-10 -4 -10 -10z"/>
<path d="M7910 6045 c0 -27 1 -28 24 -19 28 11 13 44 -20 44 -2 0 -4 -11 -4
-25z"/>
<path d="M8832 6045 c0 -16 2 -22 5 -12 2 9 2 23 0 30 -3 6 -5 -1 -5 -18z"/>
<path d="M9100 6045 c0 -15 4 -24 10 -20 6 3 10 12 10 20 0 8 -4 17 -10 20 -6
4 -10 -5 -10 -20z"/>
<path d="M9280 6030 c0 -5 5 -10 10 -10 6 0 10 5 10 10 0 6 -4 10 -10 10 -5 0
-10 -4 -10 -10z"/>
<path d="M9384 6055 c-3 -8 -3 -19 0 -24 9 -13 36 -2 36 14 0 19 -30 27 -36
10z"/>
<path d="M9810 6075 c0 -10 7 -15 18 -13 21 4 19 22 -2 26 -10 2 -16 -3 -16
-13z"/>
<path d="M9907 6083 c-11 -10 -8 -51 4 -59 6 -3 18 0 26 9 12 11 13 19 4 36
-12 22 -23 26 -34 14z"/>
<path d="M7257 6063 c-11 -10 -8 -43 3 -43 6 0 10 11 10 25 0 26 -2 29 -13 18z"/>
<path d="M7315 6060 c-3 -5 1 -10 10 -10 9 0 13 5 10 10 -3 6 -8 10 -10 10 -2
0 -7 -4 -10 -10z"/>
<path d="M7384 6057 c-4 -10 -2 -23 3 -28 14 -14 24 13 13 32 -7 11 -10 10
-16 -4z"/>
<path d="M7457 6063 c-11 -10 -8 -43 3 -43 6 0 10 11 10 25 0 26 -2 29 -13 18z"/>
<path d="M7545 6060 c-3 -5 -1 -10 4 -10 6 0 11 5 11 10 0 6 -2 10 -4 10 -3 0
-8 -4 -11 -10z"/>
<path d="M7840 6030 c0 -5 5 -10 10 -10 6 0 10 5 10 10 0 6 -4 10 -10 10 -5 0
-10 -4 -10 -10z"/>
<path d="M8070 6029 c0 -5 5 -7 10 -4 6 3 10 8 10 11 0 2 -4 4 -10 4 -5 0 -10
-5 -10 -11z"/>
<path d="M8285 6060 c-3 -5 -1 -10 4 -10 6 0 11 5 11 10 0 6 -2 10 -4 10 -3 0
-8 -4 -11 -10z"/>
<path d="M8413 6054 c-3 -8 -1 -20 6 -27 8 -8 11 -4 11 16 0 30 -7 35 -17 11z"/>
<path d="M8480 6030 c0 -5 5 -10 10 -10 6 0 10 5 10 10 0 6 -4 10 -10 10 -5 0
-10 -4 -10 -10z"/>
<path d="M8550 6045 c0 -15 4 -24 10 -20 6 3 10 12 10 20 0 8 -4 17 -10 20 -6
4 -10 -5 -10 -20z"/>
<path d="M8620 6060 c0 -5 5 -10 11 -10 5 0 7 5 4 10 -3 6 -8 10 -11 10 -2 0
-4 -4 -4 -10z"/>
<path d="M8960 6030 c0 -5 5 -10 10 -10 6 0 10 5 10 10 0 6 -4 10 -10 10 -5 0
-10 -4 -10 -10z"/>
<path d="M9604 6057 c-4 -10 -2 -23 3 -28 14 -14 24 13 13 32 -7 11 -10 10
-16 -4z"/>
<path d="M10060 6045 c0 -15 4 -24 10 -20 6 3 10 12 10 20 0 8 -4 17 -10 20
-6 4 -10 -5 -10 -20z"/>
<path d="M10164 6056 c-4 -10 -2 -22 4 -28 8 -8 13 -7 18 6 4 10 2 22 -4 28
-8 8 -13 7 -18 -6z"/>
<path d="M8184 4946 c-12 -32 0 -61 29 -64 22 -3 27 1 27 17 0 12 -4 21 -10
21 -5 0 -7 -7 -3 -16 4 -12 1 -15 -13 -12 -29 5 -26 53 3 52 12 0 20 3 17 8
-8 13 -44 9 -50 -6z"/>
<path d="M8260 4920 c0 -39 1 -40 33 -39 30 2 30 2 5 6 -34 5 -37 30 -5 36
l22 4 -22 2 c-13 0 -23 5 -23 10 0 5 10 12 23 14 19 4 18 4 -5 6 -26 1 -28 -2
-28 -39z"/>
<path d="M8333 4953 c12 -3 17 -16 19 -41 l1 -37 4 35 c3 19 10 38 16 42 7 4
-4 7 -23 7 -19 -1 -27 -3 -17 -6z"/>
<path d="M8427 4952 c6 -4 13 -23 16 -42 l4 -35 1 37 c1 20 8 39 15 41 6 3 -1
6 -18 6 -17 0 -25 -3 -18 -7z"/>
<path d="M8490 4920 c0 -37 2 -40 28 -39 23 2 24 2 5 6 -13 2 -23 11 -23 18 0
7 10 16 23 18 l22 4 -22 2 c-13 0 -23 5 -23 10 0 5 10 12 23 14 19 4 18 4 -5
6 -26 1 -28 -2 -28 -39z"/>
<path d="M8560 4953 c0 -7 5 -15 11 -18 7 -5 5 -15 -6 -31 -18 -27 -9 -33 11
-6 12 16 13 16 19 0 4 -10 11 -18 16 -18 5 0 2 11 -6 24 -11 16 -13 26 -6 31
6 3 11 11 11 17 0 7 -4 7 -13 -1 -10 -8 -17 -7 -25 1 -9 9 -12 9 -12 1z"/>
<path d="M8633 4953 c12 -3 17 -16 19 -41 l1 -37 4 35 c3 19 10 38 16 42 7 4
-4 7 -23 7 -19 -1 -27 -3 -17 -6z"/>
<path d="M8704 4948 c-4 -6 2 -19 14 -29 28 -22 28 -33 1 -26 -16 4 -19 3 -11
-5 14 -14 42 -3 42 16 0 8 -9 18 -20 21 -11 3 -20 11 -20 16 0 6 9 7 21 4 15
-5 19 -4 15 4 -9 14 -33 14 -42 -1z"/>
<path d="M8772 4923 c-6 -20 -9 -39 -7 -42 3 -2 5 1 5 7 0 7 9 12 20 12 11 0
20 -5 20 -12 0 -6 3 -9 6 -5 8 7 -15 77 -25 77 -4 0 -13 -17 -19 -37z m24 -10
c-10 -10 -19 5 -10 18 6 11 8 11 12 0 2 -7 1 -15 -2 -18z"/>
<path d="M8844 4946 c-12 -32 0 -61 29 -64 22 -3 27 1 27 17 0 12 -4 21 -10
21 -5 0 -7 -7 -3 -16 4 -12 1 -15 -13 -12 -29 5 -26 53 3 52 12 0 20 3 17 8
-8 13 -44 9 -50 -6z"/>
<path d="M8920 4920 c0 -39 1 -40 33 -39 30 2 30 2 5 6 -34 5 -37 30 -5 36
l22 4 -22 2 c-13 0 -23 5 -23 10 0 5 10 12 23 14 19 4 18 4 -5 6 -26 1 -28 -2
-28 -39z"/>
<path d="M9600 4930 l0 -170 740 0 740 0 0 170 0 170 -740 0 -740 0 0 -170z
m438 43 c-16 -3 -28 -9 -28 -14 0 -15 46 -10 60 6 16 19 44 19 64 -1 15 -14
16 -14 16 0 0 9 5 16 10 16 6 0 10 -16 10 -36 0 -46 22 -41 32 7 6 34 6 34 5
-6 -2 -33 -6 -41 -25 -43 -16 -2 -25 3 -31 20 -9 20 -16 11 -12 -14 3 -18 -59
-7 -71 12 -15 23 -58 27 -58 6 0 -8 12 -17 28 -19 16 -2 8 -5 -21 -6 -34 -1
-49 3 -53 14 -4 8 -10 15 -15 15 -5 0 -9 -7 -9 -15 0 -8 -4 -15 -10 -15 -5 0
-10 18 -10 39 l0 40 73 -1 c39 -1 60 -3 45 -5z m225 0 c-13 -2 -23 -9 -23 -14
0 -5 10 -10 23 -10 l22 -2 -22 -4 c-13 -2 -23 -11 -23 -18 0 -10 14 -14 50
-13 56 2 63 9 24 27 -43 19 -23 36 47 38 35 1 58 0 52 -3 -7 -3 -13 -21 -13
-40 0 -19 -4 -34 -10 -34 -5 0 -10 15 -10 34 0 32 -2 34 -35 33 -41 -1 -45 -9
-10 -25 45 -21 21 -40 -51 -41 l-64 0 0 39 c0 39 1 40 33 39 23 -1 26 -3 10
-6z m252 -33 c0 -32 -3 -35 -32 -38 -32 -3 -33 -3 -33 38 0 41 1 41 33 38 29
-3 32 -6 32 -38z m58 33 c-13 -2 -23 -9 -23 -14 0 -5 10 -10 23 -10 l22 -2
-22 -4 c-32 -6 -30 -33 2 -33 22 0 25 4 25 35 0 38 19 48 27 15 3 -11 9 -20
13 -20 4 0 10 9 13 20 6 24 27 27 27 3 0 -15 1 -15 13 1 8 11 23 17 38 14 20
-2 24 -8 24 -38 0 -30 -4 -36 -24 -38 -15 -3 -30 3 -38 14 -12 16 -13 16 -13
1 0 -9 -4 -17 -10 -17 -5 0 -10 6 -10 13 0 8 -4 7 -10 -3 -9 -13 -11 -13 -20
0 -6 10 -10 11 -10 3 0 -9 -16 -13 -45 -13 l-45 0 0 40 c0 39 1 40 33 39 23
-1 26 -3 10 -6z"/>
<path d="M9940 4955 c0 -8 7 -15 15 -15 8 0 15 7 15 15 0 8 -7 15 -15 15 -8 0
-15 -7 -15 -15z"/>
<path d="M10084 4956 c-3 -9 -3 -24 1 -33 5 -12 9 -14 12 -5 3 6 9 9 15 6 6
-4 8 3 6 17 -4 27 -26 37 -34 15z"/>
<path d="M9981 4924 c0 -11 3 -14 6 -6 3 7 2 16 -1 19 -3 4 -6 -2 -5 -13z"/>
<path d="M10470 4940 c0 -20 5 -30 15 -30 10 0 15 10 15 30 0 20 -5 30 -15 30
-10 0 -15 -10 -15 -30z"/>
<path d="M10707 4955 c-8 -20 3 -47 17 -42 6 2 11 14 11 27 0 27 -20 38 -28
15z"/>
<path d="M19020 8101 l-21 -31 45 0 c52 0 56 7 22 39 l-24 22 -22 -30z"/>
<path d="M6225 2745 c-14 -13 -25 -33 -25 -45 0 -44 68 -78 98 -48 9 9 12 7
12 -10 0 -27 -26 -39 -50 -24 -14 8 -22 7 -36 -4 -18 -14 -18 -14 0 -29 25
-19 76 -19 103 0 28 20 39 76 24 126 -19 63 -81 80 -126 34z m78 -27 c7 -21
-4 -38 -23 -38 -23 0 -34 16 -26 35 7 18 43 20 49 3z"/>
<path d="M6430 2752 c-34 -28 -40 -117 -10 -154 30 -39 90 -39 119 -2 31 39
29 117 -4 149 -29 30 -73 33 -105 7z m75 -82 c0 -52 -1 -55 -25 -55 -21 0 -26
5 -28 34 -6 55 5 83 31 79 20 -3 22 -9 22 -58z"/>
<path d="M6616 2754 c-34 -34 -9 -94 39 -94 50 0 73 60 37 93 -23 21 -56 22
-76 1z m51 -48 c-4 -9 -11 -16 -17 -16 -11 0 -14 33 -3 44 11 10 26 -11 20
-28z"/>
<path d="M6715 2674 c-64 -91 -73 -113 -42 -101 12 5 137 178 137 191 0 3 -6
6 -14 6 -8 0 -45 -43 -81 -96z"/>
<path d="M7042 2760 c-13 -6 -30 -26 -38 -46 -31 -75 10 -144 85 -144 47 0 78
22 90 65 25 92 -49 160 -137 125z m76 -42 c13 -13 16 -66 6 -92 -10 -26 -63
-21 -74 8 -22 59 29 123 68 84z"/>
<path d="M7230 2670 c0 -99 0 -100 24 -100 21 0 25 5 28 38 3 35 5 37 41 40
42 4 54 32 13 32 -37 0 -56 10 -56 31 0 16 8 19 50 19 43 0 50 3 50 20 0 18
-7 20 -75 20 l-75 0 0 -100z"/>
<path d="M7558 2755 c-52 -29 -55 -135 -5 -170 42 -29 137 -9 137 29 0 19 -37
27 -44 10 -7 -17 -48 -18 -64 -2 -7 7 -12 28 -12 48 0 56 34 77 70 45 19 -17
50 -10 50 10 0 36 -86 56 -132 30z"/>
<path d="M7759 2741 c-21 -22 -29 -39 -29 -66 0 -69 33 -104 98 -105 61 0 92
32 92 95 0 61 -40 105 -95 105 -27 0 -44 -8 -66 -29z m101 -30 c14 -26 13 -74
-2 -89 -18 -18 -56 -14 -68 7 -23 45 -4 101 35 101 14 0 29 -8 35 -19z"/>
<path d="M7970 2670 l0 -100 25 0 c24 0 25 3 25 63 l0 62 36 -62 c31 -55 39
-63 65 -63 l29 0 0 100 c0 93 -1 100 -20 100 -19 0 -25 -18 -32 -94 -3 -27 -5
-25 -37 33 -30 52 -39 61 -63 61 l-28 0 0 -100z"/>
<path d="M8223 2755 c-50 -35 -28 -88 43 -106 51 -13 61 -39 13 -39 -17 0 -40
5 -51 11 -16 9 -23 8 -29 -2 -13 -21 -11 -25 16 -37 66 -30 145 -4 145 47 0
35 -12 46 -67 60 -26 7 -43 18 -43 26 0 18 42 20 72 4 16 -9 23 -8 29 2 13 21
11 25 -16 37 -35 16 -86 15 -112 -3z"/>
<path d="M8404 2734 c-3 -19 -4 -56 -1 -82 6 -58 33 -82 92 -82 65 0 85 30 85
126 0 72 -1 74 -25 74 -23 0 -24 -3 -27 -77 -3 -74 -4 -78 -27 -81 -36 -6 -51
22 -51 95 0 56 -2 63 -20 63 -14 0 -21 -9 -26 -36z"/>
<path d="M8630 2671 l0 -101 25 0 c24 0 25 2 26 68 l1 67 22 -65 c17 -50 28
-66 44 -68 18 -3 24 7 44 70 l23 73 3 -72 c3 -65 5 -73 22 -73 19 0 20 7 20
100 l0 100 -33 0 c-33 0 -34 -2 -52 -62 -10 -35 -21 -67 -23 -72 -3 -5 -14 22
-26 60 -21 68 -22 69 -59 72 l-37 3 0 -100z"/>
<path d="M8920 2670 l0 -100 75 0 c68 0 75 2 75 20 0 17 -7 20 -50 20 -43 0
-50 3 -50 20 0 17 7 20 40 20 33 0 40 3 40 20 0 17 -7 20 -40 20 -33 0 -40 3
-40 20 0 17 7 20 50 20 43 0 50 3 50 20 0 18 -7 20 -75 20 l-75 0 0 -100z"/>
<path d="M9120 2671 l0 -101 25 0 c22 0 25 4 25 35 0 24 5 35 14 35 8 0 24
-16 36 -35 15 -24 29 -35 46 -35 29 0 29 1 4 42 -18 30 -18 34 -3 50 8 9 16
29 16 44 0 42 -25 58 -98 62 l-65 4 0 -101z m108 32 c3 -20 -1 -23 -27 -23
-27 0 -31 4 -31 26 0 22 4 25 28 22 19 -2 28 -9 30 -25z"/>
<path d="M9362 2758 c-26 -13 -39 -54 -25 -77 5 -9 31 -22 56 -30 55 -17 63
-41 14 -41 -18 0 -38 5 -45 12 -9 10 -16 9 -28 -4 -15 -15 -14 -17 9 -33 40
-26 115 -17 140 17 19 25 19 29 4 51 -10 15 -33 29 -61 36 -25 6 -46 16 -46
21 0 18 32 24 64 12 24 -10 33 -9 44 2 13 12 10 16 -16 30 -35 18 -77 20 -110
4z"/>
<path d="M9659 2741 c-21 -22 -29 -39 -29 -66 0 -69 33 -104 98 -105 61 0 92
32 92 95 0 61 -40 105 -95 105 -27 0 -44 -8 -66 -29z m101 -30 c14 -26 13 -74
-2 -89 -18 -18 -56 -14 -68 7 -23 45 -4 101 35 101 14 0 29 -8 35 -19z"/>
<path d="M9870 2671 l0 -101 25 0 c22 0 25 4 25 35 0 34 1 35 40 35 69 0 101
52 61 101 -15 19 -30 24 -85 27 l-66 4 0 -101z m110 44 c17 -20 -3 -45 -36
-45 -20 0 -24 5 -24 30 0 25 4 30 24 30 13 0 29 -7 36 -15z"/>
<path d="M10060 2750 c0 -16 7 -20 35 -20 l35 0 0 -80 c0 -79 0 -80 25 -80 25
0 25 1 25 80 l0 80 30 0 c23 0 30 4 30 20 0 19 -7 20 -90 20 -83 0 -90 -1 -90
-20z"/>
<path d="M10430 2670 l0 -100 25 0 25 0 0 100 0 100 -25 0 -25 0 0 -100z"/>
<path d="M10540 2670 c0 -93 1 -100 20 -100 18 0 20 7 20 68 l1 67 37 -67 c32
-58 41 -68 65 -68 l27 0 0 100 c0 93 -1 100 -20 100 -18 0 -20 -7 -20 -67 l0
-68 -41 68 c-32 53 -45 67 -65 67 -24 0 -24 -1 -24 -100z"/>
<path d="M10850 2750 c0 -16 6 -20 30 -20 l30 0 0 -80 c0 -79 0 -80 25 -80 25
0 25 1 25 80 l0 80 36 0 c28 0 35 3 32 18 -3 14 -17 17 -91 20 -82 3 -87 2
-87 -18z"/>
<path d="M11102 2760 c-13 -6 -30 -26 -38 -46 -31 -75 10 -144 85 -144 47 0
78 22 90 65 25 92 -49 160 -137 125z m76 -42 c13 -13 16 -66 6 -92 -10 -26
-63 -21 -74 8 -22 59 29 123 68 84z"/>
<path d="M11390 2670 l0 -100 25 0 c22 0 25 4 25 35 0 27 4 35 18 35 10 0 26
-15 36 -35 15 -27 25 -35 48 -35 l28 0 -24 39 c-25 38 -25 39 -5 56 19 18 25
51 11 71 -14 22 -52 34 -106 34 l-56 0 0 -100z m115 35 c0 -15 -8 -21 -32 -23
-30 -3 -33 -1 -33 23 0 24 3 26 33 23 24 -2 32 -8 32 -23z"/>
<path d="M11610 2670 l0 -100 75 0 c68 0 75 2 75 20 0 17 -7 20 -50 20 -43 0
-50 3 -50 20 0 17 7 20 40 20 33 0 40 3 40 20 0 17 -7 20 -40 20 -33 0 -40 3
-40 20 0 17 7 20 50 20 43 0 50 3 50 20 0 18 -7 20 -75 20 l-75 0 0 -100z"/>
<path d="M11829 2741 c-39 -40 -41 -109 -4 -146 33 -34 102 -35 133 -2 12 13
22 26 22 29 0 13 -40 15 -51 2 -14 -17 -51 -18 -67 -2 -15 15 -16 63 -2 89 13
23 55 25 68 4 5 -10 15 -13 25 -9 42 16 -3 64 -61 64 -24 0 -42 -9 -63 -29z"/>
<path d="M12020 2670 l0 -100 80 0 c73 0 80 2 80 20 0 18 -7 20 -55 20 -48 0
-55 2 -55 20 0 17 7 20 40 20 33 0 40 3 40 20 0 17 -7 20 -40 20 -33 0 -40 3
-40 20 0 17 7 20 50 20 43 0 50 3 50 20 0 18 -7 20 -75 20 l-75 0 0 -100z"/>
<path d="M12220 2670 l0 -100 25 0 25 0 0 100 0 100 -25 0 -25 0 0 -100z"/>
<path d="M12316 2748 c4 -13 19 -57 34 -98 25 -69 30 -75 57 -78 29 -3 31 -1
61 83 38 104 39 117 10 113 -18 -2 -26 -16 -43 -70 -11 -37 -23 -69 -26 -72
-3 -3 -15 28 -27 69 -20 68 -24 75 -48 75 -22 0 -24 -3 -18 -22z"/>
<path d="M12550 2670 l0 -100 75 0 c68 0 75 2 75 20 0 17 -7 20 -50 20 -43 0
-50 3 -50 20 0 17 7 20 40 20 33 0 40 3 40 20 0 17 -7 20 -40 20 -33 0 -40 3
-40 20 0 17 7 20 50 20 43 0 50 3 50 20 0 18 -7 20 -75 20 l-75 0 0 -100z"/>
<path d="M6767 2662 c-35 -39 -13 -92 38 -92 52 0 75 59 37 93 -24 22 -55 21
-75 -1z m53 -43 c0 -10 -7 -19 -15 -19 -15 0 -21 31 -9 43 11 10 24 -3 24 -24z"/>
<path d="M10260 2650 c0 -18 7 -20 55 -20 48 0 55 2 55 20 0 18 -7 20 -55 20
-48 0 -55 -2 -55 -20z"/>
<path d="M6160 2400 c0 -16 6 -20 30 -20 l30 0 0 -80 c0 -79 0 -80 25 -80 25
0 25 1 25 80 l0 80 36 0 c28 0 35 3 32 18 -3 14 -17 17 -91 20 -82 3 -87 2
-87 -18z"/>
<path d="M6380 2320 l0 -100 75 0 c68 0 75 2 75 20 0 17 -7 20 -50 20 -43 0
-50 3 -50 20 0 17 7 20 40 20 33 0 40 3 40 20 0 17 -7 20 -40 20 -33 0 -40 3
-40 20 0 17 7 20 50 20 43 0 50 3 50 20 0 18 -7 20 -75 20 l-75 0 0 -100z"/>
<path d="M6570 2412 c0 -4 11 -24 25 -44 14 -20 25 -42 25 -48 0 -6 -14 -31
-30 -56 l-31 -44 30 0 c24 0 34 7 47 32 l16 31 20 -31 c15 -24 27 -32 49 -32
l30 0 -31 44 c-16 25 -30 50 -30 56 0 6 11 28 25 48 31 45 31 52 2 52 -15 0
-29 -11 -41 -31 l-18 -31 -19 31 c-13 21 -26 31 -44 31 -14 0 -25 -3 -25 -8z"/>
<path d="M6770 2400 c0 -16 7 -20 35 -20 l35 0 0 -80 c0 -79 0 -80 25 -80 25
0 25 1 25 80 l0 80 30 0 c23 0 30 4 30 20 0 19 -7 20 -90 20 -83 0 -90 -1 -90
-20z"/>
<path d="M7090 2320 c0 -93 1 -100 20 -100 18 0 20 7 21 73 l1 72 25 -73 c21
-62 28 -73 46 -70 15 2 26 19 43 68 l22 65 1 -67 c1 -66 2 -68 26 -68 l26 0
-3 98 -3 97 -35 0 c-34 0 -35 -1 -55 -70 l-21 -70 -23 73 c-21 71 -22 72 -56
72 l-35 0 0 -100z"/>
<path d="M7370 2320 l0 -100 80 0 c73 0 80 2 80 20 0 18 -7 20 -55 20 -48 0
-55 2 -55 20 0 17 7 20 40 20 33 0 40 3 40 20 0 17 -7 20 -40 20 -33 0 -40 3
-40 20 0 17 7 20 50 20 43 0 50 3 50 20 0 18 -7 20 -75 20 l-75 0 0 -100z"/>
<path d="M7585 2395 c-42 -41 -31 -68 40 -93 27 -10 50 -23 53 -31 4 -13 -15
-13 -93 1 -30 5 -30 -26 0 -40 66 -30 145 -4 145 47 0 35 -12 46 -67 60 -26 7
-43 18 -43 26 0 18 42 20 72 4 31 -17 45 10 17 34 -32 26 -94 22 -124 -8z"/>
<path d="M7802 2408 c-26 -13 -39 -54 -25 -77 5 -9 31 -22 56 -30 55 -17 63
-41 14 -41 -18 0 -38 5 -45 12 -9 10 -16 9 -28 -4 -15 -15 -14 -17 9 -33 40
-26 115 -17 140 17 19 25 19 29 4 51 -10 15 -33 29 -61 36 -25 6 -46 16 -46
21 0 18 32 24 64 12 24 -10 33 -9 44 2 13 12 10 16 -16 30 -35 18 -77 20 -110
4z"/>
<path d="M8030 2416 c0 -2 -16 -47 -35 -100 l-35 -96 26 0 c17 0 28 7 31 20 4
16 14 20 43 20 29 0 39 -4 43 -20 3 -13 14 -20 30 -20 l26 0 -29 83 c-41 120
-39 117 -71 117 -16 0 -29 -2 -29 -4z m44 -78 c9 -35 8 -38 -14 -38 -11 0 -20
3 -20 8 0 19 13 52 20 52 4 0 10 -10 14 -22z"/>
<path d="M8218 2401 c-46 -36 -50 -119 -8 -161 23 -23 89 -27 108 -8 9 9 12 9
12 0 0 -7 7 -12 15 -12 11 0 15 12 15 49 0 53 -13 66 -56 55 -29 -8 -32 -34
-3 -34 12 0 19 -5 17 -12 -3 -7 -20 -13 -39 -13 -27 0 -35 5 -43 26 -21 61 30
114 73 75 15 -14 20 -14 37 -2 18 14 18 16 3 32 -10 9 -37 18 -60 21 -35 4
-50 0 -71 -16z"/>
<path d="M8420 2320 l0 -100 75 0 c68 0 75 2 75 20 0 17 -7 20 -50 20 -43 0
-50 3 -50 20 0 17 7 20 40 20 33 0 40 3 40 20 0 17 -7 20 -40 20 -33 0 -40 3
-40 20 0 17 7 20 50 20 43 0 50 3 50 20 0 18 -7 20 -75 20 l-75 0 0 -100z"/>
<path d="M8642 2408 c-26 -13 -39 -54 -25 -77 5 -9 31 -22 56 -30 55 -17 63
-41 14 -41 -18 0 -38 5 -45 12 -9 10 -16 9 -28 -4 -15 -15 -14 -17 9 -33 40
-26 115 -17 140 17 19 25 19 29 4 51 -10 15 -33 29 -61 36 -25 6 -46 16 -46
21 0 18 32 24 64 12 24 -10 33 -9 44 2 13 12 10 16 -16 30 -35 18 -77 20 -110
4z"/>
<path d="M8920 2320 l0 -100 25 0 c23 0 25 4 25 40 l0 40 40 0 c54 0 56 27 3
32 -31 2 -39 7 -41 26 -3 20 0 22 47 22 44 0 51 3 51 20 0 18 -7 20 -75 20
l-75 0 0 -100z"/>
<path d="M9110 2320 l0 -100 25 0 c22 0 25 4 25 35 0 27 4 35 18 35 11 0 27
-14 38 -35 14 -27 25 -35 47 -35 30 0 30 2 -4 51 -17 25 -17 26 2 42 19 17 25
53 11 73 -14 22 -52 34 -106 34 l-56 0 0 -100z m115 35 c0 -15 -8 -21 -32 -23
-30 -3 -33 -1 -33 23 0 24 3 26 33 23 24 -2 32 -8 32 -23z"/>
<path d="M9349 2391 c-21 -22 -29 -39 -29 -66 0 -69 33 -104 98 -105 61 0 92
32 92 95 0 61 -40 105 -95 105 -27 0 -44 -8 -66 -29z m101 -30 c14 -26 13 -74
-2 -89 -18 -18 -56 -14 -68 7 -23 45 -4 101 35 101 14 0 29 -8 35 -19z"/>
<path d="M9560 2321 l0 -101 25 0 c24 0 25 3 26 63 l1 62 21 -62 c17 -51 25
-63 42 -63 18 0 25 11 40 60 10 34 21 63 25 65 3 2 4 -25 2 -61 -4 -63 -4 -64
22 -64 l26 0 0 100 0 100 -35 0 c-34 0 -34 -1 -56 -72 l-22 -73 -21 70 c-21
69 -22 70 -59 73 l-37 3 0 -100z"/>
<path d="M9940 2320 l0 -100 66 0 c36 0 74 5 85 10 21 12 26 59 7 78 -8 8 -8
15 1 26 19 22 9 59 -19 73 -14 7 -51 13 -82 13 l-58 0 0 -100z m115 40 c0 -10
-12 -16 -32 -18 -28 -3 -33 0 -33 18 0 18 5 21 33 18 20 -2 32 -8 32 -18z m2
-76 c7 -19 -14 -35 -42 -32 -12 2 -21 12 -23 26 -3 19 1 22 28 22 19 0 33 -6
37 -16z"/>
<path d="M10154 2384 c-3 -19 -4 -56 -1 -82 6 -58 33 -82 92 -82 65 0 85 30
85 126 0 72 -1 74 -25 74 -23 0 -24 -3 -27 -77 -3 -74 -4 -78 -27 -81 -36 -6
-51 22 -51 95 0 56 -2 63 -20 63 -14 0 -21 -9 -26 -36z"/>
<path d="M10403 2405 c-50 -35 -28 -88 43 -106 51 -13 61 -39 13 -39 -17 0
-40 5 -51 11 -16 9 -23 8 -29 -2 -13 -21 -11 -25 16 -37 66 -30 145 -4 145 47
0 35 -12 46 -67 60 -26 7 -43 18 -43 26 0 18 42 20 72 4 16 -9 23 -8 29 2 13
21 11 25 -16 37 -35 16 -86 15 -112 -3z"/>
<path d="M10590 2320 l0 -100 25 0 25 0 0 100 0 100 -25 0 -25 0 0 -100z"/>
<path d="M10690 2320 c0 -99 0 -100 25 -100 23 0 24 4 27 61 l3 62 34 -62 c30
-52 39 -61 63 -61 l28 0 0 100 c0 93 -1 100 -20 100 -17 0 -19 -8 -22 -67 l-3
-68 -38 68 c-34 59 -42 67 -68 67 l-29 0 0 -100z"/>
<path d="M10930 2320 l0 -100 75 0 c68 0 75 2 75 20 0 17 -7 20 -50 20 -43 0
-50 3 -50 20 0 17 7 20 40 20 33 0 40 3 40 20 0 17 -7 20 -40 20 -33 0 -40 3
-40 20 0 17 7 20 50 20 43 0 50 3 50 20 0 18 -7 20 -75 20 l-75 0 0 -100z"/>
<path d="M11147 2400 c-20 -16 -27 -30 -25 -48 3 -27 24 -42 82 -59 16 -4 30
-12 30 -18 1 -15 -63 -18 -80 -4 -11 9 -18 9 -30 -2 -15 -12 -14 -15 6 -31 32
-26 113 -25 140 2 37 37 18 84 -38 96 -36 7 -55 18 -54 29 2 15 51 18 68 4 12
-10 18 -9 30 3 13 13 13 16 -1 28 -8 7 -34 15 -58 17 -33 4 -48 0 -70 -17z"/>
<path d="M11353 2405 c-50 -35 -28 -88 43 -106 51 -13 61 -39 13 -39 -17 0
-40 5 -51 11 -16 9 -23 8 -29 -2 -13 -21 -11 -25 16 -37 66 -30 145 -4 145 47
0 35 -12 46 -67 60 -26 7 -43 18 -43 26 0 18 42 20 72 4 16 -9 23 -8 29 2 13
21 11 25 -16 37 -35 16 -86 15 -112 -3z"/>
<path d="M11540 2320 l0 -100 75 0 c68 0 75 2 75 20 0 17 -7 20 -50 20 -43 0
-50 3 -50 20 0 17 7 20 40 20 33 0 40 3 40 20 0 17 -7 20 -40 20 -33 0 -40 3
-40 20 0 17 7 20 50 20 43 0 50 3 50 20 0 18 -7 20 -75 20 l-75 0 0 -100z"/>
<path d="M11757 2400 c-20 -16 -27 -30 -25 -48 3 -27 24 -42 82 -59 16 -4 30
-12 30 -18 1 -15 -63 -18 -80 -4 -11 9 -18 9 -30 -2 -15 -12 -14 -15 6 -31 32
-26 113 -25 140 2 37 37 18 84 -38 96 -36 7 -55 18 -54 29 2 15 51 18 68 4 12
-10 18 -9 30 3 13 13 13 16 -1 28 -8 7 -34 15 -58 17 -33 4 -48 0 -70 -17z"/>
<path d="M12140 2320 l0 -100 68 0 c54 0 72 4 85 18 21 23 21 46 1 67 -13 12
-14 19 -5 28 6 6 11 23 11 38 0 33 -37 49 -111 49 l-49 0 0 -100z m110 40 c0
-16 -7 -20 -30 -20 -23 0 -30 4 -30 20 0 16 7 20 30 20 23 0 30 -4 30 -20z m6
-72 c9 -13 -25 -40 -46 -36 -8 2 -16 13 -18 26 -3 19 1 22 27 22 16 0 33 -5
37 -12z"/>
<path d="M12350 2346 c0 -98 20 -126 90 -126 70 0 90 28 90 126 0 72 -1 74
-25 74 -24 0 -25 -2 -25 -64 0 -83 -6 -96 -40 -96 -34 0 -40 13 -40 96 0 62
-1 64 -25 64 -24 0 -25 -2 -25 -74z"/>
<path d="M12560 2400 c0 -16 7 -20 35 -20 l35 0 0 -80 c0 -79 0 -80 25 -80 25
0 25 1 25 80 l0 80 30 0 c23 0 30 4 30 20 0 19 -7 20 -90 20 -83 0 -90 -1 -90
-20z"/>
<path d="M11947 2264 c-14 -14 -7 -44 10 -44 15 0 15 -2 -1 -19 -10 -10 -13
-22 -8 -25 16 -10 44 31 40 61 -3 27 -26 42 -41 27z"/>
<path d="M6270 2050 c0 -17 7 -20 50 -20 28 0 50 -3 50 -6 0 -3 -8 -18 -19
-32 -16 -23 -41 -92 -41 -114 0 -5 11 -8 24 -8 20 0 25 6 31 39 4 22 20 60 36
86 45 71 42 75 -51 75 -73 0 -80 -2 -80 -20z"/>
<path d="M6485 2045 c-21 -20 -25 -34 -25 -80 0 -69 22 -95 78 -95 61 0 92 50
78 126 -14 72 -83 98 -131 49z m81 -50 c9 -49 -2 -85 -26 -85 -25 0 -33 14
-33 60 0 46 8 60 33 60 14 0 21 -10 26 -35z"/>
<path d="M6678 2059 c-21 -12 -24 -69 -6 -87 7 -7 24 -12 38 -12 35 0 50 17
50 57 0 45 -41 66 -82 42z m49 -35 c8 -21 -13 -42 -28 -27 -13 13 -5 43 11 43
6 0 13 -7 17 -16z"/>
<path d="M6802 2018 c-93 -128 -105 -148 -84 -148 14 0 39 28 79 88 78 114 77
112 59 112 -8 0 -33 -24 -54 -52z"/>
<path d="M7054 2034 c-3 -19 -4 -56 -1 -82 6 -58 33 -82 92 -82 65 0 85 30 85
126 0 72 -1 74 -25 74 -23 0 -24 -3 -27 -77 -3 -74 -4 -78 -27 -81 -36 -6 -51
22 -51 95 0 56 -2 63 -20 63 -14 0 -21 -9 -26 -36z"/>
<path d="M7280 1970 c0 -99 0 -100 25 -100 23 0 24 4 27 61 l3 62 34 -62 c30
-52 39 -61 63 -61 l28 0 0 100 c0 93 -1 100 -20 100 -17 0 -19 -8 -22 -67 l-3
-68 -38 68 c-34 59 -42 67 -68 67 l-29 0 0 -100z"/>
<path d="M7542 2058 c-26 -13 -39 -54 -25 -77 5 -9 31 -22 56 -30 55 -17 63
-41 14 -41 -18 0 -38 5 -45 12 -9 10 -16 9 -28 -4 -15 -15 -14 -17 9 -33 40
-26 115 -17 140 17 19 25 19 29 4 51 -10 15 -33 29 -61 36 -25 6 -46 16 -46
21 0 18 32 24 64 12 24 -10 33 -9 44 2 13 12 10 16 -16 30 -35 18 -77 20 -110
4z"/>
<path d="M7720 1990 c0 -99 15 -120 85 -120 70 0 85 21 85 120 0 78 -1 80 -25
80 -23 0 -24 -3 -27 -77 l-3 -78 -30 0 -30 0 -3 78 c-3 74 -4 77 -27 77 -24 0
-25 -2 -25 -80z"/>
<path d="M7950 1970 l0 -100 65 0 c52 0 69 4 85 20 24 24 25 43 4 65 -12 12
-13 19 -4 30 18 21 8 58 -20 72 -14 7 -49 13 -77 13 l-53 0 0 -100z m108 38
c3 -14 -3 -18 -27 -18 -25 0 -31 4 -31 21 0 16 5 20 27 17 17 -2 29 -10 31
-20z m6 -73 c6 -17 -29 -39 -50 -31 -8 3 -14 15 -14 26 0 15 7 20 29 20 16 0
31 -6 35 -15z"/>
<path d="M8175 2045 c-42 -41 -31 -68 40 -93 27 -10 50 -23 53 -31 4 -13 -15
-13 -93 1 -30 5 -30 -26 0 -40 66 -30 145 -4 145 47 0 35 -12 46 -67 60 -26 7
-43 18 -43 26 0 18 42 20 72 4 31 -17 45 10 17 34 -32 26 -94 22 -124 -8z"/>
<path d="M8389 2041 c-39 -40 -41 -109 -4 -146 33 -34 102 -35 133 -2 12 13
22 26 22 29 0 13 -40 15 -51 2 -14 -17 -51 -18 -67 -2 -15 15 -16 63 -2 89 13
23 55 25 68 4 5 -10 15 -13 25 -9 42 16 -3 64 -61 64 -24 0 -42 -9 -63 -29z"/>
<path d="M8580 1970 l0 -100 25 0 c22 0 25 4 25 35 0 27 4 35 18 35 11 0 27
-14 38 -35 14 -27 25 -35 47 -35 30 0 30 2 -4 51 -17 25 -17 26 2 42 19 17 25
53 11 73 -14 22 -52 34 -106 34 l-56 0 0 -100z m115 35 c0 -15 -8 -21 -32 -23
-30 -3 -33 -1 -33 23 0 24 3 26 33 23 24 -2 32 -8 32 -23z"/>
<path d="M8800 1970 l0 -100 25 0 25 0 0 100 0 100 -25 0 -25 0 0 -100z"/>
<path d="M8910 1970 l0 -100 65 0 c52 0 69 4 85 20 24 24 25 43 4 65 -12 12
-13 19 -4 30 18 21 8 58 -20 72 -14 7 -49 13 -77 13 l-53 0 0 -100z m108 38
c3 -14 -3 -18 -27 -18 -25 0 -31 4 -31 21 0 16 5 20 27 17 17 -2 29 -10 31
-20z m6 -73 c6 -17 -29 -39 -50 -31 -8 3 -14 15 -14 26 0 15 7 20 29 20 16 0
31 -6 35 -15z"/>
<path d="M9120 1970 l0 -100 80 0 c73 0 80 2 80 20 0 18 -7 20 -55 20 -48 0
-55 2 -55 20 0 17 7 20 40 20 33 0 40 3 40 20 0 17 -7 20 -40 20 -33 0 -40 3
-40 20 0 18 7 20 56 20 47 0 55 3 52 18 -3 14 -16 17 -81 20 l-77 3 0 -101z"/>
<path d="M9420 1971 l0 -101 55 0 c30 0 65 5 78 11 51 23 63 109 23 155 -20
24 -32 28 -90 32 l-66 4 0 -101z m104 53 c20 -8 31 -66 17 -93 -8 -14 -21 -21
-41 -21 -30 0 -30 0 -30 60 0 63 9 71 54 54z"/>
<path d="M9644 2034 c-3 -19 -4 -56 -1 -82 6 -58 33 -82 92 -82 65 0 85 30 85
126 0 72 -1 74 -25 74 -23 0 -24 -3 -27 -77 -3 -74 -4 -78 -27 -81 -36 -6 -51
22 -51 95 0 56 -2 63 -20 63 -14 0 -21 -9 -26 -36z"/>
<path d="M9870 1970 l0 -100 80 0 c73 0 80 2 80 20 0 18 -7 20 -55 20 -48 0
-55 2 -55 20 0 17 7 20 40 20 33 0 40 3 40 20 0 17 -7 20 -40 20 -33 0 -40 3
-40 20 0 17 7 20 50 20 43 0 50 3 50 20 0 18 -7 20 -75 20 l-75 0 0 -100z"/>
<path d="M10150 2050 c0 -16 7 -20 30 -20 l30 0 0 -80 c0 -79 0 -80 25 -80 25
0 25 1 25 80 l0 80 35 0 c28 0 35 4 35 20 0 19 -7 20 -90 20 -83 0 -90 -1 -90
-20z"/>
<path d="M10398 2055 c-52 -29 -55 -135 -5 -170 54 -38 141 -4 152 59 18 91
-67 154 -147 111z m90 -58 c19 -40 4 -81 -33 -85 -33 -4 -45 11 -45 59 0 63
52 81 78 26z"/>
<path d="M10690 1970 l0 -100 25 0 25 0 0 100 0 100 -25 0 -25 0 0 -100z"/>
<path d="M10800 1971 l0 -101 25 0 c22 0 25 4 25 35 0 24 5 35 14 35 8 0 24
-16 36 -35 15 -24 29 -35 46 -35 29 0 29 1 4 42 -18 30 -18 34 -3 50 8 9 16
29 16 44 0 42 -25 58 -98 62 l-65 4 0 -101z m108 32 c3 -20 -1 -23 -27 -23
-27 0 -31 4 -31 26 0 22 4 25 28 22 19 -2 28 -9 30 -25z"/>
<path d="M11020 1971 l0 -101 25 0 c22 0 25 4 25 35 0 24 5 35 14 35 8 0 24
-16 36 -35 15 -24 29 -35 46 -35 29 0 29 1 4 42 -18 30 -18 34 -3 50 8 9 16
29 16 44 0 42 -25 58 -98 62 l-65 4 0 -101z m108 32 c3 -20 -1 -23 -27 -23
-27 0 -31 4 -31 26 0 22 4 25 28 22 19 -2 28 -9 30 -25z"/>
<path d="M11240 1970 l0 -100 75 0 c68 0 75 2 75 20 0 17 -7 20 -50 20 -43 0
-50 3 -50 20 0 17 7 20 40 20 33 0 40 3 40 20 0 17 -7 20 -40 20 -33 0 -40 3
-40 20 0 17 7 20 50 20 43 0 50 3 50 20 0 18 -7 20 -75 20 l-75 0 0 -100z"/>
<path d="M11440 1971 l0 -101 75 0 c68 0 75 2 75 20 0 17 -7 20 -50 20 l-49 0
-3 78 c-3 71 -5 77 -25 80 -23 3 -23 1 -23 -97z"/>
<path d="M11630 1970 l0 -100 75 0 c68 0 75 2 75 20 0 17 -7 20 -50 20 -43 0
-50 3 -50 20 0 17 7 20 40 20 33 0 40 3 40 20 0 17 -7 20 -40 20 -33 0 -40 3
-40 20 0 17 7 20 50 20 43 0 50 3 50 20 0 18 -7 20 -75 20 l-75 0 0 -100z"/>
<path d="M11816 2048 c4 -13 19 -57 34 -98 25 -69 30 -75 57 -78 29 -3 31 -1
61 83 38 104 39 117 10 113 -18 -2 -26 -16 -43 -70 -11 -37 -23 -69 -26 -72
-3 -3 -15 28 -27 69 -20 68 -24 75 -48 75 -22 0 -24 -3 -18 -22z"/>
<path d="M12038 1971 l-35 -101 25 0 c15 0 26 7 29 20 4 16 14 20 43 20 29 0
39 -4 43 -20 3 -14 14 -20 31 -20 14 0 26 1 26 3 0 1 -15 45 -34 97 -32 89
-36 95 -63 98 -30 3 -31 1 -65 -97z m81 -3 c1 -12 -6 -18 -19 -18 -23 0 -24 8
-9 47 10 26 12 27 19 8 5 -11 9 -28 9 -37z"/>
<path d="M12240 1971 c0 -94 1 -101 20 -101 18 0 20 7 20 68 l0 67 38 -65 c30
-51 44 -66 65 -68 l27 -3 0 100 c0 94 -1 101 -20 101 -18 0 -20 -7 -20 -67 l0
-68 -38 65 c-30 52 -43 66 -65 68 l-27 3 0 -100z"/>
<path d="M12460 2050 c0 -16 6 -20 30 -20 l30 0 0 -80 c0 -79 0 -80 25 -80 25
0 25 1 25 80 l0 80 36 0 c28 0 35 3 32 18 -3 14 -17 17 -91 20 -82 3 -87 2
-87 -18z"/>
<path d="M6828 1969 c-21 -12 -24 -69 -6 -87 20 -20 65 -14 82 10 21 30 20 44
-4 68 -22 22 -46 25 -72 9z m52 -44 c0 -19 -20 -29 -32 -17 -8 8 -7 16 2 26
14 17 30 12 30 -9z"/>
<path d="M7712 1710 c-13 -6 -30 -26 -38 -46 -31 -75 10 -144 85 -144 47 0 78
22 90 65 25 92 -49 160 -137 125z m76 -42 c13 -13 16 -66 6 -92 -10 -26 -63
-21 -74 8 -22 59 29 123 68 84z"/>
<path d="M7900 1620 l0 -100 25 0 c22 0 25 4 25 35 0 27 4 35 18 35 11 0 27
-14 38 -35 14 -27 25 -35 47 -35 30 0 30 2 -4 51 -17 25 -17 26 2 42 19 17 25
53 11 73 -14 22 -52 34 -106 34 l-56 0 0 -100z m115 35 c0 -15 -8 -21 -32 -23
-30 -3 -33 -1 -33 23 0 24 3 26 33 23 24 -2 32 -8 32 -23z"/>
<path d="M8237 1700 c-20 -16 -27 -30 -25 -48 3 -27 24 -42 82 -59 16 -4 30
-12 30 -18 1 -15 -63 -18 -80 -4 -11 9 -18 9 -30 -2 -15 -12 -14 -15 6 -31 32
-26 113 -25 140 2 37 37 18 84 -38 96 -36 7 -55 18 -54 29 2 15 51 18 68 4 12
-10 18 -9 30 3 13 13 13 16 -1 28 -8 7 -34 15 -58 17 -33 4 -48 0 -70 -17z"/>
<path d="M8420 1621 c0 -100 0 -101 24 -101 21 0 25 6 28 33 3 30 6 32 45 35
46 3 73 29 73 68 0 37 -35 58 -106 62 l-64 4 0 -101z m116 44 c9 -21 -15 -47
-40 -43 -15 2 -22 12 -24 31 -3 24 0 27 28 27 18 0 33 -6 36 -15z"/>
<path d="M8666 1711 c-7 -11 -66 -177 -66 -185 0 -3 11 -6 24 -6 15 0 26 7 29
20 4 15 14 20 40 20 27 0 37 -5 42 -20 4 -13 15 -20 31 -20 13 0 24 3 24 7 0
3 -15 48 -32 100 -31 86 -35 93 -60 93 -15 0 -29 -4 -32 -9z m50 -108 c-2 -3
-13 -3 -23 -1 -17 3 -18 7 -10 38 l10 35 14 -34 c8 -18 12 -35 9 -38z"/>
<path d="M8830 1620 c0 -93 1 -100 20 -100 18 0 20 7 21 73 l1 72 25 -73 c21
-62 28 -73 46 -70 15 2 26 19 43 68 l22 65 1 -67 c1 -66 2 -68 26 -68 l26 0
-3 98 -3 97 -35 0 c-34 0 -35 -1 -55 -70 l-21 -70 -23 73 c-21 71 -22 72 -56
72 l-35 0 0 -100z"/>
<path d="M9110 1621 l0 -101 25 0 c24 0 25 2 26 68 l1 67 22 -65 c17 -50 28
-66 44 -68 18 -3 24 7 44 70 l23 73 3 -72 c3 -65 5 -73 22 -73 19 0 20 7 20
100 l0 100 -33 0 c-33 0 -34 -2 -52 -62 -10 -35 -21 -67 -23 -72 -3 -5 -14 22
-26 60 -21 68 -22 69 -59 72 l-37 3 0 -100z"/>
<path d="M9414 1655 c22 -40 36 -79 36 -100 0 -31 3 -35 25 -35 22 0 25 4 25
37 0 22 12 57 30 90 35 62 37 73 10 73 -13 0 -27 -14 -40 -40 -11 -22 -22 -40
-25 -40 -3 0 -14 18 -25 40 -16 31 -26 40 -46 40 l-26 0 36 -65z"/>
<path d="M9728 1705 c-52 -29 -55 -135 -5 -170 42 -29 137 -9 137 29 0 19 -37
27 -44 10 -7 -17 -48 -18 -64 -2 -7 7 -12 28 -12 48 0 56 34 77 70 45 19 -17
50 -10 50 10 0 36 -86 56 -132 30z"/>
<path d="M9952 1710 c-13 -6 -30 -26 -38 -46 -31 -75 10 -144 85 -144 47 0 78
22 90 65 25 92 -49 160 -137 125z m76 -42 c13 -13 16 -66 6 -92 -10 -26 -63
-21 -74 8 -22 59 29 123 68 84z"/>
<path d="M10140 1620 c0 -99 0 -100 25 -100 23 0 24 4 27 61 l3 62 34 -62 c30
-52 39 -61 63 -61 l28 0 0 100 c0 93 -1 100 -20 100 -17 0 -19 -8 -22 -67 l-3
-68 -38 68 c-34 59 -42 67 -68 67 l-29 0 0 -100z"/>
<path d="M10360 1700 c0 -16 7 -20 35 -20 l35 0 0 -80 c0 -79 0 -80 25 -80 25
0 25 1 25 80 l0 80 30 0 c23 0 30 4 30 20 0 19 -7 20 -90 20 -83 0 -90 -1 -90
-20z"/>
<path d="M10580 1620 l0 -100 80 0 c73 0 80 2 80 20 0 18 -7 20 -55 20 -48 0
-55 2 -55 20 0 17 7 20 40 20 33 0 40 3 40 20 0 17 -7 20 -40 20 -33 0 -40 3
-40 20 0 18 7 20 56 20 47 0 55 3 52 18 -3 14 -16 17 -81 20 l-77 3 0 -101z"/>
<path d="M10780 1620 c0 -99 0 -100 25 -100 23 0 24 4 27 61 l3 62 34 -62 c30
-52 39 -61 63 -61 l28 0 0 100 c0 93 -1 100 -20 100 -17 0 -19 -8 -22 -67 l-3
-68 -38 68 c-34 59 -42 67 -68 67 l-29 0 0 -100z"/>
<path d="M11000 1700 c0 -16 7 -20 35 -20 l35 0 0 -80 c0 -79 0 -80 25 -80 25
0 25 1 25 80 l0 80 30 0 c23 0 30 4 30 20 0 19 -7 20 -90 20 -83 0 -90 -1 -90
-20z"/>
<path d="M11184 1555 c-8 -19 3 -35 26 -35 19 0 30 17 23 38 -6 17 -42 15 -49
-3z"/>
<path d="M4430 1070 c0 -5 11 -10 25 -10 24 0 25 -2 25 -75 0 -43 4 -75 10
-75 6 0 10 32 10 75 l0 75 30 0 c17 0 30 5 30 10 0 6 -28 10 -65 10 -37 0 -65
-4 -65 -10z"/>
<path d="M4930 1060 c-28 -28 -14 -51 42 -70 45 -16 55 -35 27 -53 -21 -13
-69 -1 -69 18 0 8 -5 15 -11 15 -20 0 -4 -34 23 -49 35 -20 82 -5 86 27 5 31
-10 46 -59 61 -29 9 -39 17 -37 29 5 24 58 29 75 6 7 -10 16 -14 20 -10 11 10
-35 46 -58 46 -10 0 -28 -9 -39 -20z"/>
<path d="M5500 1070 c0 -5 5 -10 10 -10 6 0 10 5 10 10 0 6 -4 10 -10 10 -5 0
-10 -4 -10 -10z"/>
<path d="M5733 995 c0 -75 1 -81 6 -37 6 50 23 76 46 69 6 -2 11 -29 13 -60 4
-72 22 -75 22 -3 0 61 -16 82 -54 72 -21 -5 -25 -2 -29 21 -2 16 -4 -12 -4
-62z"/>
<path d="M6600 995 c0 -50 4 -85 10 -85 6 0 10 22 10 49 0 56 19 82 45 61 10
-8 15 -30 15 -61 0 -27 5 -49 10 -49 6 0 10 22 10 49 0 58 -20 86 -56 77 -21
-6 -24 -3 -24 19 0 14 -4 25 -10 25 -6 0 -10 -35 -10 -85z"/>
<path d="M7350 995 c0 -50 4 -85 10 -85 6 0 10 22 10 49 0 56 19 82 45 61 10
-8 15 -30 15 -61 0 -27 5 -49 10 -49 6 0 10 22 10 49 0 58 -20 86 -56 77 -21
-6 -24 -3 -24 19 0 14 -4 25 -10 25 -6 0 -10 -35 -10 -85z"/>
<path d="M7815 1055 c-50 -49 -17 -145 50 -145 38 0 75 42 75 85 0 43 -37 85
-75 85 -14 0 -37 -11 -50 -25z m85 -5 c38 -38 14 -130 -33 -130 -7 0 -23 7
-35 16 -17 12 -22 25 -22 59 0 34 5 47 22 59 30 21 44 20 68 -4z"/>
<path d="M10023 995 c0 -49 2 -75 4 -57 5 40 23 41 46 2 10 -16 22 -30 28 -30
5 0 -2 18 -17 41 l-26 41 23 24 c12 13 18 24 12 24 -5 0 -20 -12 -34 -26 l-24
-26 -6 49 c-4 35 -6 24 -6 -42z"/>
<path d="M11660 1050 c0 -28 -2 -30 -20 -20 -43 23 -81 -30 -60 -84 10 -26 13
-28 63 -30 l27 -2 0 83 c0 46 -2 83 -5 83 -3 0 -5 -14 -5 -30z m-4 -55 c12
-50 -21 -89 -51 -59 -30 31 -6 101 30 87 9 -3 18 -16 21 -28z"/>
<path d="M11940 1070 c0 -5 5 -10 10 -10 6 0 10 5 10 10 0 6 -4 10 -10 10 -5
0 -10 -4 -10 -10z"/>
<path d="M12440 1050 c0 -28 -2 -29 -21 -18 -18 11 -23 10 -40 -11 -39 -48
-13 -111 46 -109 l35 1 0 84 c0 49 -4 83 -10 83 -5 0 -10 -14 -10 -30z m-12
-32 c21 -27 22 -55 3 -79 -16 -20 -21 -21 -35 -10 -19 16 -21 72 -4 89 15 15
23 15 36 0z"/>
<path d="M12813 995 c0 -75 1 -81 6 -37 11 91 61 96 61 6 0 -30 5 -54 10 -54
6 0 10 24 10 54 0 61 -16 82 -54 72 -21 -5 -25 -2 -29 21 -2 16 -4 -12 -4 -62z"/>
<path d="M13064 995 c0 -49 1 -71 3 -48 2 23 2 64 0 90 -2 26 -3 8 -3 -42z"/>
<path d="M4788 1053 c-2 -9 -1 -43 2 -77 4 -51 8 -61 25 -64 16 -3 18 -1 8 9
-7 7 -13 34 -13 60 0 29 5 49 13 52 10 4 10 6 0 6 -7 1 -13 8 -13 16 0 20 -18
19 -22 -2z"/>
<path d="M6239 1053 c-4 -83 10 -143 33 -143 9 0 9 3 0 12 -16 16 -16 105 1
111 10 4 10 6 0 6 -7 1 -13 8 -13 16 0 21 -20 19 -21 -2z"/>
<path d="M7289 1053 c-4 -83 10 -143 33 -143 9 0 9 3 0 12 -16 16 -16 105 1
111 10 4 10 6 0 6 -7 1 -13 8 -13 16 0 21 -20 19 -21 -2z"/>
<path d="M7611 1058 c0 -10 -6 -18 -12 -18 -8 0 -8 -4 -1 -13 6 -7 12 -35 14
-61 2 -33 8 -51 18 -54 12 -4 13 -2 3 9 -16 17 -17 91 -1 107 8 8 9 12 1 12
-6 0 -14 8 -16 18 -4 16 -5 16 -6 0z"/>
<path d="M8228 1053 c-2 -9 -1 -43 2 -77 4 -51 8 -61 25 -64 16 -3 18 -1 8 9
-7 7 -13 34 -13 60 0 29 5 49 13 52 10 4 10 6 0 6 -7 1 -13 8 -13 16 0 20 -18
19 -22 -2z"/>
<path d="M8528 1053 c-2 -9 -1 -43 2 -77 4 -51 8 -61 25 -64 16 -3 18 -1 8 9
-7 7 -13 34 -13 60 0 29 5 49 13 52 10 4 10 6 0 6 -7 1 -13 8 -13 16 0 20 -18
19 -22 -2z"/>
<path d="M10261 1058 c0 -10 -6 -18 -12 -18 -8 0 -8 -4 -1 -13 6 -7 12 -35 14
-61 2 -33 8 -51 18 -54 12 -4 13 -2 3 9 -16 17 -17 91 -1 107 8 8 9 12 1 12
-6 0 -14 8 -16 18 -4 16 -5 16 -6 0z"/>
<path d="M12560 1055 c0 -8 -6 -15 -12 -15 -10 0 -10 -2 -1 -8 6 -4 13 -32 15
-62 3 -46 6 -55 23 -57 11 -2 14 0 8 3 -8 4 -13 26 -13 59 0 33 5 55 13 58 10
4 10 6 0 6 -7 1 -13 8 -13 16 0 8 -4 15 -10 15 -5 0 -10 -7 -10 -15z"/>
<path d="M14450 1055 c0 -8 -6 -15 -12 -15 -10 0 -10 -2 -1 -8 6 -4 13 -32 15
-62 3 -46 6 -55 23 -57 11 -2 14 0 8 3 -8 4 -13 26 -13 59 0 33 5 55 13 58 10
4 10 6 0 6 -7 1 -13 8 -13 16 0 8 -4 15 -10 15 -5 0 -10 -7 -10 -15z"/>
<path d="M4566 1027 c-25 -19 -26 -85 -1 -103 25 -18 50 -18 70 2 22 22 10 32
-13 11 -23 -21 -27 -21 -46 -1 -26 25 -19 34 29 34 37 0 45 3 45 18 0 22 -30
52 -51 52 -9 0 -23 -6 -33 -13z m52 -9 c21 -21 13 -38 -17 -38 -37 0 -46 13
-25 34 19 19 26 20 42 4z"/>
<path d="M4686 1011 c16 -26 16 -33 4 -58 -8 -15 -16 -31 -18 -35 -2 -5 0 -8
6 -8 5 0 14 12 21 27 l13 28 20 -28 c11 -15 24 -27 30 -27 5 0 -1 14 -13 32
-22 30 -22 32 -5 61 21 37 13 48 -12 17 l-19 -24 -12 22 c-6 12 -16 22 -22 22
-6 0 -2 -13 7 -29z"/>
<path d="M5074 1026 c-10 -8 -16 -18 -12 -21 4 -4 14 0 23 9 20 20 29 20 45 1
15 -18 5 -35 -20 -35 -33 0 -50 -12 -50 -35 0 -28 30 -41 60 -25 13 7 20 7 20
0 0 -5 5 -10 10 -10 6 0 10 22 10 49 0 72 -38 102 -86 67z m66 -71 c0 -22 -38
-39 -56 -24 -11 9 -12 15 -3 25 15 19 59 18 59 -1z"/>
<path d="M5196 1018 c-32 -45 -5 -114 40 -105 18 3 24 0 24 -13 0 -10 -7 -21
-16 -24 -21 -8 -20 -8 -38 10 -14 13 -16 13 -16 1 0 -8 7 -18 16 -21 53 -20
74 7 74 97 l0 72 -34 2 c-26 2 -39 -3 -50 -19z m58 -10 c21 -29 20 -41 -3 -69
-16 -20 -21 -21 -35 -10 -28 23 -16 101 15 101 5 0 15 -10 23 -22z"/>
<path d="M5326 1024 c-34 -34 -11 -114 33 -114 22 0 58 26 49 35 -4 4 -14 0
-23 -9 -21 -20 -28 -20 -48 2 -25 28 -21 32 28 32 37 0 45 3 45 18 0 22 -30
52 -53 52 -8 0 -23 -7 -31 -16z m52 -6 c21 -21 13 -38 -18 -38 -23 0 -30 5
-30 19 0 17 11 27 31 30 3 1 10 -4 17 -11z"/>
<path d="M5500 975 c0 -37 4 -65 10 -65 6 0 10 28 10 65 0 37 -4 65 -10 65 -6
0 -10 -28 -10 -65z"/>
<path d="M5559 1024 c-17 -20 -1 -46 32 -54 13 -3 25 -13 27 -22 4 -23 -28
-31 -49 -12 -17 16 -19 16 -19 1 0 -21 42 -32 69 -17 23 12 28 48 9 55 -73 26
-72 25 -55 42 15 15 18 15 37 -2 17 -15 20 -16 20 -3 0 29 -50 37 -71 12z"/>
<path d="M5866 1024 c-34 -34 -11 -114 33 -114 22 0 58 26 49 35 -4 4 -14 0
-23 -9 -21 -20 -28 -20 -48 2 -25 28 -21 32 28 32 37 0 45 3 45 18 0 22 -30
52 -53 52 -8 0 -23 -7 -31 -16z m52 -6 c21 -21 13 -38 -18 -38 -23 0 -30 5
-30 19 0 17 11 27 31 30 3 1 10 -4 17 -11z"/>
<path d="M5981 970 l2 -65 6 54 c4 33 13 58 24 66 16 12 16 13 -7 11 -25 -1
-26 -3 -25 -66z"/>
<path d="M6066 1024 c-34 -34 -11 -114 33 -114 22 0 58 26 49 35 -4 4 -14 0
-23 -9 -21 -20 -28 -20 -48 2 -25 28 -21 32 28 32 37 0 45 3 45 18 0 22 -30
52 -53 52 -8 0 -23 -7 -31 -16z m52 -6 c21 -21 13 -38 -18 -38 -23 0 -30 5
-30 19 0 17 11 27 31 30 3 1 10 -4 17 -11z"/>
<path d="M6316 1027 c-13 -10 -17 -24 -14 -57 3 -38 7 -46 30 -54 37 -13 68
14 68 59 0 52 -45 80 -84 52z m61 -23 c15 -23 15 -29 2 -52 -18 -32 -33 -37
-53 -17 -20 21 -21 59 0 79 21 22 31 20 51 -10z"/>
<path d="M6508 1028 c-29 -23 -27 -93 3 -109 27 -14 69 3 69 27 0 13 -4 12
-18 -6 -21 -26 -49 -18 -58 15 -13 53 23 90 57 59 21 -19 27 -6 7 14 -15 15
-40 15 -60 0z"/>
<path d="M6742 1028 c-20 -20 -14 -33 7 -14 21 19 53 11 49 -13 -2 -9 -16 -18
-32 -21 -40 -7 -56 -34 -33 -57 14 -14 22 -15 47 -6 21 8 30 8 34 -1 2 -6 5
14 5 45 1 59 -10 79 -44 79 -12 0 -26 -5 -33 -12z m58 -73 c0 -19 -32 -36 -49
-25 -8 4 -11 15 -8 24 8 20 57 22 57 1z"/>
<path d="M6850 974 c0 -36 4 -64 10 -64 6 0 10 22 10 49 0 31 5 53 15 61 26
21 45 -5 45 -61 0 -27 5 -49 10 -49 12 0 13 90 1 109 -5 8 -28 16 -50 17 l-41
2 0 -64z"/>
<path d="M6986 1018 c-32 -45 -5 -114 40 -105 18 3 24 0 24 -13 0 -10 -7 -21
-16 -24 -21 -8 -20 -8 -38 10 -14 13 -16 13 -16 1 0 -8 7 -18 16 -21 53 -20
74 7 74 97 l0 72 -34 2 c-26 2 -39 -3 -50 -19z m58 -10 c21 -29 20 -41 -3 -69
-16 -20 -21 -21 -35 -10 -28 23 -16 101 15 101 5 0 15 -10 23 -22z"/>
<path d="M7116 1024 c-34 -34 -11 -114 33 -114 22 0 58 26 49 35 -4 4 -14 0
-23 -9 -21 -20 -28 -20 -48 2 -25 28 -21 32 28 32 37 0 45 3 45 18 0 22 -30
52 -53 52 -8 0 -23 -7 -31 -16z m52 -6 c21 -21 13 -38 -18 -38 -23 0 -30 5
-30 19 0 17 11 27 31 30 3 1 10 -4 17 -11z"/>
<path d="M7492 1028 c-20 -20 -14 -33 7 -14 21 19 53 11 49 -13 -2 -9 -16 -18
-32 -21 -40 -7 -56 -34 -33 -57 14 -14 22 -15 47 -6 21 8 30 8 34 -1 2 -6 5
14 5 45 1 59 -10 79 -44 79 -12 0 -26 -5 -33 -12z m58 -73 c0 -19 -32 -36 -49
-25 -8 4 -11 15 -8 24 8 20 57 22 57 1z"/>
<path d="M7972 983 c-1 -35 1 -64 6 -64 4 -1 24 -3 45 -4 l37 -2 0 63 c0 36
-4 64 -10 64 -5 0 -10 -22 -10 -49 0 -94 -56 -92 -63 2 -3 52 -3 52 -5 -10z"/>
<path d="M8090 973 c0 -35 4 -63 10 -63 6 0 10 25 10 55 0 52 5 61 33 56 4 0
7 3 7 8 0 5 -13 9 -30 9 l-30 -1 0 -64z"/>
<path d="M8306 1027 c-25 -19 -26 -85 -1 -103 25 -18 50 -18 70 2 22 22 10 32
-13 11 -23 -21 -27 -21 -46 -1 -26 25 -19 34 29 34 37 0 45 3 45 18 0 22 -30
52 -51 52 -9 0 -23 -6 -33 -13z m52 -9 c21 -21 13 -38 -17 -38 -37 0 -46 13
-25 34 19 19 26 20 42 4z"/>
<path d="M8426 1011 c16 -26 16 -33 4 -58 -8 -15 -16 -31 -18 -35 -2 -5 0 -8
6 -8 5 0 14 12 21 27 l13 28 20 -28 c11 -15 24 -27 30 -27 5 0 -1 14 -13 32
-22 30 -22 32 -5 61 21 37 13 48 -12 17 l-19 -24 -12 22 c-6 12 -16 22 -22 22
-6 0 -2 -13 7 -29z"/>
<path d="M8650 973 c0 -35 4 -63 10 -63 6 0 10 22 10 49 0 49 18 79 40 66 5
-3 10 -31 10 -61 0 -30 5 -54 10 -54 6 0 10 22 10 49 0 49 18 79 40 66 5 -3
10 -31 10 -61 0 -30 5 -54 10 -54 6 0 10 24 10 54 0 64 -17 85 -55 68 -13 -6
-27 -7 -30 -3 -3 5 -21 9 -40 8 l-35 -1 0 -63z"/>
<path d="M8856 1027 c-25 -19 -26 -85 -1 -103 25 -18 50 -18 70 2 22 22 10 32
-13 11 -23 -21 -27 -21 -46 -1 -26 25 -19 34 29 34 37 0 45 3 45 18 0 22 -30
52 -51 52 -9 0 -23 -6 -33 -13z m52 -9 c21 -21 13 -38 -17 -38 -37 0 -46 13
-25 34 19 19 26 20 42 4z"/>
<path d="M8972 1028 c-21 -21 -13 -39 22 -53 43 -18 50 -29 31 -45 -12 -10
-20 -9 -40 4 -26 17 -34 9 -13 -12 16 -16 53 -15 68 3 19 23 7 49 -28 59 -21
6 -32 15 -30 24 4 22 23 25 42 6 9 -9 20 -13 24 -9 9 9 -27 35 -48 35 -9 0
-21 -5 -28 -12z"/>
<path d="M9086 1025 c-21 -22 -10 -42 30 -55 37 -12 41 -19 22 -38 -16 -16
-23 -15 -43 4 -9 9 -19 13 -23 9 -9 -9 27 -35 48 -35 21 0 40 20 40 42 0 11
-14 23 -35 32 -38 16 -44 30 -18 40 11 5 22 1 30 -10 7 -10 16 -15 19 -11 10
10 -16 37 -37 37 -9 0 -24 -7 -33 -15z"/>
<path d="M9208 1029 c-10 -5 -18 -14 -18 -20 0 -5 12 -2 26 7 24 16 26 16 42
0 15 -15 15 -18 2 -26 -8 -5 -25 -10 -37 -10 -31 0 -46 -32 -28 -56 12 -16 17
-17 44 -7 17 6 31 7 31 2 0 -5 4 -9 8 -9 13 0 1 114 -12 122 -15 10 -38 9 -58
-3z m62 -68 c0 -9 -27 -41 -35 -41 -29 0 -47 34 -22 43 21 9 57 7 57 -2z"/>
<path d="M9326 1021 c-37 -41 -4 -121 43 -106 25 7 29 -16 7 -34 -14 -12 -46
-5 -46 10 0 5 -4 9 -10 9 -19 0 3 -30 27 -36 44 -11 63 19 63 101 l0 71 -34 1
c-21 1 -41 -6 -50 -16z m52 -3 c32 -32 1 -116 -33 -88 -26 22 -14 100 15 100
3 0 11 -5 18 -12z"/>
<path d="M9456 1027 c-25 -19 -26 -85 -1 -103 25 -18 50 -18 70 2 22 22 10 32
-13 11 -23 -21 -27 -21 -46 -1 -26 25 -19 34 29 34 37 0 45 3 45 18 0 22 -30
52 -51 52 -9 0 -23 -6 -33 -13z m52 -9 c21 -21 13 -38 -17 -38 -37 0 -46 13
-25 34 19 19 26 20 42 4z"/>
<path d="M9631 970 l1 -65 8 54 c8 54 22 73 47 64 9 -3 13 -23 13 -59 0 -30 5
-54 10 -54 6 0 10 24 10 54 0 53 10 68 38 59 7 -3 12 -24 12 -59 0 -30 5 -54
10 -54 13 0 13 86 0 111 -11 20 -45 26 -55 9 -5 -8 -11 -8 -19 -1 -7 6 -27 9
-44 8 l-32 -2 1 -65z"/>
<path d="M9825 1024 c-9 -9 -14 -19 -11 -21 3 -3 12 2 21 11 19 18 24 19 44 7
21 -13 5 -41 -22 -41 -33 0 -54 -26 -40 -48 7 -12 24 -17 52 -17 l41 0 0 51
c0 27 -5 55 -12 62 -17 17 -54 15 -73 -4z m65 -69 c0 -20 -39 -40 -52 -27 -6
6 -8 18 -5 26 8 20 57 21 57 1z"/>
<path d="M9940 973 c0 -35 4 -63 10 -63 6 0 10 25 10 55 0 52 5 61 33 56 4 0
7 3 7 8 0 5 -13 9 -30 9 l-30 -1 0 -64z"/>
<path d="M10140 1020 c-11 -11 -20 -31 -20 -45 0 -47 59 -82 88 -53 20 20 13
32 -7 14 -15 -14 -24 -15 -40 -6 -38 20 -26 40 25 40 42 0 45 1 39 23 -8 25
-32 47 -52 47 -7 0 -22 -9 -33 -20z m70 -25 c0 -10 -11 -15 -35 -15 -38 0 -48
22 -18 39 21 11 53 -3 53 -24z"/>
<path d="M10323 975 c0 -38 2 -53 4 -32 2 20 2 52 0 70 -2 17 -4 1 -4 -38z"/>
<path d="M10371 970 l2 -65 6 53 c11 91 61 96 61 6 0 -30 5 -54 10 -54 15 0
12 106 -3 119 -7 6 -28 9 -45 8 l-32 -2 1 -65z"/>
<path d="M10512 1031 c-20 -12 -30 -54 -20 -83 11 -30 35 -42 63 -32 23 9 17
-24 -7 -40 -13 -8 -22 -6 -37 8 -12 11 -21 14 -21 9 0 -18 28 -35 52 -31 31 4
48 43 48 114 l0 60 -34 1 c-18 1 -38 -2 -44 -6z m58 -56 c0 -43 -30 -64 -54
-39 -35 34 -5 105 35 84 13 -7 19 -21 19 -45z"/>
<path d="M10698 1029 c-10 -5 -18 -14 -18 -20 0 -5 12 -2 26 7 24 16 26 16 42
0 15 -15 15 -18 2 -26 -8 -5 -25 -10 -37 -10 -31 0 -46 -32 -28 -56 12 -16 17
-17 44 -7 17 6 31 7 31 2 0 -5 4 -9 8 -9 13 0 1 114 -12 122 -15 10 -38 9 -58
-3z m62 -68 c0 -9 -27 -41 -35 -41 -29 0 -47 34 -22 43 21 9 57 7 57 -2z"/>
<path d="M10812 950 c1 -52 3 -80 5 -62 4 27 8 32 23 27 44 -14 80 38 61 88
-12 30 -48 45 -65 27 -8 -10 -7 -12 6 -7 39 14 65 -55 33 -87 -30 -29 -66 14
-51 61 3 10 1 25 -4 33 -7 10 -9 -16 -8 -80z"/>
<path d="M10930 948 c0 -52 4 -88 10 -88 6 0 10 13 10 29 0 24 3 28 20 24 30
-8 60 24 60 62 0 40 -25 62 -67 62 l-33 0 0 -89z m68 70 c32 -32 1 -116 -33
-88 -26 22 -14 100 15 100 3 0 11 -5 18 -12z"/>
<path d="M11110 1030 c0 -32 27 -114 38 -118 7 -2 14 13 18 37 9 56 21 60 31
9 11 -57 28 -58 42 -1 7 26 14 56 17 66 3 9 1 17 -4 17 -6 0 -13 -18 -17 -40
-9 -55 -22 -58 -32 -8 -11 54 -29 60 -38 11 -10 -61 -22 -72 -29 -27 -8 43
-26 82 -26 54z"/>
<path d="M11298 1029 c-10 -5 -18 -14 -18 -20 0 -5 12 -2 26 7 24 16 26 16 42
0 15 -15 15 -18 2 -26 -8 -5 -25 -10 -37 -10 -31 0 -46 -32 -28 -56 12 -16 17
-17 44 -7 17 6 31 7 31 2 0 -5 4 -9 8 -9 13 0 1 114 -12 122 -15 10 -38 9 -58
-3z m62 -68 c0 -9 -27 -41 -35 -41 -29 0 -47 34 -22 43 21 9 57 7 57 -2z"/>
<path d="M11412 1028 c-21 -21 -13 -39 22 -53 43 -18 50 -29 31 -45 -12 -10
-20 -9 -40 4 -26 17 -34 9 -13 -12 16 -16 53 -15 68 3 19 23 7 49 -28 59 -21
6 -32 15 -30 24 4 22 23 25 42 6 9 -9 20 -13 24 -9 9 9 -27 35 -48 35 -9 0
-21 -5 -28 -12z"/>
<path d="M11716 1018 c-9 -12 -16 -34 -16 -49 0 -46 58 -77 88 -47 20 20 13
30 -10 14 -24 -17 -58 -6 -58 19 0 11 12 15 46 15 42 0 45 1 39 23 -15 48 -64
62 -89 25z m58 -4 c21 -21 12 -34 -25 -34 -33 0 -40 23 -11 39 9 6 18 11 19
11 1 0 9 -7 17 -16z"/>
<path d="M11843 1033 c-7 -2 -13 -15 -13 -28 0 -18 8 -26 35 -35 37 -12 46
-34 19 -44 -21 -8 -20 -8 -38 10 -14 13 -16 13 -16 0 0 -31 72 -32 84 -1 9 24
-3 42 -36 51 -36 11 -46 29 -22 38 10 4 25 -1 35 -10 21 -19 27 -6 7 14 -12
12 -33 14 -55 5z"/>
<path d="M11940 975 c0 -37 4 -65 10 -65 6 0 10 28 10 65 0 37 -4 65 -10 65
-6 0 -10 -28 -10 -65z"/>
<path d="M12012 1031 c-20 -12 -30 -54 -20 -83 11 -30 35 -42 63 -32 23 9 17
-24 -7 -40 -13 -8 -22 -6 -37 8 -12 11 -21 14 -21 9 0 -18 28 -35 52 -31 31 4
48 43 48 114 l0 60 -34 1 c-18 1 -38 -2 -44 -6z m58 -56 c0 -43 -30 -64 -54
-39 -35 34 -5 105 35 84 13 -7 19 -21 19 -45z"/>
<path d="M12121 970 l2 -65 6 53 c6 50 23 76 46 69 6 -2 11 -29 13 -60 4 -72
22 -75 22 -3 0 61 -12 76 -58 73 l-32 -2 1 -65z"/>
<path d="M12256 1024 c-34 -34 -11 -114 33 -114 22 0 58 26 49 35 -4 4 -14 0
-23 -9 -21 -20 -28 -20 -48 2 -25 28 -21 32 28 32 37 0 45 3 45 18 0 22 -30
52 -53 52 -8 0 -23 -7 -31 -16z m52 -6 c21 -21 13 -38 -18 -38 -23 0 -30 5
-30 19 0 17 11 27 31 30 3 1 10 -4 17 -11z"/>
<path d="M12630 1020 c-11 -11 -20 -30 -20 -43 0 -31 27 -67 51 -67 27 0 59
35 59 65 0 28 -32 65 -55 65 -8 0 -24 -9 -35 -20z m70 -45 c0 -23 -6 -38 -18
-44 -28 -15 -52 5 -52 44 0 39 24 59 52 44 12 -6 18 -21 18 -44z"/>
<path d="M12946 1027 c-25 -19 -26 -85 -1 -103 25 -18 50 -18 70 2 22 22 10
32 -13 11 -23 -21 -27 -21 -46 -1 -26 25 -19 34 29 34 37 0 45 3 45 18 0 22
-30 52 -51 52 -9 0 -23 -6 -33 -13z m52 -9 c21 -21 13 -38 -17 -38 -37 0 -46
13 -25 34 19 19 26 20 42 4z"/>
<path d="M13112 950 c1 -52 3 -80 5 -62 4 27 8 32 23 27 44 -14 80 38 61 88
-12 30 -48 45 -65 27 -8 -10 -7 -12 6 -7 39 14 65 -55 33 -87 -30 -29 -66 14
-51 61 3 10 1 25 -4 33 -7 10 -9 -16 -8 -80z"/>
<path d="M13304 974 c25 -68 25 -94 0 -94 -8 0 -14 -5 -14 -11 0 -6 7 -8 16
-5 9 3 17 6 19 6 6 0 57 161 52 166 -3 3 -13 -17 -22 -45 -9 -28 -18 -51 -20
-51 -2 0 -11 23 -20 50 -9 28 -21 50 -26 50 -5 0 2 -30 15 -66z"/>
<path d="M13417 1022 c-23 -25 -21 -75 3 -97 26 -23 68 -13 80 21 25 66 -39
124 -83 76z m57 -8 c9 -8 16 -26 16 -39 0 -22 -23 -55 -39 -55 -16 0 -31 26
-31 55 0 29 15 55 31 55 4 0 15 -7 23 -16z"/>
<path d="M13530 987 c0 -29 5 -58 12 -65 15 -15 45 -16 53 -1 4 6 1 10 -6 8
-35 -4 -39 2 -39 56 0 30 -4 55 -10 55 -5 0 -10 -24 -10 -53z"/>
<path d="M13608 988 c-3 -29 -1 -60 3 -68 5 -9 9 13 9 53 0 80 -6 88 -12 15z"/>
<path d="M13730 1020 c-11 -11 -20 -31 -20 -45 0 -27 32 -65 54 -65 17 0 46
27 46 43 0 6 -9 1 -20 -11 -29 -31 -60 -14 -60 33 0 43 30 64 55 39 9 -9 19
-13 23 -9 8 8 -26 35 -45 35 -7 0 -22 -9 -33 -20z"/>
<path d="M13849 1030 c-41 -24 -29 -105 16 -116 35 -9 65 19 65 61 0 50 -41
78 -81 55z m49 -12 c24 -24 9 -98 -19 -98 -16 0 -39 33 -39 55 0 22 23 55 39
55 4 0 12 -5 19 -12z"/>
<path d="M13961 970 l2 -65 6 53 c11 91 61 96 61 6 0 -30 5 -54 10 -54 15 0
12 106 -3 119 -7 6 -28 9 -45 8 l-32 -2 1 -65z"/>
<path d="M14080 974 c0 -36 4 -64 10 -64 6 0 10 22 10 49 0 56 19 82 45 61 10
-8 15 -30 15 -61 0 -27 5 -49 10 -49 12 0 13 90 1 109 -5 8 -28 16 -50 17
l-41 2 0 -64z"/>
<path d="M14220 1020 c-11 -11 -20 -31 -20 -45 0 -47 59 -82 88 -53 20 20 13
32 -7 14 -15 -14 -24 -15 -40 -6 -38 20 -26 40 25 40 42 0 45 1 39 23 -8 25
-32 47 -52 47 -7 0 -22 -9 -33 -20z m70 -25 c0 -10 -11 -15 -35 -15 -38 0 -48
22 -18 39 21 11 53 -3 53 -24z"/>
<path d="M14346 1024 c-34 -34 -11 -114 33 -114 21 0 41 19 41 38 0 9 -6 7
-18 -8 -21 -26 -49 -18 -58 15 -13 53 23 90 57 59 21 -19 27 -6 7 14 -17 17
-44 15 -62 -4z"/>
<path d="M7670 920 c0 -5 5 -10 10 -10 6 0 10 5 10 10 0 6 -4 10 -10 10 -5 0
-10 -4 -10 -10z"/>
<path d="M6023 665 c0 -75 1 -81 6 -37 6 50 23 76 46 69 6 -2 11 -29 13 -60 4
-72 22 -75 22 -3 0 61 -16 82 -54 72 -21 -5 -25 -2 -29 21 -2 16 -4 -12 -4
-62z"/>
<path d="M8763 665 c0 -75 1 -81 6 -37 6 50 23 76 46 69 6 -2 11 -29 13 -60 4
-72 22 -75 22 -3 0 61 -16 82 -54 72 -21 -5 -25 -2 -29 21 -2 16 -4 -12 -4
-62z"/>
<path d="M9071 718 c0 -28 2 -30 9 -13 12 28 12 45 0 45 -5 0 -10 -15 -9 -32z"/>
<path d="M9910 740 c0 -5 5 -10 10 -10 6 0 10 5 10 10 0 6 -4 10 -10 10 -5 0
-10 -4 -10 -10z"/>
<path d="M10894 665 c0 -49 1 -71 3 -48 2 23 2 64 0 90 -2 26 -3 8 -3 -42z"/>
<path d="M11690 720 c0 -27 -2 -29 -19 -18 -46 28 -85 -67 -43 -105 9 -9 32
-15 50 -15 l32 1 0 84 c0 49 -4 83 -10 83 -5 0 -10 -14 -10 -30z m-12 -32 c32
-32 1 -116 -33 -88 -26 22 -14 100 15 100 3 0 11 -5 18 -12z"/>
<path d="M12800 665 c0 -50 4 -85 10 -85 6 0 10 35 10 85 0 50 -4 85 -10 85
-6 0 -10 -35 -10 -85z"/>
<path d="M12850 740 c0 -5 5 -10 10 -10 6 0 10 5 10 10 0 6 -4 10 -10 10 -5 0
-10 -4 -10 -10z"/>
<path d="M12900 665 c0 -50 4 -85 10 -85 6 0 10 13 10 29 0 43 14 45 36 6 10
-19 22 -35 26 -35 12 0 10 10 -13 47 l-21 34 23 25 c31 33 12 31 -23 -3 l-28
-27 0 47 c0 26 -4 47 -10 47 -6 0 -10 -35 -10 -85z"/>
<path d="M5960 725 c0 -8 -6 -15 -12 -15 -10 0 -10 -2 -1 -8 6 -4 13 -32 15
-62 3 -46 6 -55 23 -57 11 -2 14 0 8 3 -8 4 -13 26 -13 59 0 33 5 55 13 58 10
4 10 6 0 6 -7 1 -13 8 -13 16 0 8 -4 15 -10 15 -5 0 -10 -7 -10 -15z"/>
<path d="M7060 725 c0 -8 -6 -15 -12 -15 -10 0 -10 -2 -1 -8 6 -4 13 -32 15
-62 3 -46 6 -55 23 -57 11 -2 14 0 8 3 -8 4 -13 26 -13 59 0 33 5 55 13 58 10
4 10 6 0 6 -7 1 -13 8 -13 16 0 8 -4 15 -10 15 -5 0 -10 -7 -10 -15z"/>
<path d="M8700 725 c0 -8 -6 -15 -12 -15 -10 0 -10 -2 -1 -8 6 -4 13 -32 15
-62 3 -46 6 -55 23 -57 11 -2 14 0 8 3 -8 4 -13 26 -13 59 0 33 5 55 13 58 10
4 10 6 0 6 -7 1 -13 8 -13 16 0 8 -4 15 -10 15 -5 0 -10 -7 -10 -15z"/>
<path d="M9008 723 c-2 -9 -1 -43 2 -77 4 -51 8 -61 25 -64 16 -3 18 -1 8 9
-7 7 -13 34 -13 60 0 29 5 49 13 52 10 4 10 6 0 6 -7 1 -13 8 -13 16 0 20 -18
19 -22 -2z"/>
<path d="M11238 723 c-2 -9 -1 -43 2 -77 4 -51 8 -61 25 -64 16 -3 18 -1 8 9
-7 7 -13 34 -13 60 0 29 5 49 13 52 10 4 10 6 0 6 -7 1 -13 8 -13 16 0 20 -18
19 -22 -2z"/>
<path d="M12061 728 c0 -10 -6 -18 -12 -18 -8 0 -8 -4 -1 -13 6 -7 12 -35 14
-61 2 -33 8 -51 18 -54 12 -4 13 -2 3 9 -16 17 -17 91 -1 107 8 8 9 12 1 12
-6 0 -14 8 -16 18 -4 16 -5 16 -6 0z"/>
<path d="M5734 693 c3 -10 10 -40 17 -66 14 -57 31 -56 42 1 10 51 22 47 31
-9 4 -24 11 -39 18 -37 13 5 49 128 37 128 -5 0 -14 -20 -20 -45 -13 -52 -25
-51 -34 5 -4 22 -11 40 -15 40 -9 0 -30 -62 -30 -90 0 -27 -18 10 -25 52 -4
21 -11 38 -17 38 -5 0 -7 -8 -4 -17z"/>
<path d="M5913 645 c0 -38 2 -53 4 -32 2 20 2 52 0 70 -2 17 -4 1 -4 -38z"/>
<path d="M6200 701 c0 -6 9 -35 21 -66 22 -60 20 -85 -8 -85 -14 0 -15 -2 -4
-12 10 -11 15 -9 26 6 19 25 66 166 56 166 -5 0 -14 -20 -21 -45 -7 -25 -16
-48 -20 -50 -4 -3 -13 16 -20 40 -12 42 -30 70 -30 46z"/>
<path d="M6330 690 c-11 -11 -20 -30 -20 -43 0 -31 27 -67 51 -67 27 0 59 35
59 65 0 28 -32 65 -55 65 -8 0 -24 -9 -35 -20z m70 -45 c0 -23 -6 -38 -18 -44
-28 -15 -52 5 -52 44 0 39 24 59 52 44 12 -6 18 -21 18 -44z"/>
<path d="M6440 664 c0 -25 5 -54 10 -65 12 -21 40 -25 58 -7 9 9 12 9 12 0 0
-7 5 -12 10 -12 6 0 10 28 10 65 0 37 -4 65 -10 65 -5 0 -10 -22 -10 -50 0
-37 -4 -52 -17 -58 -32 -17 -43 -3 -43 54 0 30 -4 54 -10 54 -5 0 -10 -21 -10
-46z"/>
<path d="M6571 640 l2 -65 6 54 c4 33 13 58 24 66 16 12 16 13 -7 11 -25 -1
-26 -3 -25 -66z"/>
<path d="M6716 688 c-31 -43 -9 -108 36 -108 18 0 54 37 45 46 -4 4 -15 -4
-26 -17 -16 -20 -21 -21 -35 -10 -19 16 -21 72 -4 89 16 16 23 15 43 -4 9 -9
18 -14 21 -11 9 8 -27 37 -46 37 -10 0 -26 -10 -34 -22z"/>
<path d="M6822 659 c-2 -67 14 -89 53 -71 18 8 25 8 29 -1 2 -7 5 18 5 56 1
38 -3 67 -9 67 -5 0 -10 -22 -10 -49 0 -94 -56 -92 -63 2 l-3 52 -2 -56z"/>
<path d="M6949 694 c-17 -20 -1 -46 32 -54 13 -3 25 -13 27 -22 4 -23 -28 -31
-49 -12 -17 16 -19 16 -19 1 0 -21 42 -32 69 -17 23 12 28 48 9 55 -73 26 -72
25 -55 42 15 15 18 15 37 -2 17 -15 20 -16 20 -3 0 29 -50 37 -71 12z"/>
<path d="M7130 690 c-11 -11 -20 -30 -20 -43 0 -31 27 -67 51 -67 27 0 59 35
59 65 0 28 -32 65 -55 65 -8 0 -24 -9 -35 -20z m70 -45 c0 -23 -6 -38 -18 -44
-28 -15 -52 5 -52 44 0 39 24 59 52 44 12 -6 18 -21 18 -44z"/>
<path d="M7240 643 c0 -35 4 -63 10 -63 6 0 10 22 10 49 0 49 18 79 40 66 5
-3 10 -31 10 -61 0 -30 5 -54 10 -54 6 0 10 22 10 49 0 49 18 79 40 66 5 -3
10 -31 10 -61 0 -30 5 -54 10 -54 6 0 10 24 10 54 0 64 -17 85 -55 68 -13 -6
-27 -7 -30 -3 -3 5 -21 9 -40 8 l-35 -1 0 -63z"/>
<path d="M7446 697 c-25 -19 -26 -85 -1 -103 25 -18 50 -18 70 2 22 22 10 32
-13 11 -23 -21 -27 -21 -46 -1 -26 25 -19 34 29 34 37 0 45 3 45 18 0 22 -30
52 -51 52 -9 0 -23 -6 -33 -13z m52 -9 c21 -21 13 -38 -17 -38 -37 0 -46 13
-25 34 19 19 26 20 42 4z"/>
<path d="M7562 640 c1 -60 2 -61 5 -15 4 50 18 79 34 69 5 -3 9 -1 9 4 0 6
-11 9 -25 8 -24 -1 -25 -3 -23 -66z"/>
<path d="M7643 703 c-7 -2 -13 -15 -13 -28 0 -18 8 -26 35 -35 37 -12 46 -34
19 -44 -21 -8 -20 -8 -38 10 -14 13 -16 13 -16 0 0 -31 72 -32 84 -1 9 24 -3
42 -36 51 -36 11 -46 29 -22 38 10 4 25 -1 35 -10 21 -19 27 -6 7 14 -12 12
-33 14 -55 5z"/>
<path d="M7813 645 c0 -38 2 -53 4 -32 2 20 2 52 0 70 -2 17 -4 1 -4 -38z"/>
<path d="M7861 640 l2 -65 6 53 c11 91 61 96 61 6 0 -30 5 -54 10 -54 15 0 12
106 -3 119 -7 6 -28 9 -45 8 l-32 -2 1 -65z"/>
<path d="M8054 696 c-10 -8 -16 -18 -12 -21 4 -4 14 0 23 9 20 20 29 20 45 1
15 -18 5 -35 -20 -35 -33 0 -50 -12 -50 -35 0 -28 30 -41 60 -25 13 7 20 7 20
0 0 -5 5 -10 10 -10 6 0 10 22 10 49 0 72 -38 102 -86 67z m66 -71 c0 -22 -38
-39 -56 -24 -11 9 -12 15 -3 25 15 19 59 18 59 -1z"/>
<path d="M8220 704 c0 -21 34 -124 41 -124 4 0 14 21 22 48 l14 47 13 -47 c7
-27 16 -48 20 -48 11 0 43 108 37 123 -3 7 -11 -9 -18 -35 -7 -27 -16 -48 -20
-48 -4 0 -10 21 -14 46 -8 58 -26 53 -40 -12 -11 -53 -19 -51 -30 9 -6 32 -25
63 -25 41z"/>
<path d="M8404 696 c-10 -8 -16 -18 -12 -21 4 -4 14 0 23 9 20 20 29 20 45 1
15 -18 5 -35 -20 -35 -33 0 -50 -12 -50 -35 0 -28 30 -41 60 -25 13 7 20 7 20
0 0 -5 5 -10 10 -10 6 0 10 22 10 49 0 72 -38 102 -86 67z m66 -71 c0 -22 -38
-39 -56 -24 -11 9 -12 15 -3 25 15 19 59 18 59 -1z"/>
<path d="M8531 653 c24 -69 24 -89 2 -102 -10 -5 -14 -13 -10 -17 13 -13 35
18 61 90 28 73 31 90 17 82 -4 -3 -14 -26 -21 -51 -7 -24 -16 -43 -20 -40 -4
3 -13 25 -19 50 -6 25 -15 45 -21 45 -5 0 0 -25 11 -57z"/>
<path d="M8894 696 c-10 -8 -16 -18 -12 -21 4 -4 14 0 23 9 20 20 29 20 45 1
15 -18 5 -35 -20 -35 -33 0 -50 -12 -50 -35 0 -28 30 -41 60 -25 13 7 20 7 20
0 0 -5 5 -10 10 -10 6 0 10 22 10 49 0 72 -38 102 -86 67z m66 -71 c0 -22 -38
-39 -56 -24 -11 9 -12 15 -3 25 15 19 59 18 59 -1z"/>
<path d="M9119 694 c-17 -20 -1 -46 32 -54 13 -3 25 -13 27 -22 4 -23 -28 -31
-49 -12 -17 16 -19 16 -19 1 0 -21 42 -32 69 -17 23 12 28 48 9 55 -73 26 -72
25 -55 42 15 15 18 15 37 -2 17 -15 20 -16 20 -3 0 29 -50 37 -71 12z"/>
<path d="M9300 690 c-11 -11 -20 -31 -20 -45 0 -47 59 -82 88 -53 20 20 13 32
-7 14 -15 -14 -24 -15 -40 -6 -38 20 -26 40 25 40 42 0 45 1 39 23 -8 25 -32
47 -52 47 -7 0 -22 -9 -33 -20z m70 -25 c0 -10 -11 -15 -35 -15 -38 0 -48 22
-18 39 21 11 53 -3 53 -24z"/>
<path d="M9410 644 c0 -36 4 -64 10 -64 6 0 10 22 10 49 0 56 19 82 45 61 10
-8 15 -30 15 -61 0 -27 5 -49 10 -49 12 0 13 90 1 109 -5 8 -28 16 -50 17
l-41 2 0 -64z"/>
<path d="M9546 688 c-32 -45 -5 -114 40 -105 18 3 24 0 24 -13 0 -10 -7 -21
-16 -24 -21 -8 -20 -8 -38 10 -14 13 -16 13 -16 1 0 -8 7 -18 16 -21 53 -20
74 7 74 97 l0 72 -34 2 c-26 2 -39 -3 -50 -19z m58 -10 c21 -29 20 -41 -3 -69
-16 -20 -21 -21 -35 -10 -28 23 -16 101 15 101 5 0 15 -10 23 -22z"/>
<path d="M9674 696 c-10 -8 -16 -18 -12 -21 4 -4 14 0 23 9 20 20 29 20 45 1
15 -18 5 -35 -20 -35 -33 0 -50 -12 -50 -35 0 -28 30 -41 60 -25 13 7 20 7 20
0 0 -5 5 -10 10 -10 6 0 10 22 10 49 0 72 -38 102 -86 67z m66 -71 c0 -22 -38
-39 -56 -24 -11 9 -12 15 -3 25 15 19 59 18 59 -1z"/>
<path d="M9796 688 c-32 -45 -5 -114 40 -105 18 3 24 0 24 -13 0 -10 -7 -21
-16 -24 -21 -8 -20 -8 -38 10 -14 13 -16 13 -16 1 0 -8 7 -18 16 -21 53 -20
74 7 74 97 l0 72 -34 2 c-26 2 -39 -3 -50 -19z m58 -10 c21 -29 20 -41 -3 -69
-16 -20 -21 -21 -35 -10 -28 23 -16 101 15 101 5 0 15 -10 23 -22z"/>
<path d="M9910 645 c0 -37 4 -65 10 -65 6 0 10 28 10 65 0 37 -4 65 -10 65 -6
0 -10 -28 -10 -65z"/>
<path d="M9960 644 c0 -36 4 -64 10 -64 6 0 10 22 10 49 0 31 5 53 15 61 26
21 45 -5 45 -61 0 -27 5 -49 10 -49 12 0 13 90 1 109 -5 8 -28 16 -50 17 l-41
2 0 -64z"/>
<path d="M10096 688 c-32 -45 -5 -114 40 -105 18 3 24 0 24 -13 0 -10 -7 -21
-16 -24 -21 -8 -20 -8 -38 10 -14 13 -16 13 -16 1 0 -8 7 -18 16 -21 53 -20
74 7 74 97 l0 72 -34 2 c-26 2 -39 -3 -50 -19z m58 -10 c21 -29 20 -41 -3 -69
-16 -20 -21 -21 -35 -10 -28 23 -16 101 15 101 5 0 15 -10 23 -22z"/>
<path d="M10350 690 c-11 -11 -20 -31 -20 -45 0 -27 32 -65 54 -65 17 0 46 27
46 43 0 6 -9 1 -20 -11 -29 -31 -60 -14 -60 33 0 43 30 64 55 39 9 -9 19 -13
23 -9 8 8 -26 35 -45 35 -7 0 -22 -9 -33 -20z"/>
<path d="M10469 700 c-41 -24 -29 -105 16 -116 35 -9 65 19 65 61 0 50 -41 78
-81 55z m49 -12 c24 -24 9 -98 -19 -98 -16 0 -39 33 -39 55 0 22 23 55 39 55
4 0 12 -5 19 -12z"/>
<path d="M10581 640 l2 -65 6 53 c11 92 60 90 62 -2 l2 -51 6 53 c11 91 57 90
64 -1 l3 -52 2 62 c2 54 0 62 -18 68 -12 4 -27 2 -35 -5 -9 -7 -15 -8 -20 -1
-3 6 -22 10 -41 8 l-34 -2 1 -65z"/>
<path d="M10760 619 c0 -53 4 -89 10 -89 6 0 10 14 10 31 0 26 3 29 21 24 29
-10 59 21 59 59 0 46 -14 60 -59 62 l-41 2 0 -89z m74 59 c21 -29 20 -41 -3
-69 -16 -20 -21 -21 -35 -10 -28 23 -16 101 15 101 5 0 15 -10 23 -22z"/>
<path d="M10943 645 c0 -38 2 -53 4 -32 2 20 2 52 0 70 -2 17 -4 1 -4 -38z"/>
<path d="M11002 698 c-20 -20 -14 -33 7 -14 21 19 53 11 49 -13 -2 -9 -16 -18
-32 -21 -40 -7 -56 -34 -33 -57 14 -14 22 -15 47 -6 21 8 30 8 34 -1 2 -6 5
14 5 45 1 59 -10 79 -44 79 -12 0 -26 -5 -33 -12z m58 -73 c0 -19 -32 -36 -49
-25 -8 4 -11 15 -8 24 8 20 57 22 57 1z"/>
<path d="M11110 644 c0 -36 4 -64 10 -64 6 0 10 22 10 49 0 56 19 82 45 61 10
-8 15 -30 15 -61 0 -27 5 -49 10 -49 12 0 13 90 1 109 -5 8 -28 16 -50 17
l-41 2 0 -64z"/>
<path d="M11374 696 c-10 -8 -16 -18 -12 -21 4 -4 14 0 23 9 20 20 29 20 45 1
15 -18 5 -35 -20 -35 -33 0 -50 -12 -50 -35 0 -28 30 -41 60 -25 13 7 20 7 20
0 0 -5 5 -10 10 -10 6 0 10 22 10 49 0 72 -38 102 -86 67z m66 -71 c0 -22 -38
-39 -56 -24 -11 9 -12 15 -3 25 15 19 59 18 59 -1z"/>
<path d="M11491 640 l2 -65 6 53 c6 50 23 76 46 69 6 -2 11 -29 13 -60 4 -72
22 -75 22 -3 0 61 -12 76 -58 73 l-32 -2 1 -65z"/>
<path d="M11800 644 c0 -36 4 -64 10 -64 6 0 10 22 10 49 0 56 19 82 45 61 10
-8 15 -30 15 -61 0 -27 5 -49 10 -49 12 0 13 90 1 109 -5 8 -28 16 -50 17
l-41 2 0 -64z"/>
<path d="M11940 690 c-11 -11 -20 -30 -20 -43 0 -31 27 -67 51 -67 27 0 59 35
59 65 0 28 -32 65 -55 65 -8 0 -24 -9 -35 -20z m70 -45 c0 -23 -6 -38 -18 -44
-28 -15 -52 5 -52 44 0 39 24 59 52 44 12 -6 18 -21 18 -44z"/>
<path d="M12186 695 c-21 -22 -10 -42 30 -55 37 -12 41 -19 22 -38 -16 -16
-23 -15 -43 4 -9 9 -19 13 -23 9 -9 -9 27 -35 48 -35 21 0 40 20 40 42 0 11
-14 23 -35 32 -38 16 -44 30 -18 40 11 5 22 1 30 -10 7 -10 16 -15 19 -11 10
10 -16 37 -37 37 -9 0 -24 -7 -33 -15z"/>
<path d="M12290 618 c0 -52 4 -88 10 -88 6 0 10 13 10 29 0 24 3 28 20 24 30
-8 60 24 60 62 0 40 -25 62 -67 62 l-33 0 0 -89z m68 70 c32 -32 1 -116 -33
-88 -26 22 -14 100 15 100 3 0 11 -5 18 -12z"/>
<path d="M12425 694 c-9 -9 -14 -19 -11 -21 3 -3 12 2 21 11 19 18 24 19 44 7
21 -13 5 -41 -22 -41 -33 0 -54 -26 -40 -48 7 -12 24 -17 52 -17 l41 0 0 51
c0 27 -5 55 -12 62 -17 17 -54 15 -73 -4z m65 -69 c0 -20 -39 -40 -52 -27 -6
6 -8 18 -5 26 8 20 57 21 57 1z"/>
<path d="M12540 643 c0 -35 4 -63 10 -63 6 0 10 22 10 49 0 49 18 79 40 66 5
-3 10 -31 10 -61 0 -30 5 -54 10 -54 6 0 10 22 10 49 0 49 18 79 40 66 5 -3
10 -31 10 -61 0 -30 5 -54 10 -54 6 0 10 24 10 54 0 64 -17 85 -55 68 -13 -6
-27 -7 -30 -3 -3 5 -21 9 -40 8 l-35 -1 0 -63z"/>
<path d="M12850 645 c0 -37 4 -65 10 -65 6 0 10 28 10 65 0 37 -4 65 -10 65
-6 0 -10 -28 -10 -65z"/>
<path d="M13026 688 c-9 -12 -16 -34 -16 -49 0 -46 58 -77 88 -47 20 20 13 30
-10 14 -24 -17 -58 -6 -58 19 0 11 12 15 46 15 42 0 45 1 39 23 -15 48 -64 62
-89 25z m58 -4 c21 -21 12 -34 -25 -34 -33 0 -40 23 -11 39 9 6 18 11 19 11 1
0 9 -7 17 -16z"/>
<path d="M12720 640 c0 -5 14 -10 30 -10 17 0 30 5 30 10 0 6 -13 10 -30 10
-16 0 -30 -4 -30 -10z"/>
<path d="M10223 581 c0 -11 5 -17 9 -15 11 7 10 34 -1 34 -6 0 -9 -9 -8 -19z"/>
<path d="M13150 590 c0 -5 5 -10 10 -10 6 0 10 5 10 10 0 6 -4 10 -10 10 -5 0
-10 -4 -10 -10z"/>
<path d="M19020 89 l22 -30 24 22 c34 32 30 39 -22 39 l-45 0 21 -31z"/>
</g>
</svg>
