<?xml version="1.0" standalone="no"?>
<!DOCTYPE svg PUBLIC "-//W3C//DTD SVG 20010904//EN"
 "http://www.w3.org/TR/2001/REC-SVG-20010904/DTD/svg10.dtd">
<svg version="1.0" xmlns="http://www.w3.org/2000/svg"
 width="1918.000000pt" height="826.000000pt" viewBox="0 0 1918.000000 826.000000"
 preserveAspectRatio="xMidYMid meet">

<g transform="translate(0.000000,826.000000) scale(0.100000,-0.100000)"
fill="#000000" stroke="none">
<path d="M14796 8054 c-14 -13 -16 -49 -16 -234 0 -185 2 -221 16 -234 14 -14
112 -16 929 -16 817 0 915 2 929 16 14 13 16 49 16 234 0 185 -2 221 -16 234
-14 14 -112 16 -929 16 -817 0 -915 -2 -929 -16z m752 -182 c2 -7 -3 -12 -12
-12 -9 0 -16 7 -16 16 0 17 22 14 28 -4z m-444 -14 c34 -49 7 -108 -49 -108
-56 0 -87 70 -48 112 23 26 78 24 97 -4z m960 6 c9 -8 16 -31 16 -49 0 -44
-22 -65 -71 -65 l-39 0 0 65 0 65 39 0 c23 0 46 -7 55 -16z m-874 -23 c0 -5
-7 -11 -15 -15 -9 -3 -15 -19 -15 -41 0 -24 -4 -35 -15 -35 -11 0 -15 12 -15
50 0 49 1 50 30 50 17 0 30 -4 30 -9z m100 -56 c0 -60 -2 -65 -24 -71 -33 -8
-58 -2 -64 15 -3 10 3 12 27 6 20 -4 31 -3 31 4 0 6 -11 11 -25 11 -33 0 -50
35 -36 73 9 23 16 27 51 27 l40 0 0 -65z m98 13 l3 -48 -41 0 c-27 0 -43 5
-46 15 -8 20 13 45 37 45 11 0 19 5 19 10 0 6 -11 8 -25 4 -14 -3 -25 -2 -25
3 0 17 14 24 45 21 28 -3 30 -6 33 -50z m110 0 c2 -29 -1 -48 -7 -48 -6 0 -11
12 -11 28 0 15 -4 33 -9 41 -14 22 -31 3 -31 -35 0 -24 -5 -34 -15 -34 -11 0
-15 12 -15 51 l0 50 43 -3 42 -3 3 -47z m52 2 c0 -38 -4 -50 -15 -50 -11 0
-15 12 -15 50 0 38 4 50 15 50 11 0 15 -12 15 -50z m100 37 c0 -8 -9 -22 -20
-32 -11 -10 -20 -22 -20 -27 0 -4 9 -8 20 -8 11 0 20 -4 20 -10 0 -5 -18 -10
-40 -10 -45 0 -49 10 -19 48 l21 27 -21 3 c-37 6 -23 22 19 22 27 0 40 -4 40
-13z m100 -6 c17 -32 12 -41 -25 -41 -19 0 -35 -5 -35 -11 0 -7 11 -9 31 -5
22 4 29 2 27 -7 -6 -17 -56 -21 -74 -6 -17 14 -19 60 -2 77 19 19 66 15 78 -7z
m148 -33 l3 -48 -41 0 c-27 0 -43 5 -46 15 -8 20 13 45 37 45 11 0 19 5 19 10
0 6 -11 8 -25 4 -14 -3 -25 -2 -25 3 0 17 14 24 45 21 28 -3 30 -6 33 -50z
m280 40 c7 -7 12 -20 12 -30 0 -14 -8 -18 -36 -18 -22 0 -33 -4 -29 -11 4 -6
19 -7 37 -4 23 6 29 4 26 -6 -3 -8 -21 -15 -41 -17 -31 -3 -39 1 -49 22 -17
38 3 76 40 76 15 0 33 -5 40 -12z m160 0 c18 -15 16 -88 -2 -88 -10 0 -16 13
-18 37 -4 52 -28 56 -28 4 0 -30 -4 -41 -15 -41 -11 0 -15 11 -15 41 0 52 -24
48 -28 -4 -2 -24 -8 -37 -18 -37 -10 0 -14 13 -14 50 l0 50 63 -1 c34 -1 68
-6 75 -11z m114 -13 c17 -37 -3 -75 -40 -75 -35 0 -52 16 -52 50 0 34 17 50
52 50 21 0 32 -7 40 -25z"/>
<path d="M15030 7846 c-15 -19 -9 -56 12 -69 34 -22 66 41 36 71 -16 16 -33
15 -48 -2z"/>
<path d="M16000 7816 c0 -30 4 -46 13 -46 26 0 38 18 35 51 -2 26 -8 35 -25
37 -21 3 -23 -1 -23 -42z"/>
<path d="M15226 7815 c-8 -21 3 -45 20 -45 9 0 14 11 14 30 0 32 -23 42 -34
15z"/>
<path d="M15330 7780 c0 -5 6 -10 14 -10 8 0 18 5 21 10 3 6 -3 10 -14 10 -12
0 -21 -4 -21 -10z"/>
<path d="M15695 7820 c-3 -5 3 -10 15 -10 12 0 18 5 15 10 -3 6 -10 10 -15 10
-5 0 -12 -4 -15 -10z"/>
<path d="M15840 7780 c0 -5 7 -10 15 -10 8 0 15 5 15 10 0 6 -7 10 -15 10 -8
0 -15 -4 -15 -10z"/>
<path d="M16125 7820 c-3 -5 3 -10 15 -10 12 0 18 5 15 10 -3 6 -10 10 -15 10
-5 0 -12 -4 -15 -10z"/>
<path d="M16397 7824 c-4 -4 -7 -18 -7 -31 0 -18 5 -24 18 -21 10 2 17 12 17
27 0 24 -15 37 -28 25z"/>
<path d="M2511 7960 c-33 -15 -55 -19 -95 -14 -36 4 -63 1 -89 -9 -34 -15 -37
-19 -37 -55 0 -33 8 -48 45 -90 l45 -50 -15 -41 -14 -41 32 0 c80 0 221 100
262 186 24 50 24 103 0 120 -27 20 -82 17 -134 -6z"/>
<path d="M4094 7945 c-9 -23 3 -45 24 -45 11 0 25 7 32 15 16 19 -3 45 -32 45
-10 0 -21 -7 -24 -15z"/>
<path d="M2855 7903 c8 -27 30 -93 48 -148 30 -88 36 -100 57 -100 20 0 27 11
53 88 16 49 33 85 37 80 4 -4 20 -45 35 -90 23 -71 30 -83 49 -83 19 0 27 17
69 143 26 78 47 146 47 151 0 4 -12 6 -27 4 -24 -3 -29 -12 -56 -91 -16 -49
-33 -85 -37 -80 -4 4 -20 45 -35 91 -24 70 -32 82 -49 80 -16 -2 -27 -23 -51
-90 -16 -49 -33 -88 -36 -88 -3 0 -18 41 -34 90 -27 85 -30 90 -56 90 l-28 0
14 -47z"/>
<path d="M3572 7929 c-111 -56 -107 -216 6 -270 53 -26 116 -22 161 10 30 21
31 26 31 92 l0 69 -65 0 c-63 0 -65 -1 -65 -25 0 -22 4 -25 40 -25 38 0 40 -2
40 -29 0 -54 -61 -77 -120 -46 -36 18 -52 47 -52 90 0 43 16 72 52 90 36 19
57 19 92 1 24 -13 28 -12 43 4 16 17 15 19 -9 35 -42 28 -104 29 -154 4z"/>
<path d="M4360 7895 c0 -54 0 -54 -25 -45 -62 24 -124 -20 -132 -93 -5 -39 -2
-48 25 -78 25 -28 35 -33 73 -32 24 1 59 2 77 2 l32 0 0 151 0 150 -25 0 c-24
0 -25 -3 -25 -55z m-19 -95 c14 -8 19 -21 19 -49 0 -31 -5 -40 -27 -50 -23
-10 -30 -9 -52 7 -33 24 -38 55 -12 81 23 23 43 26 72 11z"/>
<path d="M6133 7815 c0 -38 2 -55 4 -37 4 29 7 32 39 32 31 0 34 -2 34 -30 0
-16 5 -30 10 -30 6 0 10 28 10 65 0 37 -4 65 -10 65 -5 0 -10 -14 -10 -31 0
-28 -2 -30 -32 -27 -27 2 -34 8 -39 33 -4 19 -6 4 -6 -40z"/>
<path d="M6990 7816 c0 -37 4 -66 10 -66 6 0 10 11 10 25 0 16 6 25 15 25 9 0
21 -11 27 -25 6 -14 15 -25 20 -25 5 0 4 10 -3 21 -8 17 -8 27 2 46 18 34 1
57 -45 61 l-36 3 0 -65z m65 37 c16 -16 16 -17 -1 -30 -29 -21 -44 -16 -44 17
0 34 19 40 45 13z"/>
<path d="M7693 7815 c0 -54 1 -61 6 -30 5 31 11 41 28 43 19 3 22 -2 26 -40
l4 -43 1 48 c2 51 -15 70 -42 47 -12 -9 -15 -6 -19 17 -2 15 -4 -3 -4 -42z"/>
<path d="M8163 7815 c0 -38 2 -55 4 -37 4 29 7 32 39 32 31 0 34 -2 34 -30 0
-16 5 -30 10 -30 6 0 10 28 10 65 0 37 -4 65 -10 65 -5 0 -10 -14 -10 -31 0
-28 -2 -30 -32 -27 -27 2 -34 8 -39 33 -4 19 -6 4 -6 -40z"/>
<path d="M8503 7815 c0 -38 2 -53 4 -32 2 20 2 52 0 70 -2 17 -4 1 -4 -38z"/>
<path d="M8613 7815 c0 -54 1 -61 6 -30 5 31 11 41 28 43 17 2 24 -3 27 -20 3
-13 7 -32 9 -43 3 -11 5 -1 6 21 1 46 -14 66 -46 58 -17 -5 -22 -1 -26 18 -2
12 -4 -8 -4 -47z"/>
<path d="M9461 7813 c1 -44 3 -59 8 -43 4 17 15 26 31 28 23 3 50 26 50 43 0
17 -34 39 -61 39 l-29 0 1 -67z m57 48 c23 -14 10 -46 -21 -49 -23 -3 -27 0
-27 21 0 36 19 47 48 28z"/>
<path d="M9583 7815 c0 -38 2 -53 4 -32 2 20 2 52 0 70 -2 17 -4 1 -4 -38z"/>
<path d="M9790 7866 c0 -8 -6 -17 -12 -19 -10 -4 -10 -8 -1 -14 6 -4 13 -26
16 -48 l4 -40 1 42 c1 23 8 44 15 46 9 4 8 8 -3 16 -13 10 -13 12 0 21 13 8
12 10 -2 10 -10 0 -18 -6 -18 -14z"/>
<path d="M10540 7816 c0 -37 4 -66 10 -66 6 0 10 11 10 25 0 16 6 25 15 25 9
0 21 -11 27 -25 6 -14 15 -25 20 -25 5 0 4 10 -3 21 -8 17 -8 27 2 46 18 34 1
57 -45 61 l-36 3 0 -65z m65 37 c16 -16 16 -17 -1 -30 -29 -21 -44 -16 -44 17
0 34 19 40 45 13z"/>
<path d="M11826 7864 c-23 -22 -20 -77 4 -99 16 -15 26 -17 47 -9 14 5 28 15
31 23 4 11 0 11 -17 -1 -29 -20 -60 -12 -67 17 -13 54 21 87 62 60 25 -16 33
-8 12 13 -17 17 -54 15 -72 -4z"/>
<path d="M12863 7818 c-23 -61 -25 -88 -3 -49 14 28 60 28 67 1 3 -11 9 -20
14 -20 11 0 -34 123 -47 127 -5 2 -19 -25 -31 -59z m35 -16 c-27 -5 -30 1 -17
34 l11 29 13 -30 c12 -27 12 -30 -7 -33z"/>
<path d="M12982 7820 l-2 -66 30 -2 c34 -3 55 26 46 63 -7 27 -35 40 -50 25
-7 -7 -7 -11 -1 -10 21 4 33 -1 39 -16 8 -22 -12 -56 -32 -52 -13 2 -18 18
-23 63 l-6 60 -1 -65z"/>
<path d="M8547 7856 c-3 -8 -4 -22 -2 -33 14 -67 16 -73 33 -73 16 1 16 1 0
11 -21 12 -24 65 -6 71 9 3 8 9 -4 21 -13 13 -17 14 -21 3z"/>
<path d="M9720 7852 c-10 -11 -11 -17 -2 -20 7 -2 12 -21 12 -43 0 -31 4 -39
18 -39 14 0 14 2 3 9 -10 6 -12 21 -9 49 7 48 -2 66 -22 44z"/>
<path d="M12157 7857 c-9 -24 8 -100 23 -105 12 -4 13 -2 3 9 -17 17 -17 66
-1 71 9 3 8 9 -4 21 -12 12 -17 13 -21 4z"/>
<path d="M12427 7857 c-9 -24 8 -100 23 -105 12 -4 13 -2 3 9 -17 17 -17 66
-1 71 9 3 8 9 -4 21 -12 12 -17 13 -21 4z"/>
<path d="M13307 7857 c-9 -24 8 -100 23 -105 12 -4 13 -2 3 9 -17 17 -17 66
-1 71 9 3 8 9 -4 21 -12 12 -17 13 -21 4z"/>
<path d="M3324 7853 c-66 -12 -95 -124 -45 -177 33 -35 83 -43 129 -22 32 16
34 19 19 33 -13 14 -20 14 -47 3 -28 -12 -33 -11 -55 10 -13 13 -22 27 -19 31
3 5 37 9 75 9 l69 0 -6 28 c-17 68 -57 97 -120 85z m64 -60 c2 -9 -9 -13 -37
-13 -39 0 -50 8 -34 24 11 11 66 2 71 -11z"/>
<path d="M4535 7853 c-82 -19 -96 -148 -21 -194 38 -23 67 -24 106 -4 32 17
36 25 19 42 -8 8 -19 6 -40 -4 -27 -13 -32 -13 -54 1 -47 31 -32 46 46 46 l72
0 -7 33 c-11 55 -67 92 -121 80z m63 -60 c2 -9 -9 -13 -37 -13 -32 0 -39 3
-34 16 7 18 64 16 71 -3z"/>
<path d="M3830 7776 c0 -64 3 -79 24 -102 19 -23 31 -28 67 -27 24 1 59 2 77
2 l32 0 0 101 0 100 -25 0 c-24 0 -25 -2 -25 -63 0 -49 -4 -68 -18 -80 -47
-43 -82 -9 -82 79 0 62 -1 64 -25 64 -24 0 -25 -2 -25 -74z"/>
<path d="M4100 7750 l0 -100 25 0 25 0 0 100 0 100 -25 0 -25 0 0 -100z"/>
<path d="M6266 7834 c-30 -30 -11 -84 29 -84 24 0 45 25 45 54 0 18 -27 46
-45 46 -7 0 -21 -7 -29 -16z m52 -36 c-2 -25 -8 -33 -23 -33 -15 0 -21 8 -23
33 -3 29 -1 32 23 32 24 0 26 -3 23 -32z"/>
<path d="M6372 7795 c1 -50 2 -50 5 -7 3 34 8 42 24 42 16 0 19 -7 19 -40 0
-22 5 -40 10 -40 6 0 10 18 10 40 0 33 3 40 19 40 16 0 21 -8 24 -42 l4 -43 1
48 c2 50 -15 70 -42 48 -7 -6 -16 -7 -20 -3 -4 4 -19 7 -32 7 -22 1 -24 -2
-22 -50z"/>
<path d="M6536 7834 c-19 -18 -20 -38 -6 -65 11 -20 54 -26 65 -10 3 6 -7 9
-22 8 -19 -1 -28 3 -31 16 -3 13 3 17 27 17 32 0 41 16 19 38 -16 16 -33 15
-52 -4z m35 -22 c-28 -4 -40 6 -21 18 9 6 20 4 29 -3 12 -10 11 -13 -8 -15z"/>
<path d="M7116 7834 c-19 -18 -20 -38 -6 -65 11 -20 54 -26 65 -10 3 6 -7 9
-22 8 -19 -1 -28 3 -31 16 -3 13 3 17 27 17 32 0 41 16 19 38 -16 16 -33 15
-52 -4z m54 -15 c0 -5 -11 -9 -25 -9 -26 0 -34 15 -12 23 16 5 37 -3 37 -14z"/>
<path d="M7220 7835 c-15 -18 -6 -33 27 -46 32 -12 19 -33 -16 -24 -20 5 -23
4 -14 -6 15 -16 63 -3 63 17 0 9 -13 21 -30 27 -43 16 -38 34 9 28 7 -2 10 2
6 8 -9 15 -30 14 -45 -4z"/>
<path d="M7322 7838 c-7 -7 -12 -24 -12 -38 0 -14 5 -31 12 -38 14 -14 44 -16
53 -3 3 6 -7 9 -22 8 -19 -1 -28 3 -31 16 -3 14 4 17 32 17 39 0 45 10 20 34
-19 19 -36 20 -52 4z m48 -19 c0 -5 -11 -9 -25 -9 -26 0 -34 15 -12 23 16 5
37 -3 37 -14z"/>
<path d="M7433 7843 c-7 -2 -13 -9 -13 -15 0 -6 6 -6 15 2 14 12 35 6 35 -10
0 -4 -14 -13 -31 -19 -45 -15 -36 -46 14 -48 35 -1 37 1 37 29 0 53 -21 76
-57 61z m35 -60 c-4 -20 -39 -25 -45 -6 -4 10 11 18 40 22 5 0 7 -7 5 -16z"/>
<path d="M7522 7800 c1 -42 2 -46 5 -17 2 21 11 41 19 44 8 3 14 10 14 15 0 6
-6 6 -14 -1 -11 -9 -15 -9 -19 1 -3 7 -5 -12 -5 -42z"/>
<path d="M7596 7834 c-19 -18 -20 -38 -6 -65 13 -23 43 -25 61 -2 13 15 12 15
-8 3 -18 -11 -24 -12 -37 -1 -20 17 -20 35 0 56 12 11 20 13 27 6 17 -17 31
-13 17 4 -16 19 -35 19 -54 -1z"/>
<path d="M8308 7839 c-21 -12 -24 -59 -6 -77 15 -15 45 -15 54 0 5 8 2 9 -9 5
-22 -8 -47 2 -47 19 0 9 12 14 35 14 38 0 44 10 19 34 -18 19 -23 19 -46 5z
m52 -24 c0 -3 -14 -5 -31 -5 -27 0 -30 2 -19 15 9 11 17 12 31 4 10 -5 19 -12
19 -14z"/>
<path d="M8413 7843 c-7 -2 -13 -9 -13 -14 0 -6 7 -6 19 0 14 8 22 7 30 -3 10
-12 6 -15 -18 -21 -54 -12 -45 -55 11 -52 25 2 28 6 28 38 0 48 -21 67 -57 52z
m47 -51 c0 -12 -23 -32 -37 -32 -17 0 -17 27 0 33 19 8 37 8 37 -1z"/>
<path d="M8732 7838 c-17 -17 -15 -63 3 -78 18 -15 47 -10 53 10 4 12 3 13
-10 2 -21 -17 -48 -5 -48 22 0 32 19 47 42 35 10 -6 18 -6 18 0 0 8 -23 21
-39 21 -4 0 -12 -5 -19 -12z"/>
<path d="M8837 7843 c-14 -13 -7 -25 8 -13 14 11 35 6 35 -8 0 -4 -14 -13 -31
-19 -42 -16 -37 -48 9 -49 31 -1 32 0 32 41 0 30 -5 45 -16 49 -20 8 -29 8
-37 -1z m43 -58 c0 -21 -28 -31 -43 -16 -9 9 -8 14 3 21 22 14 40 12 40 -5z"/>
<path d="M8932 7795 c1 -50 2 -50 5 -7 3 28 9 42 19 42 8 0 14 4 14 8 0 4 -9
8 -20 8 -18 0 -20 -6 -18 -51z"/>
<path d="M9008 7839 c-21 -12 -24 -59 -6 -77 15 -15 45 -15 54 0 5 8 2 9 -9 5
-22 -8 -47 2 -47 19 0 9 12 14 35 14 38 0 44 10 19 34 -18 19 -23 19 -46 5z
m52 -24 c0 -3 -14 -5 -31 -5 -27 0 -30 2 -19 15 9 11 17 12 31 4 10 -5 19 -12
19 -14z"/>
<path d="M9633 7843 c-7 -2 -13 -9 -13 -14 0 -6 7 -6 19 0 14 8 22 7 30 -3 10
-12 6 -15 -18 -21 -54 -12 -45 -55 11 -52 25 2 28 6 28 38 0 48 -21 67 -57 52z
m47 -51 c0 -12 -23 -32 -37 -32 -17 0 -17 27 0 33 19 8 37 8 37 -1z"/>
<path d="M9856 7837 c-22 -16 -18 -65 7 -81 40 -25 80 52 41 81 -10 7 -21 13
-24 13 -3 0 -14 -6 -24 -13z m52 -33 c4 -29 -23 -51 -43 -34 -16 13 -20 42 -8
54 14 14 48 1 51 -20z"/>
<path d="M9952 7800 c1 -42 2 -46 5 -17 2 21 11 41 19 44 8 3 14 10 14 15 0 6
-6 6 -14 -1 -11 -9 -15 -9 -19 1 -3 7 -5 -12 -5 -42z"/>
<path d="M10021 7795 l2 -50 6 40 c5 32 11 41 29 43 20 3 22 -1 24 -40 l1 -43
4 39 c5 44 -7 61 -42 61 -24 1 -25 -2 -24 -50z"/>
<path d="M10106 7841 c-3 -5 3 -11 13 -14 14 -3 21 -16 24 -43 l4 -39 1 41 c2
48 -25 83 -42 55z"/>
<path d="M10666 7834 c-19 -18 -20 -38 -6 -65 11 -20 54 -26 65 -10 3 6 -7 9
-22 8 -19 -1 -28 3 -31 16 -3 13 3 17 27 17 32 0 41 16 19 38 -16 16 -33 15
-52 -4z m54 -15 c0 -5 -11 -9 -25 -9 -26 0 -34 15 -12 23 16 5 37 -3 37 -14z"/>
<path d="M10770 7835 c-15 -18 -6 -33 27 -46 32 -12 19 -33 -16 -24 -20 5 -23
4 -14 -6 15 -16 63 -3 63 17 0 9 -13 21 -30 27 -43 16 -38 34 9 28 7 -2 10 2
6 8 -9 15 -30 14 -45 -4z"/>
<path d="M10871 7836 c-17 -20 -10 -67 12 -80 39 -25 76 43 42 78 -20 20 -39
20 -54 2z m59 -35 c0 -24 -23 -43 -44 -35 -19 7 -21 45 -4 62 15 15 48 -3 48
-27z"/>
<path d="M10972 7807 c-2 -49 17 -72 40 -49 7 7 4 10 -8 9 -15 -2 -20 7 -25
43 l-6 45 -1 -48z"/>
<path d="M11033 7800 c0 -30 2 -43 4 -27 2 15 2 39 0 55 -2 15 -4 2 -4 -28z"/>
<path d="M11082 7795 c1 -50 2 -50 5 -7 3 28 9 42 19 42 8 0 14 4 14 8 0 4 -9
8 -20 8 -18 0 -20 -6 -18 -51z"/>
<path d="M11158 7839 c-21 -12 -24 -59 -6 -77 16 -16 43 -15 58 3 15 18 -1 20
-18 3 -16 -16 -44 9 -40 36 2 16 10 21 31 21 30 -1 36 9 11 19 -19 7 -15 8
-36 -5z"/>
<path d="M11256 7834 c-19 -18 -20 -38 -6 -65 11 -20 54 -26 65 -10 3 6 -7 9
-22 8 -19 -1 -28 3 -31 16 -3 13 3 17 27 17 32 0 41 16 19 38 -16 16 -33 15
-52 -4z m54 -15 c0 -5 -11 -9 -25 -9 -26 0 -34 15 -12 23 16 5 37 -3 37 -14z"/>
<path d="M11360 7835 c-15 -18 -6 -33 27 -46 32 -12 19 -33 -16 -24 -20 5 -23
4 -14 -6 15 -16 63 -3 63 17 0 9 -13 21 -30 27 -43 16 -38 34 9 28 7 -2 10 2
6 8 -9 15 -30 14 -45 -4z"/>
<path d="M11956 7837 c-22 -16 -18 -65 7 -81 40 -25 80 52 41 81 -10 7 -21 13
-24 13 -3 0 -14 -6 -24 -13z m52 -33 c4 -29 -23 -51 -43 -34 -16 13 -20 42 -8
54 14 14 48 1 51 -20z"/>
<path d="M12052 7800 c1 -51 1 -52 7 -15 5 31 11 41 28 43 19 3 22 -2 26 -40
l4 -43 1 48 c2 51 -15 70 -42 48 -11 -9 -15 -9 -19 1 -3 7 -5 -12 -5 -42z"/>
<path d="M12233 7843 c-7 -2 -13 -9 -13 -14 0 -6 7 -6 19 0 14 8 22 7 30 -3
10 -12 6 -15 -18 -21 -54 -12 -45 -55 11 -52 25 2 28 6 28 38 0 48 -21 67 -57
52z m47 -51 c0 -12 -23 -32 -37 -32 -17 0 -17 27 0 33 19 8 37 8 37 -1z"/>
<path d="M12338 7839 c-21 -12 -24 -59 -6 -77 16 -16 43 -15 58 3 15 18 -1 20
-18 3 -16 -16 -44 9 -40 36 2 16 10 21 31 21 30 -1 36 9 11 19 -19 7 -15 8
-36 -5z"/>
<path d="M13096 7834 c-34 -33 -7 -92 37 -80 33 8 43 40 23 71 -19 29 -38 32
-60 9z m54 -35 c0 -37 -27 -50 -46 -24 -18 24 -17 30 1 49 22 22 45 9 45 -25z"/>
<path d="M13260 7816 c0 -35 -24 -66 -40 -50 -5 5 -10 25 -13 44 -4 33 -4 33
-5 -8 -2 -46 16 -64 42 -43 11 9 15 9 19 -1 3 -7 6 11 6 40 1 28 -1 52 -4 52
-3 0 -5 -15 -5 -34z"/>
<path d="M6180 7490 c0 -6 67 -10 180 -10 113 0 180 4 180 10 0 6 -67 10 -180
10 -113 0 -180 -4 -180 -10z"/>
<path d="M6764 6192 c-24 -16 -35 -51 -23 -74 16 -31 28 -38 65 -38 56 0 86
67 46 103 -19 17 -68 22 -88 9z"/>
<path d="M5490 5876 l0 -296 65 0 65 0 0 95 0 95 83 0 c95 0 148 20 190 69 76
91 51 238 -50 298 -46 27 -55 28 -200 32 l-153 3 0 -296z m260 171 c34 -17 53
-61 45 -103 -8 -47 -53 -74 -122 -74 l-53 0 0 95 0 95 53 0 c28 0 63 -6 77
-13z"/>
<path d="M6467 6123 c-4 -3 -7 -28 -7 -55 0 -45 -2 -48 -25 -48 -23 0 -25 -3
-25 -50 0 -46 2 -50 24 -50 24 0 24 -1 28 -132 5 -184 27 -212 159 -206 62 3
64 4 61 28 -7 61 -11 69 -45 72 l-32 3 -3 118 -3 117 41 0 40 0 0 50 0 50 -40
0 -40 0 0 55 0 55 -63 0 c-35 0 -67 -3 -70 -7z"/>
<path d="M7940 6075 c0 -54 0 -55 -30 -55 -29 0 -30 -1 -30 -50 0 -49 1 -50
29 -50 l29 0 4 -140 c3 -137 3 -140 31 -167 24 -25 36 -28 109 -32 l81 -3 -6
38 c-4 22 -7 45 -7 52 0 7 -14 12 -34 12 -22 0 -36 6 -40 16 -3 9 -6 63 -6
120 l0 104 40 0 40 0 0 50 0 50 -40 0 -40 0 0 55 0 55 -65 0 -65 0 0 -55z"/>
<path d="M13000 6075 c0 -54 0 -55 -30 -55 -29 0 -30 -1 -30 -50 0 -49 1 -50
29 -50 l29 0 4 -140 c3 -137 3 -140 31 -167 24 -25 36 -28 109 -32 l81 -3 -6
38 c-4 22 -7 45 -7 52 0 7 -14 12 -34 12 -22 0 -36 6 -40 16 -3 9 -6 63 -6
120 l0 104 40 0 40 0 0 50 0 50 -40 0 -40 0 0 55 0 55 -65 0 -65 0 0 -55z"/>
<path d="M6130 6023 c-58 -10 -91 -26 -120 -59 -43 -50 -40 -61 24 -69 47 -6
57 -4 75 14 38 38 121 22 121 -23 0 -27 -39 -46 -94 -46 -85 0 -161 -47 -172
-107 -9 -45 10 -108 39 -128 62 -44 156 -39 208 11 l29 28 0 -32 0 -32 60 0
60 0 0 175 0 174 -30 35 c-40 45 -129 72 -200 59z m100 -276 c0 -44 -24 -75
-64 -83 -47 -8 -76 9 -76 46 0 16 5 32 12 36 11 7 98 31 121 33 4 1 7 -14 7
-32z"/>
<path d="M7100 6021 c-87 -18 -152 -88 -166 -180 -9 -61 9 -145 41 -187 80
-105 282 -105 353 -1 12 18 22 36 22 39 0 3 -25 9 -55 13 -47 5 -59 3 -81 -14
-53 -42 -134 -14 -150 52 l-6 27 152 0 153 0 -7 56 c-12 105 -67 173 -156 193
-50 12 -50 12 -100 2z m105 -116 c46 -45 35 -55 -60 -55 -54 0 -85 4 -85 11 0
6 13 24 29 40 38 37 82 39 116 4z"/>
<path d="M7647 6020 c-36 -11 -55 -27 -79 -65 l-18 -30 0 48 0 47 -65 0 -65 0
0 -220 0 -220 65 0 65 0 0 133 c0 145 8 174 54 195 35 17 78 2 95 -34 6 -15
11 -81 11 -159 l0 -135 66 0 65 0 -3 174 c-3 158 -5 177 -24 202 -42 57 -107
82 -167 64z"/>
<path d="M8507 6016 c-91 -25 -146 -105 -147 -212 0 -130 52 -201 167 -225 79
-16 153 2 203 50 56 53 53 68 -16 77 -34 4 -59 3 -63 -3 -11 -18 -49 -33 -81
-33 -38 0 -80 39 -80 75 l0 25 145 0 145 0 0 49 c0 73 -43 149 -100 177 -59
30 -114 36 -173 20z m115 -106 c14 -11 28 -29 31 -40 5 -19 1 -20 -79 -20 -94
0 -105 10 -59 55 30 30 73 32 107 5z"/>
<path d="M9095 6025 c-5 -2 -22 -6 -38 -9 -16 -4 -39 -23 -57 -48 l-30 -41 0
46 0 47 -65 0 -65 0 0 -220 0 -220 70 0 70 0 0 148 c0 137 2 150 20 167 30 27
88 25 111 -4 17 -20 19 -41 19 -167 l0 -144 65 0 65 0 0 162 c0 180 -12 228
-67 260 -29 17 -81 29 -98 23z"/>
<path d="M9447 6016 c-21 -8 -47 -22 -57 -31 -65 -59 -84 -211 -39 -301 33
-65 65 -87 139 -92 58 -4 61 -3 96 32 20 20 38 36 40 36 7 0 4 -115 -4 -126
-25 -38 -105 -45 -146 -13 -24 19 -31 19 -81 9 l-56 -12 18 -31 c29 -49 75
-70 163 -75 87 -5 135 7 181 45 57 48 59 60 59 323 l0 240 -65 0 -65 0 0 -37
0 -36 -35 36 c-20 21 -44 37 -53 37 -9 0 -26 2 -37 5 -11 3 -37 -2 -58 -9z
m153 -116 c26 -26 34 -60 28 -121 -6 -63 -29 -89 -80 -89 -65 0 -99 59 -85
147 12 74 90 110 137 63z"/>
<path d="M9990 6023 c-58 -10 -91 -26 -120 -59 -43 -50 -40 -61 24 -69 47 -6
57 -4 75 14 38 38 121 22 121 -23 0 -27 -39 -46 -94 -46 -85 0 -161 -47 -172
-107 -9 -45 10 -108 39 -128 62 -44 156 -39 208 11 l29 28 0 -32 0 -32 60 0
60 0 0 175 0 174 -30 35 c-40 45 -129 72 -200 59z m100 -276 c0 -44 -24 -75
-64 -83 -47 -8 -76 9 -76 46 0 16 5 32 12 36 11 7 98 31 121 33 4 1 7 -14 7
-32z"/>
<path d="M10424 6020 c-86 -20 -126 -84 -132 -207 -3 -69 -1 -90 18 -128 27
-55 68 -86 125 -93 61 -6 92 4 126 41 l29 31 0 -60 c0 -77 -13 -95 -74 -101
-39 -5 -53 -2 -77 16 -28 21 -34 21 -85 11 l-55 -12 18 -30 c28 -47 85 -72
176 -76 68 -4 84 -1 130 22 92 46 92 44 95 334 l3 252 -66 0 -65 0 0 -37 0
-38 -26 32 c-20 27 -81 56 -104 52 -3 -1 -19 -4 -36 -9z m121 -106 c46 -18 62
-149 24 -198 -16 -20 -29 -26 -60 -26 -49 0 -75 24 -84 79 -17 103 41 175 120
145z"/>
<path d="M10937 6016 c-91 -25 -146 -105 -147 -212 0 -130 52 -201 167 -225
79 -16 153 2 203 50 56 53 53 68 -16 77 -34 4 -59 3 -63 -3 -11 -18 -49 -33
-81 -33 -38 0 -80 39 -80 75 l0 25 145 0 145 0 0 49 c0 73 -43 149 -100 177
-59 30 -114 36 -173 20z m115 -106 c14 -11 28 -29 31 -40 5 -19 1 -20 -79 -20
-94 0 -105 10 -59 55 30 30 73 32 107 5z"/>
<path d="M11493 6019 c-17 -5 -46 -26 -62 -46 l-31 -38 0 43 0 42 -60 0 -60 0
0 -220 0 -220 65 0 65 0 0 148 c0 81 4 152 8 158 10 15 47 34 66 34 9 0 25 -9
36 -20 18 -18 20 -33 20 -170 l0 -150 65 0 65 0 0 150 c0 137 2 152 20 170 11
11 27 20 36 20 19 0 56 -19 66 -34 4 -6 8 -77 8 -158 l0 -148 65 0 65 0 0 173
c0 153 -2 176 -20 204 -28 46 -65 67 -120 67 -55 0 -94 -22 -118 -65 -10 -16
-20 -29 -23 -29 -3 0 -13 16 -22 36 -11 23 -29 40 -52 50 -39 16 -38 16 -82 3z"/>
<path d="M12160 6021 c-87 -18 -152 -88 -166 -180 -9 -61 9 -145 41 -187 80
-105 282 -105 353 -1 12 18 22 36 22 39 0 3 -25 9 -55 13 -47 5 -59 3 -81 -14
-53 -42 -134 -14 -150 52 l-6 27 152 0 153 0 -7 56 c-12 105 -67 173 -156 193
-50 12 -50 12 -100 2z m105 -116 c46 -45 35 -55 -60 -55 -54 0 -85 4 -85 11 0
6 13 24 29 40 38 37 82 39 116 4z"/>
<path d="M12707 6020 c-36 -11 -55 -27 -79 -65 l-18 -30 0 48 0 47 -65 0 -65
0 0 -220 0 -220 65 0 65 0 0 133 c0 145 8 174 54 195 35 17 78 2 95 -34 6 -15
11 -81 11 -159 l0 -135 66 0 65 0 -3 174 c-3 158 -5 177 -24 202 -42 57 -107
82 -167 64z"/>
<path d="M6740 5800 l0 -220 65 0 65 0 0 220 0 220 -65 0 -65 0 0 -220z"/>
<path d="M13334 5709 c-52 -26 -49 -106 5 -129 69 -28 131 52 84 108 -22 26
-61 35 -89 21z"/>
<path d="M6727 5172 c-38 -42 -8 -102 50 -102 55 0 85 67 45 103 -25 22 -75
21 -95 -1z"/>
<path d="M9806 5168 c-33 -46 -6 -98 50 -98 37 0 74 28 74 58 0 36 -29 62 -70
62 -29 0 -43 -6 -54 -22z"/>
<path d="M10160 5180 c-72 -13 -103 -47 -116 -129 -6 -39 -9 -41 -40 -41 l-34
0 0 -50 0 -50 35 0 35 0 0 -170 0 -170 70 0 70 0 0 170 0 170 70 0 70 0 0
-170 0 -170 70 0 70 0 0 170 0 170 40 0 40 0 0 50 0 50 -41 0 c-39 0 -40 1
-37 33 3 29 6 32 40 35 38 3 39 5 52 64 8 34 -1 39 -73 39 -98 1 -142 -35
-157 -130 l-7 -41 -69 0 -69 0 3 33 c3 29 6 32 40 35 39 3 45 11 51 72 2 22
-3 25 -38 30 -22 3 -56 3 -75 0z"/>
<path d="M5460 4865 l0 -297 148 3 c142 4 151 5 207 34 103 53 155 165 140
299 -12 111 -65 189 -155 229 -37 17 -72 21 -192 25 l-148 4 0 -297z m290 157
c49 -24 70 -71 70 -155 0 -129 -44 -177 -162 -177 l-68 0 0 175 0 175 63 0
c39 0 75 -6 97 -18z"/>
<path d="M6490 4865 l0 -295 70 0 70 0 0 295 0 295 -70 0 -70 0 0 -295z"/>
<path d="M8920 5048 l0 -113 -30 32 c-38 40 -92 56 -142 43 -87 -24 -131 -98
-131 -220 0 -140 62 -220 170 -220 47 0 58 4 93 36 l40 36 0 -36 0 -36 65 0
65 0 0 295 0 295 -65 0 -65 0 0 -112z m-45 -144 c26 -10 45 -59 45 -118 0 -44
-5 -60 -26 -85 -67 -80 -160 4 -141 126 11 65 65 99 122 77z"/>
<path d="M9580 5048 l0 -111 -34 35 c-38 39 -78 50 -135 37 -84 -19 -124 -83
-129 -209 -3 -77 -1 -90 25 -139 33 -63 76 -91 141 -91 51 0 78 12 109 49 l22
26 1 -37 0 -38 65 0 65 0 0 295 0 295 -65 0 -65 0 0 -112z m-45 -144 c59 -23
59 -205 0 -228 -56 -21 -108 14 -120 82 -17 104 41 176 120 146z"/>
<path d="M12620 4865 l0 -295 70 0 70 0 0 295 0 295 -70 0 -70 0 0 -295z"/>
<path d="M12350 5065 c0 -54 0 -55 -30 -55 -29 0 -30 -1 -30 -50 0 -49 1 -50
29 -50 l29 0 4 -140 c3 -137 3 -140 31 -167 24 -25 36 -28 109 -32 l81 -3 -6
38 c-4 22 -7 45 -7 52 0 7 -14 12 -34 12 -22 0 -36 6 -40 16 -3 9 -6 63 -6
120 l0 104 40 0 40 0 0 50 0 50 -40 0 -40 0 0 55 0 55 -65 0 -65 0 0 -55z"/>
<path d="M6157 5006 c-91 -25 -146 -105 -147 -212 0 -130 52 -201 167 -225 79
-16 153 2 203 50 56 53 53 68 -16 77 -34 4 -59 3 -63 -3 -11 -18 -49 -33 -81
-33 -38 0 -80 39 -80 75 l0 25 145 0 145 0 0 49 c0 73 -43 149 -100 177 -59
30 -114 36 -173 20z m115 -106 c14 -11 28 -29 31 -40 5 -19 1 -20 -79 -20 -94
0 -105 10 -59 55 30 30 73 32 107 5z"/>
<path d="M7540 5011 c-87 -18 -152 -88 -166 -180 -9 -61 9 -145 41 -187 80
-105 282 -105 353 -1 12 18 22 36 22 39 0 3 -25 9 -55 13 -47 5 -59 3 -81 -14
-53 -42 -134 -14 -150 52 l-6 27 152 0 153 0 -7 56 c-12 105 -67 173 -156 193
-50 12 -50 12 -100 2z m105 -116 c46 -45 35 -55 -60 -55 -54 0 -85 4 -85 11 0
6 13 24 29 40 38 37 82 39 116 4z"/>
<path d="M8075 5013 c-27 -7 -45 -22 -67 -58 l-18 -30 0 43 0 42 -65 0 -65 0
0 -220 0 -220 65 0 65 0 0 131 c0 169 14 198 98 199 l42 0 0 54 c0 40 -4 55
-16 60 -9 3 -16 5 -17 5 -1 -1 -11 -4 -22 -6z"/>
<path d="M8297 5006 c-55 -15 -111 -64 -134 -116 -8 -19 -15 -65 -16 -102 0
-90 30 -151 96 -192 41 -25 57 -29 120 -29 54 0 83 5 114 21 39 20 83 68 83
90 0 5 -25 13 -55 17 -47 5 -59 3 -81 -14 -55 -43 -144 -10 -144 54 l0 25 145
0 145 0 0 38 c0 151 -127 248 -273 208z m117 -107 c14 -11 26 -29 26 -40 0
-17 -8 -19 -80 -19 -90 0 -100 11 -55 55 30 31 73 32 109 4z"/>
<path d="M10740 5011 c-87 -18 -152 -88 -166 -180 -9 -61 9 -145 41 -187 80
-105 282 -105 353 -1 12 18 22 36 22 39 0 3 -25 9 -55 13 -47 5 -59 3 -81 -14
-53 -42 -134 -14 -150 52 l-6 27 152 0 153 0 -7 56 c-12 105 -67 173 -156 193
-50 12 -50 12 -100 2z m105 -116 c46 -45 35 -55 -60 -55 -54 0 -85 4 -85 11 0
6 13 24 29 40 38 37 82 39 116 4z"/>
<path d="M11275 5013 c-27 -7 -45 -22 -67 -58 l-18 -30 0 43 0 42 -65 0 -65 0
0 -220 0 -220 65 0 65 0 0 131 c0 169 14 198 98 199 l42 0 0 54 c0 40 -4 55
-16 60 -9 3 -16 5 -17 5 -1 -1 -11 -4 -22 -6z"/>
<path d="M11510 5011 c-87 -18 -152 -88 -166 -180 -9 -61 9 -145 41 -187 80
-105 282 -105 353 -1 12 18 22 36 22 39 0 3 -25 9 -55 13 -47 5 -59 3 -81 -14
-53 -42 -134 -14 -150 52 l-6 27 152 0 153 0 -7 56 c-12 105 -67 173 -156 193
-50 12 -50 12 -100 2z m105 -116 c46 -45 35 -55 -60 -55 -54 0 -85 4 -85 11 0
6 13 24 29 40 38 37 82 39 116 4z"/>
<path d="M12057 5010 c-36 -11 -55 -27 -79 -65 l-18 -30 0 48 0 47 -65 0 -65
0 0 -220 0 -220 65 0 65 0 0 133 c0 145 8 174 54 195 35 17 78 2 95 -34 6 -15
11 -81 11 -159 l0 -135 66 0 65 0 -3 174 c-3 158 -5 177 -24 202 -42 57 -107
82 -167 64z"/>
<path d="M6710 4790 l0 -220 65 0 65 0 0 220 0 220 -65 0 -65 0 0 -220z"/>
<path d="M6892 4998 c2 -7 38 -106 79 -220 l74 -208 77 0 76 0 16 43 c9 23 45
121 80 217 l64 175 -66 3 c-42 2 -68 -1 -72 -9 -4 -6 -27 -81 -51 -166 -29
-103 -46 -148 -51 -136 -3 10 -26 84 -49 166 l-43 147 -69 0 c-51 0 -68 -3
-65 -12z"/>
<path d="M9790 4790 l0 -220 70 0 70 0 0 220 0 220 -70 0 -70 0 0 -220z"/>
<path d="M12896 4785 c46 -123 84 -231 84 -239 0 -23 -29 -39 -69 -38 -34 2
-39 -1 -45 -26 -3 -15 -8 -37 -12 -48 -5 -19 -1 -22 39 -28 25 -4 65 -2 90 4
79 20 95 47 206 338 l99 262 -68 0 -69 0 -47 -147 c-25 -82 -49 -155 -52 -163
-3 -9 -8 -2 -15 20 -5 19 -26 91 -46 160 l-37 125 -71 3 -71 3 84 -226z"/>
<path d="M13356 4689 c-36 -29 -36 -80 1 -109 70 -55 151 42 88 105 -30 30
-54 31 -89 4z"/>
<path d="M7406 4054 c-14 -13 -16 -57 -16 -329 0 -272 2 -316 16 -329 14 -14
129 -16 1119 -16 990 0 1105 2 1119 16 14 13 16 57 16 329 0 272 -2 316 -16
329 -14 14 -129 16 -1119 16 -990 0 -1105 -2 -1119 -16z m932 -252 c2 -7 -6
-12 -17 -12 -21 0 -27 11 -14 24 9 9 26 2 31 -12z m-508 -19 c16 -21 20 -37
16 -61 -7 -47 -23 -62 -64 -62 -48 0 -72 24 -72 72 0 74 76 106 120 51z m1080
-48 l0 -75 -45 0 c-39 0 -47 4 -57 25 -18 41 0 79 40 83 24 2 32 8 32 23 0 10
7 19 15 19 12 0 15 -15 15 -75z m-980 26 c0 -5 -7 -11 -15 -15 -10 -3 -15 -19
-15 -46 0 -29 -4 -40 -15 -40 -12 0 -15 13 -15 55 0 54 0 55 30 55 17 0 30 -4
30 -9z m110 -61 c0 -65 -2 -71 -25 -82 -19 -8 -31 -8 -51 0 -32 15 -22 33 15
26 19 -4 30 -1 34 8 4 11 -1 14 -19 10 -33 -6 -54 14 -54 52 0 42 16 56 62 56
l38 0 0 -70z m118 12 l3 -53 -48 3 c-44 3 -48 5 -48 28 0 20 7 27 33 35 44 13
40 27 -5 19 -35 -7 -37 -6 -24 10 10 12 26 16 50 14 36 -3 36 -3 39 -56z m120
1 c2 -42 0 -53 -12 -53 -10 0 -16 13 -18 43 -2 29 -8 42 -18 42 -10 0 -16 -13
-18 -42 -2 -29 -8 -43 -18 -43 -10 0 -14 14 -14 56 l0 55 48 -3 47 -3 3 -52z
m52 2 c0 -42 -3 -55 -15 -55 -12 0 -15 13 -15 55 0 42 3 55 15 55 12 0 15 -13
15 -55z m120 47 c0 -4 -14 -24 -31 -45 l-30 -37 30 0 c17 0 31 -4 31 -10 0 -5
-22 -10 -50 -10 -27 0 -50 3 -50 7 0 3 11 21 25 39 14 18 25 35 25 38 0 3 -11
6 -25 6 -14 0 -25 5 -25 10 0 6 23 10 50 10 28 0 50 -3 50 -8z m110 -11 c17
-33 11 -41 -31 -41 -28 0 -39 -4 -36 -12 2 -8 18 -12 42 -10 34 3 37 1 26 -12
-16 -19 -72 -21 -89 -4 -7 7 -12 26 -12 43 0 40 16 55 57 55 22 0 36 -6 43
-19z m168 -38 l3 -53 -45 0 c-36 0 -46 4 -51 20 -8 27 0 37 35 45 17 4 30 11
30 17 0 5 -12 7 -30 3 -16 -4 -30 -2 -30 3 0 17 14 23 50 20 35 -3 35 -3 38
-55z m290 45 c7 -7 12 -20 12 -30 0 -14 -8 -18 -36 -18 -24 0 -34 -4 -31 -12
2 -8 18 -12 36 -10 23 2 32 -2 29 -10 -6 -17 -66 -22 -84 -7 -17 14 -19 70 -2
87 7 7 24 12 38 12 14 0 31 -5 38 -12z m190 -45 c2 -43 0 -53 -12 -53 -12 0
-16 10 -16 39 0 42 -16 63 -31 40 -5 -8 -9 -29 -9 -46 0 -18 -4 -33 -10 -33
-5 0 -10 15 -10 33 0 17 -4 38 -9 46 -15 23 -31 2 -31 -40 0 -28 -4 -39 -15
-39 -12 0 -15 13 -15 55 l0 55 78 -2 77 -3 3 -52z m112 48 c8 -6 14 -25 14
-46 0 -40 -15 -55 -54 -55 -34 0 -50 17 -50 55 0 17 5 36 12 43 14 14 57 16
78 3z"/>
<path d="M7755 3774 c-19 -20 -20 -68 0 -84 20 -17 52 -4 59 26 12 47 -29 87
-59 58z"/>
<path d="M8836 3732 c-9 -27 3 -54 23 -50 22 5 22 62 -1 66 -9 2 -19 -5 -22
-16z"/>
<path d="M7974 3736 c-9 -23 0 -51 16 -51 10 0 15 10 15 29 0 32 -21 47 -31
22z"/>
<path d="M8100 3700 c-8 -5 -11 -12 -8 -16 10 -9 38 3 38 16 0 12 -10 13 -30
0z"/>
<path d="M8495 3740 c-3 -5 3 -10 14 -10 12 0 21 5 21 10 0 6 -6 10 -14 10 -8
0 -18 -4 -21 -10z"/>
<path d="M8673 3703 c-20 -8 -15 -23 7 -23 11 0 20 7 20 15 0 15 -6 17 -27 8z"/>
<path d="M8965 3740 c-3 -5 3 -10 15 -10 12 0 18 5 15 10 -3 6 -10 10 -15 10
-5 0 -12 -4 -15 -10z"/>
<path d="M9264 3736 c-9 -23 0 -51 17 -54 20 -4 30 18 22 47 -6 24 -31 28 -39
7z"/>
<path d="M10142 3728 l-2 -78 40 0 c22 0 40 5 40 10 0 6 -16 10 -35 10 l-34 0
-4 68 -3 67 -2 -77z"/>
<path d="M10253 3734 c-15 -24 -15 -29 -2 -53 11 -19 23 -26 44 -26 15 0 30 6
33 13 3 11 0 12 -17 2 -17 -9 -26 -9 -37 1 -24 20 -16 29 26 29 44 0 47 5 24
38 -20 29 -50 28 -71 -4z m55 4 c19 -19 14 -28 -18 -28 -16 0 -30 4 -30 8 0 9
21 32 30 32 3 0 11 -5 18 -12z"/>
<path d="M10380 3750 c-8 -5 -11 -12 -7 -16 3 -4 14 -1 22 6 11 9 19 10 27 2
13 -13 2 -32 -21 -32 -27 0 -42 -20 -30 -41 7 -14 19 -18 44 -16 34 2 35 3 35
43 0 57 -30 80 -70 54z m50 -65 c0 -9 -7 -18 -16 -22 -18 -7 -39 11 -30 26 11
17 46 13 46 -4z"/>
<path d="M10492 3705 c1 -51 2 -54 5 -16 3 32 9 44 24 48 10 3 19 9 19 14 0
13 -17 11 -26 -2 -4 -8 -9 -7 -15 2 -5 9 -8 -9 -7 -46z"/>
<path d="M10572 3705 c1 -58 1 -58 7 -15 5 40 9 45 31 45 22 0 26 -5 31 -45
l6 -45 1 53 c2 57 -14 75 -49 54 -13 -9 -19 -8 -22 1 -3 7 -5 -15 -5 -48z"/>
<path d="M10740 3703 c0 -29 5 -53 10 -53 6 0 10 20 10 44 0 76 45 69 53 -9
l4 -40 1 41 c3 76 52 84 52 8 0 -24 5 -44 10 -44 13 0 13 66 0 91 -12 21 -40
25 -58 7 -9 -9 -12 -9 -12 0 0 7 -14 11 -35 10 l-35 -1 0 -54z"/>
<path d="M10932 3748 c-7 -7 -12 -26 -12 -43 0 -36 15 -55 45 -55 30 0 45 19
45 55 0 36 -15 55 -45 55 -12 0 -26 -5 -33 -12z m63 -28 c7 -22 -2 -47 -20
-54 -17 -6 -45 19 -45 39 0 20 29 45 45 39 8 -3 17 -14 20 -24z"/>
<path d="M11040 3703 c0 -29 5 -53 10 -53 6 0 10 17 10 39 0 29 6 42 23 54 22
15 22 15 -10 15 l-33 -1 0 -54z"/>
<path d="M11123 3734 c-15 -24 -15 -29 -2 -53 11 -19 23 -26 44 -26 15 0 30 6
33 13 3 11 0 12 -17 2 -17 -9 -26 -9 -37 1 -24 20 -16 29 26 29 44 0 47 5 24
38 -20 29 -50 28 -71 -4z m55 4 c19 -19 14 -28 -18 -28 -16 0 -30 4 -30 8 0 9
21 32 30 32 3 0 11 -5 18 -12z"/>
<path d="M4770 2840 c0 -5 5 -10 11 -10 5 0 7 5 4 10 -3 6 -8 10 -11 10 -2 0
-4 -4 -4 -10z"/>
<path d="M5160 2840 c0 -5 5 -10 11 -10 5 0 7 5 4 10 -3 6 -8 10 -11 10 -2 0
-4 -4 -4 -10z"/>
<path d="M6695 2840 c-3 -5 -1 -10 4 -10 6 0 11 5 11 10 0 6 -2 10 -4 10 -3 0
-8 -4 -11 -10z"/>
<path d="M9447 2843 c-4 -3 -7 -14 -7 -24 0 -10 -8 -20 -17 -22 -16 -4 -16 -5
-1 -6 13 -1 18 -13 21 -58 l3 -58 2 57 c2 44 6 58 20 61 16 4 16 5 0 6 -22 1
-24 31 -3 31 8 0 15 5 15 10 0 11 -23 14 -33 3z"/>
<path d="M9815 2840 c-3 -5 -1 -10 4 -10 6 0 11 5 11 10 0 6 -2 10 -4 10 -3 0
-8 -4 -11 -10z"/>
<path d="M10662 2838 c-7 -7 -12 -17 -12 -24 0 -7 -6 -15 -12 -17 -10 -4 -10
-6 0 -6 8 -1 12 -19 12 -56 0 -30 5 -55 10 -55 6 0 10 24 10 54 0 34 5 56 13
59 10 4 10 6 0 6 -19 1 -16 22 5 37 14 11 15 13 2 14 -9 0 -21 -5 -28 -12z"/>
<path d="M11945 2840 c-3 -5 -1 -10 4 -10 6 0 11 5 11 10 0 6 -2 10 -4 10 -3
0 -8 -4 -11 -10z"/>
<path d="M14580 2840 c0 -5 5 -10 11 -10 5 0 7 5 4 10 -3 6 -8 10 -11 10 -2 0
-4 -4 -4 -10z"/>
<path d="M14657 2843 c-4 -3 -7 -15 -7 -25 0 -10 -7 -18 -17 -18 -16 0 -16 -1
0 -12 10 -8 17 -32 20 -63 l3 -50 2 57 c2 44 6 58 20 61 16 4 16 5 0 6 -22 1
-24 31 -3 31 8 0 15 5 15 10 0 11 -23 14 -33 3z"/>
<path d="M4123 2824 c3 -11 13 -47 23 -81 9 -35 20 -63 25 -63 7 0 39 96 39
119 0 6 4 11 8 11 5 0 15 -28 23 -62 8 -34 19 -63 25 -65 7 -2 18 23 27 60 9
35 19 71 23 80 3 10 2 17 -4 17 -5 0 -15 -27 -22 -60 -7 -33 -16 -63 -20 -65
-4 -2 -15 25 -25 60 -9 36 -21 65 -25 65 -8 0 -40 -96 -40 -119 0 -6 -4 -11
-9 -11 -4 0 -14 27 -21 60 -7 33 -17 63 -22 67 -6 3 -8 -3 -5 -13z"/>
<path d="M4487 2822 c-24 -27 -22 -97 3 -122 11 -11 31 -20 45 -20 30 0 65 32
65 60 0 16 -6 20 -32 19 -25 -1 -27 -3 -10 -6 17 -3 22 -10 20 -26 -4 -30 -66
-37 -85 -11 -19 26 -16 78 5 97 25 22 48 21 72 -3 13 -13 20 -15 20 -7 0 38
-74 51 -103 19z"/>
<path d="M4910 2816 c0 -20 -4 -23 -37 -22 -31 1 -39 -3 -46 -25 -15 -39 -1
-78 29 -85 15 -4 30 -2 37 6 9 10 7 11 -9 6 -24 -7 -54 15 -54 40 0 26 20 54
39 54 27 0 44 -26 38 -58 -3 -15 -2 -34 4 -42 6 -10 9 13 9 68 0 45 -2 82 -5
82 -3 0 -5 -11 -5 -24z"/>
<path d="M5993 2760 c0 -47 2 -66 4 -42 2 23 2 61 0 85 -2 23 -4 4 -4 -43z"/>
<path d="M6120 2817 c0 -20 -4 -23 -28 -19 -37 5 -54 -17 -50 -64 4 -46 28
-65 59 -46 18 12 23 12 30 0 5 -8 9 20 9 70 0 48 -4 82 -10 82 -5 0 -10 -10
-10 -23z m-16 -33 c21 -8 21 -67 0 -85 -34 -28 -73 41 -43 77 13 16 20 17 43
8z"/>
<path d="M6243 2760 c0 -47 2 -66 4 -42 2 23 2 61 0 85 -2 23 -4 4 -4 -43z"/>
<path d="M6640 2816 c0 -20 -4 -23 -37 -22 -31 1 -39 -3 -46 -25 -15 -39 -1
-78 29 -85 15 -4 30 -2 37 6 9 10 7 11 -9 6 -24 -7 -54 15 -54 40 0 26 20 54
39 54 27 0 44 -26 38 -58 -3 -15 -2 -34 4 -42 6 -10 9 13 9 68 0 45 -2 82 -5
82 -3 0 -5 -11 -5 -24z"/>
<path d="M7633 2760 c0 -47 2 -66 4 -42 2 23 2 61 0 85 -2 23 -4 4 -4 -43z"/>
<path d="M9250 2816 c0 -20 -4 -23 -37 -22 -32 1 -38 -3 -47 -26 -14 -39 3
-82 33 -86 13 -2 28 2 35 8 8 9 6 11 -10 6 -24 -7 -54 15 -54 40 0 27 20 54
40 54 24 0 44 -34 36 -64 -3 -11 -1 -28 4 -36 7 -10 10 12 10 68 0 45 -2 82
-5 82 -3 0 -5 -11 -5 -24z"/>
<path d="M9513 2760 c0 -47 2 -66 4 -42 2 23 2 61 0 85 -2 23 -4 4 -4 -43z"/>
<path d="M9872 2760 c-1 -57 1 -80 8 -70 5 8 7 25 4 36 -8 30 12 64 36 64 20
0 40 -27 40 -54 0 -25 -30 -47 -54 -40 -16 5 -18 4 -9 -6 19 -20 62 -4 69 27
15 57 -32 105 -71 73 -11 -9 -14 -5 -18 22 -2 18 -4 -5 -5 -52z"/>
<path d="M10013 2760 c0 -47 2 -66 4 -42 2 23 2 61 0 85 -2 23 -4 4 -4 -43z"/>
<path d="M10390 2760 c0 -47 4 -80 10 -80 6 0 10 33 10 80 0 47 -4 80 -10 80
-6 0 -10 -33 -10 -80z"/>
<path d="M11283 2760 c1 -50 2 -63 4 -33 3 41 8 53 23 58 31 10 40 -3 40 -56
0 -27 5 -49 10 -49 6 0 10 22 10 49 0 56 -17 76 -54 67 -21 -5 -25 -2 -29 21
-2 16 -4 -10 -4 -57z"/>
<path d="M12133 2760 c0 -47 2 -74 4 -60 7 41 19 43 42 11 13 -17 27 -31 32
-31 6 0 -2 16 -17 35 l-27 36 23 24 c13 14 19 25 13 25 -5 0 -20 -12 -34 -26
l-24 -26 -6 49 c-5 37 -6 29 -6 -37z"/>
<path d="M12253 2760 c0 -47 2 -66 4 -42 2 23 2 61 0 85 -2 23 -4 4 -4 -43z"/>
<path d="M12511 2826 c-10 -11 -10 -20 -1 -36 9 -17 8 -25 -4 -39 -19 -21 -21
-45 -3 -59 17 -14 108 -11 97 3 -5 6 -7 22 -4 36 4 18 3 21 -5 9 -8 -12 -13
-12 -31 5 l-20 18 20 19 c23 22 25 29 8 46 -16 16 -43 15 -57 -2z m47 -18 c-2
-13 -10 -23 -18 -23 -8 0 -16 10 -18 23 -3 17 2 22 18 22 16 0 21 -5 18 -22z
m-2 -79 c16 -17 16 -22 4 -29 -21 -13 -36 -12 -49 4 -13 16 -4 46 14 46 6 0
20 -9 31 -21z"/>
<path d="M13433 2760 c0 -47 2 -66 4 -42 2 23 2 61 0 85 -2 23 -4 4 -4 -43z"/>
<path d="M14533 2760 c0 -47 2 -66 4 -42 2 23 2 61 0 85 -2 23 -4 4 -4 -43z"/>
<path d="M7809 2813 c-4 -83 9 -133 34 -133 7 0 7 4 -1 12 -16 16 -16 95 1
101 10 4 10 6 0 6 -7 1 -13 8 -13 16 0 21 -20 19 -21 -2z"/>
<path d="M10581 2818 c0 -10 -7 -18 -13 -18 -10 0 -10 -2 -1 -8 6 -4 13 -30
15 -57 2 -41 7 -50 23 -53 18 -2 18 -2 3 8 -13 8 -18 24 -18 55 0 33 4 45 18
48 15 4 15 5 0 6 -9 0 -19 9 -21 19 -4 16 -5 16 -6 0z"/>
<path d="M11211 2818 c-1 -10 -7 -18 -13 -18 -10 0 -10 -2 -1 -8 6 -4 13 -30
15 -57 2 -41 7 -50 23 -53 18 -2 18 -2 3 8 -22 13 -26 100 -5 100 8 0 9 3 1 8
-6 4 -14 14 -17 22 -4 12 -6 11 -6 -2z"/>
<path d="M11541 2818 c0 -10 -7 -18 -13 -18 -10 0 -10 -2 -1 -8 6 -4 13 -30
15 -57 2 -41 7 -50 23 -53 18 -2 18 -2 3 8 -13 8 -18 24 -18 55 0 33 4 45 18
48 15 4 15 5 0 6 -9 0 -19 9 -21 19 -4 16 -5 16 -6 0z"/>
<path d="M14139 2813 c-4 -83 9 -133 34 -133 7 0 7 4 -1 12 -16 16 -16 95 1
101 10 4 10 6 0 6 -7 1 -13 8 -13 16 0 21 -20 19 -21 -2z"/>
<path d="M4346 2778 c-9 -12 -16 -29 -16 -38 0 -48 62 -78 90 -44 12 13 10 14
-13 3 -21 -9 -30 -9 -42 1 -28 23 -18 40 25 40 32 0 40 4 40 18 0 44 -58 57
-84 20z m62 0 c20 -20 14 -28 -23 -28 -24 0 -35 5 -35 14 0 24 39 33 58 14z"/>
<path d="M4644 2751 c1 -62 21 -85 55 -64 15 10 21 10 24 0 3 -7 5 17 4 53 0
49 -1 54 -4 20 -7 -87 -69 -89 -76 -2 -4 45 -4 45 -3 -7z"/>
<path d="M4773 2740 c0 -36 2 -50 4 -32 2 17 2 47 0 65 -2 17 -4 3 -4 -33z"/>
<path d="M4970 2781 c-15 -29 -12 -67 6 -85 20 -20 58 -21 74 -1 8 9 9 15 2
15 -6 0 -14 -4 -17 -10 -9 -15 -31 -12 -49 6 -23 22 -11 34 35 34 41 0 46 8
29 41 -7 12 -21 19 -40 19 -19 0 -33 -7 -40 -19z m70 -11 c10 -18 8 -20 -30
-20 -41 0 -49 7 -28 28 18 18 46 14 58 -8z"/>
<path d="M5163 2740 c0 -36 2 -50 4 -32 2 17 2 47 0 65 -2 17 -4 3 -4 -33z"/>
<path d="M5214 2786 c-10 -26 3 -44 35 -51 17 -4 31 -13 31 -20 0 -19 -38 -29
-55 -15 -11 9 -15 9 -15 1 0 -16 26 -24 55 -17 18 5 25 13 25 31 0 19 -7 26
-32 33 -17 4 -33 13 -36 20 -6 18 28 27 50 13 16 -10 19 -10 16 1 -7 20 -67
23 -74 4z"/>
<path d="M5407 2793 c-15 -14 -6 -22 13 -11 16 10 23 10 37 -4 18 -19 17 -20
-40 -33 -24 -5 -28 -10 -25 -33 3 -25 7 -27 46 -27 l42 -1 0 46 c0 25 -5 51
-12 58 -13 13 -50 16 -61 5z m63 -62 c0 -15 -30 -41 -46 -41 -20 0 -30 30 -13
41 19 12 59 11 59 0z"/>
<path d="M5580 2794 c0 -3 7 -30 16 -60 14 -50 34 -73 34 -39 0 8 -4 15 -9 15
-5 0 -14 20 -20 45 -10 38 -21 59 -21 39z"/>
<path d="M5647 2793 c-3 -5 -7 -24 -11 -43 l-6 -35 14 35 14 35 12 -48 c7 -26
16 -50 21 -53 9 -5 44 104 35 113 -3 3 -10 -15 -17 -41 -13 -52 -24 -52 -33
-1 -7 34 -21 52 -29 38z"/>
<path d="M5770 2781 c-24 -45 -2 -101 40 -101 10 0 26 7 34 16 19 18 21 75 4
92 -19 19 -66 15 -78 -7z m68 -3 c7 -7 12 -24 12 -40 0 -50 -64 -61 -76 -13
-12 47 33 84 64 53z"/>
<path d="M5902 2735 c1 -56 2 -57 5 -13 3 34 10 52 24 62 20 14 20 14 -5 12
-25 -1 -26 -3 -24 -61z"/>
<path d="M6306 2784 c-9 -8 -16 -28 -16 -43 0 -50 61 -81 90 -46 8 9 9 15 2
15 -6 0 -14 -4 -17 -10 -9 -15 -31 -12 -49 6 -23 22 -11 34 35 34 41 0 46 8
29 41 -13 23 -53 25 -74 3z m62 -6 c21 -21 13 -28 -28 -28 -38 0 -40 2 -30 20
12 22 40 26 58 8z"/>
<path d="M6437 2794 c-15 -15 -6 -24 12 -13 22 15 51 5 51 -16 0 -9 -9 -15
-23 -15 -13 0 -32 -6 -43 -14 -29 -22 -7 -51 40 -51 l37 -1 -3 56 c-3 53 -4
55 -33 58 -17 2 -34 0 -38 -4z m63 -73 c0 -20 -32 -37 -50 -26 -14 9 -13 32 3
38 28 12 47 7 47 -12z"/>
<path d="M6690 2740 c0 -33 4 -60 10 -60 6 0 10 27 10 60 0 33 -4 60 -10 60
-6 0 -10 -27 -10 -60z"/>
<path d="M6752 2740 c1 -64 1 -65 7 -16 11 89 69 87 73 -3 1 -46 1 -46 5 -7 7
60 -3 86 -32 86 -13 0 -27 -5 -31 -11 -4 -8 -9 -7 -15 2 -5 9 -8 -11 -7 -51z"/>
<path d="M6892 2788 c-7 -7 -12 -29 -12 -50 0 -31 5 -40 23 -47 13 -5 30 -5
40 1 16 8 18 6 15 -14 -3 -20 -8 -23 -42 -22 -36 2 -38 0 -21 -12 24 -18 35
-18 63 2 19 13 22 24 22 82 l0 67 -38 3 c-21 1 -43 -3 -50 -10z m54 -6 c17
-11 22 -35 13 -60 -7 -18 -15 -23 -36 -20 -22 2 -29 9 -31 31 -5 43 24 70 54
49z"/>
<path d="M7152 2735 c1 -56 2 -57 5 -13 3 34 10 52 24 62 20 14 20 14 -5 12
-25 -1 -26 -3 -24 -61z"/>
<path d="M7236 2778 c-9 -12 -16 -29 -16 -38 0 -48 62 -78 90 -44 12 13 10 14
-13 3 -21 -9 -30 -9 -42 1 -28 23 -18 40 25 40 32 0 40 4 40 18 0 44 -58 57
-84 20z m62 0 c20 -20 14 -28 -23 -28 -24 0 -35 5 -35 14 0 24 39 33 58 14z"/>
<path d="M7372 2788 c-7 -7 -12 -29 -12 -50 0 -31 5 -40 23 -47 13 -5 30 -5
40 1 16 8 18 6 15 -14 -3 -20 -8 -23 -42 -22 -36 2 -38 0 -21 -12 24 -18 35
-18 63 2 19 13 22 24 22 82 l0 67 -38 3 c-21 1 -43 -3 -50 -10z m54 -6 c17
-11 22 -35 13 -60 -7 -18 -15 -23 -36 -20 -22 2 -29 9 -31 31 -5 43 24 70 54
49z"/>
<path d="M7504 2751 c1 -62 21 -85 55 -64 15 10 21 10 24 0 3 -7 5 17 4 53 0
49 -1 54 -4 20 -7 -87 -69 -89 -76 -2 -4 45 -4 45 -3 -7z"/>
<path d="M7697 2793 c-15 -14 -6 -23 12 -12 22 14 55 5 49 -14 -3 -6 -17 -14
-33 -17 -32 -6 -51 -30 -42 -54 5 -12 17 -16 47 -14 l40 3 0 46 c0 25 -5 50
-12 57 -13 13 -50 16 -61 5z m63 -67 c0 -21 -27 -38 -50 -31 -22 7 -27 30 -7
38 25 11 57 7 57 -7z"/>
<path d="M7890 2781 c-24 -45 -2 -101 40 -101 10 0 26 7 34 16 19 18 21 75 4
92 -19 19 -66 15 -78 -7z m68 -3 c7 -7 12 -24 12 -40 0 -50 -64 -61 -76 -13
-12 47 33 84 64 53z"/>
<path d="M8022 2735 c1 -56 2 -57 5 -13 3 34 10 52 24 62 20 14 20 14 -5 12
-25 -1 -26 -3 -24 -61z"/>
<path d="M8103 2790 c2 -8 12 -39 23 -68 18 -53 18 -54 -1 -68 -15 -11 -16
-14 -3 -14 9 0 19 8 23 18 35 86 54 142 46 138 -5 -4 -15 -23 -21 -44 -14 -42
-30 -64 -30 -41 0 7 -9 32 -20 54 -11 22 -19 33 -17 25z"/>
<path d="M8307 2793 c-15 -14 -6 -23 12 -12 22 14 55 5 49 -14 -3 -6 -17 -14
-33 -17 -32 -6 -51 -30 -42 -54 5 -12 17 -16 47 -14 l40 3 0 46 c0 25 -5 50
-12 57 -13 13 -50 16 -61 5z m63 -67 c0 -21 -27 -38 -50 -31 -22 7 -27 30 -7
38 25 11 57 7 57 -7z"/>
<path d="M8420 2720 c0 -47 4 -80 10 -80 6 0 10 14 10 30 0 27 2 29 19 19 24
-16 49 -5 61 26 19 50 -22 101 -61 76 -12 -7 -19 -7 -19 -1 0 5 -4 10 -10 10
-6 0 -10 -33 -10 -80z m79 56 c17 -20 10 -67 -11 -79 -23 -15 -48 8 -48 42 0
45 35 66 59 37z"/>
<path d="M8561 2715 c1 -66 3 -73 9 -41 4 21 5 47 3 56 -11 43 36 77 65 48 28
-28 -1 -97 -35 -84 -8 3 -11 1 -8 -4 10 -17 44 -11 55 9 14 28 12 76 -4 90 -7
6 -30 10 -50 9 l-36 -3 1 -80z"/>
<path d="M8702 2735 c1 -56 2 -57 5 -13 3 34 10 52 24 62 20 14 20 14 -5 12
-25 -1 -26 -3 -24 -61z"/>
<path d="M8786 2778 c-9 -12 -16 -29 -16 -38 0 -9 7 -26 16 -38 22 -31 63 -26
84 11 13 24 13 30 0 55 -21 36 -62 41 -84 10z m60 4 c23 -15 25 -49 5 -73 -16
-20 -23 -22 -38 -13 -22 13 -29 60 -12 80 13 15 28 18 45 6z"/>
<path d="M8922 2740 c12 -33 25 -60 29 -60 4 0 17 25 28 55 23 62 25 68 12 61
-4 -3 -14 -26 -21 -51 -14 -50 -21 -49 -40 7 -6 21 -16 40 -20 43 -5 3 0 -21
12 -55z"/>
<path d="M9041 2786 c-17 -20 -10 -87 10 -99 18 -11 69 -2 69 14 0 6 -7 6 -20
-1 -24 -13 -60 3 -60 25 0 11 12 15 45 15 49 0 53 5 29 38 -17 25 -56 29 -73
8z m53 -2 c30 -12 18 -34 -19 -34 -37 0 -43 8 -23 28 14 14 20 14 42 6z"/>
<path d="M9576 2784 c-9 -8 -16 -28 -16 -43 0 -50 61 -81 90 -46 8 9 9 15 2
15 -6 0 -14 -4 -17 -10 -9 -15 -31 -12 -49 6 -23 22 -11 34 35 34 41 0 46 8
29 41 -13 23 -53 25 -74 3z m62 -6 c21 -21 13 -28 -28 -28 -38 0 -40 2 -30 20
12 22 40 26 58 8z"/>
<path d="M9709 2771 l21 -29 -21 -26 c-12 -15 -19 -29 -16 -32 3 -3 13 6 23
21 l17 26 25 -28 24 -28 -20 34 c-21 35 -21 35 -1 63 24 33 15 38 -11 6 l-17
-22 -14 22 c-8 12 -18 22 -22 22 -5 0 1 -13 12 -29z"/>
<path d="M9823 2740 c0 -36 2 -50 4 -32 2 17 2 47 0 65 -2 17 -4 3 -4 -33z"/>
<path d="M10071 2786 c-17 -20 -10 -87 10 -99 18 -11 69 -2 69 14 0 6 -7 6
-20 -1 -24 -13 -60 3 -60 25 0 11 12 15 45 15 49 0 53 5 29 38 -17 25 -56 29
-73 8z m53 -2 c30 -12 18 -34 -19 -34 -37 0 -43 8 -23 28 14 14 20 14 42 6z"/>
<path d="M10262 2720 c1 -47 3 -71 5 -53 4 28 6 31 22 21 24 -15 48 -4 63 27
21 47 -23 102 -63 77 -13 -9 -19 -8 -22 1 -3 7 -5 -26 -5 -73z m67 61 c19 -12
17 -59 -3 -79 -22 -22 -50 -5 -54 32 -5 44 24 68 57 47z"/>
<path d="M10457 2794 c-15 -15 -6 -24 12 -13 22 15 51 5 51 -16 0 -9 -9 -15
-23 -15 -13 0 -32 -6 -42 -14 -35 -25 8 -71 46 -48 13 9 19 8 23 -1 3 -7 4 15
3 48 -2 59 -3 60 -32 63 -17 2 -34 0 -38 -4z m61 -70 c-5 -27 -34 -40 -53 -24
-16 13 -16 15 1 27 26 19 56 17 52 -3z"/>
<path d="M10732 2788 c-7 -7 -12 -28 -12 -48 0 -41 14 -60 45 -60 47 0 73 70
39 104 -18 19 -55 21 -72 4z m62 -14 c9 -8 16 -24 16 -34 0 -21 -25 -50 -44
-50 -20 0 -36 22 -36 50 0 46 34 64 64 34z"/>
<path d="M10850 2738 c0 -32 4 -58 10 -58 6 0 10 22 10 48 0 41 4 51 23 59 20
10 20 11 -10 10 l-33 0 0 -59z"/>
<path d="M10940 2738 c0 -32 4 -58 10 -58 6 0 10 23 10 50 0 87 56 79 63 -8
l3 -47 2 53 c3 88 60 82 64 -7 1 -46 1 -46 5 -7 7 60 -3 86 -32 86 -13 0 -27
-5 -30 -10 -5 -7 -11 -8 -19 -1 -6 5 -26 9 -44 9 l-32 -1 0 -59z"/>
<path d="M11417 2794 c-15 -15 -6 -24 12 -13 22 15 51 5 51 -16 0 -9 -9 -15
-23 -15 -13 0 -32 -6 -43 -14 -29 -22 -7 -51 40 -51 l37 -1 -3 56 c-3 53 -4
55 -33 58 -17 2 -34 0 -38 -4z m63 -73 c0 -20 -32 -37 -50 -26 -14 9 -13 32 3
38 28 12 47 7 47 -12z"/>
<path d="M11680 2781 c-23 -44 -4 -101 35 -101 13 0 27 5 31 11 4 7 0 9 -14 5
-22 -7 -52 16 -52 40 0 27 20 54 40 54 22 0 44 -34 37 -60 -2 -9 -1 -35 3 -56
6 -31 8 -22 9 46 0 51 -3 80 -8 71 -6 -9 -11 -10 -15 -2 -12 18 -54 13 -66 -8z"/>
<path d="M11814 2751 c1 -62 21 -85 55 -64 15 10 21 10 24 0 3 -7 5 17 4 53 0
53 -1 57 -4 18 -3 -33 -10 -51 -22 -57 -27 -15 -44 3 -52 56 l-7 48 2 -54z"/>
<path d="M11940 2740 c0 -33 4 -60 10 -60 6 0 10 27 10 60 0 33 -4 60 -10 60
-6 0 -10 -27 -10 -60z"/>
<path d="M12006 2778 c-9 -12 -16 -29 -16 -38 0 -47 62 -78 90 -45 15 18 7 19
-19 3 -26 -16 -51 5 -51 42 0 39 23 56 57 41 23 -11 25 -10 13 3 -18 23 -56
20 -74 -6z"/>
<path d="M12303 2790 c2 -8 12 -39 23 -68 18 -53 18 -54 -1 -68 -15 -11 -16
-14 -3 -14 9 0 19 8 23 18 35 86 54 142 46 138 -5 -4 -15 -23 -21 -44 -14 -42
-30 -64 -30 -41 0 7 -9 32 -20 54 -11 22 -19 33 -17 25z"/>
<path d="M12711 2787 c-17 -21 -3 -45 30 -52 30 -7 39 -32 15 -41 -8 -3 -25 0
-38 7 -21 11 -22 11 -9 -4 24 -30 81 -16 81 21 0 7 -16 20 -35 28 -19 8 -35
19 -35 24 0 18 29 23 47 9 14 -12 16 -12 11 1 -6 20 -52 25 -67 7z"/>
<path d="M12830 2781 c-15 -29 -12 -67 6 -85 20 -20 58 -21 74 -1 8 9 9 15 2
15 -6 0 -14 -4 -17 -10 -9 -15 -31 -12 -49 6 -23 22 -11 34 35 34 41 0 46 8
29 41 -7 12 -21 19 -40 19 -19 0 -33 -7 -40 -19z m70 -11 c10 -18 8 -20 -30
-20 -41 0 -49 7 -28 28 18 18 46 14 58 -8z"/>
<path d="M12961 2781 c-23 -42 -3 -101 34 -101 21 0 45 11 45 21 0 6 -8 5 -19
-1 -26 -13 -50 -3 -57 25 -12 48 32 84 65 53 11 -11 13 -10 9 2 -7 24 -65 25
-77 1z"/>
<path d="M13080 2766 c0 -51 16 -86 39 -86 11 0 23 5 27 11 4 8 9 7 15 -2 5
-9 8 11 7 51 -1 54 -2 57 -5 18 -4 -50 -21 -72 -47 -62 -12 4 -16 19 -16 55 0
27 -4 49 -10 49 -5 0 -10 -15 -10 -34z"/>
<path d="M13222 2735 l2 -60 3 51 c3 41 8 54 26 62 21 10 21 11 -5 9 -28 -1
-28 -2 -26 -62z"/>
<path d="M13306 2784 c-9 -8 -16 -28 -16 -43 0 -50 61 -81 90 -46 8 9 9 15 2
15 -6 0 -14 -4 -17 -10 -9 -15 -31 -12 -49 6 -23 22 -11 34 35 34 41 0 46 8
29 41 -13 23 -53 25 -74 3z m62 -6 c21 -21 13 -28 -28 -28 -38 0 -40 2 -30 20
12 22 40 26 58 8z"/>
<path d="M13481 2796 c-1 -5 9 -36 21 -69 21 -58 21 -60 3 -73 -16 -12 -16
-14 -3 -14 9 0 20 12 26 28 5 15 19 51 31 80 11 28 17 52 13 52 -4 0 -16 -24
-26 -52 l-19 -53 -14 35 c-22 56 -32 76 -32 66z"/>
<path d="M13681 2781 c-23 -42 -3 -101 34 -101 21 0 45 11 45 21 0 6 -8 5 -19
-1 -26 -13 -50 -3 -57 25 -12 48 32 84 65 53 11 -11 13 -10 9 2 -7 24 -65 25
-77 1z"/>
<path d="M13802 2735 l1 -60 6 50 c5 40 11 52 31 62 25 12 25 12 -7 10 l-33
-2 2 -60z"/>
<path d="M13890 2781 c-15 -29 -12 -67 6 -85 20 -20 58 -21 74 -1 8 9 9 15 2
15 -6 0 -14 -4 -17 -10 -9 -15 -31 -12 -49 6 -23 22 -11 34 35 34 41 0 46 8
29 41 -7 12 -21 19 -40 19 -19 0 -33 -7 -40 -19z m70 -11 c10 -18 8 -20 -30
-20 -41 0 -49 7 -28 28 18 18 46 14 58 -8z"/>
<path d="M14027 2793 c-15 -14 -6 -23 12 -12 22 14 55 5 49 -14 -3 -6 -17 -14
-33 -17 -32 -6 -51 -30 -42 -54 5 -12 17 -16 47 -14 l40 3 0 46 c0 25 -5 50
-12 57 -13 13 -50 16 -61 5z m63 -67 c0 -21 -27 -38 -50 -31 -22 7 -27 30 -7
38 25 11 57 7 57 -7z"/>
<path d="M14220 2781 c-15 -29 -12 -67 6 -85 20 -20 58 -21 74 -1 8 9 9 15 2
15 -6 0 -14 -4 -17 -10 -9 -15 -31 -12 -49 6 -23 22 -11 34 35 34 41 0 46 8
29 41 -7 12 -21 19 -40 19 -19 0 -33 -7 -40 -19z m70 -11 c10 -18 8 -20 -30
-20 -41 0 -49 7 -28 28 18 18 46 14 58 -8z"/>
<path d="M14351 2782 c-12 -23 -2 -34 44 -52 27 -10 27 -12 12 -28 -14 -14
-21 -14 -37 -4 -27 16 -35 15 -20 -3 24 -28 80 -13 80 23 0 7 -16 20 -35 28
-19 8 -35 19 -35 24 0 18 29 23 47 9 14 -12 16 -12 11 1 -7 24 -55 25 -67 2z"/>
<path d="M14583 2740 c0 -36 2 -50 4 -32 2 17 2 47 0 65 -2 17 -4 3 -4 -33z"/>
<path d="M14720 2781 c-15 -29 -12 -67 6 -85 20 -20 58 -21 74 -1 8 9 9 15 2
15 -6 0 -14 -4 -17 -10 -9 -15 -31 -12 -49 6 -23 22 -11 34 35 34 41 0 46 8
29 41 -7 12 -21 19 -40 19 -19 0 -33 -7 -40 -19z m70 -11 c10 -18 8 -20 -30
-20 -41 0 -49 7 -28 28 18 18 46 14 58 -8z"/>
<path d="M7021 2673 c0 -25 1 -26 9 -8 12 27 12 35 0 35 -5 0 -10 -12 -9 -27z"/>
<path d="M9307 2686 c-4 -10 -7 -25 -6 -34 0 -11 4 -9 10 7 5 13 8 29 6 35 -2
5 -6 2 -10 -8z"/>
<path d="M4780 2500 c0 -5 5 -10 11 -10 5 0 7 5 4 10 -3 6 -8 10 -11 10 -2 0
-4 -4 -4 -10z"/>
<path d="M5305 2500 c-3 -5 -1 -10 4 -10 6 0 11 5 11 10 0 6 -2 10 -4 10 -3 0
-8 -4 -11 -10z"/>
<path d="M5500 2500 c0 -5 5 -10 11 -10 5 0 7 5 4 10 -3 6 -8 10 -11 10 -2 0
-4 -4 -4 -10z"/>
<path d="M7105 2500 c-3 -5 -1 -10 4 -10 6 0 11 5 11 10 0 6 -2 10 -4 10 -3 0
-8 -4 -11 -10z"/>
<path d="M8330 2500 c0 -5 5 -10 11 -10 5 0 7 5 4 10 -3 6 -8 10 -11 10 -2 0
-4 -4 -4 -10z"/>
<path d="M8910 2500 c0 -5 5 -10 11 -10 5 0 7 5 4 10 -3 6 -8 10 -11 10 -2 0
-4 -4 -4 -10z"/>
<path d="M10165 2500 c-3 -5 -1 -10 4 -10 6 0 11 5 11 10 0 6 -2 10 -4 10 -3
0 -8 -4 -11 -10z"/>
<path d="M10865 2500 c-3 -5 -1 -10 4 -10 6 0 11 5 11 10 0 6 -2 10 -4 10 -3
0 -8 -4 -11 -10z"/>
<path d="M11795 2500 c-3 -5 -1 -10 4 -10 6 0 11 5 11 10 0 6 -2 10 -4 10 -3
0 -8 -4 -11 -10z"/>
<path d="M12240 2500 c0 -5 5 -10 11 -10 5 0 7 5 4 10 -3 6 -8 10 -11 10 -2 0
-4 -4 -4 -10z"/>
<path d="M12312 2498 c-7 -7 -12 -17 -12 -24 0 -7 -6 -15 -12 -17 -10 -4 -10
-6 0 -6 8 -1 12 -19 12 -56 0 -30 5 -55 10 -55 6 0 10 24 10 54 0 34 5 56 13
59 10 4 10 6 0 6 -19 1 -16 22 5 37 14 11 15 13 2 14 -9 0 -21 -5 -28 -12z"/>
<path d="M12500 2500 c0 -5 5 -10 11 -10 5 0 7 5 4 10 -3 6 -8 10 -11 10 -2 0
-4 -4 -4 -10z"/>
<path d="M4253 2420 c0 -67 1 -75 6 -36 11 89 69 87 73 -3 1 -46 1 -46 5 -7 7
60 -3 86 -32 86 -13 0 -27 -6 -32 -12 -5 -9 -10 -1 -14 22 -4 22 -6 3 -6 -50z"/>
<path d="M5250 2475 c0 -22 -3 -24 -29 -19 -24 5 -32 1 -47 -21 -31 -47 12
-115 55 -88 15 10 21 10 24 0 3 -7 6 25 6 71 1 45 -1 82 -4 82 -3 0 -5 -11 -5
-25z m-11 -39 c17 -20 10 -67 -11 -79 -23 -15 -48 8 -48 42 0 45 35 66 59 37z"/>
<path d="M5750 2420 c0 -47 4 -80 10 -80 6 0 10 33 10 80 0 47 -4 80 -10 80
-6 0 -10 -33 -10 -80z"/>
<path d="M5873 2420 c0 -68 1 -76 6 -38 13 90 61 91 72 2 6 -49 6 -49 5 11
l-1 60 -37 -1 c-32 -1 -37 2 -41 25 -2 14 -4 -12 -4 -59z"/>
<path d="M6260 2420 c0 -47 4 -80 10 -80 6 0 10 33 10 80 0 47 -4 80 -10 80
-6 0 -10 -33 -10 -80z"/>
<path d="M6403 2420 c1 -50 2 -63 4 -33 3 41 8 53 23 58 31 10 40 -3 40 -56 0
-27 5 -49 10 -49 6 0 10 22 10 49 0 56 -17 76 -54 67 -21 -5 -25 -2 -29 21 -2
16 -4 -10 -4 -57z"/>
<path d="M6853 2420 c0 -47 2 -66 4 -42 2 23 2 61 0 85 -2 23 -4 4 -4 -43z"/>
<path d="M7671 2490 c0 -29 36 -144 46 -147 6 -2 16 20 23 49 20 84 26 88 44
28 9 -29 16 -60 16 -68 0 -7 5 -12 12 -10 12 4 49 120 47 148 -1 17 -13 -15
-29 -78 -6 -23 -15 -40 -19 -38 -4 3 -14 33 -21 66 -7 35 -18 59 -24 57 -6 -2
-18 -29 -26 -59 -8 -31 -18 -59 -21 -63 -4 -3 -12 18 -19 47 -14 58 -29 95
-29 68z"/>
<path d="M10572 2475 c0 -16 2 -22 5 -12 2 9 2 23 0 30 -3 6 -5 -1 -5 -18z"/>
<path d="M10813 2420 c0 -47 2 -66 4 -42 2 23 2 61 0 85 -2 23 -4 4 -4 -43z"/>
<path d="M11352 2420 c-1 -57 1 -80 8 -70 5 8 7 25 4 36 -12 46 33 83 64 52
28 -28 -1 -97 -35 -84 -8 3 -11 1 -8 -4 10 -17 44 -11 55 9 15 29 12 77 -5 91
-9 7 -27 10 -44 7 -26 -6 -30 -3 -34 21 -2 15 -5 -11 -5 -58z"/>
<path d="M12180 2420 c0 -47 4 -80 10 -80 6 0 10 33 10 80 0 47 -4 80 -10 80
-6 0 -10 -33 -10 -80z"/>
<path d="M12893 2420 c0 -68 1 -76 6 -38 13 90 61 91 72 2 6 -49 6 -49 5 11
l-1 60 -37 -1 c-32 -1 -37 2 -41 25 -2 14 -4 -12 -4 -59z"/>
<path d="M13280 2420 c0 -47 4 -80 10 -80 6 0 10 33 10 80 0 47 -4 80 -10 80
-6 0 -10 -33 -10 -80z"/>
<path d="M13423 2420 c1 -50 2 -63 4 -33 3 41 8 53 23 58 31 10 40 -3 40 -56
0 -27 5 -49 10 -49 6 0 10 22 10 49 0 56 -17 76 -54 67 -21 -5 -25 -2 -29 21
-2 16 -4 -10 -4 -57z"/>
<path d="M13940 2420 c0 -47 4 -80 10 -80 6 0 10 22 10 49 0 42 3 51 21 56 29
10 37 -2 42 -60 4 -44 4 -43 3 10 l-1 60 -32 -1 c-29 -2 -33 1 -33 22 0 13 -4
24 -10 24 -6 0 -10 -33 -10 -80z"/>
<path d="M14340 2420 c0 -47 4 -80 10 -80 6 0 10 33 10 80 0 47 -4 80 -10 80
-6 0 -10 -33 -10 -80z"/>
<path d="M5549 2473 c-4 -83 9 -133 34 -133 7 0 7 4 -1 12 -16 16 -16 95 1
101 10 4 10 6 0 6 -7 1 -13 8 -13 16 0 21 -20 19 -21 -2z"/>
<path d="M6319 2473 c-4 -83 9 -133 34 -133 7 0 7 4 -1 12 -16 16 -16 95 1
101 10 4 10 6 0 6 -7 1 -13 8 -13 16 0 21 -20 19 -21 -2z"/>
<path d="M7041 2478 c-1 -10 -7 -18 -13 -18 -10 0 -10 -2 -1 -8 6 -4 13 -30
15 -57 2 -41 7 -50 23 -53 18 -2 18 -2 3 8 -22 13 -26 100 -5 100 8 0 9 3 1 8
-6 4 -14 14 -17 22 -4 12 -6 11 -6 -2z"/>
<path d="M8511 2478 c-1 -10 -7 -18 -13 -18 -10 0 -10 -2 -1 -8 6 -4 13 -30
15 -57 2 -41 7 -50 23 -53 18 -2 18 -2 3 8 -22 13 -26 100 -5 100 8 0 9 3 1 8
-6 4 -14 14 -17 22 -4 12 -6 11 -6 -2z"/>
<path d="M8641 2478 c0 -9 -7 -19 -13 -21 -10 -4 -10 -6 0 -6 7 -1 12 -17 12
-44 0 -41 13 -67 34 -67 5 0 2 8 -7 18 -23 25 -22 78 1 91 15 9 15 10 0 11 -9
0 -19 8 -21 18 -4 15 -5 15 -6 0z"/>
<path d="M10101 2478 c-1 -10 -7 -18 -13 -18 -10 0 -10 -2 -1 -8 6 -4 13 -30
15 -57 2 -41 7 -50 23 -53 18 -2 18 -2 3 8 -22 13 -26 100 -5 100 8 0 9 3 1 8
-6 4 -14 14 -17 22 -4 12 -6 11 -6 -2z"/>
<path d="M10491 2478 c-1 -10 -7 -18 -13 -18 -10 0 -10 -2 -1 -8 6 -4 13 -30
15 -57 2 -41 7 -50 23 -53 18 -2 18 -2 3 8 -22 13 -26 100 -5 100 8 0 9 3 1 8
-6 4 -14 14 -17 22 -4 12 -6 11 -6 -2z"/>
<path d="M13339 2473 c-4 -83 9 -133 34 -133 7 0 7 4 -1 12 -16 16 -16 95 1
101 10 4 10 6 0 6 -7 1 -13 8 -13 16 0 21 -20 19 -21 -2z"/>
<path d="M13609 2473 c-4 -83 9 -133 34 -133 7 0 7 4 -1 12 -16 16 -16 95 1
101 10 4 10 6 0 6 -7 1 -13 8 -13 16 0 21 -20 19 -21 -2z"/>
<path d="M4132 2448 c-16 -16 -16 -80 0 -96 17 -17 53 -15 68 4 12 13 10 14
-13 3 -34 -15 -57 2 -57 41 0 39 23 56 55 42 14 -7 25 -8 25 -3 0 21 -59 28
-78 9z"/>
<path d="M4387 2454 c-15 -15 -6 -24 12 -13 22 15 51 5 51 -16 0 -9 -9 -15
-23 -15 -13 0 -32 -6 -43 -14 -29 -22 -7 -51 40 -51 l37 -1 -3 56 c-3 53 -4
55 -33 58 -17 2 -34 0 -38 -4z m63 -73 c0 -20 -32 -37 -50 -26 -14 9 -13 32 3
38 28 12 47 7 47 -12z"/>
<path d="M4512 2400 c1 -64 1 -65 7 -16 11 89 69 87 73 -3 1 -46 1 -46 5 -7 7
60 -3 86 -32 86 -13 0 -27 -5 -31 -11 -4 -8 -9 -7 -15 2 -5 9 -8 -11 -7 -51z"/>
<path d="M4652 2448 c-7 -7 -12 -29 -12 -50 0 -31 5 -40 23 -47 13 -5 30 -5
40 1 16 8 18 6 15 -14 -3 -20 -8 -23 -42 -22 -36 2 -38 0 -21 -12 24 -18 35
-18 63 2 19 13 22 24 22 82 l0 67 -38 3 c-21 1 -43 -3 -50 -10z m54 -6 c17
-11 22 -35 13 -60 -7 -18 -15 -23 -36 -20 -22 2 -29 9 -31 31 -5 43 24 70 54
49z"/>
<path d="M4783 2400 c0 -36 2 -50 4 -32 2 17 2 47 0 65 -2 17 -4 3 -4 -33z"/>
<path d="M4830 2398 c0 -32 4 -58 10 -58 6 0 10 22 10 49 0 42 3 51 21 56 29
10 37 -2 42 -60 4 -44 4 -43 3 10 l-1 60 -42 1 -43 1 0 -59z"/>
<path d="M4970 2441 c-18 -34 -12 -69 16 -87 19 -13 28 -14 37 -5 8 8 6 11
-11 11 -30 0 -48 39 -33 69 13 23 43 28 59 8 6 -7 10 -37 9 -67 l-2 -55 -38 0
c-32 0 -35 -2 -20 -12 21 -16 29 -16 54 -3 16 9 19 22 19 88 0 47 -4 72 -9 63
-6 -9 -11 -10 -15 -2 -12 18 -54 13 -66 -8z"/>
<path d="M5313 2400 c0 -36 2 -50 4 -32 2 17 2 47 0 65 -2 17 -4 3 -4 -33z"/>
<path d="M5365 2436 c-31 -47 10 -110 56 -86 18 10 20 9 17 -12 -3 -20 -8 -23
-42 -22 -36 2 -38 0 -21 -12 23 -17 30 -17 56 -4 16 9 19 22 19 88 0 47 -4 72
-9 63 -6 -9 -11 -10 -15 -2 -12 19 -45 12 -61 -13z m64 0 c7 -8 11 -27 9 -43
-3 -24 -8 -28 -33 -28 -25 0 -30 4 -33 28 -4 30 12 57 33 57 7 0 18 -6 24 -14z"/>
<path d="M5503 2400 c0 -36 2 -50 4 -32 2 17 2 47 0 65 -2 17 -4 3 -4 -33z"/>
<path d="M5637 2453 c-15 -14 -6 -23 12 -12 22 14 55 5 49 -14 -3 -6 -17 -14
-33 -17 -32 -6 -51 -30 -42 -54 5 -12 17 -16 47 -14 l40 3 0 46 c0 25 -5 50
-12 57 -13 13 -50 16 -61 5z m63 -67 c0 -21 -27 -38 -50 -31 -22 7 -27 30 -7
38 25 11 57 7 57 -7z"/>
<path d="M6010 2441 c-15 -29 -12 -67 6 -85 20 -20 58 -21 74 -1 8 9 9 15 2
15 -6 0 -14 -4 -17 -10 -9 -15 -31 -12 -49 6 -23 22 -11 34 35 34 41 0 46 8
29 41 -7 12 -21 19 -40 19 -19 0 -33 -7 -40 -19z m70 -11 c10 -18 8 -20 -30
-20 -41 0 -49 7 -28 28 18 18 46 14 58 -8z"/>
<path d="M6147 2454 c-15 -15 -6 -24 12 -13 22 15 51 5 51 -16 0 -9 -9 -15
-23 -15 -13 0 -32 -6 -42 -14 -35 -25 8 -71 46 -48 13 9 19 8 23 -1 3 -7 4 15
3 48 -2 59 -3 60 -32 63 -17 2 -34 0 -38 -4z m61 -70 c-5 -27 -34 -40 -53 -24
-16 13 -16 15 1 27 26 19 56 17 52 -3z"/>
<path d="M6594 2446 c-10 -26 3 -44 35 -51 17 -4 31 -13 31 -20 0 -19 -38 -29
-55 -15 -11 9 -15 9 -15 1 0 -16 26 -24 55 -17 18 5 25 13 25 31 0 19 -7 26
-32 33 -17 4 -33 13 -36 20 -6 18 28 27 50 13 16 -10 19 -10 16 1 -7 20 -67
23 -74 4z"/>
<path d="M6722 2448 c-7 -7 -12 -28 -12 -48 0 -41 14 -60 45 -60 47 0 73 70
39 104 -18 19 -55 21 -72 4z m62 -14 c9 -8 16 -24 16 -34 0 -21 -25 -50 -44
-50 -20 0 -36 22 -36 50 0 46 34 64 64 34z"/>
<path d="M6904 2411 c1 -62 21 -85 55 -64 15 10 21 10 24 0 3 -7 5 17 4 53 0
49 -1 54 -4 20 -7 -87 -69 -89 -76 -2 -4 45 -4 45 -3 -7z"/>
<path d="M7113 2400 c0 -36 2 -50 4 -32 2 17 2 47 0 65 -2 17 -4 3 -4 -33z"/>
<path d="M7172 2448 c-7 -7 -12 -28 -12 -48 0 -41 14 -60 45 -60 47 0 73 70
39 104 -18 19 -55 21 -72 4z m62 -14 c9 -8 16 -24 16 -34 0 -21 -25 -50 -44
-50 -20 0 -36 22 -36 50 0 46 34 64 64 34z"/>
<path d="M7302 2395 l2 -60 3 52 c3 41 8 53 23 58 31 10 40 -3 40 -56 0 -27 5
-49 10 -49 13 0 13 76 0 101 -8 14 -20 18 -45 16 l-35 -2 2 -60z"/>
<path d="M7437 2453 c-18 -17 -5 -44 28 -57 19 -8 35 -19 35 -25 0 -16 -40
-24 -55 -11 -11 9 -15 9 -15 1 0 -16 26 -24 55 -17 43 11 29 59 -20 68 -35 6
-24 33 12 32 18 -1 30 2 27 7 -6 10 -57 12 -67 2z"/>
<path d="M7896 2444 c-9 -8 -16 -28 -16 -43 0 -50 61 -81 90 -46 8 9 9 15 2
15 -6 0 -14 -4 -17 -10 -9 -15 -31 -12 -49 6 -23 22 -11 34 35 34 41 0 46 8
29 41 -13 23 -53 25 -74 3z m62 -6 c21 -21 13 -28 -28 -28 -38 0 -40 2 -30 20
12 22 40 26 58 8z"/>
<path d="M8091 2446 c-17 -20 -10 -87 10 -99 18 -11 69 -2 69 14 0 6 -7 6 -20
-1 -24 -13 -60 3 -60 25 0 11 12 15 45 15 49 0 53 5 29 38 -17 25 -56 29 -73
8z m53 -2 c30 -12 18 -34 -19 -34 -37 0 -43 8 -23 28 14 14 20 14 42 6z"/>
<path d="M8219 2432 c20 -28 20 -28 -1 -63 l-20 -34 25 29 25 29 17 -27 c10
-15 20 -25 22 -22 3 2 -3 16 -13 31 -16 25 -16 28 0 56 9 16 13 29 7 29 -5 0
-13 -9 -16 -20 -3 -11 -10 -20 -15 -20 -5 0 -14 9 -20 20 -6 11 -15 20 -21 20
-6 0 -1 -13 10 -28z"/>
<path d="M8333 2400 c0 -36 2 -50 4 -32 2 17 2 47 0 65 -2 17 -4 3 -4 -33z"/>
<path d="M8391 2447 c-17 -21 -3 -45 30 -52 30 -7 39 -32 15 -41 -8 -3 -25 0
-38 7 -21 11 -22 11 -9 -4 24 -30 81 -16 81 21 0 7 -16 20 -35 28 -19 8 -35
19 -35 24 0 18 29 23 47 9 14 -12 16 -12 11 1 -6 20 -52 25 -67 7z"/>
<path d="M8722 2448 c-7 -7 -12 -28 -12 -48 0 -41 14 -60 45 -60 47 0 73 70
39 104 -18 19 -55 21 -72 4z m62 -14 c9 -8 16 -24 16 -34 0 -21 -25 -50 -44
-50 -20 0 -36 22 -36 50 0 46 34 64 64 34z"/>
<path d="M8913 2400 c0 -36 2 -50 4 -32 2 17 2 47 0 65 -2 17 -4 3 -4 -33z"/>
<path d="M8960 2398 c0 -32 4 -58 10 -58 6 0 10 23 10 50 0 87 56 79 63 -8 l3
-47 2 53 c3 88 60 82 64 -7 1 -46 1 -46 5 -7 7 60 -3 86 -32 86 -13 0 -27 -5
-30 -10 -5 -7 -11 -8 -19 -1 -6 5 -26 9 -44 9 l-32 -1 0 -59z"/>
<path d="M9161 2375 c1 -66 3 -73 9 -41 4 21 5 47 3 56 -11 43 36 77 65 48 28
-28 -1 -97 -35 -84 -8 3 -11 1 -8 -4 10 -17 44 -11 55 9 14 28 12 76 -4 90 -7
6 -30 10 -50 9 l-36 -3 1 -80z"/>
<path d="M9302 2395 c1 -56 2 -57 5 -13 3 34 10 52 24 62 20 14 20 14 -5 12
-25 -1 -26 -3 -24 -61z"/>
<path d="M9386 2438 c-9 -12 -16 -29 -16 -38 0 -9 7 -26 16 -38 22 -31 63 -26
84 11 13 24 13 30 0 55 -21 36 -62 41 -84 10z m60 4 c23 -15 25 -49 5 -73 -16
-20 -23 -22 -38 -13 -22 13 -29 60 -12 80 13 15 28 18 45 6z"/>
<path d="M9522 2400 c12 -33 25 -60 29 -60 4 0 17 25 28 55 23 62 25 68 12 61
-4 -3 -14 -26 -21 -51 -14 -50 -21 -49 -40 7 -6 21 -16 40 -20 43 -5 3 0 -21
12 -55z"/>
<path d="M9641 2446 c-17 -20 -10 -87 10 -99 18 -11 69 -2 69 14 0 6 -7 6 -20
-1 -24 -13 -60 3 -60 25 0 11 12 15 45 15 49 0 53 5 29 38 -17 25 -56 29 -73
8z m53 -2 c30 -12 18 -34 -19 -34 -37 0 -43 8 -23 28 14 14 20 14 42 6z"/>
<path d="M9832 2380 c1 -47 3 -71 5 -53 4 28 6 31 22 21 24 -15 48 -4 63 27
21 47 -23 102 -63 77 -13 -9 -19 -8 -22 1 -3 7 -5 -26 -5 -73z m67 61 c19 -12
17 -59 -3 -79 -22 -22 -50 -5 -54 32 -5 44 24 68 57 47z"/>
<path d="M9977 2453 c-15 -14 -6 -23 12 -12 22 14 55 5 49 -14 -3 -6 -17 -14
-33 -17 -32 -6 -51 -30 -42 -54 5 -12 17 -16 47 -14 l40 3 0 46 c0 25 -5 50
-12 57 -13 13 -50 16 -61 5z m63 -67 c0 -21 -27 -38 -50 -31 -22 7 -27 30 -7
38 25 11 57 7 57 -7z"/>
<path d="M10173 2400 c0 -36 2 -50 4 -32 2 17 2 47 0 65 -2 17 -4 3 -4 -33z"/>
<path d="M10231 2446 c-17 -20 -10 -87 10 -99 18 -11 69 -2 69 14 0 6 -7 6
-20 -1 -24 -13 -60 3 -60 25 0 11 12 15 45 15 49 0 53 5 29 38 -17 25 -56 29
-73 8z m53 -2 c30 -12 18 -34 -19 -34 -37 0 -43 8 -23 28 14 14 20 14 42 6z"/>
<path d="M10351 2395 l2 -60 6 47 c13 90 61 91 72 2 6 -49 6 -49 5 11 l-1 60
-42 0 -43 1 1 -61z"/>
<path d="M10631 2442 c-12 -23 -2 -34 44 -52 27 -10 27 -12 12 -28 -14 -14
-21 -14 -37 -4 -27 16 -35 15 -20 -3 24 -28 80 -13 80 23 0 7 -16 20 -35 28
-19 8 -35 19 -35 24 0 18 29 23 47 9 14 -12 16 -12 11 1 -7 24 -55 25 -67 2z"/>
<path d="M10860 2400 c0 -33 4 -60 10 -60 6 0 10 27 10 60 0 33 -4 60 -10 60
-6 0 -10 -27 -10 -60z"/>
<path d="M10911 2458 c-2 -14 41 -118 48 -118 4 0 17 27 29 60 12 34 17 58 12
55 -4 -3 -14 -22 -20 -43 -14 -42 -30 -64 -30 -41 -1 15 -38 99 -39 87z"/>
<path d="M11046 2438 c-9 -12 -16 -29 -16 -38 0 -48 62 -78 90 -44 12 13 10
14 -13 3 -21 -9 -30 -9 -42 1 -28 23 -18 40 25 40 32 0 40 4 40 18 0 44 -58
57 -84 20z m62 0 c20 -20 14 -28 -23 -28 -24 0 -35 5 -35 14 0 24 39 33 58 14z"/>
<path d="M11174 2446 c-10 -26 3 -44 35 -51 17 -4 31 -13 31 -20 0 -19 -38
-29 -55 -15 -11 9 -15 9 -15 1 0 -16 26 -24 55 -17 18 5 25 13 25 31 0 19 -7
26 -32 33 -17 4 -33 13 -36 20 -6 18 28 27 50 13 16 -10 19 -10 16 1 -7 20
-67 23 -74 4z"/>
<path d="M11483 2450 c2 -8 12 -39 23 -68 18 -53 18 -54 -1 -68 -15 -11 -16
-14 -3 -14 9 0 19 8 23 18 35 86 54 142 46 138 -5 -4 -15 -23 -21 -44 -14 -42
-30 -64 -30 -41 0 7 -9 32 -20 54 -11 22 -19 33 -17 25z"/>
<path d="M11681 2442 c-12 -23 -2 -34 44 -52 27 -10 27 -12 12 -28 -14 -14
-21 -14 -37 -4 -27 16 -35 15 -20 -3 24 -28 80 -13 80 23 0 7 -16 20 -35 28
-19 8 -35 19 -35 24 0 18 29 23 47 9 14 -12 16 -12 11 1 -7 24 -55 25 -67 2z"/>
<path d="M11790 2400 c0 -33 4 -60 10 -60 6 0 10 27 10 60 0 33 -4 60 -10 60
-6 0 -10 -27 -10 -60z"/>
<path d="M11853 2400 c0 -52 1 -56 4 -18 7 88 62 94 65 6 l2 -53 3 47 c7 88
60 93 66 6 l3 -53 2 58 c2 62 -13 81 -47 60 -11 -7 -22 -7 -34 1 -12 8 -22 8
-36 -1 -15 -10 -21 -10 -24 0 -3 7 -5 -17 -4 -53z"/>
<path d="M12052 2380 c1 -47 3 -71 5 -53 4 28 6 31 22 21 24 -15 48 -4 63 27
21 47 -23 102 -63 77 -13 -9 -19 -8 -22 1 -3 7 -5 -26 -5 -73z m67 61 c19 -12
17 -59 -3 -79 -22 -22 -50 -5 -54 32 -5 44 24 68 57 47z"/>
<path d="M12243 2400 c0 -36 2 -50 4 -32 2 17 2 47 0 65 -2 17 -4 3 -4 -33z"/>
<path d="M12373 2450 c2 -8 12 -39 23 -68 18 -53 18 -54 -1 -68 -15 -11 -16
-14 -3 -14 9 0 19 8 23 18 35 86 54 142 46 138 -5 -4 -15 -23 -21 -44 -14 -42
-30 -64 -30 -41 0 7 -9 32 -20 54 -11 22 -19 33 -17 25z"/>
<path d="M12503 2400 c0 -36 2 -50 4 -32 2 17 2 47 0 65 -2 17 -4 3 -4 -33z"/>
<path d="M12562 2395 l2 -60 3 52 c3 41 8 53 23 58 31 10 40 -3 40 -56 0 -27
5 -49 10 -49 13 0 13 76 0 101 -8 14 -20 18 -45 16 l-35 -2 2 -60z"/>
<path d="M12695 2436 c-31 -47 10 -110 56 -86 18 10 20 9 17 -12 -3 -20 -8
-23 -42 -22 -36 2 -38 0 -21 -12 23 -17 30 -17 56 -4 16 9 19 22 19 88 0 47
-4 72 -9 63 -6 -9 -11 -10 -15 -2 -12 19 -45 12 -61 -13z m64 0 c7 -8 11 -27
9 -43 -3 -24 -8 -28 -33 -28 -25 0 -30 4 -33 28 -4 30 12 57 33 57 7 0 18 -6
24 -14z"/>
<path d="M13030 2441 c-15 -29 -12 -67 6 -85 20 -20 58 -21 74 -1 8 9 9 15 2
15 -6 0 -14 -4 -17 -10 -9 -15 -31 -12 -49 6 -23 22 -11 34 35 34 41 0 46 8
29 41 -7 12 -21 19 -40 19 -19 0 -33 -7 -40 -19z m70 -11 c10 -18 8 -20 -30
-20 -41 0 -49 7 -28 28 18 18 46 14 58 -8z"/>
<path d="M13167 2453 c-15 -14 -6 -23 12 -12 22 14 55 5 49 -14 -3 -6 -17 -14
-33 -17 -32 -6 -51 -30 -42 -54 5 -12 17 -16 47 -14 l40 3 0 46 c0 25 -5 50
-12 57 -13 13 -50 16 -61 5z m63 -67 c0 -21 -27 -38 -50 -31 -22 7 -27 30 -7
38 25 11 57 7 57 -7z"/>
<path d="M13690 2441 c-15 -29 -12 -67 6 -85 20 -20 58 -21 74 -1 8 9 9 15 2
15 -6 0 -14 -4 -17 -10 -9 -15 -31 -12 -49 6 -23 22 -11 34 35 34 41 0 46 8
29 41 -7 12 -21 19 -40 19 -19 0 -33 -7 -40 -19z m70 -11 c10 -18 8 -20 -30
-20 -41 0 -49 7 -28 28 18 18 46 14 58 -8z"/>
<path d="M13821 2441 c-23 -42 -3 -101 34 -101 21 0 45 11 45 21 0 6 -8 5 -19
-1 -26 -13 -50 -3 -57 25 -12 48 32 84 65 53 11 -11 13 -10 9 2 -7 24 -65 25
-77 1z"/>
<path d="M14082 2395 l2 -60 3 52 c3 41 8 53 23 58 31 10 40 -3 40 -56 0 -27
5 -49 10 -49 13 0 13 76 0 101 -8 14 -20 18 -45 16 l-35 -2 2 -60z"/>
<path d="M14216 2438 c-9 -12 -16 -29 -16 -38 0 -9 7 -26 16 -38 22 -31 63
-26 84 11 13 24 13 30 0 55 -21 36 -62 41 -84 10z m60 4 c23 -15 25 -49 5 -73
-16 -20 -23 -22 -38 -13 -22 13 -29 60 -12 80 13 15 28 18 45 6z"/>
<path d="M14406 2438 c-9 -12 -16 -29 -16 -38 0 -9 7 -26 16 -38 22 -31 63
-26 84 11 13 24 13 30 0 55 -21 36 -62 41 -84 10z m60 4 c23 -15 25 -49 5 -73
-16 -20 -23 -22 -38 -13 -22 13 -29 60 -12 80 13 15 28 18 45 6z"/>
<path d="M14540 2441 c-18 -34 -12 -69 16 -87 19 -13 28 -14 37 -5 18 18 29
13 25 -11 -2 -19 -9 -23 -41 -23 -20 0 -37 -3 -37 -6 0 -12 42 -18 66 -9 22 9
24 14 24 87 0 48 -4 73 -9 64 -6 -9 -11 -10 -15 -2 -12 18 -54 13 -66 -8z m72
-17 c15 -32 0 -59 -32 -59 -13 0 -28 8 -33 17 -15 23 6 68 33 68 12 0 25 -10
32 -26z"/>
<path d="M14685 2397 c24 -64 23 -79 -5 -90 -10 -5 -9 -6 5 -4 14 2 27 21 48
71 15 39 26 74 24 79 -2 6 -12 -14 -24 -44 l-20 -54 -19 53 c-10 28 -22 52
-26 52 -4 0 4 -28 17 -63z"/>
<path d="M14790 2356 c0 -9 5 -16 10 -16 6 0 10 4 10 9 0 6 -4 13 -10 16 -5 3
-10 -1 -10 -9z"/>
<path d="M7550 2350 c0 -5 5 -10 10 -10 6 0 10 5 10 10 0 6 -4 10 -10 10 -5 0
-10 -4 -10 -10z"/>
<path d="M7932 1476 c7 -8 16 -12 21 -9 11 7 -2 23 -19 23 -12 0 -12 -2 -2
-14z"/>
<path d="M7970 1475 c0 -8 2 -15 4 -15 2 0 6 7 10 15 3 8 1 15 -4 15 -6 0 -10
-7 -10 -15z"/>
<path d="M7857 1394 c-3 -3 -3 -13 0 -21 5 -12 7 -12 14 -1 15 23 4 40 -14 22z"/>
<path d="M7705 1299 c-4 -6 -5 -12 -2 -15 2 -3 7 2 10 11 7 17 1 20 -8 4z"/>
<path d="M7192 1251 c-11 -6 -7 -13 16 -30 39 -27 44 -27 40 7 -3 28 -31 40
-56 23z"/>
<path d="M7165 1198 c4 -18 9 -43 12 -55 3 -13 0 -23 -6 -23 -6 0 -11 -15 -10
-32 1 -30 2 -31 8 -8 10 35 24 8 16 -29 -9 -41 -41 -100 -62 -117 -17 -13 -17
-13 2 -14 18 0 20 -6 17 -55 -3 -44 -7 -54 -17 -45 -33 27 -60 -31 -44 -94 10
-35 105 -174 141 -204 27 -23 28 -27 28 -113 0 -49 3 -89 7 -89 3 0 15 7 25
17 17 15 18 15 18 -13 0 -16 -7 -87 -15 -159 -8 -72 -15 -136 -15 -142 0 -10
-738 -13 -3637 -16 -2001 -1 680 -2 5957 -2 5277 0 8128 1 6335 3 l-3260 2
-52 88 c-54 88 -141 207 -149 200 -2 -2 -4 -68 -5 -146 l-1 -142 -634 0 c-562
0 -637 2 -667 16 -31 15 -38 15 -90 0 -47 -14 -121 -16 -512 -16 l-457 0 -44
32 c-24 17 -44 37 -44 44 0 16 41 31 260 97 352 106 522 149 560 144 21 -3 99
-32 175 -66 137 -61 195 -75 195 -47 0 8 -9 22 -21 30 -12 8 -18 19 -15 24 6
10 20 8 132 -24 60 -17 64 -17 64 -4 0 5 -17 20 -37 34 -21 13 -50 35 -65 49
-16 14 -36 31 -45 36 -15 8 -10 10 22 11 l40 0 -25 20 c-14 11 -30 20 -35 20
-26 0 -34 23 -19 51 8 17 12 39 8 54 -5 20 -2 25 12 25 15 0 12 6 -13 26 -31
24 -32 28 -32 97 0 40 -4 88 -10 107 -6 19 -11 50 -11 67 0 39 -2 39 -140 18
-365 -55 -703 -240 -948 -518 -73 -82 -162 -208 -198 -279 l-24 -48 -201 0
-201 0 5 29 c14 70 19 131 10 131 -5 0 -18 6 -29 14 -17 14 -16 14 16 7 52
-11 69 -4 67 26 -3 40 16 37 37 -6 20 -42 50 -61 96 -61 21 0 30 -5 30 -16 0
-11 6 -13 19 -9 11 3 22 1 26 -5 12 -20 22 -9 88 88 36 53 83 122 105 154 40
56 44 72 15 61 -13 -5 -15 -1 -9 20 5 20 1 30 -19 45 -14 11 -25 27 -25 35 0
17 -31 32 -39 19 -12 -19 -37 -19 -58 0 -17 16 -25 18 -41 9 -12 -6 -33 -11
-48 -11 -22 0 -25 3 -16 12 7 7 12 19 12 28 -1 22 -30 -18 -30 -42 0 -10 -5
-18 -11 -18 -8 0 -9 17 -3 58 8 60 7 125 -2 155 -9 27 -31 20 -37 -13 -5 -24
-12 -30 -31 -30 -14 0 -27 -4 -31 -9 -3 -5 -18 -12 -35 -16 -16 -3 -41 -16
-55 -27 -26 -20 -32 -20 -118 -9 -423 53 -832 107 -1102 146 -254 36 -387 55
-420 60 -173 26 -325 45 -365 45 -70 0 -76 -12 -99 -219 -11 -95 -22 -175 -25
-178 -2 -2 -7 44 -11 104 -8 139 -9 141 -51 149 -19 3 -34 10 -34 14 0 4 -12
12 -26 19 -25 11 -26 14 -20 69 4 31 7 83 6 115 -1 47 2 57 16 57 12 0 15 6
11 21 -7 28 3 56 14 38 5 -8 10 2 14 27 10 61 14 67 35 61 11 -3 20 -1 20 3 0
5 -14 12 -32 15 -17 4 -43 18 -57 31 -35 32 -44 30 -36 -8z m505 -443 c96 -14
243 -35 325 -46 164 -22 671 -93 965 -134 102 -15 219 -31 260 -37 41 -5 79
-14 84 -18 5 -5 -1 -24 -13 -43 -25 -40 -27 -65 -6 -73 9 -4 15 -19 15 -39 0
-20 6 -35 15 -39 12 -4 13 -11 4 -33 -17 -46 -5 -70 41 -77 35 -5 39 -9 31
-24 -5 -9 -15 -54 -21 -100 l-12 -82 -1010 0 -1009 0 5 43 c12 91 59 511 72
637 10 98 10 99 47 94 17 -2 111 -15 207 -29z m1960 -249 c0 -2 -7 -7 -16 -10
-8 -3 -12 -2 -9 4 6 10 25 14 25 6z m-70 -136 c0 -11 -4 -20 -10 -20 -5 0 -10
9 -10 20 0 11 5 20 10 20 6 0 10 -9 10 -20z m1587 -356 c-3 -3 -12 -4 -19 -1
-8 3 -5 6 6 6 11 1 17 -2 13 -5z"/>
<path d="M7605 720 c3 -5 8 -10 11 -10 2 0 4 5 4 10 0 6 -5 10 -11 10 -5 0 -7
-4 -4 -10z"/>
<path d="M7600 1161 c0 -6 5 -13 10 -16 6 -3 10 1 10 9 0 9 -4 16 -10 16 -5 0
-10 -4 -10 -9z"/>
<path d="M7842 1141 c-24 -6 -24 -6 -4 -24 20 -18 20 -18 27 3 8 26 6 28 -23
21z"/>
<path d="M6970 1099 c0 -5 5 -7 10 -4 6 3 10 8 10 11 0 2 -4 4 -10 4 -5 0 -10
-5 -10 -11z"/>
<path d="M7062 1042 c-12 -38 -22 -75 -22 -83 1 -20 28 45 36 85 3 19 13 37
21 40 14 6 10 26 -6 26 -4 0 -17 -31 -29 -68z"/>
<path d="M7736 1071 c-4 -6 0 -14 8 -17 9 -3 14 -10 11 -14 -9 -14 23 -19 34
-6 8 10 8 16 -2 25 -8 6 -17 8 -21 4 -4 -4 -11 -1 -15 6 -6 9 -11 10 -15 2z"/>
<path d="M6855 1019 c-4 -6 -5 -13 -2 -16 7 -7 27 6 27 18 0 12 -17 12 -25 -2z"/>
<path d="M9700 844 c0 -26 -1 -27 -19 -10 -24 22 -41 13 -41 -21 0 -16 -7 -27
-20 -30 -11 -3 -20 -10 -20 -15 0 -6 7 -7 15 -4 9 3 23 2 33 -3 9 -5 29 -14
44 -19 31 -13 63 -56 53 -72 -3 -5 -17 -7 -31 -4 -20 5 -24 2 -24 -15 0 -21 6
-24 50 -22 14 0 19 -2 12 -5 -9 -4 -5 -12 12 -25 28 -22 46 -24 46 -6 0 8 9
22 19 31 11 10 25 30 31 46 11 26 9 32 -17 64 -16 20 -37 36 -49 36 -31 0 -55
23 -63 60 -8 42 -31 53 -31 14z"/>
<path d="M6641 806 c-18 -20 -21 -28 -12 -44 6 -12 11 -30 11 -42 0 -17 4 -20
23 -15 21 7 21 6 3 -8 -18 -13 -19 -20 -8 -98 7 -46 12 -107 12 -134 0 -39 4
-53 19 -62 30 -19 53 -76 49 -124 -3 -42 -5 -44 -33 -43 -16 0 -37 4 -46 8
-14 6 -18 0 -21 -31 -3 -21 -3 -41 -1 -46 6 -10 135 -9 152 2 11 7 11 24 -2
107 -27 168 -29 192 -17 214 15 29 101 67 168 76 29 3 56 12 58 18 6 16 -24
98 -39 108 -7 4 -27 8 -45 8 -25 0 -35 5 -42 24 -11 30 -60 42 -60 15 0 -25
-21 -24 -27 1 -3 11 -7 20 -10 20 -9 0 -48 -23 -54 -33 -15 -22 -30 7 -27 51
4 56 -15 66 -51 28z"/>
<path d="M7025 750 c-3 -6 -17 -8 -30 -6 -16 3 -25 -1 -28 -14 -3 -13 0 -17
13 -15 23 4 60 28 60 37 0 11 -8 10 -15 -2z"/>
<path d="M6559 712 c-64 -65 -185 -253 -223 -344 -14 -33 -14 -37 -1 -32 32
13 45 -15 45 -100 0 -88 7 -126 22 -126 6 0 23 14 38 30 l28 30 41 -21 c23
-12 47 -19 55 -16 9 4 17 32 22 79 10 88 8 114 -17 193 -17 54 -18 72 -8 180
6 66 15 128 20 138 13 23 9 21 -22 -11z"/>
<path d="M9867 659 c-9 -33 13 -59 48 -58 16 0 24 3 18 6 -7 2 -13 10 -13 16
-1 12 -34 57 -43 57 -3 0 -7 -10 -10 -21z"/>
<path d="M11428 653 c-20 -5 -23 -18 -8 -28 12 -7 50 12 50 25 0 10 -12 11
-42 3z"/>
<path d="M11340 335 c19 -23 142 -77 152 -67 14 14 -23 40 -87 62 -69 24 -81
25 -65 5z"/>
<path d="M6660 280 c0 -32 14 -40 24 -14 10 27 7 44 -9 44 -10 0 -15 -10 -15
-30z"/>
<path d="M19035 130 l29 -30 28 27 c15 15 28 28 28 30 0 2 -26 3 -57 3 l-57 0
29 -30z"/>
</g>
</svg>
